<?xml version="1.0" encoding="utf-8" standalone="no"?>
<!DOCTYPE svg PUBLIC "-//W3C//DTD SVG 1.1//EN"
  "http://www.w3.org/Graphics/SVG/1.1/DTD/svg11.dtd">
<svg xmlns:xlink="http://www.w3.org/1999/xlink" width="460.8pt" height="345.6pt" viewBox="0 0 460.8 345.6" xmlns="http://www.w3.org/2000/svg" version="1.1">
 <metadata>
  <rdf:RDF xmlns:dc="http://purl.org/dc/elements/1.1/" xmlns:cc="http://creativecommons.org/ns#" xmlns:rdf="http://www.w3.org/1999/02/22-rdf-syntax-ns#">
   <cc:Work>
    <dc:type rdf:resource="http://purl.org/dc/dcmitype/StillImage"/>
    <dc:date>2024-03-14T17:37:30.189543</dc:date>
    <dc:format>image/svg+xml</dc:format>
    <dc:creator>
     <cc:Agent>
      <dc:title>Matplotlib v3.8.3, https://matplotlib.org/</dc:title>
     </cc:Agent>
    </dc:creator>
   </cc:Work>
  </rdf:RDF>
 </metadata>
 <defs>
  <style type="text/css">*{stroke-linejoin: round; stroke-linecap: butt}</style>
 </defs>
 <g id="figure_1">
  <g id="patch_1">
   <path d="M 0 345.6 
L 460.8 345.6 
L 460.8 0 
L 0 0 
L 0 345.6 
z
" style="fill: none"/>
  </g>
  <g id="axes_1">
   <g id="patch_2">
    <path d="M 48.44 303.64 
L 397.344196 303.64 
L 397.344196 10.8 
L 48.44 10.8 
L 48.44 303.64 
z
" style="fill: none"/>
   </g>
   <g id="PathCollection_1">
    <defs>
     <path id="C0_0_d90bafa7c4" d="M 0 3 
C 0.795609 3 1.55874 2.683901 2.12132 2.12132 
C 2.683901 1.55874 3 0.795609 3 -0 
C 3 -0.795609 2.683901 -1.55874 2.12132 -2.12132 
C 1.55874 -2.683901 0.795609 -3 0 -3 
C -0.795609 -3 -1.55874 -2.683901 -2.12132 -2.12132 
C -2.683901 -1.55874 -3 -0.795609 -3 0 
C -3 0.795609 -2.683901 1.55874 -2.12132 2.12132 
C -1.55874 2.683901 -0.795609 3 0 3 
z
"/>
    </defs>
    <g clip-path="url(#p1d8a1e5545)">
     <use xlink:href="#C0_0_d90bafa7c4" x="64.299282" y="35.203333" style="fill: none; stroke: #ee3377"/>
    </g>
    <g clip-path="url(#p1d8a1e5545)">
     <use xlink:href="#C0_0_d90bafa7c4" x="76.046898" y="57.987482" style="fill: none; stroke: #ee3377"/>
    </g>
    <g clip-path="url(#p1d8a1e5545)">
     <use xlink:href="#C0_0_d90bafa7c4" x="87.794514" y="45.949079" style="fill: none; stroke: #ee3377"/>
    </g>
    <g clip-path="url(#p1d8a1e5545)">
     <use xlink:href="#C0_0_d90bafa7c4" x="99.54213" y="35.203333" style="fill: none; stroke: #ee3377"/>
    </g>
    <g clip-path="url(#p1d8a1e5545)">
     <use xlink:href="#C0_0_d90bafa7c4" x="111.289746" y="35.203333" style="fill: none; stroke: #ee3377"/>
    </g>
    <g clip-path="url(#p1d8a1e5545)">
     <use xlink:href="#C0_0_d90bafa7c4" x="123.037362" y="48.438189" style="fill: none; stroke: #ee3377"/>
    </g>
    <g clip-path="url(#p1d8a1e5545)">
     <use xlink:href="#C0_0_d90bafa7c4" x="134.784978" y="49.753833" style="fill: none; stroke: #ee3377"/>
    </g>
    <g clip-path="url(#p1d8a1e5545)">
     <use xlink:href="#C0_0_d90bafa7c4" x="146.532594" y="46.183853" style="fill: none; stroke: #ee3377"/>
    </g>
    <g clip-path="url(#p1d8a1e5545)">
     <use xlink:href="#C0_0_d90bafa7c4" x="158.28021" y="35.203333" style="fill: none; stroke: #ee3377"/>
    </g>
    <g clip-path="url(#p1d8a1e5545)">
     <use xlink:href="#C0_0_d90bafa7c4" x="170.027826" y="45.612273" style="fill: none; stroke: #ee3377"/>
    </g>
    <g clip-path="url(#p1d8a1e5545)">
     <use xlink:href="#C0_0_d90bafa7c4" x="181.775442" y="54.746371" style="fill: none; stroke: #ee3377"/>
    </g>
    <g clip-path="url(#p1d8a1e5545)">
     <use xlink:href="#C0_0_d90bafa7c4" x="193.523058" y="49.190434" style="fill: none; stroke: #ee3377"/>
    </g>
    <g clip-path="url(#p1d8a1e5545)">
     <use xlink:href="#C0_0_d90bafa7c4" x="205.270674" y="35.203333" style="fill: none; stroke: #ee3377"/>
    </g>
    <g clip-path="url(#p1d8a1e5545)">
     <use xlink:href="#C0_0_d90bafa7c4" x="217.01829" y="49.456911" style="fill: none; stroke: #ee3377"/>
    </g>
    <g clip-path="url(#p1d8a1e5545)">
     <use xlink:href="#C0_0_d90bafa7c4" x="228.765906" y="58.743757" style="fill: none; stroke: #ee3377"/>
    </g>
    <g clip-path="url(#p1d8a1e5545)">
     <use xlink:href="#C0_0_d90bafa7c4" x="240.513522" y="49.859463" style="fill: none; stroke: #ee3377"/>
    </g>
    <g clip-path="url(#p1d8a1e5545)">
     <use xlink:href="#C0_0_d90bafa7c4" x="252.261138" y="38.921266" style="fill: none; stroke: #ee3377"/>
    </g>
    <g clip-path="url(#p1d8a1e5545)">
     <use xlink:href="#C0_0_d90bafa7c4" x="264.008754" y="63.626076" style="fill: none; stroke: #ee3377"/>
    </g>
    <g clip-path="url(#p1d8a1e5545)">
     <use xlink:href="#C0_0_d90bafa7c4" x="275.75637" y="75.091784" style="fill: none; stroke: #ee3377"/>
    </g>
    <g clip-path="url(#p1d8a1e5545)">
     <use xlink:href="#C0_0_d90bafa7c4" x="287.503986" y="89.003853" style="fill: none; stroke: #ee3377"/>
    </g>
    <g clip-path="url(#p1d8a1e5545)">
     <use xlink:href="#C0_0_d90bafa7c4" x="299.251602" y="94.613241" style="fill: none; stroke: #ee3377"/>
    </g>
    <g clip-path="url(#p1d8a1e5545)">
     <use xlink:href="#C0_0_d90bafa7c4" x="310.999218" y="116.182162" style="fill: none; stroke: #ee3377"/>
    </g>
    <g clip-path="url(#p1d8a1e5545)">
     <use xlink:href="#C0_0_d90bafa7c4" x="322.746834" y="156.999119" style="fill: none; stroke: #ee3377"/>
    </g>
    <g clip-path="url(#p1d8a1e5545)">
     <use xlink:href="#C0_0_d90bafa7c4" x="334.49445" y="162.970978" style="fill: none; stroke: #ee3377"/>
    </g>
    <g clip-path="url(#p1d8a1e5545)">
     <use xlink:href="#C0_0_d90bafa7c4" x="346.242066" y="192.761349" style="fill: none; stroke: #ee3377"/>
    </g>
    <g clip-path="url(#p1d8a1e5545)">
     <use xlink:href="#C0_0_d90bafa7c4" x="357.989682" y="208.230884" style="fill: none; stroke: #ee3377"/>
    </g>
    <g clip-path="url(#p1d8a1e5545)">
     <use xlink:href="#C0_0_d90bafa7c4" x="369.737298" y="230.510714" style="fill: none; stroke: #ee3377"/>
    </g>
    <g clip-path="url(#p1d8a1e5545)">
     <use xlink:href="#C0_0_d90bafa7c4" x="381.484914" y="261.239144" style="fill: none; stroke: #ee3377"/>
    </g>
   </g>
   <g id="matplotlib.axis_1">
    <g id="xtick_1">
     <g id="line2d_1">
      <defs>
       <path id="m4d46ad7734" d="M 0 0 
L 0 3.5 
" style="stroke: #000000; stroke-width: 0.8"/>
      </defs>
      <g>
       <use xlink:href="#m4d46ad7734" x="52.551666" y="303.64" style="stroke: #000000; stroke-width: 0.8"/>
      </g>
     </g>
     <g id="text_1">
      <!-- 0 -->
      <g transform="translate(49.370416 318.238437) scale(0.1 -0.1)">
       <defs>
        <path id="DejaVuSans-30" d="M 2034 4250 
Q 1547 4250 1301 3770 
Q 1056 3291 1056 2328 
Q 1056 1369 1301 889 
Q 1547 409 2034 409 
Q 2525 409 2770 889 
Q 3016 1369 3016 2328 
Q 3016 3291 2770 3770 
Q 2525 4250 2034 4250 
z
M 2034 4750 
Q 2819 4750 3233 4129 
Q 3647 3509 3647 2328 
Q 3647 1150 3233 529 
Q 2819 -91 2034 -91 
Q 1250 -91 836 529 
Q 422 1150 422 2328 
Q 422 3509 836 4129 
Q 1250 4750 2034 4750 
z
" transform="scale(0.015625)"/>
       </defs>
       <use xlink:href="#DejaVuSans-30"/>
      </g>
     </g>
    </g>
    <g id="xtick_2">
     <g id="line2d_2">
      <g>
       <use xlink:href="#m4d46ad7734" x="111.289746" y="303.64" style="stroke: #000000; stroke-width: 0.8"/>
      </g>
     </g>
     <g id="text_2">
      <!-- 5 -->
      <g transform="translate(108.108496 318.238437) scale(0.1 -0.1)">
       <defs>
        <path id="DejaVuSans-35" d="M 691 4666 
L 3169 4666 
L 3169 4134 
L 1269 4134 
L 1269 2991 
Q 1406 3038 1543 3061 
Q 1681 3084 1819 3084 
Q 2600 3084 3056 2656 
Q 3513 2228 3513 1497 
Q 3513 744 3044 326 
Q 2575 -91 1722 -91 
Q 1428 -91 1123 -41 
Q 819 9 494 109 
L 494 744 
Q 775 591 1075 516 
Q 1375 441 1709 441 
Q 2250 441 2565 725 
Q 2881 1009 2881 1497 
Q 2881 1984 2565 2268 
Q 2250 2553 1709 2553 
Q 1456 2553 1204 2497 
Q 953 2441 691 2322 
L 691 4666 
z
" transform="scale(0.015625)"/>
       </defs>
       <use xlink:href="#DejaVuSans-35"/>
      </g>
     </g>
    </g>
    <g id="xtick_3">
     <g id="line2d_3">
      <g>
       <use xlink:href="#m4d46ad7734" x="170.027826" y="303.64" style="stroke: #000000; stroke-width: 0.8"/>
      </g>
     </g>
     <g id="text_3">
      <!-- 10 -->
      <g transform="translate(163.665326 318.238437) scale(0.1 -0.1)">
       <defs>
        <path id="DejaVuSans-31" d="M 794 531 
L 1825 531 
L 1825 4091 
L 703 3866 
L 703 4441 
L 1819 4666 
L 2450 4666 
L 2450 531 
L 3481 531 
L 3481 0 
L 794 0 
L 794 531 
z
" transform="scale(0.015625)"/>
       </defs>
       <use xlink:href="#DejaVuSans-31"/>
       <use xlink:href="#DejaVuSans-30" x="63.623047"/>
      </g>
     </g>
    </g>
    <g id="xtick_4">
     <g id="line2d_4">
      <g>
       <use xlink:href="#m4d46ad7734" x="228.765906" y="303.64" style="stroke: #000000; stroke-width: 0.8"/>
      </g>
     </g>
     <g id="text_4">
      <!-- 15 -->
      <g transform="translate(222.403406 318.238437) scale(0.1 -0.1)">
       <use xlink:href="#DejaVuSans-31"/>
       <use xlink:href="#DejaVuSans-35" x="63.623047"/>
      </g>
     </g>
    </g>
    <g id="xtick_5">
     <g id="line2d_5">
      <g>
       <use xlink:href="#m4d46ad7734" x="287.503986" y="303.64" style="stroke: #000000; stroke-width: 0.8"/>
      </g>
     </g>
     <g id="text_5">
      <!-- 20 -->
      <g transform="translate(281.141486 318.238437) scale(0.1 -0.1)">
       <defs>
        <path id="DejaVuSans-32" d="M 1228 531 
L 3431 531 
L 3431 0 
L 469 0 
L 469 531 
Q 828 903 1448 1529 
Q 2069 2156 2228 2338 
Q 2531 2678 2651 2914 
Q 2772 3150 2772 3378 
Q 2772 3750 2511 3984 
Q 2250 4219 1831 4219 
Q 1534 4219 1204 4116 
Q 875 4013 500 3803 
L 500 4441 
Q 881 4594 1212 4672 
Q 1544 4750 1819 4750 
Q 2544 4750 2975 4387 
Q 3406 4025 3406 3419 
Q 3406 3131 3298 2873 
Q 3191 2616 2906 2266 
Q 2828 2175 2409 1742 
Q 1991 1309 1228 531 
z
" transform="scale(0.015625)"/>
       </defs>
       <use xlink:href="#DejaVuSans-32"/>
       <use xlink:href="#DejaVuSans-30" x="63.623047"/>
      </g>
     </g>
    </g>
    <g id="xtick_6">
     <g id="line2d_6">
      <g>
       <use xlink:href="#m4d46ad7734" x="346.242066" y="303.64" style="stroke: #000000; stroke-width: 0.8"/>
      </g>
     </g>
     <g id="text_6">
      <!-- 25 -->
      <g transform="translate(339.879566 318.238437) scale(0.1 -0.1)">
       <use xlink:href="#DejaVuSans-32"/>
       <use xlink:href="#DejaVuSans-35" x="63.623047"/>
      </g>
     </g>
    </g>
    <g id="text_7">
     <!-- Number of (RC) elements -->
     <g transform="translate(159.379598 331.916562) scale(0.1 -0.1)">
      <defs>
       <path id="DejaVuSans-4e" d="M 628 4666 
L 1478 4666 
L 3547 763 
L 3547 4666 
L 4159 4666 
L 4159 0 
L 3309 0 
L 1241 3903 
L 1241 0 
L 628 0 
L 628 4666 
z
" transform="scale(0.015625)"/>
       <path id="DejaVuSans-75" d="M 544 1381 
L 544 3500 
L 1119 3500 
L 1119 1403 
Q 1119 906 1312 657 
Q 1506 409 1894 409 
Q 2359 409 2629 706 
Q 2900 1003 2900 1516 
L 2900 3500 
L 3475 3500 
L 3475 0 
L 2900 0 
L 2900 538 
Q 2691 219 2414 64 
Q 2138 -91 1772 -91 
Q 1169 -91 856 284 
Q 544 659 544 1381 
z
M 1991 3584 
L 1991 3584 
z
" transform="scale(0.015625)"/>
       <path id="DejaVuSans-6d" d="M 3328 2828 
Q 3544 3216 3844 3400 
Q 4144 3584 4550 3584 
Q 5097 3584 5394 3201 
Q 5691 2819 5691 2113 
L 5691 0 
L 5113 0 
L 5113 2094 
Q 5113 2597 4934 2840 
Q 4756 3084 4391 3084 
Q 3944 3084 3684 2787 
Q 3425 2491 3425 1978 
L 3425 0 
L 2847 0 
L 2847 2094 
Q 2847 2600 2669 2842 
Q 2491 3084 2119 3084 
Q 1678 3084 1418 2786 
Q 1159 2488 1159 1978 
L 1159 0 
L 581 0 
L 581 3500 
L 1159 3500 
L 1159 2956 
Q 1356 3278 1631 3431 
Q 1906 3584 2284 3584 
Q 2666 3584 2933 3390 
Q 3200 3197 3328 2828 
z
" transform="scale(0.015625)"/>
       <path id="DejaVuSans-62" d="M 3116 1747 
Q 3116 2381 2855 2742 
Q 2594 3103 2138 3103 
Q 1681 3103 1420 2742 
Q 1159 2381 1159 1747 
Q 1159 1113 1420 752 
Q 1681 391 2138 391 
Q 2594 391 2855 752 
Q 3116 1113 3116 1747 
z
M 1159 2969 
Q 1341 3281 1617 3432 
Q 1894 3584 2278 3584 
Q 2916 3584 3314 3078 
Q 3713 2572 3713 1747 
Q 3713 922 3314 415 
Q 2916 -91 2278 -91 
Q 1894 -91 1617 61 
Q 1341 213 1159 525 
L 1159 0 
L 581 0 
L 581 4863 
L 1159 4863 
L 1159 2969 
z
" transform="scale(0.015625)"/>
       <path id="DejaVuSans-65" d="M 3597 1894 
L 3597 1613 
L 953 1613 
Q 991 1019 1311 708 
Q 1631 397 2203 397 
Q 2534 397 2845 478 
Q 3156 559 3463 722 
L 3463 178 
Q 3153 47 2828 -22 
Q 2503 -91 2169 -91 
Q 1331 -91 842 396 
Q 353 884 353 1716 
Q 353 2575 817 3079 
Q 1281 3584 2069 3584 
Q 2775 3584 3186 3129 
Q 3597 2675 3597 1894 
z
M 3022 2063 
Q 3016 2534 2758 2815 
Q 2500 3097 2075 3097 
Q 1594 3097 1305 2825 
Q 1016 2553 972 2059 
L 3022 2063 
z
" transform="scale(0.015625)"/>
       <path id="DejaVuSans-72" d="M 2631 2963 
Q 2534 3019 2420 3045 
Q 2306 3072 2169 3072 
Q 1681 3072 1420 2755 
Q 1159 2438 1159 1844 
L 1159 0 
L 581 0 
L 581 3500 
L 1159 3500 
L 1159 2956 
Q 1341 3275 1631 3429 
Q 1922 3584 2338 3584 
Q 2397 3584 2469 3576 
Q 2541 3569 2628 3553 
L 2631 2963 
z
" transform="scale(0.015625)"/>
       <path id="DejaVuSans-20" transform="scale(0.015625)"/>
       <path id="DejaVuSans-6f" d="M 1959 3097 
Q 1497 3097 1228 2736 
Q 959 2375 959 1747 
Q 959 1119 1226 758 
Q 1494 397 1959 397 
Q 2419 397 2687 759 
Q 2956 1122 2956 1747 
Q 2956 2369 2687 2733 
Q 2419 3097 1959 3097 
z
M 1959 3584 
Q 2709 3584 3137 3096 
Q 3566 2609 3566 1747 
Q 3566 888 3137 398 
Q 2709 -91 1959 -91 
Q 1206 -91 779 398 
Q 353 888 353 1747 
Q 353 2609 779 3096 
Q 1206 3584 1959 3584 
z
" transform="scale(0.015625)"/>
       <path id="DejaVuSans-66" d="M 2375 4863 
L 2375 4384 
L 1825 4384 
Q 1516 4384 1395 4259 
Q 1275 4134 1275 3809 
L 1275 3500 
L 2222 3500 
L 2222 3053 
L 1275 3053 
L 1275 0 
L 697 0 
L 697 3053 
L 147 3053 
L 147 3500 
L 697 3500 
L 697 3744 
Q 697 4328 969 4595 
Q 1241 4863 1831 4863 
L 2375 4863 
z
" transform="scale(0.015625)"/>
       <path id="DejaVuSans-28" d="M 1984 4856 
Q 1566 4138 1362 3434 
Q 1159 2731 1159 2009 
Q 1159 1288 1364 580 
Q 1569 -128 1984 -844 
L 1484 -844 
Q 1016 -109 783 600 
Q 550 1309 550 2009 
Q 550 2706 781 3412 
Q 1013 4119 1484 4856 
L 1984 4856 
z
" transform="scale(0.015625)"/>
       <path id="DejaVuSans-52" d="M 2841 2188 
Q 3044 2119 3236 1894 
Q 3428 1669 3622 1275 
L 4263 0 
L 3584 0 
L 2988 1197 
Q 2756 1666 2539 1819 
Q 2322 1972 1947 1972 
L 1259 1972 
L 1259 0 
L 628 0 
L 628 4666 
L 2053 4666 
Q 2853 4666 3247 4331 
Q 3641 3997 3641 3322 
Q 3641 2881 3436 2590 
Q 3231 2300 2841 2188 
z
M 1259 4147 
L 1259 2491 
L 2053 2491 
Q 2509 2491 2742 2702 
Q 2975 2913 2975 3322 
Q 2975 3731 2742 3939 
Q 2509 4147 2053 4147 
L 1259 4147 
z
" transform="scale(0.015625)"/>
       <path id="DejaVuSans-43" d="M 4122 4306 
L 4122 3641 
Q 3803 3938 3442 4084 
Q 3081 4231 2675 4231 
Q 1875 4231 1450 3742 
Q 1025 3253 1025 2328 
Q 1025 1406 1450 917 
Q 1875 428 2675 428 
Q 3081 428 3442 575 
Q 3803 722 4122 1019 
L 4122 359 
Q 3791 134 3420 21 
Q 3050 -91 2638 -91 
Q 1578 -91 968 557 
Q 359 1206 359 2328 
Q 359 3453 968 4101 
Q 1578 4750 2638 4750 
Q 3056 4750 3426 4639 
Q 3797 4528 4122 4306 
z
" transform="scale(0.015625)"/>
       <path id="DejaVuSans-29" d="M 513 4856 
L 1013 4856 
Q 1481 4119 1714 3412 
Q 1947 2706 1947 2009 
Q 1947 1309 1714 600 
Q 1481 -109 1013 -844 
L 513 -844 
Q 928 -128 1133 580 
Q 1338 1288 1338 2009 
Q 1338 2731 1133 3434 
Q 928 4138 513 4856 
z
" transform="scale(0.015625)"/>
       <path id="DejaVuSans-6c" d="M 603 4863 
L 1178 4863 
L 1178 0 
L 603 0 
L 603 4863 
z
" transform="scale(0.015625)"/>
       <path id="DejaVuSans-6e" d="M 3513 2113 
L 3513 0 
L 2938 0 
L 2938 2094 
Q 2938 2591 2744 2837 
Q 2550 3084 2163 3084 
Q 1697 3084 1428 2787 
Q 1159 2491 1159 1978 
L 1159 0 
L 581 0 
L 581 3500 
L 1159 3500 
L 1159 2956 
Q 1366 3272 1645 3428 
Q 1925 3584 2291 3584 
Q 2894 3584 3203 3211 
Q 3513 2838 3513 2113 
z
" transform="scale(0.015625)"/>
       <path id="DejaVuSans-74" d="M 1172 4494 
L 1172 3500 
L 2356 3500 
L 2356 3053 
L 1172 3053 
L 1172 1153 
Q 1172 725 1289 603 
Q 1406 481 1766 481 
L 2356 481 
L 2356 0 
L 1766 0 
Q 1100 0 847 248 
Q 594 497 594 1153 
L 594 3053 
L 172 3053 
L 172 3500 
L 594 3500 
L 594 4494 
L 1172 4494 
z
" transform="scale(0.015625)"/>
       <path id="DejaVuSans-73" d="M 2834 3397 
L 2834 2853 
Q 2591 2978 2328 3040 
Q 2066 3103 1784 3103 
Q 1356 3103 1142 2972 
Q 928 2841 928 2578 
Q 928 2378 1081 2264 
Q 1234 2150 1697 2047 
L 1894 2003 
Q 2506 1872 2764 1633 
Q 3022 1394 3022 966 
Q 3022 478 2636 193 
Q 2250 -91 1575 -91 
Q 1294 -91 989 -36 
Q 684 19 347 128 
L 347 722 
Q 666 556 975 473 
Q 1284 391 1588 391 
Q 1994 391 2212 530 
Q 2431 669 2431 922 
Q 2431 1156 2273 1281 
Q 2116 1406 1581 1522 
L 1381 1569 
Q 847 1681 609 1914 
Q 372 2147 372 2553 
Q 372 3047 722 3315 
Q 1072 3584 1716 3584 
Q 2034 3584 2315 3537 
Q 2597 3491 2834 3397 
z
" transform="scale(0.015625)"/>
      </defs>
      <use xlink:href="#DejaVuSans-4e"/>
      <use xlink:href="#DejaVuSans-75" x="74.804688"/>
      <use xlink:href="#DejaVuSans-6d" x="138.183594"/>
      <use xlink:href="#DejaVuSans-62" x="235.595703"/>
      <use xlink:href="#DejaVuSans-65" x="299.072266"/>
      <use xlink:href="#DejaVuSans-72" x="360.595703"/>
      <use xlink:href="#DejaVuSans-20" x="401.708984"/>
      <use xlink:href="#DejaVuSans-6f" x="433.496094"/>
      <use xlink:href="#DejaVuSans-66" x="494.677734"/>
      <use xlink:href="#DejaVuSans-20" x="529.882812"/>
      <use xlink:href="#DejaVuSans-28" x="561.669922"/>
      <use xlink:href="#DejaVuSans-52" x="600.683594"/>
      <use xlink:href="#DejaVuSans-43" x="665.166016"/>
      <use xlink:href="#DejaVuSans-29" x="734.990234"/>
      <use xlink:href="#DejaVuSans-20" x="774.003906"/>
      <use xlink:href="#DejaVuSans-65" x="805.791016"/>
      <use xlink:href="#DejaVuSans-6c" x="867.314453"/>
      <use xlink:href="#DejaVuSans-65" x="895.097656"/>
      <use xlink:href="#DejaVuSans-6d" x="956.621094"/>
      <use xlink:href="#DejaVuSans-65" x="1054.033203"/>
      <use xlink:href="#DejaVuSans-6e" x="1115.556641"/>
      <use xlink:href="#DejaVuSans-74" x="1178.935547"/>
      <use xlink:href="#DejaVuSans-73" x="1218.144531"/>
     </g>
    </g>
   </g>
   <g id="matplotlib.axis_2">
    <g id="ytick_1">
     <g id="line2d_7">
      <defs>
       <path id="ma9794933dd" d="M 0 0 
L -3.5 0 
" style="stroke: #000000; stroke-width: 0.8"/>
      </defs>
      <g>
       <use xlink:href="#ma9794933dd" x="48.44" y="279.236667" style="stroke: #000000; stroke-width: 0.8"/>
      </g>
     </g>
     <g id="text_8">
      <!-- 0.0 -->
      <g transform="translate(25.536875 283.035885) scale(0.1 -0.1)">
       <defs>
        <path id="DejaVuSans-2e" d="M 684 794 
L 1344 794 
L 1344 0 
L 684 0 
L 684 794 
z
" transform="scale(0.015625)"/>
       </defs>
       <use xlink:href="#DejaVuSans-30"/>
       <use xlink:href="#DejaVuSans-2e" x="63.623047"/>
       <use xlink:href="#DejaVuSans-30" x="95.410156"/>
      </g>
     </g>
    </g>
    <g id="ytick_2">
     <g id="line2d_8">
      <g>
       <use xlink:href="#ma9794933dd" x="48.44" y="230.43" style="stroke: #000000; stroke-width: 0.8"/>
      </g>
     </g>
     <g id="text_9">
      <!-- 0.2 -->
      <g transform="translate(25.536875 234.229219) scale(0.1 -0.1)">
       <use xlink:href="#DejaVuSans-30"/>
       <use xlink:href="#DejaVuSans-2e" x="63.623047"/>
       <use xlink:href="#DejaVuSans-32" x="95.410156"/>
      </g>
     </g>
    </g>
    <g id="ytick_3">
     <g id="line2d_9">
      <g>
       <use xlink:href="#ma9794933dd" x="48.44" y="181.623333" style="stroke: #000000; stroke-width: 0.8"/>
      </g>
     </g>
     <g id="text_10">
      <!-- 0.4 -->
      <g transform="translate(25.536875 185.422552) scale(0.1 -0.1)">
       <defs>
        <path id="DejaVuSans-34" d="M 2419 4116 
L 825 1625 
L 2419 1625 
L 2419 4116 
z
M 2253 4666 
L 3047 4666 
L 3047 1625 
L 3713 1625 
L 3713 1100 
L 3047 1100 
L 3047 0 
L 2419 0 
L 2419 1100 
L 313 1100 
L 313 1709 
L 2253 4666 
z
" transform="scale(0.015625)"/>
       </defs>
       <use xlink:href="#DejaVuSans-30"/>
       <use xlink:href="#DejaVuSans-2e" x="63.623047"/>
       <use xlink:href="#DejaVuSans-34" x="95.410156"/>
      </g>
     </g>
    </g>
    <g id="ytick_4">
     <g id="line2d_10">
      <g>
       <use xlink:href="#ma9794933dd" x="48.44" y="132.816667" style="stroke: #000000; stroke-width: 0.8"/>
      </g>
     </g>
     <g id="text_11">
      <!-- 0.6 -->
      <g transform="translate(25.536875 136.615885) scale(0.1 -0.1)">
       <defs>
        <path id="DejaVuSans-36" d="M 2113 2584 
Q 1688 2584 1439 2293 
Q 1191 2003 1191 1497 
Q 1191 994 1439 701 
Q 1688 409 2113 409 
Q 2538 409 2786 701 
Q 3034 994 3034 1497 
Q 3034 2003 2786 2293 
Q 2538 2584 2113 2584 
z
M 3366 4563 
L 3366 3988 
Q 3128 4100 2886 4159 
Q 2644 4219 2406 4219 
Q 1781 4219 1451 3797 
Q 1122 3375 1075 2522 
Q 1259 2794 1537 2939 
Q 1816 3084 2150 3084 
Q 2853 3084 3261 2657 
Q 3669 2231 3669 1497 
Q 3669 778 3244 343 
Q 2819 -91 2113 -91 
Q 1303 -91 875 529 
Q 447 1150 447 2328 
Q 447 3434 972 4092 
Q 1497 4750 2381 4750 
Q 2619 4750 2861 4703 
Q 3103 4656 3366 4563 
z
" transform="scale(0.015625)"/>
       </defs>
       <use xlink:href="#DejaVuSans-30"/>
       <use xlink:href="#DejaVuSans-2e" x="63.623047"/>
       <use xlink:href="#DejaVuSans-36" x="95.410156"/>
      </g>
     </g>
    </g>
    <g id="ytick_5">
     <g id="line2d_11">
      <g>
       <use xlink:href="#ma9794933dd" x="48.44" y="84.01" style="stroke: #000000; stroke-width: 0.8"/>
      </g>
     </g>
     <g id="text_12">
      <!-- 0.8 -->
      <g transform="translate(25.536875 87.809219) scale(0.1 -0.1)">
       <defs>
        <path id="DejaVuSans-38" d="M 2034 2216 
Q 1584 2216 1326 1975 
Q 1069 1734 1069 1313 
Q 1069 891 1326 650 
Q 1584 409 2034 409 
Q 2484 409 2743 651 
Q 3003 894 3003 1313 
Q 3003 1734 2745 1975 
Q 2488 2216 2034 2216 
z
M 1403 2484 
Q 997 2584 770 2862 
Q 544 3141 544 3541 
Q 544 4100 942 4425 
Q 1341 4750 2034 4750 
Q 2731 4750 3128 4425 
Q 3525 4100 3525 3541 
Q 3525 3141 3298 2862 
Q 3072 2584 2669 2484 
Q 3125 2378 3379 2068 
Q 3634 1759 3634 1313 
Q 3634 634 3220 271 
Q 2806 -91 2034 -91 
Q 1263 -91 848 271 
Q 434 634 434 1313 
Q 434 1759 690 2068 
Q 947 2378 1403 2484 
z
M 1172 3481 
Q 1172 3119 1398 2916 
Q 1625 2713 2034 2713 
Q 2441 2713 2670 2916 
Q 2900 3119 2900 3481 
Q 2900 3844 2670 4047 
Q 2441 4250 2034 4250 
Q 1625 4250 1398 4047 
Q 1172 3844 1172 3481 
z
" transform="scale(0.015625)"/>
       </defs>
       <use xlink:href="#DejaVuSans-30"/>
       <use xlink:href="#DejaVuSans-2e" x="63.623047"/>
       <use xlink:href="#DejaVuSans-38" x="95.410156"/>
      </g>
     </g>
    </g>
    <g id="ytick_6">
     <g id="line2d_12">
      <g>
       <use xlink:href="#ma9794933dd" x="48.44" y="35.203333" style="stroke: #000000; stroke-width: 0.8"/>
      </g>
     </g>
     <g id="text_13">
      <!-- 1.0 -->
      <g transform="translate(25.536875 39.002552) scale(0.1 -0.1)">
       <use xlink:href="#DejaVuSans-31"/>
       <use xlink:href="#DejaVuSans-2e" x="63.623047"/>
       <use xlink:href="#DejaVuSans-30" x="95.410156"/>
      </g>
     </g>
    </g>
    <g id="text_14">
     <!-- $\mu$ -->
     <g transform="translate(19.436875 160.42) rotate(-90) scale(0.1 -0.1)">
      <defs>
       <path id="DejaVuSans-Oblique-3bc" d="M -84 -1331 
L 856 3500 
L 1434 3500 
L 1009 1322 
Q 997 1256 987 1175 
Q 978 1094 978 1013 
Q 978 722 1161 565 
Q 1344 409 1684 409 
Q 2147 409 2431 671 
Q 2716 934 2816 1459 
L 3213 3500 
L 3788 3500 
L 3266 809 
Q 3253 750 3248 706 
Q 3244 663 3244 628 
Q 3244 531 3283 486 
Q 3322 441 3406 441 
Q 3438 441 3492 456 
Q 3547 472 3647 513 
L 3559 50 
Q 3422 -19 3297 -55 
Q 3172 -91 3053 -91 
Q 2847 -91 2730 40 
Q 2613 172 2613 403 
Q 2438 153 2195 31 
Q 1953 -91 1625 -91 
Q 1334 -91 1117 43 
Q 900 178 831 397 
L 494 -1331 
L -84 -1331 
z
" transform="scale(0.015625)"/>
      </defs>
      <use xlink:href="#DejaVuSans-Oblique-3bc" transform="translate(0 0.3125)"/>
     </g>
    </g>
   </g>
   <g id="line2d_13">
    <path d="M 275.75637 303.64 
L 275.75637 10.8 
" clip-path="url(#p1d8a1e5545)" style="fill: none; stroke-dasharray: 1.5,2.475; stroke-dashoffset: 0; stroke: #000000; stroke-opacity: 0.5; stroke-width: 1.5"/>
   </g>
   <g id="line2d_14">
    <path d="M 48.44 71.808333 
L 397.344196 71.808333 
" clip-path="url(#p1d8a1e5545)" style="fill: none; stroke: #cc3311; stroke-opacity: 0.5; stroke-width: 1.5; stroke-linecap: square"/>
   </g>
   <g id="line2d_15">
    <path d="M 64.299282 35.203333 
L 76.046898 57.987482 
L 87.794514 45.949079 
L 99.54213 35.203333 
L 111.289746 35.203333 
L 123.037362 48.438189 
L 134.784978 49.753833 
L 146.532594 46.183853 
L 158.28021 35.203333 
L 170.027826 45.612273 
L 181.775442 54.746371 
L 193.523058 49.190434 
L 205.270674 35.203333 
L 217.01829 49.456911 
L 228.765906 58.743757 
L 240.513522 49.859463 
L 252.261138 38.921266 
L 264.008754 63.626076 
L 275.75637 75.091784 
L 287.503986 89.003853 
L 299.251602 94.613241 
L 310.999218 116.182162 
L 322.746834 156.999119 
L 334.49445 162.970978 
L 346.242066 192.761349 
L 357.989682 208.230884 
L 369.737298 230.510714 
L 381.484914 261.239144 
" clip-path="url(#p1d8a1e5545)" style="fill: none; stroke-dasharray: 5.55,2.4; stroke-dashoffset: 0; stroke: #ee3377; stroke-width: 1.5"/>
   </g>
   <g id="patch_3">
    <path d="M 48.44 303.64 
L 48.44 10.8 
" style="fill: none; stroke: #000000; stroke-width: 0.8; stroke-linejoin: miter; stroke-linecap: square"/>
   </g>
   <g id="patch_4">
    <path d="M 397.344196 303.64 
L 397.344196 10.8 
" style="fill: none; stroke: #000000; stroke-width: 0.8; stroke-linejoin: miter; stroke-linecap: square"/>
   </g>
   <g id="patch_5">
    <path d="M 48.44 303.64 
L 397.344196 303.64 
" style="fill: none; stroke: #000000; stroke-width: 0.8; stroke-linejoin: miter; stroke-linecap: square"/>
   </g>
   <g id="patch_6">
    <path d="M 48.44 10.8 
L 397.344196 10.8 
" style="fill: none; stroke: #000000; stroke-width: 0.8; stroke-linejoin: miter; stroke-linecap: square"/>
   </g>
  </g>
  <g id="axes_2">
   <g id="PathCollection_2">
    <defs>
     <path id="C1_0_f65d4cdb06" d="M -3 3 
L 3 3 
L 3 -3 
L -3 -3 
z
"/>
    </defs>
    <g clip-path="url(#p1d8a1e5545)">
     <use xlink:href="#C1_0_f65d4cdb06" x="64.299282" y="24.110909" style="fill: none; stroke: #009988"/>
    </g>
    <g clip-path="url(#p1d8a1e5545)">
     <use xlink:href="#C1_0_f65d4cdb06" x="76.046898" y="30.820538" style="fill: none; stroke: #009988"/>
    </g>
    <g clip-path="url(#p1d8a1e5545)">
     <use xlink:href="#C1_0_f65d4cdb06" x="87.794514" y="47.273386" style="fill: none; stroke: #009988"/>
    </g>
    <g clip-path="url(#p1d8a1e5545)">
     <use xlink:href="#C1_0_f65d4cdb06" x="99.54213" y="72.593175" style="fill: none; stroke: #009988"/>
    </g>
    <g clip-path="url(#p1d8a1e5545)">
     <use xlink:href="#C1_0_f65d4cdb06" x="111.289746" y="134.612542" style="fill: none; stroke: #009988"/>
    </g>
    <g clip-path="url(#p1d8a1e5545)">
     <use xlink:href="#C1_0_f65d4cdb06" x="123.037362" y="100.72014" style="fill: none; stroke: #009988"/>
    </g>
    <g clip-path="url(#p1d8a1e5545)">
     <use xlink:href="#C1_0_f65d4cdb06" x="134.784978" y="106.178618" style="fill: none; stroke: #009988"/>
    </g>
    <g clip-path="url(#p1d8a1e5545)">
     <use xlink:href="#C1_0_f65d4cdb06" x="146.532594" y="129.992677" style="fill: none; stroke: #009988"/>
    </g>
    <g clip-path="url(#p1d8a1e5545)">
     <use xlink:href="#C1_0_f65d4cdb06" x="158.28021" y="227.103241" style="fill: none; stroke: #009988"/>
    </g>
    <g clip-path="url(#p1d8a1e5545)">
     <use xlink:href="#C1_0_f65d4cdb06" x="170.027826" y="157.781582" style="fill: none; stroke: #009988"/>
    </g>
    <g clip-path="url(#p1d8a1e5545)">
     <use xlink:href="#C1_0_f65d4cdb06" x="181.775442" y="162.725565" style="fill: none; stroke: #009988"/>
    </g>
    <g clip-path="url(#p1d8a1e5545)">
     <use xlink:href="#C1_0_f65d4cdb06" x="193.523058" y="187.049361" style="fill: none; stroke: #009988"/>
    </g>
    <g clip-path="url(#p1d8a1e5545)">
     <use xlink:href="#C1_0_f65d4cdb06" x="205.270674" y="238.521507" style="fill: none; stroke: #009988"/>
    </g>
    <g clip-path="url(#p1d8a1e5545)">
     <use xlink:href="#C1_0_f65d4cdb06" x="217.01829" y="210.960842" style="fill: none; stroke: #009988"/>
    </g>
    <g clip-path="url(#p1d8a1e5545)">
     <use xlink:href="#C1_0_f65d4cdb06" x="228.765906" y="216.938622" style="fill: none; stroke: #009988"/>
    </g>
    <g clip-path="url(#p1d8a1e5545)">
     <use xlink:href="#C1_0_f65d4cdb06" x="240.513522" y="234.840368" style="fill: none; stroke: #009988"/>
    </g>
    <g clip-path="url(#p1d8a1e5545)">
     <use xlink:href="#C1_0_f65d4cdb06" x="252.261138" y="253.787371" style="fill: none; stroke: #009988"/>
    </g>
    <g clip-path="url(#p1d8a1e5545)">
     <use xlink:href="#C1_0_f65d4cdb06" x="264.008754" y="255.100998" style="fill: none; stroke: #009988"/>
    </g>
    <g clip-path="url(#p1d8a1e5545)">
     <use xlink:href="#C1_0_f65d4cdb06" x="275.75637" y="258.305481" style="fill: none; stroke: #009988"/>
    </g>
    <g clip-path="url(#p1d8a1e5545)">
     <use xlink:href="#C1_0_f65d4cdb06" x="287.503986" y="266.201969" style="fill: none; stroke: #009988"/>
    </g>
    <g clip-path="url(#p1d8a1e5545)">
     <use xlink:href="#C1_0_f65d4cdb06" x="299.251602" y="270.573813" style="fill: none; stroke: #009988"/>
    </g>
    <g clip-path="url(#p1d8a1e5545)">
     <use xlink:href="#C1_0_f65d4cdb06" x="310.999218" y="273.868918" style="fill: none; stroke: #009988"/>
    </g>
    <g clip-path="url(#p1d8a1e5545)">
     <use xlink:href="#C1_0_f65d4cdb06" x="322.746834" y="278.848521" style="fill: none; stroke: #009988"/>
    </g>
    <g clip-path="url(#p1d8a1e5545)">
     <use xlink:href="#C1_0_f65d4cdb06" x="334.49445" y="283.195562" style="fill: none; stroke: #009988"/>
    </g>
    <g clip-path="url(#p1d8a1e5545)">
     <use xlink:href="#C1_0_f65d4cdb06" x="346.242066" y="288.084687" style="fill: none; stroke: #009988"/>
    </g>
    <g clip-path="url(#p1d8a1e5545)">
     <use xlink:href="#C1_0_f65d4cdb06" x="357.989682" y="290.329091" style="fill: none; stroke: #009988"/>
    </g>
    <g clip-path="url(#p1d8a1e5545)">
     <use xlink:href="#C1_0_f65d4cdb06" x="369.737298" y="272.083479" style="fill: none; stroke: #009988"/>
    </g>
    <g clip-path="url(#p1d8a1e5545)">
     <use xlink:href="#C1_0_f65d4cdb06" x="381.484914" y="252.887145" style="fill: none; stroke: #009988"/>
    </g>
   </g>
   <g id="matplotlib.axis_3">
    <g id="ytick_7">
     <g id="line2d_16">
      <defs>
       <path id="m1e2e3b0228" d="M 0 0 
L 3.5 0 
" style="stroke: #000000; stroke-width: 0.8"/>
      </defs>
      <g>
       <use xlink:href="#m1e2e3b0228" x="397.344196" y="270.23115" style="stroke: #000000; stroke-width: 0.8"/>
      </g>
     </g>
     <g id="text_15">
      <!-- $\mathdefault{10^{-7}}$ -->
      <g transform="translate(404.344196 274.030368) scale(0.1 -0.1)">
       <defs>
        <path id="DejaVuSans-2212" d="M 678 2272 
L 4684 2272 
L 4684 1741 
L 678 1741 
L 678 2272 
z
" transform="scale(0.015625)"/>
        <path id="DejaVuSans-37" d="M 525 4666 
L 3525 4666 
L 3525 4397 
L 1831 0 
L 1172 0 
L 2766 4134 
L 525 4134 
L 525 4666 
z
" transform="scale(0.015625)"/>
       </defs>
       <use xlink:href="#DejaVuSans-31" transform="translate(0 0.684375)"/>
       <use xlink:href="#DejaVuSans-30" transform="translate(63.623047 0.684375)"/>
       <use xlink:href="#DejaVuSans-2212" transform="translate(128.203125 38.965625) scale(0.7)"/>
       <use xlink:href="#DejaVuSans-37" transform="translate(186.855469 38.965625) scale(0.7)"/>
      </g>
     </g>
    </g>
    <g id="ytick_8">
     <g id="line2d_17">
      <g>
       <use xlink:href="#m1e2e3b0228" x="397.344196" y="207.769375" style="stroke: #000000; stroke-width: 0.8"/>
      </g>
     </g>
     <g id="text_16">
      <!-- $\mathdefault{10^{-5}}$ -->
      <g transform="translate(404.344196 211.568594) scale(0.1 -0.1)">
       <use xlink:href="#DejaVuSans-31" transform="translate(0 0.684375)"/>
       <use xlink:href="#DejaVuSans-30" transform="translate(63.623047 0.684375)"/>
       <use xlink:href="#DejaVuSans-2212" transform="translate(128.203125 38.965625) scale(0.7)"/>
       <use xlink:href="#DejaVuSans-35" transform="translate(186.855469 38.965625) scale(0.7)"/>
      </g>
     </g>
    </g>
    <g id="ytick_9">
     <g id="line2d_18">
      <g>
       <use xlink:href="#m1e2e3b0228" x="397.344196" y="145.307601" style="stroke: #000000; stroke-width: 0.8"/>
      </g>
     </g>
     <g id="text_17">
      <!-- $\mathdefault{10^{-3}}$ -->
      <g transform="translate(404.344196 149.106819) scale(0.1 -0.1)">
       <defs>
        <path id="DejaVuSans-33" d="M 2597 2516 
Q 3050 2419 3304 2112 
Q 3559 1806 3559 1356 
Q 3559 666 3084 287 
Q 2609 -91 1734 -91 
Q 1441 -91 1130 -33 
Q 819 25 488 141 
L 488 750 
Q 750 597 1062 519 
Q 1375 441 1716 441 
Q 2309 441 2620 675 
Q 2931 909 2931 1356 
Q 2931 1769 2642 2001 
Q 2353 2234 1838 2234 
L 1294 2234 
L 1294 2753 
L 1863 2753 
Q 2328 2753 2575 2939 
Q 2822 3125 2822 3475 
Q 2822 3834 2567 4026 
Q 2313 4219 1838 4219 
Q 1578 4219 1281 4162 
Q 984 4106 628 3988 
L 628 4550 
Q 988 4650 1302 4700 
Q 1616 4750 1894 4750 
Q 2613 4750 3031 4423 
Q 3450 4097 3450 3541 
Q 3450 3153 3228 2886 
Q 3006 2619 2597 2516 
z
" transform="scale(0.015625)"/>
       </defs>
       <use xlink:href="#DejaVuSans-31" transform="translate(0 0.765625)"/>
       <use xlink:href="#DejaVuSans-30" transform="translate(63.623047 0.765625)"/>
       <use xlink:href="#DejaVuSans-2212" transform="translate(128.203125 39.046875) scale(0.7)"/>
       <use xlink:href="#DejaVuSans-33" transform="translate(186.855469 39.046875) scale(0.7)"/>
      </g>
     </g>
    </g>
    <g id="ytick_10">
     <g id="line2d_19">
      <g>
       <use xlink:href="#m1e2e3b0228" x="397.344196" y="82.845826" style="stroke: #000000; stroke-width: 0.8"/>
      </g>
     </g>
     <g id="text_18">
      <!-- $\mathdefault{10^{-1}}$ -->
      <g transform="translate(404.344196 86.645045) scale(0.1 -0.1)">
       <use xlink:href="#DejaVuSans-31" transform="translate(0 0.684375)"/>
       <use xlink:href="#DejaVuSans-30" transform="translate(63.623047 0.684375)"/>
       <use xlink:href="#DejaVuSans-2212" transform="translate(128.203125 38.965625) scale(0.7)"/>
       <use xlink:href="#DejaVuSans-31" transform="translate(186.855469 38.965625) scale(0.7)"/>
      </g>
     </g>
    </g>
    <g id="ytick_11">
     <g id="line2d_20">
      <g>
       <use xlink:href="#m1e2e3b0228" x="397.344196" y="20.384052" style="stroke: #000000; stroke-width: 0.8"/>
      </g>
     </g>
     <g id="text_19">
      <!-- $\mathdefault{10^{1}}$ -->
      <g transform="translate(404.344196 24.18327) scale(0.1 -0.1)">
       <use xlink:href="#DejaVuSans-31" transform="translate(0 0.684375)"/>
       <use xlink:href="#DejaVuSans-30" transform="translate(63.623047 0.684375)"/>
       <use xlink:href="#DejaVuSans-31" transform="translate(128.203125 38.965625) scale(0.7)"/>
      </g>
     </g>
    </g>
    <g id="text_20">
     <!-- $\chi^{2}_{\rm ps.}$ -->
     <g transform="translate(440.944196 166.17) rotate(-90) scale(0.1 -0.1)">
      <defs>
       <path id="DejaVuSans-Oblique-3c7" d="M 1922 -781 
L 1691 416 
L 394 -1334 
L -284 -1334 
L 1553 1141 
L 1269 2613 
Q 1194 3006 713 3006 
L 559 3006 
L 653 3500 
L 872 3494 
Q 1675 3472 1775 2950 
L 2006 1753 
L 3303 3503 
L 3981 3503 
L 2144 1028 
L 2428 -444 
Q 2503 -838 2984 -838 
L 3138 -838 
L 3044 -1331 
L 2825 -1325 
Q 2022 -1303 1922 -781 
z
" transform="scale(0.015625)"/>
       <path id="DejaVuSans-70" d="M 1159 525 
L 1159 -1331 
L 581 -1331 
L 581 3500 
L 1159 3500 
L 1159 2969 
Q 1341 3281 1617 3432 
Q 1894 3584 2278 3584 
Q 2916 3584 3314 3078 
Q 3713 2572 3713 1747 
Q 3713 922 3314 415 
Q 2916 -91 2278 -91 
Q 1894 -91 1617 61 
Q 1341 213 1159 525 
z
M 3116 1747 
Q 3116 2381 2855 2742 
Q 2594 3103 2138 3103 
Q 1681 3103 1420 2742 
Q 1159 2381 1159 1747 
Q 1159 1113 1420 752 
Q 1681 391 2138 391 
Q 2594 391 2855 752 
Q 3116 1113 3116 1747 
z
" transform="scale(0.015625)"/>
      </defs>
      <use xlink:href="#DejaVuSans-Oblique-3c7" transform="translate(0 0.765625)"/>
      <use xlink:href="#DejaVuSans-32" transform="translate(63.652396 39.046875) scale(0.7)"/>
      <use xlink:href="#DejaVuSans-70" transform="translate(59.179688 -26.578125) scale(0.7)"/>
      <use xlink:href="#DejaVuSans-73" transform="translate(103.613281 -26.578125) scale(0.7)"/>
      <use xlink:href="#DejaVuSans-2e" transform="translate(140.083008 -26.578125) scale(0.7)"/>
     </g>
    </g>
   </g>
   <g id="line2d_21">
    <path d="M 64.299282 24.110909 
L 76.046898 30.820538 
L 87.794514 47.273386 
L 99.54213 72.593175 
L 111.289746 134.612542 
L 123.037362 100.72014 
L 134.784978 106.178618 
L 146.532594 129.992677 
L 158.28021 227.103241 
L 170.027826 157.781582 
L 181.775442 162.725565 
L 193.523058 187.049361 
L 205.270674 238.521507 
L 217.01829 210.960842 
L 228.765906 216.938622 
L 240.513522 234.840368 
L 252.261138 253.787371 
L 264.008754 255.100998 
L 275.75637 258.305481 
L 287.503986 266.201969 
L 299.251602 270.573813 
L 310.999218 273.868918 
L 322.746834 278.848521 
L 334.49445 283.195562 
L 346.242066 288.084687 
L 357.989682 290.329091 
L 369.737298 272.083479 
L 381.484914 252.887145 
" clip-path="url(#p1d8a1e5545)" style="fill: none; stroke-dasharray: 1.5,2.475; stroke-dashoffset: 0; stroke: #009988; stroke-width: 1.5"/>
   </g>
   <g id="patch_7">
    <path d="M 48.44 303.64 
L 48.44 10.8 
" style="fill: none; stroke: #000000; stroke-width: 0.8; stroke-linejoin: miter; stroke-linecap: square"/>
   </g>
   <g id="patch_8">
    <path d="M 397.344196 303.64 
L 397.344196 10.8 
" style="fill: none; stroke: #000000; stroke-width: 0.8; stroke-linejoin: miter; stroke-linecap: square"/>
   </g>
   <g id="patch_9">
    <path d="M 48.44 303.64 
L 397.344196 303.64 
" style="fill: none; stroke: #000000; stroke-width: 0.8; stroke-linejoin: miter; stroke-linecap: square"/>
   </g>
   <g id="patch_10">
    <path d="M 48.44 10.8 
L 397.344196 10.8 
" style="fill: none; stroke: #000000; stroke-width: 0.8; stroke-linejoin: miter; stroke-linecap: square"/>
   </g>
   <g id="legend_1">
    <g id="patch_11">
     <path d="M 315.428571 81.176563 
L 390.344196 81.176563 
Q 392.344196 81.176563 392.344196 79.176563 
L 392.344196 17.8 
Q 392.344196 15.8 390.344196 15.8 
L 315.428571 15.8 
Q 313.428571 15.8 313.428571 17.8 
L 313.428571 79.176563 
Q 313.428571 81.176563 315.428571 81.176563 
z
" style="fill: #ffffff; opacity: 0.8; stroke: #cccccc; stroke-linejoin: miter"/>
    </g>
    <g id="line2d_22">
     <path d="M 317.428571 23.898438 
L 327.428571 23.898438 
L 337.428571 23.898438 
" style="fill: none; stroke-dasharray: 1.5,2.475; stroke-dashoffset: 0; stroke: #000000; stroke-opacity: 0.5; stroke-width: 1.5"/>
    </g>
    <g id="text_21">
     <!-- #RC=19 -->
     <g transform="translate(345.428571 27.398438) scale(0.1 -0.1)">
      <defs>
       <path id="DejaVuSans-23" d="M 3272 2816 
L 2363 2816 
L 2100 1772 
L 3016 1772 
L 3272 2816 
z
M 2803 4594 
L 2478 3297 
L 3391 3297 
L 3719 4594 
L 4219 4594 
L 3897 3297 
L 4872 3297 
L 4872 2816 
L 3775 2816 
L 3519 1772 
L 4513 1772 
L 4513 1294 
L 3397 1294 
L 3072 0 
L 2572 0 
L 2894 1294 
L 1978 1294 
L 1656 0 
L 1153 0 
L 1478 1294 
L 494 1294 
L 494 1772 
L 1594 1772 
L 1856 2816 
L 850 2816 
L 850 3297 
L 1978 3297 
L 2297 4594 
L 2803 4594 
z
" transform="scale(0.015625)"/>
       <path id="DejaVuSans-3d" d="M 678 2906 
L 4684 2906 
L 4684 2381 
L 678 2381 
L 678 2906 
z
M 678 1631 
L 4684 1631 
L 4684 1100 
L 678 1100 
L 678 1631 
z
" transform="scale(0.015625)"/>
       <path id="DejaVuSans-39" d="M 703 97 
L 703 672 
Q 941 559 1184 500 
Q 1428 441 1663 441 
Q 2288 441 2617 861 
Q 2947 1281 2994 2138 
Q 2813 1869 2534 1725 
Q 2256 1581 1919 1581 
Q 1219 1581 811 2004 
Q 403 2428 403 3163 
Q 403 3881 828 4315 
Q 1253 4750 1959 4750 
Q 2769 4750 3195 4129 
Q 3622 3509 3622 2328 
Q 3622 1225 3098 567 
Q 2575 -91 1691 -91 
Q 1453 -91 1209 -44 
Q 966 3 703 97 
z
M 1959 2075 
Q 2384 2075 2632 2365 
Q 2881 2656 2881 3163 
Q 2881 3666 2632 3958 
Q 2384 4250 1959 4250 
Q 1534 4250 1286 3958 
Q 1038 3666 1038 3163 
Q 1038 2656 1286 2365 
Q 1534 2075 1959 2075 
z
" transform="scale(0.015625)"/>
      </defs>
      <use xlink:href="#DejaVuSans-23"/>
      <use xlink:href="#DejaVuSans-52" x="83.789062"/>
      <use xlink:href="#DejaVuSans-43" x="148.271484"/>
      <use xlink:href="#DejaVuSans-3d" x="218.095703"/>
      <use xlink:href="#DejaVuSans-31" x="301.884766"/>
      <use xlink:href="#DejaVuSans-39" x="365.507812"/>
     </g>
    </g>
    <g id="line2d_23">
     <path d="M 317.428571 38.578125 
L 327.428571 38.578125 
L 337.428571 38.578125 
" style="fill: none; stroke: #cc3311; stroke-opacity: 0.5; stroke-width: 1.5; stroke-linecap: square"/>
    </g>
    <g id="text_22">
     <!-- $\mu$-crit. -->
     <g transform="translate(345.428571 42.078125) scale(0.1 -0.1)">
      <defs>
       <path id="DejaVuSans-2d" d="M 313 2009 
L 1997 2009 
L 1997 1497 
L 313 1497 
L 313 2009 
z
" transform="scale(0.015625)"/>
       <path id="DejaVuSans-63" d="M 3122 3366 
L 3122 2828 
Q 2878 2963 2633 3030 
Q 2388 3097 2138 3097 
Q 1578 3097 1268 2742 
Q 959 2388 959 1747 
Q 959 1106 1268 751 
Q 1578 397 2138 397 
Q 2388 397 2633 464 
Q 2878 531 3122 666 
L 3122 134 
Q 2881 22 2623 -34 
Q 2366 -91 2075 -91 
Q 1284 -91 818 406 
Q 353 903 353 1747 
Q 353 2603 823 3093 
Q 1294 3584 2113 3584 
Q 2378 3584 2631 3529 
Q 2884 3475 3122 3366 
z
" transform="scale(0.015625)"/>
       <path id="DejaVuSans-69" d="M 603 3500 
L 1178 3500 
L 1178 0 
L 603 0 
L 603 3500 
z
M 603 4863 
L 1178 4863 
L 1178 4134 
L 603 4134 
L 603 4863 
z
" transform="scale(0.015625)"/>
      </defs>
      <use xlink:href="#DejaVuSans-Oblique-3bc" transform="translate(0 0.015625)"/>
      <use xlink:href="#DejaVuSans-2d" transform="translate(63.623047 0.015625)"/>
      <use xlink:href="#DejaVuSans-63" transform="translate(99.707031 0.015625)"/>
      <use xlink:href="#DejaVuSans-72" transform="translate(154.6875 0.015625)"/>
      <use xlink:href="#DejaVuSans-69" transform="translate(195.800781 0.015625)"/>
      <use xlink:href="#DejaVuSans-74" transform="translate(223.583984 0.015625)"/>
      <use xlink:href="#DejaVuSans-2e" transform="translate(262.792969 0.015625)"/>
     </g>
    </g>
    <g id="PathCollection_3">
     <path d="M 327.428571 57.151563 
C 328.22418 57.151563 328.987311 56.835464 329.549891 56.272883 
C 330.112472 55.710302 330.428571 54.947172 330.428571 54.151563 
C 330.428571 53.355953 330.112472 52.592823 329.549891 52.030242 
C 328.987311 51.467661 328.22418 51.151563 327.428571 51.151563 
C 326.632962 51.151563 325.869831 51.467661 325.307251 52.030242 
C 324.74467 52.592823 324.428571 53.355953 324.428571 54.151563 
C 324.428571 54.947172 324.74467 55.710302 325.307251 56.272883 
C 325.869831 56.835464 326.632962 57.151563 327.428571 57.151563 
L 327.428571 57.151563 
z
" style="fill: none; stroke: #ee3377"/>
    </g>
    <g id="text_23">
     <!-- $\mu$ -->
     <g transform="translate(345.428571 56.776563) scale(0.1 -0.1)">
      <use xlink:href="#DejaVuSans-Oblique-3bc" transform="translate(0 0.3125)"/>
     </g>
    </g>
    <g id="PathCollection_4">
     <path d="M 324.428571 73.351563 
L 330.428571 73.351563 
L 330.428571 67.351563 
L 324.428571 67.351563 
L 324.428571 73.351563 
z
" style="fill: none; stroke: #009988"/>
    </g>
    <g id="text_24">
     <!-- $\chi^2_{\rm ps.}$ -->
     <g transform="translate(345.428571 72.976563) scale(0.1 -0.1)">
      <use xlink:href="#DejaVuSans-Oblique-3c7" transform="translate(0 0.765625)"/>
      <use xlink:href="#DejaVuSans-32" transform="translate(63.652396 39.046875) scale(0.7)"/>
      <use xlink:href="#DejaVuSans-70" transform="translate(59.179688 -26.578125) scale(0.7)"/>
      <use xlink:href="#DejaVuSans-73" transform="translate(103.613281 -26.578125) scale(0.7)"/>
      <use xlink:href="#DejaVuSans-2e" transform="translate(140.083008 -26.578125) scale(0.7)"/>
     </g>
    </g>
   </g>
  </g>
 </g>
 <defs>
  <clipPath id="p1d8a1e5545">
   <rect x="48.44" y="10.8" width="348.904196" height="292.84"/>
  </clipPath>
 </defs>
</svg>
