<?xml version="1.0" encoding="utf-8" standalone="no"?>
<!DOCTYPE svg PUBLIC "-//W3C//DTD SVG 1.1//EN"
  "http://www.w3.org/Graphics/SVG/1.1/DTD/svg11.dtd">
<svg xmlns:xlink="http://www.w3.org/1999/xlink" width="460.8pt" height="345.6pt" viewBox="0 0 460.8 345.6" xmlns="http://www.w3.org/2000/svg" version="1.1">
 <metadata>
  <rdf:RDF xmlns:dc="http://purl.org/dc/elements/1.1/" xmlns:cc="http://creativecommons.org/ns#" xmlns:rdf="http://www.w3.org/1999/02/22-rdf-syntax-ns#">
   <cc:Work>
    <dc:type rdf:resource="http://purl.org/dc/dcmitype/StillImage"/>
    <dc:date>2024-03-14T17:37:21.190617</dc:date>
    <dc:format>image/svg+xml</dc:format>
    <dc:creator>
     <cc:Agent>
      <dc:title>Matplotlib v3.8.3, https://matplotlib.org/</dc:title>
     </cc:Agent>
    </dc:creator>
   </cc:Work>
  </rdf:RDF>
 </metadata>
 <defs>
  <style type="text/css">*{stroke-linejoin: round; stroke-linecap: butt}</style>
 </defs>
 <g id="figure_1">
  <g id="patch_1">
   <path d="M 0 345.6 
L 460.8 345.6 
L 460.8 0 
L 0 0 
L 0 345.6 
z
" style="fill: none"/>
  </g>
  <g id="axes_1">
   <g id="patch_2">
    <path d="M 52.31 298.888 
L 408.49 298.888 
L 408.49 10.8 
L 52.31 10.8 
L 52.31 298.888 
z
" style="fill: none"/>
   </g>
   <g id="PathCollection_1">
    <defs>
     <path id="C0_0_ea644bb14c" d="M 0 3 
C 0.795609 3 1.55874 2.683901 2.12132 2.12132 
C 2.683901 1.55874 3 0.795609 3 -0 
C 3 -0.795609 2.683901 -1.55874 2.12132 -2.12132 
C 1.55874 -2.683901 0.795609 -3 0 -3 
C -0.795609 -3 -1.55874 -2.683901 -2.12132 -2.12132 
C -2.683901 -1.55874 -3 -0.795609 -3 0 
C -3 0.795609 -2.683901 1.55874 -2.12132 2.12132 
C -1.55874 2.683901 -0.795609 3 0 3 
z
"/>
    </defs>
    <g clip-path="url(#pa1bd945de5)">
     <use xlink:href="#C0_0_ea644bb14c" x="392.3" y="285.793091" style="fill: none; stroke: #000000"/>
    </g>
    <g clip-path="url(#pa1bd945de5)">
     <use xlink:href="#C0_0_ea644bb14c" x="380.735714" y="284.304811" style="fill: none; stroke: #000000"/>
    </g>
    <g clip-path="url(#pa1bd945de5)">
     <use xlink:href="#C0_0_ea644bb14c" x="369.171429" y="281.937836" style="fill: none; stroke: #000000"/>
    </g>
    <g clip-path="url(#pa1bd945de5)">
     <use xlink:href="#C0_0_ea644bb14c" x="357.607143" y="278.067322" style="fill: none; stroke: #000000"/>
    </g>
    <g clip-path="url(#pa1bd945de5)">
     <use xlink:href="#C0_0_ea644bb14c" x="346.042857" y="271.75216" style="fill: none; stroke: #000000"/>
    </g>
    <g clip-path="url(#pa1bd945de5)">
     <use xlink:href="#C0_0_ea644bb14c" x="334.478571" y="261.890158" style="fill: none; stroke: #000000"/>
    </g>
    <g clip-path="url(#pa1bd945de5)">
     <use xlink:href="#C0_0_ea644bb14c" x="322.914286" y="247.896134" style="fill: none; stroke: #000000"/>
    </g>
    <g clip-path="url(#pa1bd945de5)">
     <use xlink:href="#C0_0_ea644bb14c" x="311.35" y="230.783223" style="fill: none; stroke: #000000"/>
    </g>
    <g clip-path="url(#pa1bd945de5)">
     <use xlink:href="#C0_0_ea644bb14c" x="299.785714" y="213.332147" style="fill: none; stroke: #000000"/>
    </g>
    <g clip-path="url(#pa1bd945de5)">
     <use xlink:href="#C0_0_ea644bb14c" x="288.221429" y="198.354071" style="fill: none; stroke: #000000"/>
    </g>
    <g clip-path="url(#pa1bd945de5)">
     <use xlink:href="#C0_0_ea644bb14c" x="276.657143" y="186.908616" style="fill: none; stroke: #000000"/>
    </g>
    <g clip-path="url(#pa1bd945de5)">
     <use xlink:href="#C0_0_ea644bb14c" x="265.092857" y="178.416178" style="fill: none; stroke: #000000"/>
    </g>
    <g clip-path="url(#pa1bd945de5)">
     <use xlink:href="#C0_0_ea644bb14c" x="253.528571" y="171.737704" style="fill: none; stroke: #000000"/>
    </g>
    <g clip-path="url(#pa1bd945de5)">
     <use xlink:href="#C0_0_ea644bb14c" x="241.964286" y="165.874443" style="fill: none; stroke: #000000"/>
    </g>
    <g clip-path="url(#pa1bd945de5)">
     <use xlink:href="#C0_0_ea644bb14c" x="230.4" y="160.137954" style="fill: none; stroke: #000000"/>
    </g>
    <g clip-path="url(#pa1bd945de5)">
     <use xlink:href="#C0_0_ea644bb14c" x="218.835714" y="154.095113" style="fill: none; stroke: #000000"/>
    </g>
    <g clip-path="url(#pa1bd945de5)">
     <use xlink:href="#C0_0_ea644bb14c" x="207.271429" y="147.48091" style="fill: none; stroke: #000000"/>
    </g>
    <g clip-path="url(#pa1bd945de5)">
     <use xlink:href="#C0_0_ea644bb14c" x="195.707143" y="140.136588" style="fill: none; stroke: #000000"/>
    </g>
    <g clip-path="url(#pa1bd945de5)">
     <use xlink:href="#C0_0_ea644bb14c" x="184.142857" y="131.976301" style="fill: none; stroke: #000000"/>
    </g>
    <g clip-path="url(#pa1bd945de5)">
     <use xlink:href="#C0_0_ea644bb14c" x="172.578571" y="122.973129" style="fill: none; stroke: #000000"/>
    </g>
    <g clip-path="url(#pa1bd945de5)">
     <use xlink:href="#C0_0_ea644bb14c" x="161.014286" y="113.155489" style="fill: none; stroke: #000000"/>
    </g>
    <g clip-path="url(#pa1bd945de5)">
     <use xlink:href="#C0_0_ea644bb14c" x="149.45" y="102.607075" style="fill: none; stroke: #000000"/>
    </g>
    <g clip-path="url(#pa1bd945de5)">
     <use xlink:href="#C0_0_ea644bb14c" x="137.885714" y="91.465329" style="fill: none; stroke: #000000"/>
    </g>
    <g clip-path="url(#pa1bd945de5)">
     <use xlink:href="#C0_0_ea644bb14c" x="126.321429" y="79.915117" style="fill: none; stroke: #000000"/>
    </g>
    <g clip-path="url(#pa1bd945de5)">
     <use xlink:href="#C0_0_ea644bb14c" x="114.757143" y="68.176214" style="fill: none; stroke: #000000"/>
    </g>
    <g clip-path="url(#pa1bd945de5)">
     <use xlink:href="#C0_0_ea644bb14c" x="103.192857" y="56.485319" style="fill: none; stroke: #000000"/>
    </g>
    <g clip-path="url(#pa1bd945de5)">
     <use xlink:href="#C0_0_ea644bb14c" x="91.628571" y="45.075273" style="fill: none; stroke: #000000"/>
    </g>
    <g clip-path="url(#pa1bd945de5)">
     <use xlink:href="#C0_0_ea644bb14c" x="80.064286" y="34.155173" style="fill: none; stroke: #000000"/>
    </g>
    <g clip-path="url(#pa1bd945de5)">
     <use xlink:href="#C0_0_ea644bb14c" x="68.5" y="23.894909" style="fill: none; stroke: #000000"/>
    </g>
   </g>
   <g id="matplotlib.axis_1">
    <g id="xtick_1">
     <g id="line2d_1">
      <defs>
       <path id="m358c20574f" d="M 0 0 
L 0 3.5 
" style="stroke: #000000; stroke-width: 0.8"/>
      </defs>
      <g>
       <use xlink:href="#m358c20574f" x="68.5" y="298.888" style="stroke: #000000; stroke-width: 0.8"/>
      </g>
     </g>
     <g id="text_1">
      <!-- $\mathdefault{10^{0}}$ -->
      <g transform="translate(59.7 313.486437) scale(0.1 -0.1)">
       <defs>
        <path id="DejaVuSans-31" d="M 794 531 
L 1825 531 
L 1825 4091 
L 703 3866 
L 703 4441 
L 1819 4666 
L 2450 4666 
L 2450 531 
L 3481 531 
L 3481 0 
L 794 0 
L 794 531 
z
" transform="scale(0.015625)"/>
        <path id="DejaVuSans-30" d="M 2034 4250 
Q 1547 4250 1301 3770 
Q 1056 3291 1056 2328 
Q 1056 1369 1301 889 
Q 1547 409 2034 409 
Q 2525 409 2770 889 
Q 3016 1369 3016 2328 
Q 3016 3291 2770 3770 
Q 2525 4250 2034 4250 
z
M 2034 4750 
Q 2819 4750 3233 4129 
Q 3647 3509 3647 2328 
Q 3647 1150 3233 529 
Q 2819 -91 2034 -91 
Q 1250 -91 836 529 
Q 422 1150 422 2328 
Q 422 3509 836 4129 
Q 1250 4750 2034 4750 
z
" transform="scale(0.015625)"/>
       </defs>
       <use xlink:href="#DejaVuSans-31" transform="translate(0 0.765625)"/>
       <use xlink:href="#DejaVuSans-30" transform="translate(63.623047 0.765625)"/>
       <use xlink:href="#DejaVuSans-30" transform="translate(128.203125 39.046875) scale(0.7)"/>
      </g>
     </g>
    </g>
    <g id="xtick_2">
     <g id="line2d_2">
      <g>
       <use xlink:href="#m358c20574f" x="149.45" y="298.888" style="stroke: #000000; stroke-width: 0.8"/>
      </g>
     </g>
     <g id="text_2">
      <!-- $\mathdefault{10^{1}}$ -->
      <g transform="translate(140.65 313.486437) scale(0.1 -0.1)">
       <use xlink:href="#DejaVuSans-31" transform="translate(0 0.684375)"/>
       <use xlink:href="#DejaVuSans-30" transform="translate(63.623047 0.684375)"/>
       <use xlink:href="#DejaVuSans-31" transform="translate(128.203125 38.965625) scale(0.7)"/>
      </g>
     </g>
    </g>
    <g id="xtick_3">
     <g id="line2d_3">
      <g>
       <use xlink:href="#m358c20574f" x="230.4" y="298.888" style="stroke: #000000; stroke-width: 0.8"/>
      </g>
     </g>
     <g id="text_3">
      <!-- $\mathdefault{10^{2}}$ -->
      <g transform="translate(221.6 313.486437) scale(0.1 -0.1)">
       <defs>
        <path id="DejaVuSans-32" d="M 1228 531 
L 3431 531 
L 3431 0 
L 469 0 
L 469 531 
Q 828 903 1448 1529 
Q 2069 2156 2228 2338 
Q 2531 2678 2651 2914 
Q 2772 3150 2772 3378 
Q 2772 3750 2511 3984 
Q 2250 4219 1831 4219 
Q 1534 4219 1204 4116 
Q 875 4013 500 3803 
L 500 4441 
Q 881 4594 1212 4672 
Q 1544 4750 1819 4750 
Q 2544 4750 2975 4387 
Q 3406 4025 3406 3419 
Q 3406 3131 3298 2873 
Q 3191 2616 2906 2266 
Q 2828 2175 2409 1742 
Q 1991 1309 1228 531 
z
" transform="scale(0.015625)"/>
       </defs>
       <use xlink:href="#DejaVuSans-31" transform="translate(0 0.765625)"/>
       <use xlink:href="#DejaVuSans-30" transform="translate(63.623047 0.765625)"/>
       <use xlink:href="#DejaVuSans-32" transform="translate(128.203125 39.046875) scale(0.7)"/>
      </g>
     </g>
    </g>
    <g id="xtick_4">
     <g id="line2d_4">
      <g>
       <use xlink:href="#m358c20574f" x="311.35" y="298.888" style="stroke: #000000; stroke-width: 0.8"/>
      </g>
     </g>
     <g id="text_4">
      <!-- $\mathdefault{10^{3}}$ -->
      <g transform="translate(302.55 313.486437) scale(0.1 -0.1)">
       <defs>
        <path id="DejaVuSans-33" d="M 2597 2516 
Q 3050 2419 3304 2112 
Q 3559 1806 3559 1356 
Q 3559 666 3084 287 
Q 2609 -91 1734 -91 
Q 1441 -91 1130 -33 
Q 819 25 488 141 
L 488 750 
Q 750 597 1062 519 
Q 1375 441 1716 441 
Q 2309 441 2620 675 
Q 2931 909 2931 1356 
Q 2931 1769 2642 2001 
Q 2353 2234 1838 2234 
L 1294 2234 
L 1294 2753 
L 1863 2753 
Q 2328 2753 2575 2939 
Q 2822 3125 2822 3475 
Q 2822 3834 2567 4026 
Q 2313 4219 1838 4219 
Q 1578 4219 1281 4162 
Q 984 4106 628 3988 
L 628 4550 
Q 988 4650 1302 4700 
Q 1616 4750 1894 4750 
Q 2613 4750 3031 4423 
Q 3450 4097 3450 3541 
Q 3450 3153 3228 2886 
Q 3006 2619 2597 2516 
z
" transform="scale(0.015625)"/>
       </defs>
       <use xlink:href="#DejaVuSans-31" transform="translate(0 0.765625)"/>
       <use xlink:href="#DejaVuSans-30" transform="translate(63.623047 0.765625)"/>
       <use xlink:href="#DejaVuSans-33" transform="translate(128.203125 39.046875) scale(0.7)"/>
      </g>
     </g>
    </g>
    <g id="xtick_5">
     <g id="line2d_5">
      <g>
       <use xlink:href="#m358c20574f" x="392.3" y="298.888" style="stroke: #000000; stroke-width: 0.8"/>
      </g>
     </g>
     <g id="text_5">
      <!-- $\mathdefault{10^{4}}$ -->
      <g transform="translate(383.5 313.486437) scale(0.1 -0.1)">
       <defs>
        <path id="DejaVuSans-34" d="M 2419 4116 
L 825 1625 
L 2419 1625 
L 2419 4116 
z
M 2253 4666 
L 3047 4666 
L 3047 1625 
L 3713 1625 
L 3713 1100 
L 3047 1100 
L 3047 0 
L 2419 0 
L 2419 1100 
L 313 1100 
L 313 1709 
L 2253 4666 
z
" transform="scale(0.015625)"/>
       </defs>
       <use xlink:href="#DejaVuSans-31" transform="translate(0 0.684375)"/>
       <use xlink:href="#DejaVuSans-30" transform="translate(63.623047 0.684375)"/>
       <use xlink:href="#DejaVuSans-34" transform="translate(128.203125 38.965625) scale(0.7)"/>
      </g>
     </g>
    </g>
    <g id="xtick_6">
     <g id="line2d_6">
      <defs>
       <path id="mdd418d3add" d="M 0 0 
L 0 2 
" style="stroke: #000000; stroke-width: 0.6"/>
      </defs>
      <g>
       <use xlink:href="#mdd418d3add" x="55.960686" y="298.888" style="stroke: #000000; stroke-width: 0.6"/>
      </g>
     </g>
    </g>
    <g id="xtick_7">
     <g id="line2d_7">
      <g>
       <use xlink:href="#mdd418d3add" x="60.655134" y="298.888" style="stroke: #000000; stroke-width: 0.6"/>
      </g>
     </g>
    </g>
    <g id="xtick_8">
     <g id="line2d_8">
      <g>
       <use xlink:href="#mdd418d3add" x="64.795931" y="298.888" style="stroke: #000000; stroke-width: 0.6"/>
      </g>
     </g>
    </g>
    <g id="xtick_9">
     <g id="line2d_9">
      <g>
       <use xlink:href="#mdd418d3add" x="92.868378" y="298.888" style="stroke: #000000; stroke-width: 0.6"/>
      </g>
     </g>
    </g>
    <g id="xtick_10">
     <g id="line2d_10">
      <g>
       <use xlink:href="#mdd418d3add" x="107.122966" y="298.888" style="stroke: #000000; stroke-width: 0.6"/>
      </g>
     </g>
    </g>
    <g id="xtick_11">
     <g id="line2d_11">
      <g>
       <use xlink:href="#mdd418d3add" x="117.236756" y="298.888" style="stroke: #000000; stroke-width: 0.6"/>
      </g>
     </g>
    </g>
    <g id="xtick_12">
     <g id="line2d_12">
      <g>
       <use xlink:href="#mdd418d3add" x="125.081622" y="298.888" style="stroke: #000000; stroke-width: 0.6"/>
      </g>
     </g>
    </g>
    <g id="xtick_13">
     <g id="line2d_13">
      <g>
       <use xlink:href="#mdd418d3add" x="131.491344" y="298.888" style="stroke: #000000; stroke-width: 0.6"/>
      </g>
     </g>
    </g>
    <g id="xtick_14">
     <g id="line2d_14">
      <g>
       <use xlink:href="#mdd418d3add" x="136.910686" y="298.888" style="stroke: #000000; stroke-width: 0.6"/>
      </g>
     </g>
    </g>
    <g id="xtick_15">
     <g id="line2d_15">
      <g>
       <use xlink:href="#mdd418d3add" x="141.605134" y="298.888" style="stroke: #000000; stroke-width: 0.6"/>
      </g>
     </g>
    </g>
    <g id="xtick_16">
     <g id="line2d_16">
      <g>
       <use xlink:href="#mdd418d3add" x="145.745931" y="298.888" style="stroke: #000000; stroke-width: 0.6"/>
      </g>
     </g>
    </g>
    <g id="xtick_17">
     <g id="line2d_17">
      <g>
       <use xlink:href="#mdd418d3add" x="173.818378" y="298.888" style="stroke: #000000; stroke-width: 0.6"/>
      </g>
     </g>
    </g>
    <g id="xtick_18">
     <g id="line2d_18">
      <g>
       <use xlink:href="#mdd418d3add" x="188.072966" y="298.888" style="stroke: #000000; stroke-width: 0.6"/>
      </g>
     </g>
    </g>
    <g id="xtick_19">
     <g id="line2d_19">
      <g>
       <use xlink:href="#mdd418d3add" x="198.186756" y="298.888" style="stroke: #000000; stroke-width: 0.6"/>
      </g>
     </g>
    </g>
    <g id="xtick_20">
     <g id="line2d_20">
      <g>
       <use xlink:href="#mdd418d3add" x="206.031622" y="298.888" style="stroke: #000000; stroke-width: 0.6"/>
      </g>
     </g>
    </g>
    <g id="xtick_21">
     <g id="line2d_21">
      <g>
       <use xlink:href="#mdd418d3add" x="212.441344" y="298.888" style="stroke: #000000; stroke-width: 0.6"/>
      </g>
     </g>
    </g>
    <g id="xtick_22">
     <g id="line2d_22">
      <g>
       <use xlink:href="#mdd418d3add" x="217.860686" y="298.888" style="stroke: #000000; stroke-width: 0.6"/>
      </g>
     </g>
    </g>
    <g id="xtick_23">
     <g id="line2d_23">
      <g>
       <use xlink:href="#mdd418d3add" x="222.555134" y="298.888" style="stroke: #000000; stroke-width: 0.6"/>
      </g>
     </g>
    </g>
    <g id="xtick_24">
     <g id="line2d_24">
      <g>
       <use xlink:href="#mdd418d3add" x="226.695931" y="298.888" style="stroke: #000000; stroke-width: 0.6"/>
      </g>
     </g>
    </g>
    <g id="xtick_25">
     <g id="line2d_25">
      <g>
       <use xlink:href="#mdd418d3add" x="254.768378" y="298.888" style="stroke: #000000; stroke-width: 0.6"/>
      </g>
     </g>
    </g>
    <g id="xtick_26">
     <g id="line2d_26">
      <g>
       <use xlink:href="#mdd418d3add" x="269.022966" y="298.888" style="stroke: #000000; stroke-width: 0.6"/>
      </g>
     </g>
    </g>
    <g id="xtick_27">
     <g id="line2d_27">
      <g>
       <use xlink:href="#mdd418d3add" x="279.136756" y="298.888" style="stroke: #000000; stroke-width: 0.6"/>
      </g>
     </g>
    </g>
    <g id="xtick_28">
     <g id="line2d_28">
      <g>
       <use xlink:href="#mdd418d3add" x="286.981622" y="298.888" style="stroke: #000000; stroke-width: 0.6"/>
      </g>
     </g>
    </g>
    <g id="xtick_29">
     <g id="line2d_29">
      <g>
       <use xlink:href="#mdd418d3add" x="293.391344" y="298.888" style="stroke: #000000; stroke-width: 0.6"/>
      </g>
     </g>
    </g>
    <g id="xtick_30">
     <g id="line2d_30">
      <g>
       <use xlink:href="#mdd418d3add" x="298.810686" y="298.888" style="stroke: #000000; stroke-width: 0.6"/>
      </g>
     </g>
    </g>
    <g id="xtick_31">
     <g id="line2d_31">
      <g>
       <use xlink:href="#mdd418d3add" x="303.505134" y="298.888" style="stroke: #000000; stroke-width: 0.6"/>
      </g>
     </g>
    </g>
    <g id="xtick_32">
     <g id="line2d_32">
      <g>
       <use xlink:href="#mdd418d3add" x="307.645931" y="298.888" style="stroke: #000000; stroke-width: 0.6"/>
      </g>
     </g>
    </g>
    <g id="xtick_33">
     <g id="line2d_33">
      <g>
       <use xlink:href="#mdd418d3add" x="335.718378" y="298.888" style="stroke: #000000; stroke-width: 0.6"/>
      </g>
     </g>
    </g>
    <g id="xtick_34">
     <g id="line2d_34">
      <g>
       <use xlink:href="#mdd418d3add" x="349.972966" y="298.888" style="stroke: #000000; stroke-width: 0.6"/>
      </g>
     </g>
    </g>
    <g id="xtick_35">
     <g id="line2d_35">
      <g>
       <use xlink:href="#mdd418d3add" x="360.086756" y="298.888" style="stroke: #000000; stroke-width: 0.6"/>
      </g>
     </g>
    </g>
    <g id="xtick_36">
     <g id="line2d_36">
      <g>
       <use xlink:href="#mdd418d3add" x="367.931622" y="298.888" style="stroke: #000000; stroke-width: 0.6"/>
      </g>
     </g>
    </g>
    <g id="xtick_37">
     <g id="line2d_37">
      <g>
       <use xlink:href="#mdd418d3add" x="374.341344" y="298.888" style="stroke: #000000; stroke-width: 0.6"/>
      </g>
     </g>
    </g>
    <g id="xtick_38">
     <g id="line2d_38">
      <g>
       <use xlink:href="#mdd418d3add" x="379.760686" y="298.888" style="stroke: #000000; stroke-width: 0.6"/>
      </g>
     </g>
    </g>
    <g id="xtick_39">
     <g id="line2d_39">
      <g>
       <use xlink:href="#mdd418d3add" x="384.455134" y="298.888" style="stroke: #000000; stroke-width: 0.6"/>
      </g>
     </g>
    </g>
    <g id="xtick_40">
     <g id="line2d_40">
      <g>
       <use xlink:href="#mdd418d3add" x="388.595931" y="298.888" style="stroke: #000000; stroke-width: 0.6"/>
      </g>
     </g>
    </g>
    <g id="text_6">
     <!-- $f$ (Hz) -->
     <g transform="translate(216.75 327.164562) scale(0.1 -0.1)">
      <defs>
       <path id="DejaVuSans-Oblique-66" d="M 3059 4863 
L 2969 4384 
L 2419 4384 
Q 2106 4384 1964 4261 
Q 1822 4138 1753 3809 
L 1691 3500 
L 2638 3500 
L 2553 3053 
L 1606 3053 
L 1013 0 
L 434 0 
L 1031 3053 
L 481 3053 
L 563 3500 
L 1113 3500 
L 1159 3744 
Q 1278 4363 1576 4613 
Q 1875 4863 2516 4863 
L 3059 4863 
z
" transform="scale(0.015625)"/>
       <path id="DejaVuSans-20" transform="scale(0.015625)"/>
       <path id="DejaVuSans-28" d="M 1984 4856 
Q 1566 4138 1362 3434 
Q 1159 2731 1159 2009 
Q 1159 1288 1364 580 
Q 1569 -128 1984 -844 
L 1484 -844 
Q 1016 -109 783 600 
Q 550 1309 550 2009 
Q 550 2706 781 3412 
Q 1013 4119 1484 4856 
L 1984 4856 
z
" transform="scale(0.015625)"/>
       <path id="DejaVuSans-48" d="M 628 4666 
L 1259 4666 
L 1259 2753 
L 3553 2753 
L 3553 4666 
L 4184 4666 
L 4184 0 
L 3553 0 
L 3553 2222 
L 1259 2222 
L 1259 0 
L 628 0 
L 628 4666 
z
" transform="scale(0.015625)"/>
       <path id="DejaVuSans-7a" d="M 353 3500 
L 3084 3500 
L 3084 2975 
L 922 459 
L 3084 459 
L 3084 0 
L 275 0 
L 275 525 
L 2438 3041 
L 353 3041 
L 353 3500 
z
" transform="scale(0.015625)"/>
       <path id="DejaVuSans-29" d="M 513 4856 
L 1013 4856 
Q 1481 4119 1714 3412 
Q 1947 2706 1947 2009 
Q 1947 1309 1714 600 
Q 1481 -109 1013 -844 
L 513 -844 
Q 928 -128 1133 580 
Q 1338 1288 1338 2009 
Q 1338 2731 1133 3434 
Q 928 4138 513 4856 
z
" transform="scale(0.015625)"/>
      </defs>
      <use xlink:href="#DejaVuSans-Oblique-66" transform="translate(0 0.015625)"/>
      <use xlink:href="#DejaVuSans-20" transform="translate(35.205078 0.015625)"/>
      <use xlink:href="#DejaVuSans-28" transform="translate(66.992188 0.015625)"/>
      <use xlink:href="#DejaVuSans-48" transform="translate(106.005859 0.015625)"/>
      <use xlink:href="#DejaVuSans-7a" transform="translate(181.201172 0.015625)"/>
      <use xlink:href="#DejaVuSans-29" transform="translate(233.691406 0.015625)"/>
     </g>
    </g>
   </g>
   <g id="matplotlib.axis_2">
    <g id="ytick_1">
     <g id="line2d_41">
      <defs>
       <path id="m3e1c1dc5f4" d="M 0 0 
L -3.5 0 
" style="stroke: #000000; stroke-width: 0.8"/>
      </defs>
      <g>
       <use xlink:href="#m3e1c1dc5f4" x="52.31" y="290.191269" style="stroke: #000000; stroke-width: 0.8"/>
      </g>
     </g>
     <g id="text_7">
      <!-- 100 -->
      <g transform="translate(26.2225 293.990488) scale(0.1 -0.1)">
       <use xlink:href="#DejaVuSans-31"/>
       <use xlink:href="#DejaVuSans-30" x="63.623047"/>
       <use xlink:href="#DejaVuSans-30" x="127.246094"/>
      </g>
     </g>
    </g>
    <g id="ytick_2">
     <g id="line2d_42">
      <g>
       <use xlink:href="#m3e1c1dc5f4" x="52.31" y="241.372431" style="stroke: #000000; stroke-width: 0.8"/>
      </g>
     </g>
     <g id="text_8">
      <!-- 200 -->
      <g transform="translate(26.2225 245.17165) scale(0.1 -0.1)">
       <use xlink:href="#DejaVuSans-32"/>
       <use xlink:href="#DejaVuSans-30" x="63.623047"/>
       <use xlink:href="#DejaVuSans-30" x="127.246094"/>
      </g>
     </g>
    </g>
    <g id="ytick_3">
     <g id="line2d_43">
      <g>
       <use xlink:href="#m3e1c1dc5f4" x="52.31" y="192.553594" style="stroke: #000000; stroke-width: 0.8"/>
      </g>
     </g>
     <g id="text_9">
      <!-- 300 -->
      <g transform="translate(26.2225 196.352813) scale(0.1 -0.1)">
       <use xlink:href="#DejaVuSans-33"/>
       <use xlink:href="#DejaVuSans-30" x="63.623047"/>
       <use xlink:href="#DejaVuSans-30" x="127.246094"/>
      </g>
     </g>
    </g>
    <g id="ytick_4">
     <g id="line2d_44">
      <g>
       <use xlink:href="#m3e1c1dc5f4" x="52.31" y="143.734757" style="stroke: #000000; stroke-width: 0.8"/>
      </g>
     </g>
     <g id="text_10">
      <!-- 400 -->
      <g transform="translate(26.2225 147.533975) scale(0.1 -0.1)">
       <use xlink:href="#DejaVuSans-34"/>
       <use xlink:href="#DejaVuSans-30" x="63.623047"/>
       <use xlink:href="#DejaVuSans-30" x="127.246094"/>
      </g>
     </g>
    </g>
    <g id="ytick_5">
     <g id="line2d_45">
      <g>
       <use xlink:href="#m3e1c1dc5f4" x="52.31" y="94.915919" style="stroke: #000000; stroke-width: 0.8"/>
      </g>
     </g>
     <g id="text_11">
      <!-- 500 -->
      <g transform="translate(26.2225 98.715138) scale(0.1 -0.1)">
       <defs>
        <path id="DejaVuSans-35" d="M 691 4666 
L 3169 4666 
L 3169 4134 
L 1269 4134 
L 1269 2991 
Q 1406 3038 1543 3061 
Q 1681 3084 1819 3084 
Q 2600 3084 3056 2656 
Q 3513 2228 3513 1497 
Q 3513 744 3044 326 
Q 2575 -91 1722 -91 
Q 1428 -91 1123 -41 
Q 819 9 494 109 
L 494 744 
Q 775 591 1075 516 
Q 1375 441 1709 441 
Q 2250 441 2565 725 
Q 2881 1009 2881 1497 
Q 2881 1984 2565 2268 
Q 2250 2553 1709 2553 
Q 1456 2553 1204 2497 
Q 953 2441 691 2322 
L 691 4666 
z
" transform="scale(0.015625)"/>
       </defs>
       <use xlink:href="#DejaVuSans-35"/>
       <use xlink:href="#DejaVuSans-30" x="63.623047"/>
       <use xlink:href="#DejaVuSans-30" x="127.246094"/>
      </g>
     </g>
    </g>
    <g id="ytick_6">
     <g id="line2d_46">
      <g>
       <use xlink:href="#m3e1c1dc5f4" x="52.31" y="46.097082" style="stroke: #000000; stroke-width: 0.8"/>
      </g>
     </g>
     <g id="text_12">
      <!-- 600 -->
      <g transform="translate(26.2225 49.896301) scale(0.1 -0.1)">
       <defs>
        <path id="DejaVuSans-36" d="M 2113 2584 
Q 1688 2584 1439 2293 
Q 1191 2003 1191 1497 
Q 1191 994 1439 701 
Q 1688 409 2113 409 
Q 2538 409 2786 701 
Q 3034 994 3034 1497 
Q 3034 2003 2786 2293 
Q 2538 2584 2113 2584 
z
M 3366 4563 
L 3366 3988 
Q 3128 4100 2886 4159 
Q 2644 4219 2406 4219 
Q 1781 4219 1451 3797 
Q 1122 3375 1075 2522 
Q 1259 2794 1537 2939 
Q 1816 3084 2150 3084 
Q 2853 3084 3261 2657 
Q 3669 2231 3669 1497 
Q 3669 778 3244 343 
Q 2819 -91 2113 -91 
Q 1303 -91 875 529 
Q 447 1150 447 2328 
Q 447 3434 972 4092 
Q 1497 4750 2381 4750 
Q 2619 4750 2861 4703 
Q 3103 4656 3366 4563 
z
" transform="scale(0.015625)"/>
       </defs>
       <use xlink:href="#DejaVuSans-36"/>
       <use xlink:href="#DejaVuSans-30" x="63.623047"/>
       <use xlink:href="#DejaVuSans-30" x="127.246094"/>
      </g>
     </g>
    </g>
    <g id="text_13">
     <!-- Re($Z$) ($\Omega$) -->
     <g transform="translate(20.142813 178.044) rotate(-90) scale(0.1 -0.1)">
      <defs>
       <path id="DejaVuSans-52" d="M 2841 2188 
Q 3044 2119 3236 1894 
Q 3428 1669 3622 1275 
L 4263 0 
L 3584 0 
L 2988 1197 
Q 2756 1666 2539 1819 
Q 2322 1972 1947 1972 
L 1259 1972 
L 1259 0 
L 628 0 
L 628 4666 
L 2053 4666 
Q 2853 4666 3247 4331 
Q 3641 3997 3641 3322 
Q 3641 2881 3436 2590 
Q 3231 2300 2841 2188 
z
M 1259 4147 
L 1259 2491 
L 2053 2491 
Q 2509 2491 2742 2702 
Q 2975 2913 2975 3322 
Q 2975 3731 2742 3939 
Q 2509 4147 2053 4147 
L 1259 4147 
z
" transform="scale(0.015625)"/>
       <path id="DejaVuSans-65" d="M 3597 1894 
L 3597 1613 
L 953 1613 
Q 991 1019 1311 708 
Q 1631 397 2203 397 
Q 2534 397 2845 478 
Q 3156 559 3463 722 
L 3463 178 
Q 3153 47 2828 -22 
Q 2503 -91 2169 -91 
Q 1331 -91 842 396 
Q 353 884 353 1716 
Q 353 2575 817 3079 
Q 1281 3584 2069 3584 
Q 2775 3584 3186 3129 
Q 3597 2675 3597 1894 
z
M 3022 2063 
Q 3016 2534 2758 2815 
Q 2500 3097 2075 3097 
Q 1594 3097 1305 2825 
Q 1016 2553 972 2059 
L 3022 2063 
z
" transform="scale(0.015625)"/>
       <path id="DejaVuSans-Oblique-5a" d="M 838 4666 
L 4500 4666 
L 4409 4184 
L 794 531 
L 3769 531 
L 3669 0 
L -141 0 
L -50 481 
L 3566 4134 
L 738 4134 
L 838 4666 
z
" transform="scale(0.015625)"/>
       <path id="DejaVuSans-3a9" d="M 4647 556 
L 4647 0 
L 2772 0 
L 2772 556 
Q 3325 859 3634 1378 
Q 3944 1897 3944 2528 
Q 3944 3278 3531 3731 
Q 3119 4184 2444 4184 
Q 1769 4184 1355 3729 
Q 941 3275 941 2528 
Q 941 1897 1250 1378 
Q 1563 859 2119 556 
L 2119 0 
L 244 0 
L 244 556 
L 1241 556 
Q 747 991 519 1456 
Q 294 1922 294 2497 
Q 294 3491 894 4106 
Q 1491 4722 2444 4722 
Q 3391 4722 3994 4106 
Q 4594 3494 4594 2528 
Q 4594 1922 4372 1459 
Q 4150 997 3647 556 
L 4647 556 
z
" transform="scale(0.015625)"/>
      </defs>
      <use xlink:href="#DejaVuSans-52" transform="translate(0 0.125)"/>
      <use xlink:href="#DejaVuSans-65" transform="translate(69.482422 0.125)"/>
      <use xlink:href="#DejaVuSans-28" transform="translate(131.005859 0.125)"/>
      <use xlink:href="#DejaVuSans-Oblique-5a" transform="translate(170.019531 0.125)"/>
      <use xlink:href="#DejaVuSans-29" transform="translate(238.525391 0.125)"/>
      <use xlink:href="#DejaVuSans-20" transform="translate(277.539062 0.125)"/>
      <use xlink:href="#DejaVuSans-28" transform="translate(309.326172 0.125)"/>
      <use xlink:href="#DejaVuSans-3a9" transform="translate(348.339844 0.125)"/>
      <use xlink:href="#DejaVuSans-29" transform="translate(424.755859 0.125)"/>
     </g>
    </g>
   </g>
   <g id="line2d_47">
    <path d="M 392.3 284.647057 
L 380.735714 283.604008 
L 369.171429 281.651535 
L 357.607143 278.094006 
L 346.042857 271.914724 
L 334.478571 262.002253 
L 322.914286 247.898631 
L 311.35 230.769429 
L 299.785714 213.354184 
L 288.221429 198.356188 
L 276.657143 186.881751 
L 265.092857 178.40877 
L 253.528571 171.754546 
L 241.964286 165.882384 
L 230.4 160.129213 
L 218.835714 154.088707 
L 207.271429 147.484836 
L 195.707143 140.141098 
L 184.142857 131.974519 
L 172.578571 122.969407 
L 161.014286 113.155848 
L 149.45 102.610571 
L 137.885714 91.465765 
L 126.321429 79.910225 
L 114.757143 68.174013 
L 103.192857 56.4935 
L 91.628571 45.080415 
L 80.064286 34.136213 
L 68.5 23.906387 
" clip-path="url(#pa1bd945de5)" style="fill: none; stroke-dasharray: 5.55,2.4; stroke-dashoffset: 0; stroke: #009988; stroke-width: 1.5"/>
   </g>
   <g id="patch_3">
    <path d="M 52.31 298.888 
L 52.31 10.8 
" style="fill: none; stroke: #000000; stroke-width: 0.8; stroke-linejoin: miter; stroke-linecap: square"/>
   </g>
   <g id="patch_4">
    <path d="M 408.49 298.888 
L 408.49 10.8 
" style="fill: none; stroke: #000000; stroke-width: 0.8; stroke-linejoin: miter; stroke-linecap: square"/>
   </g>
   <g id="patch_5">
    <path d="M 52.31 298.888 
L 408.49 298.888 
" style="fill: none; stroke: #000000; stroke-width: 0.8; stroke-linejoin: miter; stroke-linecap: square"/>
   </g>
   <g id="patch_6">
    <path d="M 52.31 10.8 
L 408.49 10.8 
" style="fill: none; stroke: #000000; stroke-width: 0.8; stroke-linejoin: miter; stroke-linecap: square"/>
   </g>
  </g>
  <g id="axes_2">
   <g id="PathCollection_2">
    <defs>
     <path id="C1_0_4de231f93c" d="M -3 3 
L 3 3 
L 3 -3 
L -3 -3 
z
"/>
    </defs>
    <g clip-path="url(#pa1bd945de5)">
     <use xlink:href="#C1_0_4de231f93c" x="392.3" y="285.793091" style="fill: none; stroke: #000000"/>
    </g>
    <g clip-path="url(#pa1bd945de5)">
     <use xlink:href="#C1_0_4de231f93c" x="380.735714" y="261.762789" style="fill: none; stroke: #000000"/>
    </g>
    <g clip-path="url(#pa1bd945de5)">
     <use xlink:href="#C1_0_4de231f93c" x="369.171429" y="230.226339" style="fill: none; stroke: #000000"/>
    </g>
    <g clip-path="url(#pa1bd945de5)">
     <use xlink:href="#C1_0_4de231f93c" x="357.607143" y="190.078143" style="fill: none; stroke: #000000"/>
    </g>
    <g clip-path="url(#pa1bd945de5)">
     <use xlink:href="#C1_0_4de231f93c" x="346.042857" y="141.972973" style="fill: none; stroke: #000000"/>
    </g>
    <g clip-path="url(#pa1bd945de5)">
     <use xlink:href="#C1_0_4de231f93c" x="334.478571" y="90.646742" style="fill: none; stroke: #000000"/>
    </g>
    <g clip-path="url(#pa1bd945de5)">
     <use xlink:href="#C1_0_4de231f93c" x="322.914286" y="46.764096" style="fill: none; stroke: #000000"/>
    </g>
    <g clip-path="url(#pa1bd945de5)">
     <use xlink:href="#C1_0_4de231f93c" x="311.35" y="23.894909" style="fill: none; stroke: #000000"/>
    </g>
    <g clip-path="url(#pa1bd945de5)">
     <use xlink:href="#C1_0_4de231f93c" x="299.785714" y="28.774687" style="fill: none; stroke: #000000"/>
    </g>
    <g clip-path="url(#pa1bd945de5)">
     <use xlink:href="#C1_0_4de231f93c" x="288.221429" y="54.841529" style="fill: none; stroke: #000000"/>
    </g>
    <g clip-path="url(#pa1bd945de5)">
     <use xlink:href="#C1_0_4de231f93c" x="276.657143" y="88.371922" style="fill: none; stroke: #000000"/>
    </g>
    <g clip-path="url(#pa1bd945de5)">
     <use xlink:href="#C1_0_4de231f93c" x="265.092857" y="118.349975" style="fill: none; stroke: #000000"/>
    </g>
    <g clip-path="url(#pa1bd945de5)">
     <use xlink:href="#C1_0_4de231f93c" x="253.528571" y="139.742224" style="fill: none; stroke: #000000"/>
    </g>
    <g clip-path="url(#pa1bd945de5)">
     <use xlink:href="#C1_0_4de231f93c" x="241.964286" y="151.744913" style="fill: none; stroke: #000000"/>
    </g>
    <g clip-path="url(#pa1bd945de5)">
     <use xlink:href="#C1_0_4de231f93c" x="230.4" y="155.462056" style="fill: none; stroke: #000000"/>
    </g>
    <g clip-path="url(#pa1bd945de5)">
     <use xlink:href="#C1_0_4de231f93c" x="218.835714" y="152.560311" style="fill: none; stroke: #000000"/>
    </g>
    <g clip-path="url(#pa1bd945de5)">
     <use xlink:href="#C1_0_4de231f93c" x="207.271429" y="144.727909" style="fill: none; stroke: #000000"/>
    </g>
    <g clip-path="url(#pa1bd945de5)">
     <use xlink:href="#C1_0_4de231f93c" x="195.707143" y="133.529502" style="fill: none; stroke: #000000"/>
    </g>
    <g clip-path="url(#pa1bd945de5)">
     <use xlink:href="#C1_0_4de231f93c" x="184.142857" y="120.405837" style="fill: none; stroke: #000000"/>
    </g>
    <g clip-path="url(#pa1bd945de5)">
     <use xlink:href="#C1_0_4de231f93c" x="172.578571" y="106.7025" style="fill: none; stroke: #000000"/>
    </g>
    <g clip-path="url(#pa1bd945de5)">
     <use xlink:href="#C1_0_4de231f93c" x="161.014286" y="93.681489" style="fill: none; stroke: #000000"/>
    </g>
    <g clip-path="url(#pa1bd945de5)">
     <use xlink:href="#C1_0_4de231f93c" x="149.45" y="82.501322" style="fill: none; stroke: #000000"/>
    </g>
    <g clip-path="url(#pa1bd945de5)">
     <use xlink:href="#C1_0_4de231f93c" x="137.885714" y="74.167785" style="fill: none; stroke: #000000"/>
    </g>
    <g clip-path="url(#pa1bd945de5)">
     <use xlink:href="#C1_0_4de231f93c" x="126.321429" y="69.467937" style="fill: none; stroke: #000000"/>
    </g>
    <g clip-path="url(#pa1bd945de5)">
     <use xlink:href="#C1_0_4de231f93c" x="114.757143" y="68.906391" style="fill: none; stroke: #000000"/>
    </g>
    <g clip-path="url(#pa1bd945de5)">
     <use xlink:href="#C1_0_4de231f93c" x="103.192857" y="72.664024" style="fill: none; stroke: #000000"/>
    </g>
    <g clip-path="url(#pa1bd945de5)">
     <use xlink:href="#C1_0_4de231f93c" x="91.628571" y="80.594033" style="fill: none; stroke: #000000"/>
    </g>
    <g clip-path="url(#pa1bd945de5)">
     <use xlink:href="#C1_0_4de231f93c" x="80.064286" y="92.259842" style="fill: none; stroke: #000000"/>
    </g>
    <g clip-path="url(#pa1bd945de5)">
     <use xlink:href="#C1_0_4de231f93c" x="68.5" y="107.007681" style="fill: none; stroke: #000000"/>
    </g>
   </g>
   <g id="matplotlib.axis_3">
    <g id="ytick_7">
     <g id="line2d_48">
      <defs>
       <path id="me82ce9fe01" d="M 0 0 
L 3.5 0 
" style="stroke: #000000; stroke-width: 0.8"/>
      </defs>
      <g>
       <use xlink:href="#me82ce9fe01" x="408.49" y="248.272697" style="stroke: #000000; stroke-width: 0.8"/>
      </g>
     </g>
     <g id="text_14">
      <!-- 40 -->
      <g transform="translate(415.49 252.071916) scale(0.1 -0.1)">
       <use xlink:href="#DejaVuSans-34"/>
       <use xlink:href="#DejaVuSans-30" x="63.623047"/>
      </g>
     </g>
    </g>
    <g id="ytick_8">
     <g id="line2d_49">
      <g>
       <use xlink:href="#me82ce9fe01" x="408.49" y="192.456719" style="stroke: #000000; stroke-width: 0.8"/>
      </g>
     </g>
     <g id="text_15">
      <!-- 60 -->
      <g transform="translate(415.49 196.255938) scale(0.1 -0.1)">
       <use xlink:href="#DejaVuSans-36"/>
       <use xlink:href="#DejaVuSans-30" x="63.623047"/>
      </g>
     </g>
    </g>
    <g id="ytick_9">
     <g id="line2d_50">
      <g>
       <use xlink:href="#me82ce9fe01" x="408.49" y="136.640741" style="stroke: #000000; stroke-width: 0.8"/>
      </g>
     </g>
     <g id="text_16">
      <!-- 80 -->
      <g transform="translate(415.49 140.43996) scale(0.1 -0.1)">
       <defs>
        <path id="DejaVuSans-38" d="M 2034 2216 
Q 1584 2216 1326 1975 
Q 1069 1734 1069 1313 
Q 1069 891 1326 650 
Q 1584 409 2034 409 
Q 2484 409 2743 651 
Q 3003 894 3003 1313 
Q 3003 1734 2745 1975 
Q 2488 2216 2034 2216 
z
M 1403 2484 
Q 997 2584 770 2862 
Q 544 3141 544 3541 
Q 544 4100 942 4425 
Q 1341 4750 2034 4750 
Q 2731 4750 3128 4425 
Q 3525 4100 3525 3541 
Q 3525 3141 3298 2862 
Q 3072 2584 2669 2484 
Q 3125 2378 3379 2068 
Q 3634 1759 3634 1313 
Q 3634 634 3220 271 
Q 2806 -91 2034 -91 
Q 1263 -91 848 271 
Q 434 634 434 1313 
Q 434 1759 690 2068 
Q 947 2378 1403 2484 
z
M 1172 3481 
Q 1172 3119 1398 2916 
Q 1625 2713 2034 2713 
Q 2441 2713 2670 2916 
Q 2900 3119 2900 3481 
Q 2900 3844 2670 4047 
Q 2441 4250 2034 4250 
Q 1625 4250 1398 4047 
Q 1172 3844 1172 3481 
z
" transform="scale(0.015625)"/>
       </defs>
       <use xlink:href="#DejaVuSans-38"/>
       <use xlink:href="#DejaVuSans-30" x="63.623047"/>
      </g>
     </g>
    </g>
    <g id="ytick_10">
     <g id="line2d_51">
      <g>
       <use xlink:href="#me82ce9fe01" x="408.49" y="80.824763" style="stroke: #000000; stroke-width: 0.8"/>
      </g>
     </g>
     <g id="text_17">
      <!-- 100 -->
      <g transform="translate(415.49 84.623982) scale(0.1 -0.1)">
       <use xlink:href="#DejaVuSans-31"/>
       <use xlink:href="#DejaVuSans-30" x="63.623047"/>
       <use xlink:href="#DejaVuSans-30" x="127.246094"/>
      </g>
     </g>
    </g>
    <g id="ytick_11">
     <g id="line2d_52">
      <g>
       <use xlink:href="#me82ce9fe01" x="408.49" y="25.008786" style="stroke: #000000; stroke-width: 0.8"/>
      </g>
     </g>
     <g id="text_18">
      <!-- 120 -->
      <g transform="translate(415.49 28.808004) scale(0.1 -0.1)">
       <use xlink:href="#DejaVuSans-31"/>
       <use xlink:href="#DejaVuSans-32" x="63.623047"/>
       <use xlink:href="#DejaVuSans-30" x="127.246094"/>
      </g>
     </g>
    </g>
    <g id="text_19">
     <!-- $-$Im(Z) ($\Omega$) -->
     <g transform="translate(446.175938 181.844) rotate(-90) scale(0.1 -0.1)">
      <defs>
       <path id="DejaVuSans-2212" d="M 678 2272 
L 4684 2272 
L 4684 1741 
L 678 1741 
L 678 2272 
z
" transform="scale(0.015625)"/>
       <path id="DejaVuSans-49" d="M 628 4666 
L 1259 4666 
L 1259 0 
L 628 0 
L 628 4666 
z
" transform="scale(0.015625)"/>
       <path id="DejaVuSans-6d" d="M 3328 2828 
Q 3544 3216 3844 3400 
Q 4144 3584 4550 3584 
Q 5097 3584 5394 3201 
Q 5691 2819 5691 2113 
L 5691 0 
L 5113 0 
L 5113 2094 
Q 5113 2597 4934 2840 
Q 4756 3084 4391 3084 
Q 3944 3084 3684 2787 
Q 3425 2491 3425 1978 
L 3425 0 
L 2847 0 
L 2847 2094 
Q 2847 2600 2669 2842 
Q 2491 3084 2119 3084 
Q 1678 3084 1418 2786 
Q 1159 2488 1159 1978 
L 1159 0 
L 581 0 
L 581 3500 
L 1159 3500 
L 1159 2956 
Q 1356 3278 1631 3431 
Q 1906 3584 2284 3584 
Q 2666 3584 2933 3390 
Q 3200 3197 3328 2828 
z
" transform="scale(0.015625)"/>
       <path id="DejaVuSans-5a" d="M 359 4666 
L 4025 4666 
L 4025 4184 
L 1075 531 
L 4097 531 
L 4097 0 
L 288 0 
L 288 481 
L 3238 4134 
L 359 4134 
L 359 4666 
z
" transform="scale(0.015625)"/>
      </defs>
      <use xlink:href="#DejaVuSans-2212" transform="translate(0 0.125)"/>
      <use xlink:href="#DejaVuSans-49" transform="translate(83.789062 0.125)"/>
      <use xlink:href="#DejaVuSans-6d" transform="translate(109.65625 0.125)"/>
      <use xlink:href="#DejaVuSans-28" transform="translate(207.068359 0.125)"/>
      <use xlink:href="#DejaVuSans-5a" transform="translate(246.082031 0.125)"/>
      <use xlink:href="#DejaVuSans-29" transform="translate(314.587891 0.125)"/>
      <use xlink:href="#DejaVuSans-20" transform="translate(353.601562 0.125)"/>
      <use xlink:href="#DejaVuSans-28" transform="translate(385.388672 0.125)"/>
      <use xlink:href="#DejaVuSans-3a9" transform="translate(424.402344 0.125)"/>
      <use xlink:href="#DejaVuSans-29" transform="translate(500.818359 0.125)"/>
     </g>
    </g>
   </g>
   <g id="line2d_53">
    <path d="M 392.3 285.793091 
L 380.735714 261.762789 
L 369.171429 230.226339 
L 357.607143 190.078143 
L 346.042857 141.972973 
L 334.478571 90.646742 
L 322.914286 46.764096 
L 311.35 23.894909 
L 299.785714 28.774687 
L 288.221429 54.841529 
L 276.657143 88.371922 
L 265.092857 118.349975 
L 253.528571 139.742224 
L 241.964286 151.744913 
L 230.4 155.462056 
L 218.835714 152.560311 
L 207.271429 144.727909 
L 195.707143 133.529502 
L 184.142857 120.405837 
L 172.578571 106.7025 
L 161.014286 93.681489 
L 149.45 82.501322 
L 137.885714 74.167785 
L 126.321429 69.467937 
L 114.757143 68.906391 
L 103.192857 72.664024 
L 91.628571 80.594033 
L 80.064286 92.259842 
L 68.5 107.007681 
" clip-path="url(#pa1bd945de5)" style="fill: none; stroke-dasharray: 1.5,2.475; stroke-dashoffset: 0; stroke: #ee3377; stroke-width: 1.5"/>
   </g>
   <g id="patch_7">
    <path d="M 52.31 298.888 
L 52.31 10.8 
" style="fill: none; stroke: #000000; stroke-width: 0.8; stroke-linejoin: miter; stroke-linecap: square"/>
   </g>
   <g id="patch_8">
    <path d="M 408.49 298.888 
L 408.49 10.8 
" style="fill: none; stroke: #000000; stroke-width: 0.8; stroke-linejoin: miter; stroke-linecap: square"/>
   </g>
   <g id="patch_9">
    <path d="M 52.31 298.888 
L 408.49 298.888 
" style="fill: none; stroke: #000000; stroke-width: 0.8; stroke-linejoin: miter; stroke-linecap: square"/>
   </g>
   <g id="patch_10">
    <path d="M 52.31 10.8 
L 408.49 10.8 
" style="fill: none; stroke: #000000; stroke-width: 0.8; stroke-linejoin: miter; stroke-linecap: square"/>
   </g>
   <g id="legend_1">
    <g id="patch_11">
     <path d="M 59.31 293.888 
L 176.61 293.888 
Q 178.61 293.888 178.61 291.888 
L 178.61 234.1755 
Q 178.61 232.1755 176.61 232.1755 
L 59.31 232.1755 
Q 57.31 232.1755 57.31 234.1755 
L 57.31 291.888 
Q 57.31 293.888 59.31 293.888 
z
" style="fill: #ffffff; opacity: 0.8; stroke: #cccccc; stroke-linejoin: miter"/>
    </g>
    <g id="PathCollection_3">
     <path d="M 71.31 244.148937 
C 72.105609 244.148937 72.86874 243.832839 73.43132 243.270258 
C 73.993901 242.707677 74.31 241.944547 74.31 241.148937 
C 74.31 240.353328 73.993901 239.590198 73.43132 239.027617 
C 72.86874 238.465036 72.105609 238.148937 71.31 238.148937 
C 70.514391 238.148937 69.75126 238.465036 69.18868 239.027617 
C 68.626099 239.590198 68.31 240.353328 68.31 241.148937 
C 68.31 241.944547 68.626099 242.707677 69.18868 243.270258 
C 69.75126 243.832839 70.514391 244.148937 71.31 244.148937 
L 71.31 244.148937 
z
" style="fill: none; stroke: #000000"/>
    </g>
    <g id="text_20">
     <!-- TC-1, Re($Z$) -->
     <g transform="translate(89.31 243.773937) scale(0.1 -0.1)">
      <defs>
       <path id="DejaVuSans-54" d="M -19 4666 
L 3928 4666 
L 3928 4134 
L 2272 4134 
L 2272 0 
L 1638 0 
L 1638 4134 
L -19 4134 
L -19 4666 
z
" transform="scale(0.015625)"/>
       <path id="DejaVuSans-43" d="M 4122 4306 
L 4122 3641 
Q 3803 3938 3442 4084 
Q 3081 4231 2675 4231 
Q 1875 4231 1450 3742 
Q 1025 3253 1025 2328 
Q 1025 1406 1450 917 
Q 1875 428 2675 428 
Q 3081 428 3442 575 
Q 3803 722 4122 1019 
L 4122 359 
Q 3791 134 3420 21 
Q 3050 -91 2638 -91 
Q 1578 -91 968 557 
Q 359 1206 359 2328 
Q 359 3453 968 4101 
Q 1578 4750 2638 4750 
Q 3056 4750 3426 4639 
Q 3797 4528 4122 4306 
z
" transform="scale(0.015625)"/>
       <path id="DejaVuSans-2d" d="M 313 2009 
L 1997 2009 
L 1997 1497 
L 313 1497 
L 313 2009 
z
" transform="scale(0.015625)"/>
       <path id="DejaVuSans-2c" d="M 750 794 
L 1409 794 
L 1409 256 
L 897 -744 
L 494 -744 
L 750 256 
L 750 794 
z
" transform="scale(0.015625)"/>
      </defs>
      <use xlink:href="#DejaVuSans-54" transform="translate(0 0.125)"/>
      <use xlink:href="#DejaVuSans-43" transform="translate(61.083984 0.125)"/>
      <use xlink:href="#DejaVuSans-2d" transform="translate(130.908203 0.125)"/>
      <use xlink:href="#DejaVuSans-31" transform="translate(166.992188 0.125)"/>
      <use xlink:href="#DejaVuSans-2c" transform="translate(230.615234 0.125)"/>
      <use xlink:href="#DejaVuSans-20" transform="translate(262.402344 0.125)"/>
      <use xlink:href="#DejaVuSans-52" transform="translate(294.189453 0.125)"/>
      <use xlink:href="#DejaVuSans-65" transform="translate(363.671875 0.125)"/>
      <use xlink:href="#DejaVuSans-28" transform="translate(425.195312 0.125)"/>
      <use xlink:href="#DejaVuSans-Oblique-5a" transform="translate(464.208984 0.125)"/>
      <use xlink:href="#DejaVuSans-29" transform="translate(532.714844 0.125)"/>
     </g>
    </g>
    <g id="line2d_54">
     <path d="M 61.31 254.952063 
L 71.31 254.952063 
L 81.31 254.952063 
" style="fill: none; stroke-dasharray: 5.55,2.4; stroke-dashoffset: 0; stroke: #009988; stroke-width: 1.5"/>
    </g>
    <g id="text_21">
     <!-- TR-NNLS, Re($Z$) -->
     <g transform="translate(89.31 258.452063) scale(0.1 -0.1)">
      <defs>
       <path id="DejaVuSans-4e" d="M 628 4666 
L 1478 4666 
L 3547 763 
L 3547 4666 
L 4159 4666 
L 4159 0 
L 3309 0 
L 1241 3903 
L 1241 0 
L 628 0 
L 628 4666 
z
" transform="scale(0.015625)"/>
       <path id="DejaVuSans-4c" d="M 628 4666 
L 1259 4666 
L 1259 531 
L 3531 531 
L 3531 0 
L 628 0 
L 628 4666 
z
" transform="scale(0.015625)"/>
       <path id="DejaVuSans-53" d="M 3425 4513 
L 3425 3897 
Q 3066 4069 2747 4153 
Q 2428 4238 2131 4238 
Q 1616 4238 1336 4038 
Q 1056 3838 1056 3469 
Q 1056 3159 1242 3001 
Q 1428 2844 1947 2747 
L 2328 2669 
Q 3034 2534 3370 2195 
Q 3706 1856 3706 1288 
Q 3706 609 3251 259 
Q 2797 -91 1919 -91 
Q 1588 -91 1214 -16 
Q 841 59 441 206 
L 441 856 
Q 825 641 1194 531 
Q 1563 422 1919 422 
Q 2459 422 2753 634 
Q 3047 847 3047 1241 
Q 3047 1584 2836 1778 
Q 2625 1972 2144 2069 
L 1759 2144 
Q 1053 2284 737 2584 
Q 422 2884 422 3419 
Q 422 4038 858 4394 
Q 1294 4750 2059 4750 
Q 2388 4750 2728 4690 
Q 3069 4631 3425 4513 
z
" transform="scale(0.015625)"/>
      </defs>
      <use xlink:href="#DejaVuSans-54" transform="translate(0 0.125)"/>
      <use xlink:href="#DejaVuSans-52" transform="translate(61.083984 0.125)"/>
      <use xlink:href="#DejaVuSans-2d" transform="translate(130.566406 0.125)"/>
      <use xlink:href="#DejaVuSans-4e" transform="translate(166.650391 0.125)"/>
      <use xlink:href="#DejaVuSans-4e" transform="translate(241.455078 0.125)"/>
      <use xlink:href="#DejaVuSans-4c" transform="translate(316.259766 0.125)"/>
      <use xlink:href="#DejaVuSans-53" transform="translate(371.972656 0.125)"/>
      <use xlink:href="#DejaVuSans-2c" transform="translate(435.449219 0.125)"/>
      <use xlink:href="#DejaVuSans-20" transform="translate(467.236328 0.125)"/>
      <use xlink:href="#DejaVuSans-52" transform="translate(499.023438 0.125)"/>
      <use xlink:href="#DejaVuSans-65" transform="translate(568.505859 0.125)"/>
      <use xlink:href="#DejaVuSans-28" transform="translate(630.029297 0.125)"/>
      <use xlink:href="#DejaVuSans-Oblique-5a" transform="translate(669.042969 0.125)"/>
      <use xlink:href="#DejaVuSans-29" transform="translate(737.548828 0.125)"/>
     </g>
    </g>
    <g id="PathCollection_4">
     <path d="M 68.31 273.505187 
L 74.31 273.505187 
L 74.31 267.505187 
L 68.31 267.505187 
L 68.31 273.505187 
z
" style="fill: none; stroke: #000000"/>
    </g>
    <g id="text_22">
     <!-- TC-1, $-$Im($Z$) -->
     <g transform="translate(89.31 273.130187) scale(0.1 -0.1)">
      <use xlink:href="#DejaVuSans-54" transform="translate(0 0.125)"/>
      <use xlink:href="#DejaVuSans-43" transform="translate(61.083984 0.125)"/>
      <use xlink:href="#DejaVuSans-2d" transform="translate(130.908203 0.125)"/>
      <use xlink:href="#DejaVuSans-31" transform="translate(166.992188 0.125)"/>
      <use xlink:href="#DejaVuSans-2c" transform="translate(230.615234 0.125)"/>
      <use xlink:href="#DejaVuSans-20" transform="translate(262.402344 0.125)"/>
      <use xlink:href="#DejaVuSans-2212" transform="translate(294.189453 0.125)"/>
      <use xlink:href="#DejaVuSans-49" transform="translate(377.978516 0.125)"/>
      <use xlink:href="#DejaVuSans-6d" transform="translate(403.845703 0.125)"/>
      <use xlink:href="#DejaVuSans-28" transform="translate(501.257812 0.125)"/>
      <use xlink:href="#DejaVuSans-Oblique-5a" transform="translate(540.271484 0.125)"/>
      <use xlink:href="#DejaVuSans-29" transform="translate(608.777344 0.125)"/>
     </g>
    </g>
    <g id="line2d_55">
     <path d="M 61.31 284.308312 
L 71.31 284.308312 
L 81.31 284.308312 
" style="fill: none; stroke-dasharray: 1.5,2.475; stroke-dashoffset: 0; stroke: #ee3377; stroke-width: 1.5"/>
    </g>
    <g id="text_23">
     <!-- TR-NNLS, $-$Im($Z$) -->
     <g transform="translate(89.31 287.808312) scale(0.1 -0.1)">
      <use xlink:href="#DejaVuSans-54" transform="translate(0 0.125)"/>
      <use xlink:href="#DejaVuSans-52" transform="translate(61.083984 0.125)"/>
      <use xlink:href="#DejaVuSans-2d" transform="translate(130.566406 0.125)"/>
      <use xlink:href="#DejaVuSans-4e" transform="translate(166.650391 0.125)"/>
      <use xlink:href="#DejaVuSans-4e" transform="translate(241.455078 0.125)"/>
      <use xlink:href="#DejaVuSans-4c" transform="translate(316.259766 0.125)"/>
      <use xlink:href="#DejaVuSans-53" transform="translate(371.972656 0.125)"/>
      <use xlink:href="#DejaVuSans-2c" transform="translate(435.449219 0.125)"/>
      <use xlink:href="#DejaVuSans-20" transform="translate(467.236328 0.125)"/>
      <use xlink:href="#DejaVuSans-2212" transform="translate(499.023438 0.125)"/>
      <use xlink:href="#DejaVuSans-49" transform="translate(582.8125 0.125)"/>
      <use xlink:href="#DejaVuSans-6d" transform="translate(608.679688 0.125)"/>
      <use xlink:href="#DejaVuSans-28" transform="translate(706.091797 0.125)"/>
      <use xlink:href="#DejaVuSans-Oblique-5a" transform="translate(745.105469 0.125)"/>
      <use xlink:href="#DejaVuSans-29" transform="translate(813.611328 0.125)"/>
     </g>
    </g>
   </g>
  </g>
 </g>
 <defs>
  <clipPath id="pa1bd945de5">
   <rect x="52.31" y="10.8" width="356.18" height="288.088"/>
  </clipPath>
 </defs>
</svg>
