<?xml version="1.0" encoding="utf-8" standalone="no"?>
<!DOCTYPE svg PUBLIC "-//W3C//DTD SVG 1.1//EN"
  "http://www.w3.org/Graphics/SVG/1.1/DTD/svg11.dtd">
<svg xmlns:xlink="http://www.w3.org/1999/xlink" width="460.8pt" height="345.6pt" viewBox="0 0 460.8 345.6" xmlns="http://www.w3.org/2000/svg" version="1.1">
 <metadata>
  <rdf:RDF xmlns:dc="http://purl.org/dc/elements/1.1/" xmlns:cc="http://creativecommons.org/ns#" xmlns:rdf="http://www.w3.org/1999/02/22-rdf-syntax-ns#">
   <cc:Work>
    <dc:type rdf:resource="http://purl.org/dc/dcmitype/StillImage"/>
    <dc:date>2024-03-14T17:37:20.091737</dc:date>
    <dc:format>image/svg+xml</dc:format>
    <dc:creator>
     <cc:Agent>
      <dc:title>Matplotlib v3.8.3, https://matplotlib.org/</dc:title>
     </cc:Agent>
    </dc:creator>
   </cc:Work>
  </rdf:RDF>
 </metadata>
 <defs>
  <style type="text/css">*{stroke-linejoin: round; stroke-linecap: butt}</style>
 </defs>
 <g id="figure_1">
  <g id="patch_1">
   <path d="M 0 345.6 
L 460.8 345.6 
L 460.8 0 
L 0 0 
L 0 345.6 
z
" style="fill: none"/>
  </g>
  <g id="axes_1">
   <g id="patch_2">
    <path d="M 51.442685 298.888 
L 414.79 298.888 
L 414.79 16.416 
L 51.442685 16.416 
L 51.442685 298.888 
z
" style="fill: none"/>
   </g>
   <g id="PathCollection_1">
    <defs>
     <path id="C0_0_b020dfe640" d="M 0 3 
C 0.795609 3 1.55874 2.683901 2.12132 2.12132 
C 2.683901 1.55874 3 0.795609 3 -0 
C 3 -0.795609 2.683901 -1.55874 2.12132 -2.12132 
C 1.55874 -2.683901 0.795609 -3 0 -3 
C -0.795609 -3 -1.55874 -2.683901 -2.12132 -2.12132 
C -2.683901 -1.55874 -3 -0.795609 -3 0 
C -3 0.795609 -2.683901 1.55874 -2.12132 2.12132 
C -1.55874 2.683901 -0.795609 3 0 3 
z
"/>
    </defs>
    <g clip-path="url(#p732d66405f)">
     <use xlink:href="#C0_0_b020dfe640" x="398.274213" y="284.769507" style="fill: none; stroke: #0077bb"/>
    </g>
    <g clip-path="url(#p732d66405f)">
     <use xlink:href="#C0_0_b020dfe640" x="386.477222" y="279.160468" style="fill: none; stroke: #0077bb"/>
    </g>
    <g clip-path="url(#p732d66405f)">
     <use xlink:href="#C0_0_b020dfe640" x="374.680231" y="270.728861" style="fill: none; stroke: #0077bb"/>
    </g>
    <g clip-path="url(#p732d66405f)">
     <use xlink:href="#C0_0_b020dfe640" x="362.883241" y="258.599406" style="fill: none; stroke: #0077bb"/>
    </g>
    <g clip-path="url(#p732d66405f)">
     <use xlink:href="#C0_0_b020dfe640" x="351.08625" y="242.491874" style="fill: none; stroke: #0077bb"/>
    </g>
    <g clip-path="url(#p732d66405f)">
     <use xlink:href="#C0_0_b020dfe640" x="339.289259" y="223.350396" style="fill: none; stroke: #0077bb"/>
    </g>
    <g clip-path="url(#p732d66405f)">
     <use xlink:href="#C0_0_b020dfe640" x="327.492268" y="203.413733" style="fill: none; stroke: #0077bb"/>
    </g>
    <g clip-path="url(#p732d66405f)">
     <use xlink:href="#C0_0_b020dfe640" x="315.695278" y="185.369695" style="fill: none; stroke: #0077bb"/>
    </g>
    <g clip-path="url(#p732d66405f)">
     <use xlink:href="#C0_0_b020dfe640" x="303.898287" y="171.069892" style="fill: none; stroke: #0077bb"/>
    </g>
    <g clip-path="url(#p732d66405f)">
     <use xlink:href="#C0_0_b020dfe640" x="292.101296" y="160.823455" style="fill: none; stroke: #0077bb"/>
    </g>
    <g clip-path="url(#p732d66405f)">
     <use xlink:href="#C0_0_b020dfe640" x="280.304305" y="153.767353" style="fill: none; stroke: #0077bb"/>
    </g>
    <g clip-path="url(#p732d66405f)">
     <use xlink:href="#C0_0_b020dfe640" x="268.507315" y="148.704097" style="fill: none; stroke: #0077bb"/>
    </g>
    <g clip-path="url(#p732d66405f)">
     <use xlink:href="#C0_0_b020dfe640" x="256.710324" y="144.643302" style="fill: none; stroke: #0077bb"/>
    </g>
    <g clip-path="url(#p732d66405f)">
     <use xlink:href="#C0_0_b020dfe640" x="244.913333" y="140.930326" style="fill: none; stroke: #0077bb"/>
    </g>
    <g clip-path="url(#p732d66405f)">
     <use xlink:href="#C0_0_b020dfe640" x="233.116342" y="137.182245" style="fill: none; stroke: #0077bb"/>
    </g>
    <g clip-path="url(#p732d66405f)">
     <use xlink:href="#C0_0_b020dfe640" x="221.319352" y="133.194916" style="fill: none; stroke: #0077bb"/>
    </g>
    <g clip-path="url(#p732d66405f)">
     <use xlink:href="#C0_0_b020dfe640" x="209.522361" y="128.874775" style="fill: none; stroke: #0077bb"/>
    </g>
    <g clip-path="url(#p732d66405f)">
     <use xlink:href="#C0_0_b020dfe640" x="197.72537" y="124.198082" style="fill: none; stroke: #0077bb"/>
    </g>
    <g clip-path="url(#p732d66405f)">
     <use xlink:href="#C0_0_b020dfe640" x="185.928379" y="119.188202" style="fill: none; stroke: #0077bb"/>
    </g>
    <g clip-path="url(#p732d66405f)">
     <use xlink:href="#C0_0_b020dfe640" x="174.131389" y="113.902308" style="fill: none; stroke: #0077bb"/>
    </g>
    <g clip-path="url(#p732d66405f)">
     <use xlink:href="#C0_0_b020dfe640" x="162.334398" y="108.421964" style="fill: none; stroke: #0077bb"/>
    </g>
    <g clip-path="url(#p732d66405f)">
     <use xlink:href="#C0_0_b020dfe640" x="150.537407" y="102.844682" style="fill: none; stroke: #0077bb"/>
    </g>
    <g clip-path="url(#p732d66405f)">
     <use xlink:href="#C0_0_b020dfe640" x="138.740416" y="97.275373" style="fill: none; stroke: #0077bb"/>
    </g>
    <g clip-path="url(#p732d66405f)">
     <use xlink:href="#C0_0_b020dfe640" x="126.943426" y="91.817806" style="fill: none; stroke: #0077bb"/>
    </g>
    <g clip-path="url(#p732d66405f)">
     <use xlink:href="#C0_0_b020dfe640" x="115.146435" y="86.566761" style="fill: none; stroke: #0077bb"/>
    </g>
    <g clip-path="url(#p732d66405f)">
     <use xlink:href="#C0_0_b020dfe640" x="103.349444" y="81.601763" style="fill: none; stroke: #0077bb"/>
    </g>
    <g clip-path="url(#p732d66405f)">
     <use xlink:href="#C0_0_b020dfe640" x="91.552453" y="76.983042" style="fill: none; stroke: #0077bb"/>
    </g>
    <g clip-path="url(#p732d66405f)">
     <use xlink:href="#C0_0_b020dfe640" x="79.755463" y="72.749983" style="fill: none; stroke: #0077bb"/>
    </g>
    <g clip-path="url(#p732d66405f)">
     <use xlink:href="#C0_0_b020dfe640" x="67.958472" y="68.921879" style="fill: none; stroke: #0077bb"/>
    </g>
   </g>
   <g id="matplotlib.axis_1">
    <g id="xtick_1">
     <g id="line2d_1">
      <defs>
       <path id="m961819af69" d="M 0 0 
L 0 3.5 
" style="stroke: #000000; stroke-width: 0.8"/>
      </defs>
      <g>
       <use xlink:href="#m961819af69" x="67.958472" y="298.888" style="stroke: #000000; stroke-width: 0.8"/>
      </g>
     </g>
     <g id="text_1">
      <!-- $\mathdefault{10^{0}}$ -->
      <g transform="translate(59.158472 313.486437) scale(0.1 -0.1)">
       <defs>
        <path id="DejaVuSans-31" d="M 794 531 
L 1825 531 
L 1825 4091 
L 703 3866 
L 703 4441 
L 1819 4666 
L 2450 4666 
L 2450 531 
L 3481 531 
L 3481 0 
L 794 0 
L 794 531 
z
" transform="scale(0.015625)"/>
        <path id="DejaVuSans-30" d="M 2034 4250 
Q 1547 4250 1301 3770 
Q 1056 3291 1056 2328 
Q 1056 1369 1301 889 
Q 1547 409 2034 409 
Q 2525 409 2770 889 
Q 3016 1369 3016 2328 
Q 3016 3291 2770 3770 
Q 2525 4250 2034 4250 
z
M 2034 4750 
Q 2819 4750 3233 4129 
Q 3647 3509 3647 2328 
Q 3647 1150 3233 529 
Q 2819 -91 2034 -91 
Q 1250 -91 836 529 
Q 422 1150 422 2328 
Q 422 3509 836 4129 
Q 1250 4750 2034 4750 
z
" transform="scale(0.015625)"/>
       </defs>
       <use xlink:href="#DejaVuSans-31" transform="translate(0 0.765625)"/>
       <use xlink:href="#DejaVuSans-30" transform="translate(63.623047 0.765625)"/>
       <use xlink:href="#DejaVuSans-30" transform="translate(128.203125 39.046875) scale(0.7)"/>
      </g>
     </g>
    </g>
    <g id="xtick_2">
     <g id="line2d_2">
      <g>
       <use xlink:href="#m961819af69" x="150.537407" y="298.888" style="stroke: #000000; stroke-width: 0.8"/>
      </g>
     </g>
     <g id="text_2">
      <!-- $\mathdefault{10^{1}}$ -->
      <g transform="translate(141.737407 313.486437) scale(0.1 -0.1)">
       <use xlink:href="#DejaVuSans-31" transform="translate(0 0.684375)"/>
       <use xlink:href="#DejaVuSans-30" transform="translate(63.623047 0.684375)"/>
       <use xlink:href="#DejaVuSans-31" transform="translate(128.203125 38.965625) scale(0.7)"/>
      </g>
     </g>
    </g>
    <g id="xtick_3">
     <g id="line2d_3">
      <g>
       <use xlink:href="#m961819af69" x="233.116342" y="298.888" style="stroke: #000000; stroke-width: 0.8"/>
      </g>
     </g>
     <g id="text_3">
      <!-- $\mathdefault{10^{2}}$ -->
      <g transform="translate(224.316342 313.486437) scale(0.1 -0.1)">
       <defs>
        <path id="DejaVuSans-32" d="M 1228 531 
L 3431 531 
L 3431 0 
L 469 0 
L 469 531 
Q 828 903 1448 1529 
Q 2069 2156 2228 2338 
Q 2531 2678 2651 2914 
Q 2772 3150 2772 3378 
Q 2772 3750 2511 3984 
Q 2250 4219 1831 4219 
Q 1534 4219 1204 4116 
Q 875 4013 500 3803 
L 500 4441 
Q 881 4594 1212 4672 
Q 1544 4750 1819 4750 
Q 2544 4750 2975 4387 
Q 3406 4025 3406 3419 
Q 3406 3131 3298 2873 
Q 3191 2616 2906 2266 
Q 2828 2175 2409 1742 
Q 1991 1309 1228 531 
z
" transform="scale(0.015625)"/>
       </defs>
       <use xlink:href="#DejaVuSans-31" transform="translate(0 0.765625)"/>
       <use xlink:href="#DejaVuSans-30" transform="translate(63.623047 0.765625)"/>
       <use xlink:href="#DejaVuSans-32" transform="translate(128.203125 39.046875) scale(0.7)"/>
      </g>
     </g>
    </g>
    <g id="xtick_4">
     <g id="line2d_4">
      <g>
       <use xlink:href="#m961819af69" x="315.695278" y="298.888" style="stroke: #000000; stroke-width: 0.8"/>
      </g>
     </g>
     <g id="text_4">
      <!-- $\mathdefault{10^{3}}$ -->
      <g transform="translate(306.895278 313.486437) scale(0.1 -0.1)">
       <defs>
        <path id="DejaVuSans-33" d="M 2597 2516 
Q 3050 2419 3304 2112 
Q 3559 1806 3559 1356 
Q 3559 666 3084 287 
Q 2609 -91 1734 -91 
Q 1441 -91 1130 -33 
Q 819 25 488 141 
L 488 750 
Q 750 597 1062 519 
Q 1375 441 1716 441 
Q 2309 441 2620 675 
Q 2931 909 2931 1356 
Q 2931 1769 2642 2001 
Q 2353 2234 1838 2234 
L 1294 2234 
L 1294 2753 
L 1863 2753 
Q 2328 2753 2575 2939 
Q 2822 3125 2822 3475 
Q 2822 3834 2567 4026 
Q 2313 4219 1838 4219 
Q 1578 4219 1281 4162 
Q 984 4106 628 3988 
L 628 4550 
Q 988 4650 1302 4700 
Q 1616 4750 1894 4750 
Q 2613 4750 3031 4423 
Q 3450 4097 3450 3541 
Q 3450 3153 3228 2886 
Q 3006 2619 2597 2516 
z
" transform="scale(0.015625)"/>
       </defs>
       <use xlink:href="#DejaVuSans-31" transform="translate(0 0.765625)"/>
       <use xlink:href="#DejaVuSans-30" transform="translate(63.623047 0.765625)"/>
       <use xlink:href="#DejaVuSans-33" transform="translate(128.203125 39.046875) scale(0.7)"/>
      </g>
     </g>
    </g>
    <g id="xtick_5">
     <g id="line2d_5">
      <g>
       <use xlink:href="#m961819af69" x="398.274213" y="298.888" style="stroke: #000000; stroke-width: 0.8"/>
      </g>
     </g>
     <g id="text_5">
      <!-- $\mathdefault{10^{4}}$ -->
      <g transform="translate(389.474213 313.486437) scale(0.1 -0.1)">
       <defs>
        <path id="DejaVuSans-34" d="M 2419 4116 
L 825 1625 
L 2419 1625 
L 2419 4116 
z
M 2253 4666 
L 3047 4666 
L 3047 1625 
L 3713 1625 
L 3713 1100 
L 3047 1100 
L 3047 0 
L 2419 0 
L 2419 1100 
L 313 1100 
L 313 1709 
L 2253 4666 
z
" transform="scale(0.015625)"/>
       </defs>
       <use xlink:href="#DejaVuSans-31" transform="translate(0 0.684375)"/>
       <use xlink:href="#DejaVuSans-30" transform="translate(63.623047 0.684375)"/>
       <use xlink:href="#DejaVuSans-34" transform="translate(128.203125 38.965625) scale(0.7)"/>
      </g>
     </g>
    </g>
    <g id="xtick_6">
     <g id="line2d_6">
      <defs>
       <path id="m1bbed815a9" d="M 0 0 
L 0 2 
" style="stroke: #000000; stroke-width: 0.6"/>
      </defs>
      <g>
       <use xlink:href="#m1bbed815a9" x="55.166833" y="298.888" style="stroke: #000000; stroke-width: 0.6"/>
      </g>
     </g>
    </g>
    <g id="xtick_7">
     <g id="line2d_7">
      <g>
       <use xlink:href="#m1bbed815a9" x="59.955746" y="298.888" style="stroke: #000000; stroke-width: 0.6"/>
      </g>
     </g>
    </g>
    <g id="xtick_8">
     <g id="line2d_8">
      <g>
       <use xlink:href="#m1bbed815a9" x="64.179867" y="298.888" style="stroke: #000000; stroke-width: 0.6"/>
      </g>
     </g>
    </g>
    <g id="xtick_9">
     <g id="line2d_9">
      <g>
       <use xlink:href="#m1bbed815a9" x="92.817208" y="298.888" style="stroke: #000000; stroke-width: 0.6"/>
      </g>
     </g>
    </g>
    <g id="xtick_10">
     <g id="line2d_10">
      <g>
       <use xlink:href="#m1bbed815a9" x="107.358637" y="298.888" style="stroke: #000000; stroke-width: 0.6"/>
      </g>
     </g>
    </g>
    <g id="xtick_11">
     <g id="line2d_11">
      <g>
       <use xlink:href="#m1bbed815a9" x="117.675945" y="298.888" style="stroke: #000000; stroke-width: 0.6"/>
      </g>
     </g>
    </g>
    <g id="xtick_12">
     <g id="line2d_12">
      <g>
       <use xlink:href="#m1bbed815a9" x="125.678671" y="298.888" style="stroke: #000000; stroke-width: 0.6"/>
      </g>
     </g>
    </g>
    <g id="xtick_13">
     <g id="line2d_13">
      <g>
       <use xlink:href="#m1bbed815a9" x="132.217374" y="298.888" style="stroke: #000000; stroke-width: 0.6"/>
      </g>
     </g>
    </g>
    <g id="xtick_14">
     <g id="line2d_14">
      <g>
       <use xlink:href="#m1bbed815a9" x="137.745768" y="298.888" style="stroke: #000000; stroke-width: 0.6"/>
      </g>
     </g>
    </g>
    <g id="xtick_15">
     <g id="line2d_15">
      <g>
       <use xlink:href="#m1bbed815a9" x="142.534681" y="298.888" style="stroke: #000000; stroke-width: 0.6"/>
      </g>
     </g>
    </g>
    <g id="xtick_16">
     <g id="line2d_16">
      <g>
       <use xlink:href="#m1bbed815a9" x="146.758802" y="298.888" style="stroke: #000000; stroke-width: 0.6"/>
      </g>
     </g>
    </g>
    <g id="xtick_17">
     <g id="line2d_17">
      <g>
       <use xlink:href="#m1bbed815a9" x="175.396144" y="298.888" style="stroke: #000000; stroke-width: 0.6"/>
      </g>
     </g>
    </g>
    <g id="xtick_18">
     <g id="line2d_18">
      <g>
       <use xlink:href="#m1bbed815a9" x="189.937572" y="298.888" style="stroke: #000000; stroke-width: 0.6"/>
      </g>
     </g>
    </g>
    <g id="xtick_19">
     <g id="line2d_19">
      <g>
       <use xlink:href="#m1bbed815a9" x="200.25488" y="298.888" style="stroke: #000000; stroke-width: 0.6"/>
      </g>
     </g>
    </g>
    <g id="xtick_20">
     <g id="line2d_20">
      <g>
       <use xlink:href="#m1bbed815a9" x="208.257606" y="298.888" style="stroke: #000000; stroke-width: 0.6"/>
      </g>
     </g>
    </g>
    <g id="xtick_21">
     <g id="line2d_21">
      <g>
       <use xlink:href="#m1bbed815a9" x="214.796309" y="298.888" style="stroke: #000000; stroke-width: 0.6"/>
      </g>
     </g>
    </g>
    <g id="xtick_22">
     <g id="line2d_22">
      <g>
       <use xlink:href="#m1bbed815a9" x="220.324703" y="298.888" style="stroke: #000000; stroke-width: 0.6"/>
      </g>
     </g>
    </g>
    <g id="xtick_23">
     <g id="line2d_23">
      <g>
       <use xlink:href="#m1bbed815a9" x="225.113617" y="298.888" style="stroke: #000000; stroke-width: 0.6"/>
      </g>
     </g>
    </g>
    <g id="xtick_24">
     <g id="line2d_24">
      <g>
       <use xlink:href="#m1bbed815a9" x="229.337738" y="298.888" style="stroke: #000000; stroke-width: 0.6"/>
      </g>
     </g>
    </g>
    <g id="xtick_25">
     <g id="line2d_25">
      <g>
       <use xlink:href="#m1bbed815a9" x="257.975079" y="298.888" style="stroke: #000000; stroke-width: 0.6"/>
      </g>
     </g>
    </g>
    <g id="xtick_26">
     <g id="line2d_26">
      <g>
       <use xlink:href="#m1bbed815a9" x="272.516508" y="298.888" style="stroke: #000000; stroke-width: 0.6"/>
      </g>
     </g>
    </g>
    <g id="xtick_27">
     <g id="line2d_27">
      <g>
       <use xlink:href="#m1bbed815a9" x="282.833815" y="298.888" style="stroke: #000000; stroke-width: 0.6"/>
      </g>
     </g>
    </g>
    <g id="xtick_28">
     <g id="line2d_28">
      <g>
       <use xlink:href="#m1bbed815a9" x="290.836541" y="298.888" style="stroke: #000000; stroke-width: 0.6"/>
      </g>
     </g>
    </g>
    <g id="xtick_29">
     <g id="line2d_29">
      <g>
       <use xlink:href="#m1bbed815a9" x="297.375244" y="298.888" style="stroke: #000000; stroke-width: 0.6"/>
      </g>
     </g>
    </g>
    <g id="xtick_30">
     <g id="line2d_30">
      <g>
       <use xlink:href="#m1bbed815a9" x="302.903639" y="298.888" style="stroke: #000000; stroke-width: 0.6"/>
      </g>
     </g>
    </g>
    <g id="xtick_31">
     <g id="line2d_31">
      <g>
       <use xlink:href="#m1bbed815a9" x="307.692552" y="298.888" style="stroke: #000000; stroke-width: 0.6"/>
      </g>
     </g>
    </g>
    <g id="xtick_32">
     <g id="line2d_32">
      <g>
       <use xlink:href="#m1bbed815a9" x="311.916673" y="298.888" style="stroke: #000000; stroke-width: 0.6"/>
      </g>
     </g>
    </g>
    <g id="xtick_33">
     <g id="line2d_33">
      <g>
       <use xlink:href="#m1bbed815a9" x="340.554014" y="298.888" style="stroke: #000000; stroke-width: 0.6"/>
      </g>
     </g>
    </g>
    <g id="xtick_34">
     <g id="line2d_34">
      <g>
       <use xlink:href="#m1bbed815a9" x="355.095443" y="298.888" style="stroke: #000000; stroke-width: 0.6"/>
      </g>
     </g>
    </g>
    <g id="xtick_35">
     <g id="line2d_35">
      <g>
       <use xlink:href="#m1bbed815a9" x="365.412751" y="298.888" style="stroke: #000000; stroke-width: 0.6"/>
      </g>
     </g>
    </g>
    <g id="xtick_36">
     <g id="line2d_36">
      <g>
       <use xlink:href="#m1bbed815a9" x="373.415476" y="298.888" style="stroke: #000000; stroke-width: 0.6"/>
      </g>
     </g>
    </g>
    <g id="xtick_37">
     <g id="line2d_37">
      <g>
       <use xlink:href="#m1bbed815a9" x="379.954179" y="298.888" style="stroke: #000000; stroke-width: 0.6"/>
      </g>
     </g>
    </g>
    <g id="xtick_38">
     <g id="line2d_38">
      <g>
       <use xlink:href="#m1bbed815a9" x="385.482574" y="298.888" style="stroke: #000000; stroke-width: 0.6"/>
      </g>
     </g>
    </g>
    <g id="xtick_39">
     <g id="line2d_39">
      <g>
       <use xlink:href="#m1bbed815a9" x="390.271487" y="298.888" style="stroke: #000000; stroke-width: 0.6"/>
      </g>
     </g>
    </g>
    <g id="xtick_40">
     <g id="line2d_40">
      <g>
       <use xlink:href="#m1bbed815a9" x="394.495608" y="298.888" style="stroke: #000000; stroke-width: 0.6"/>
      </g>
     </g>
    </g>
    <g id="text_6">
     <!-- $f$ (Hz) -->
     <g transform="translate(219.466342 327.164562) scale(0.1 -0.1)">
      <defs>
       <path id="DejaVuSans-Oblique-66" d="M 3059 4863 
L 2969 4384 
L 2419 4384 
Q 2106 4384 1964 4261 
Q 1822 4138 1753 3809 
L 1691 3500 
L 2638 3500 
L 2553 3053 
L 1606 3053 
L 1013 0 
L 434 0 
L 1031 3053 
L 481 3053 
L 563 3500 
L 1113 3500 
L 1159 3744 
Q 1278 4363 1576 4613 
Q 1875 4863 2516 4863 
L 3059 4863 
z
" transform="scale(0.015625)"/>
       <path id="DejaVuSans-20" transform="scale(0.015625)"/>
       <path id="DejaVuSans-28" d="M 1984 4856 
Q 1566 4138 1362 3434 
Q 1159 2731 1159 2009 
Q 1159 1288 1364 580 
Q 1569 -128 1984 -844 
L 1484 -844 
Q 1016 -109 783 600 
Q 550 1309 550 2009 
Q 550 2706 781 3412 
Q 1013 4119 1484 4856 
L 1984 4856 
z
" transform="scale(0.015625)"/>
       <path id="DejaVuSans-48" d="M 628 4666 
L 1259 4666 
L 1259 2753 
L 3553 2753 
L 3553 4666 
L 4184 4666 
L 4184 0 
L 3553 0 
L 3553 2222 
L 1259 2222 
L 1259 0 
L 628 0 
L 628 4666 
z
" transform="scale(0.015625)"/>
       <path id="DejaVuSans-7a" d="M 353 3500 
L 3084 3500 
L 3084 2975 
L 922 459 
L 3084 459 
L 3084 0 
L 275 0 
L 275 525 
L 2438 3041 
L 353 3041 
L 353 3500 
z
" transform="scale(0.015625)"/>
       <path id="DejaVuSans-29" d="M 513 4856 
L 1013 4856 
Q 1481 4119 1714 3412 
Q 1947 2706 1947 2009 
Q 1947 1309 1714 600 
Q 1481 -109 1013 -844 
L 513 -844 
Q 928 -128 1133 580 
Q 1338 1288 1338 2009 
Q 1338 2731 1133 3434 
Q 928 4138 513 4856 
z
" transform="scale(0.015625)"/>
      </defs>
      <use xlink:href="#DejaVuSans-Oblique-66" transform="translate(0 0.015625)"/>
      <use xlink:href="#DejaVuSans-20" transform="translate(35.205078 0.015625)"/>
      <use xlink:href="#DejaVuSans-28" transform="translate(66.992188 0.015625)"/>
      <use xlink:href="#DejaVuSans-48" transform="translate(106.005859 0.015625)"/>
      <use xlink:href="#DejaVuSans-7a" transform="translate(181.201172 0.015625)"/>
      <use xlink:href="#DejaVuSans-29" transform="translate(233.691406 0.015625)"/>
     </g>
    </g>
   </g>
   <g id="matplotlib.axis_2">
    <g id="ytick_1">
     <g id="line2d_41">
      <defs>
       <path id="mcce38d7ad3" d="M 0 0 
L -3.5 0 
" style="stroke: #000000; stroke-width: 0.8"/>
      </defs>
      <g>
       <use xlink:href="#mcce38d7ad3" x="51.442685" y="298.888" style="stroke: #000000; stroke-width: 0.8"/>
      </g>
     </g>
     <g id="text_7">
      <!-- $\mathdefault{10^{2}}$ -->
      <g transform="translate(26.842685 302.687219) scale(0.1 -0.1)">
       <use xlink:href="#DejaVuSans-31" transform="translate(0 0.765625)"/>
       <use xlink:href="#DejaVuSans-30" transform="translate(63.623047 0.765625)"/>
       <use xlink:href="#DejaVuSans-32" transform="translate(128.203125 39.046875) scale(0.7)"/>
      </g>
     </g>
    </g>
    <g id="ytick_2">
     <g id="line2d_42">
      <g>
       <use xlink:href="#mcce38d7ad3" x="51.442685" y="16.416" style="stroke: #000000; stroke-width: 0.8"/>
      </g>
     </g>
     <g id="text_8">
      <!-- $\mathdefault{10^{3}}$ -->
      <g transform="translate(26.842685 20.215219) scale(0.1 -0.1)">
       <use xlink:href="#DejaVuSans-31" transform="translate(0 0.765625)"/>
       <use xlink:href="#DejaVuSans-30" transform="translate(63.623047 0.765625)"/>
       <use xlink:href="#DejaVuSans-33" transform="translate(128.203125 39.046875) scale(0.7)"/>
      </g>
     </g>
    </g>
    <g id="ytick_3">
     <g id="line2d_43">
      <defs>
       <path id="m2eb53cf73b" d="M 0 0 
L -2 0 
" style="stroke: #000000; stroke-width: 0.6"/>
      </defs>
      <g>
       <use xlink:href="#m2eb53cf73b" x="51.442685" y="213.855455" style="stroke: #000000; stroke-width: 0.6"/>
      </g>
     </g>
    </g>
    <g id="ytick_4">
     <g id="line2d_44">
      <g>
       <use xlink:href="#m2eb53cf73b" x="51.442685" y="164.114605" style="stroke: #000000; stroke-width: 0.6"/>
      </g>
     </g>
    </g>
    <g id="ytick_5">
     <g id="line2d_45">
      <g>
       <use xlink:href="#m2eb53cf73b" x="51.442685" y="128.82291" style="stroke: #000000; stroke-width: 0.6"/>
      </g>
     </g>
    </g>
    <g id="ytick_6">
     <g id="line2d_46">
      <g>
       <use xlink:href="#m2eb53cf73b" x="51.442685" y="101.448545" style="stroke: #000000; stroke-width: 0.6"/>
      </g>
     </g>
    </g>
    <g id="ytick_7">
     <g id="line2d_47">
      <g>
       <use xlink:href="#m2eb53cf73b" x="51.442685" y="79.08206" style="stroke: #000000; stroke-width: 0.6"/>
      </g>
     </g>
    </g>
    <g id="ytick_8">
     <g id="line2d_48">
      <g>
       <use xlink:href="#m2eb53cf73b" x="51.442685" y="60.171466" style="stroke: #000000; stroke-width: 0.6"/>
      </g>
     </g>
    </g>
    <g id="ytick_9">
     <g id="line2d_49">
      <g>
       <use xlink:href="#m2eb53cf73b" x="51.442685" y="43.790365" style="stroke: #000000; stroke-width: 0.6"/>
      </g>
     </g>
    </g>
    <g id="ytick_10">
     <g id="line2d_50">
      <g>
       <use xlink:href="#m2eb53cf73b" x="51.442685" y="29.34121" style="stroke: #000000; stroke-width: 0.6"/>
      </g>
     </g>
    </g>
    <g id="text_9">
     <!-- Mod($Z$) ($\Omega$) -->
     <g transform="translate(20.762997 184.852) rotate(-90) scale(0.1 -0.1)">
      <defs>
       <path id="DejaVuSans-4d" d="M 628 4666 
L 1569 4666 
L 2759 1491 
L 3956 4666 
L 4897 4666 
L 4897 0 
L 4281 0 
L 4281 4097 
L 3078 897 
L 2444 897 
L 1241 4097 
L 1241 0 
L 628 0 
L 628 4666 
z
" transform="scale(0.015625)"/>
       <path id="DejaVuSans-6f" d="M 1959 3097 
Q 1497 3097 1228 2736 
Q 959 2375 959 1747 
Q 959 1119 1226 758 
Q 1494 397 1959 397 
Q 2419 397 2687 759 
Q 2956 1122 2956 1747 
Q 2956 2369 2687 2733 
Q 2419 3097 1959 3097 
z
M 1959 3584 
Q 2709 3584 3137 3096 
Q 3566 2609 3566 1747 
Q 3566 888 3137 398 
Q 2709 -91 1959 -91 
Q 1206 -91 779 398 
Q 353 888 353 1747 
Q 353 2609 779 3096 
Q 1206 3584 1959 3584 
z
" transform="scale(0.015625)"/>
       <path id="DejaVuSans-64" d="M 2906 2969 
L 2906 4863 
L 3481 4863 
L 3481 0 
L 2906 0 
L 2906 525 
Q 2725 213 2448 61 
Q 2172 -91 1784 -91 
Q 1150 -91 751 415 
Q 353 922 353 1747 
Q 353 2572 751 3078 
Q 1150 3584 1784 3584 
Q 2172 3584 2448 3432 
Q 2725 3281 2906 2969 
z
M 947 1747 
Q 947 1113 1208 752 
Q 1469 391 1925 391 
Q 2381 391 2643 752 
Q 2906 1113 2906 1747 
Q 2906 2381 2643 2742 
Q 2381 3103 1925 3103 
Q 1469 3103 1208 2742 
Q 947 2381 947 1747 
z
" transform="scale(0.015625)"/>
       <path id="DejaVuSans-Oblique-5a" d="M 838 4666 
L 4500 4666 
L 4409 4184 
L 794 531 
L 3769 531 
L 3669 0 
L -141 0 
L -50 481 
L 3566 4134 
L 738 4134 
L 838 4666 
z
" transform="scale(0.015625)"/>
       <path id="DejaVuSans-3a9" d="M 4647 556 
L 4647 0 
L 2772 0 
L 2772 556 
Q 3325 859 3634 1378 
Q 3944 1897 3944 2528 
Q 3944 3278 3531 3731 
Q 3119 4184 2444 4184 
Q 1769 4184 1355 3729 
Q 941 3275 941 2528 
Q 941 1897 1250 1378 
Q 1563 859 2119 556 
L 2119 0 
L 244 0 
L 244 556 
L 1241 556 
Q 747 991 519 1456 
Q 294 1922 294 2497 
Q 294 3491 894 4106 
Q 1491 4722 2444 4722 
Q 3391 4722 3994 4106 
Q 4594 3494 4594 2528 
Q 4594 1922 4372 1459 
Q 4150 997 3647 556 
L 4647 556 
z
" transform="scale(0.015625)"/>
      </defs>
      <use xlink:href="#DejaVuSans-4d" transform="translate(0 0.015625)"/>
      <use xlink:href="#DejaVuSans-6f" transform="translate(86.279297 0.015625)"/>
      <use xlink:href="#DejaVuSans-64" transform="translate(147.460938 0.015625)"/>
      <use xlink:href="#DejaVuSans-28" transform="translate(210.9375 0.015625)"/>
      <use xlink:href="#DejaVuSans-Oblique-5a" transform="translate(249.951172 0.015625)"/>
      <use xlink:href="#DejaVuSans-29" transform="translate(318.457031 0.015625)"/>
      <use xlink:href="#DejaVuSans-20" transform="translate(357.470703 0.015625)"/>
      <use xlink:href="#DejaVuSans-28" transform="translate(389.257812 0.015625)"/>
      <use xlink:href="#DejaVuSans-3a9" transform="translate(428.271484 0.015625)"/>
      <use xlink:href="#DejaVuSans-29" transform="translate(504.6875 0.015625)"/>
     </g>
    </g>
   </g>
   <g id="patch_3">
    <path d="M 51.442685 298.888 
L 51.442685 16.416 
" style="fill: none; stroke: #000000; stroke-width: 0.8; stroke-linejoin: miter; stroke-linecap: square"/>
   </g>
   <g id="patch_4">
    <path d="M 414.79 298.888 
L 414.79 16.416 
" style="fill: none; stroke: #000000; stroke-width: 0.8; stroke-linejoin: miter; stroke-linecap: square"/>
   </g>
   <g id="patch_5">
    <path d="M 51.442685 298.888 
L 414.79 298.888 
" style="fill: none; stroke: #000000; stroke-width: 0.8; stroke-linejoin: miter; stroke-linecap: square"/>
   </g>
   <g id="patch_6">
    <path d="M 51.442685 16.416 
L 414.79 16.416 
" style="fill: none; stroke: #000000; stroke-width: 0.8; stroke-linejoin: miter; stroke-linecap: square"/>
   </g>
  </g>
  <g id="axes_2">
   <g id="PathCollection_2">
    <defs>
     <path id="C1_0_9a9f57dc28" d="M -3 3 
L 3 3 
L 3 -3 
L -3 -3 
z
"/>
    </defs>
    <g clip-path="url(#p732d66405f)">
     <use xlink:href="#C1_0_9a9f57dc28" x="398.274213" y="223.561164" style="fill: none; stroke: #ee7733"/>
    </g>
    <g clip-path="url(#p732d66405f)">
     <use xlink:href="#C1_0_9a9f57dc28" x="386.477222" y="182.647095" style="fill: none; stroke: #ee7733"/>
    </g>
    <g clip-path="url(#p732d66405f)">
     <use xlink:href="#C1_0_9a9f57dc28" x="374.680231" y="136.018181" style="fill: none; stroke: #ee7733"/>
    </g>
    <g clip-path="url(#p732d66405f)">
     <use xlink:href="#C1_0_9a9f57dc28" x="362.883241" y="88.751356" style="fill: none; stroke: #ee7733"/>
    </g>
    <g clip-path="url(#p732d66405f)">
     <use xlink:href="#C1_0_9a9f57dc28" x="351.08625" y="49.750922" style="fill: none; stroke: #ee7733"/>
    </g>
    <g clip-path="url(#p732d66405f)">
     <use xlink:href="#C1_0_9a9f57dc28" x="339.289259" y="29.255636" style="fill: none; stroke: #ee7733"/>
    </g>
    <g clip-path="url(#p732d66405f)">
     <use xlink:href="#C1_0_9a9f57dc28" x="327.492268" y="33.645159" style="fill: none; stroke: #ee7733"/>
    </g>
    <g clip-path="url(#p732d66405f)">
     <use xlink:href="#C1_0_9a9f57dc28" x="315.695278" y="61.138985" style="fill: none; stroke: #ee7733"/>
    </g>
    <g clip-path="url(#p732d66405f)">
     <use xlink:href="#C1_0_9a9f57dc28" x="303.898287" y="102.378683" style="fill: none; stroke: #ee7733"/>
    </g>
    <g clip-path="url(#p732d66405f)">
     <use xlink:href="#C1_0_9a9f57dc28" x="292.101296" y="145.882491" style="fill: none; stroke: #ee7733"/>
    </g>
    <g clip-path="url(#p732d66405f)">
     <use xlink:href="#C1_0_9a9f57dc28" x="280.304305" y="183.528019" style="fill: none; stroke: #ee7733"/>
    </g>
    <g clip-path="url(#p732d66405f)">
     <use xlink:href="#C1_0_9a9f57dc28" x="268.507315" y="212.048237" style="fill: none; stroke: #ee7733"/>
    </g>
    <g clip-path="url(#p732d66405f)">
     <use xlink:href="#C1_0_9a9f57dc28" x="256.710324" y="231.51379" style="fill: none; stroke: #ee7733"/>
    </g>
    <g clip-path="url(#p732d66405f)">
     <use xlink:href="#C1_0_9a9f57dc28" x="244.913333" y="243.44963" style="fill: none; stroke: #ee7733"/>
    </g>
    <g clip-path="url(#p732d66405f)">
     <use xlink:href="#C1_0_9a9f57dc28" x="233.116342" y="249.706563" style="fill: none; stroke: #ee7733"/>
    </g>
    <g clip-path="url(#p732d66405f)">
     <use xlink:href="#C1_0_9a9f57dc28" x="221.319352" y="251.996589" style="fill: none; stroke: #ee7733"/>
    </g>
    <g clip-path="url(#p732d66405f)">
     <use xlink:href="#C1_0_9a9f57dc28" x="209.522361" y="251.766827" style="fill: none; stroke: #ee7733"/>
    </g>
    <g clip-path="url(#p732d66405f)">
     <use xlink:href="#C1_0_9a9f57dc28" x="197.72537" y="250.199714" style="fill: none; stroke: #ee7733"/>
    </g>
    <g clip-path="url(#p732d66405f)">
     <use xlink:href="#C1_0_9a9f57dc28" x="185.928379" y="248.243205" style="fill: none; stroke: #ee7733"/>
    </g>
    <g clip-path="url(#p732d66405f)">
     <use xlink:href="#C1_0_9a9f57dc28" x="174.131389" y="246.637289" style="fill: none; stroke: #ee7733"/>
    </g>
    <g clip-path="url(#p732d66405f)">
     <use xlink:href="#C1_0_9a9f57dc28" x="162.334398" y="245.930384" style="fill: none; stroke: #ee7733"/>
    </g>
    <g clip-path="url(#p732d66405f)">
     <use xlink:href="#C1_0_9a9f57dc28" x="150.537407" y="246.48942" style="fill: none; stroke: #ee7733"/>
    </g>
    <g clip-path="url(#p732d66405f)">
     <use xlink:href="#C1_0_9a9f57dc28" x="138.740416" y="248.509936" style="fill: none; stroke: #ee7733"/>
    </g>
    <g clip-path="url(#p732d66405f)">
     <use xlink:href="#C1_0_9a9f57dc28" x="126.943426" y="252.031433" style="fill: none; stroke: #ee7733"/>
    </g>
    <g clip-path="url(#p732d66405f)">
     <use xlink:href="#C1_0_9a9f57dc28" x="115.146435" y="256.960606" style="fill: none; stroke: #ee7733"/>
    </g>
    <g clip-path="url(#p732d66405f)">
     <use xlink:href="#C1_0_9a9f57dc28" x="103.349444" y="263.101991" style="fill: none; stroke: #ee7733"/>
    </g>
    <g clip-path="url(#p732d66405f)">
     <use xlink:href="#C1_0_9a9f57dc28" x="91.552453" y="270.193124" style="fill: none; stroke: #ee7733"/>
    </g>
    <g clip-path="url(#p732d66405f)">
     <use xlink:href="#C1_0_9a9f57dc28" x="79.755463" y="277.939957" style="fill: none; stroke: #ee7733"/>
    </g>
    <g clip-path="url(#p732d66405f)">
     <use xlink:href="#C1_0_9a9f57dc28" x="67.958472" y="286.048364" style="fill: none; stroke: #ee7733"/>
    </g>
   </g>
   <g id="matplotlib.axis_3">
    <g id="ytick_11">
     <g id="line2d_51">
      <defs>
       <path id="mc60e82d368" d="M 0 0 
L 3.5 0 
" style="stroke: #000000; stroke-width: 0.8"/>
      </defs>
      <g>
       <use xlink:href="#mc60e82d368" x="414.79" y="264.028178" style="stroke: #000000; stroke-width: 0.8"/>
      </g>
     </g>
     <g id="text_10">
      <!-- 10 -->
      <g transform="translate(421.79 267.827396) scale(0.1 -0.1)">
       <use xlink:href="#DejaVuSans-31"/>
       <use xlink:href="#DejaVuSans-30" x="63.623047"/>
      </g>
     </g>
    </g>
    <g id="ytick_12">
     <g id="line2d_52">
      <g>
       <use xlink:href="#mc60e82d368" x="414.79" y="209.211493" style="stroke: #000000; stroke-width: 0.8"/>
      </g>
     </g>
     <g id="text_11">
      <!-- 15 -->
      <g transform="translate(421.79 213.010711) scale(0.1 -0.1)">
       <defs>
        <path id="DejaVuSans-35" d="M 691 4666 
L 3169 4666 
L 3169 4134 
L 1269 4134 
L 1269 2991 
Q 1406 3038 1543 3061 
Q 1681 3084 1819 3084 
Q 2600 3084 3056 2656 
Q 3513 2228 3513 1497 
Q 3513 744 3044 326 
Q 2575 -91 1722 -91 
Q 1428 -91 1123 -41 
Q 819 9 494 109 
L 494 744 
Q 775 591 1075 516 
Q 1375 441 1709 441 
Q 2250 441 2565 725 
Q 2881 1009 2881 1497 
Q 2881 1984 2565 2268 
Q 2250 2553 1709 2553 
Q 1456 2553 1204 2497 
Q 953 2441 691 2322 
L 691 4666 
z
" transform="scale(0.015625)"/>
       </defs>
       <use xlink:href="#DejaVuSans-31"/>
       <use xlink:href="#DejaVuSans-35" x="63.623047"/>
      </g>
     </g>
    </g>
    <g id="ytick_13">
     <g id="line2d_53">
      <g>
       <use xlink:href="#mc60e82d368" x="414.79" y="154.394807" style="stroke: #000000; stroke-width: 0.8"/>
      </g>
     </g>
     <g id="text_12">
      <!-- 20 -->
      <g transform="translate(421.79 158.194026) scale(0.1 -0.1)">
       <use xlink:href="#DejaVuSans-32"/>
       <use xlink:href="#DejaVuSans-30" x="63.623047"/>
      </g>
     </g>
    </g>
    <g id="ytick_14">
     <g id="line2d_54">
      <g>
       <use xlink:href="#mc60e82d368" x="414.79" y="99.578122" style="stroke: #000000; stroke-width: 0.8"/>
      </g>
     </g>
     <g id="text_13">
      <!-- 25 -->
      <g transform="translate(421.79 103.377341) scale(0.1 -0.1)">
       <use xlink:href="#DejaVuSans-32"/>
       <use xlink:href="#DejaVuSans-35" x="63.623047"/>
      </g>
     </g>
    </g>
    <g id="ytick_15">
     <g id="line2d_55">
      <g>
       <use xlink:href="#mc60e82d368" x="414.79" y="44.761437" style="stroke: #000000; stroke-width: 0.8"/>
      </g>
     </g>
     <g id="text_14">
      <!-- 30 -->
      <g transform="translate(421.79 48.560656) scale(0.1 -0.1)">
       <use xlink:href="#DejaVuSans-33"/>
       <use xlink:href="#DejaVuSans-30" x="63.623047"/>
      </g>
     </g>
    </g>
    <g id="text_15">
     <!-- $-$Phase($Z$) ($^\circ$) -->
     <g transform="translate(446.113438 193.352) rotate(-90) scale(0.1 -0.1)">
      <defs>
       <path id="DejaVuSans-2212" d="M 678 2272 
L 4684 2272 
L 4684 1741 
L 678 1741 
L 678 2272 
z
" transform="scale(0.015625)"/>
       <path id="DejaVuSans-50" d="M 1259 4147 
L 1259 2394 
L 2053 2394 
Q 2494 2394 2734 2622 
Q 2975 2850 2975 3272 
Q 2975 3691 2734 3919 
Q 2494 4147 2053 4147 
L 1259 4147 
z
M 628 4666 
L 2053 4666 
Q 2838 4666 3239 4311 
Q 3641 3956 3641 3272 
Q 3641 2581 3239 2228 
Q 2838 1875 2053 1875 
L 1259 1875 
L 1259 0 
L 628 0 
L 628 4666 
z
" transform="scale(0.015625)"/>
       <path id="DejaVuSans-68" d="M 3513 2113 
L 3513 0 
L 2938 0 
L 2938 2094 
Q 2938 2591 2744 2837 
Q 2550 3084 2163 3084 
Q 1697 3084 1428 2787 
Q 1159 2491 1159 1978 
L 1159 0 
L 581 0 
L 581 4863 
L 1159 4863 
L 1159 2956 
Q 1366 3272 1645 3428 
Q 1925 3584 2291 3584 
Q 2894 3584 3203 3211 
Q 3513 2838 3513 2113 
z
" transform="scale(0.015625)"/>
       <path id="DejaVuSans-61" d="M 2194 1759 
Q 1497 1759 1228 1600 
Q 959 1441 959 1056 
Q 959 750 1161 570 
Q 1363 391 1709 391 
Q 2188 391 2477 730 
Q 2766 1069 2766 1631 
L 2766 1759 
L 2194 1759 
z
M 3341 1997 
L 3341 0 
L 2766 0 
L 2766 531 
Q 2569 213 2275 61 
Q 1981 -91 1556 -91 
Q 1019 -91 701 211 
Q 384 513 384 1019 
Q 384 1609 779 1909 
Q 1175 2209 1959 2209 
L 2766 2209 
L 2766 2266 
Q 2766 2663 2505 2880 
Q 2244 3097 1772 3097 
Q 1472 3097 1187 3025 
Q 903 2953 641 2809 
L 641 3341 
Q 956 3463 1253 3523 
Q 1550 3584 1831 3584 
Q 2591 3584 2966 3190 
Q 3341 2797 3341 1997 
z
" transform="scale(0.015625)"/>
       <path id="DejaVuSans-73" d="M 2834 3397 
L 2834 2853 
Q 2591 2978 2328 3040 
Q 2066 3103 1784 3103 
Q 1356 3103 1142 2972 
Q 928 2841 928 2578 
Q 928 2378 1081 2264 
Q 1234 2150 1697 2047 
L 1894 2003 
Q 2506 1872 2764 1633 
Q 3022 1394 3022 966 
Q 3022 478 2636 193 
Q 2250 -91 1575 -91 
Q 1294 -91 989 -36 
Q 684 19 347 128 
L 347 722 
Q 666 556 975 473 
Q 1284 391 1588 391 
Q 1994 391 2212 530 
Q 2431 669 2431 922 
Q 2431 1156 2273 1281 
Q 2116 1406 1581 1522 
L 1381 1569 
Q 847 1681 609 1914 
Q 372 2147 372 2553 
Q 372 3047 722 3315 
Q 1072 3584 1716 3584 
Q 2034 3584 2315 3537 
Q 2597 3491 2834 3397 
z
" transform="scale(0.015625)"/>
       <path id="DejaVuSans-65" d="M 3597 1894 
L 3597 1613 
L 953 1613 
Q 991 1019 1311 708 
Q 1631 397 2203 397 
Q 2534 397 2845 478 
Q 3156 559 3463 722 
L 3463 178 
Q 3153 47 2828 -22 
Q 2503 -91 2169 -91 
Q 1331 -91 842 396 
Q 353 884 353 1716 
Q 353 2575 817 3079 
Q 1281 3584 2069 3584 
Q 2775 3584 3186 3129 
Q 3597 2675 3597 1894 
z
M 3022 2063 
Q 3016 2534 2758 2815 
Q 2500 3097 2075 3097 
Q 1594 3097 1305 2825 
Q 1016 2553 972 2059 
L 3022 2063 
z
" transform="scale(0.015625)"/>
       <path id="DejaVuSans-2218" d="M 2000 2619 
Q 1750 2619 1578 2445 
Q 1406 2272 1406 2022 
Q 1406 1775 1578 1605 
Q 1750 1435 2000 1435 
Q 2250 1435 2422 1605 
Q 2594 1775 2594 2022 
Q 2594 2269 2420 2444 
Q 2247 2619 2000 2619 
z
M 2000 3022 
Q 2200 3022 2384 2945 
Q 2569 2869 2703 2725 
Q 2847 2585 2919 2406 
Q 2991 2228 2991 2022 
Q 2991 1610 2702 1324 
Q 2413 1038 1994 1038 
Q 1572 1038 1290 1319 
Q 1009 1600 1009 2022 
Q 1009 2441 1296 2731 
Q 1584 3022 2000 3022 
z
" transform="scale(0.015625)"/>
      </defs>
      <use xlink:href="#DejaVuSans-2212" transform="translate(0 0.015625)"/>
      <use xlink:href="#DejaVuSans-50" transform="translate(83.789062 0.015625)"/>
      <use xlink:href="#DejaVuSans-68" transform="translate(144.091797 0.015625)"/>
      <use xlink:href="#DejaVuSans-61" transform="translate(207.470703 0.015625)"/>
      <use xlink:href="#DejaVuSans-73" transform="translate(268.75 0.015625)"/>
      <use xlink:href="#DejaVuSans-65" transform="translate(320.849609 0.015625)"/>
      <use xlink:href="#DejaVuSans-28" transform="translate(382.373047 0.015625)"/>
      <use xlink:href="#DejaVuSans-Oblique-5a" transform="translate(421.386719 0.015625)"/>
      <use xlink:href="#DejaVuSans-29" transform="translate(489.892578 0.015625)"/>
      <use xlink:href="#DejaVuSans-20" transform="translate(528.90625 0.015625)"/>
      <use xlink:href="#DejaVuSans-28" transform="translate(560.693359 0.015625)"/>
      <use xlink:href="#DejaVuSans-2218" transform="translate(614.301758 38.296875) scale(0.7)"/>
      <use xlink:href="#DejaVuSans-29" transform="translate(674.492188 0.015625)"/>
     </g>
    </g>
   </g>
   <g id="patch_7">
    <path d="M 51.442685 298.888 
L 51.442685 16.416 
" style="fill: none; stroke: #000000; stroke-width: 0.8; stroke-linejoin: miter; stroke-linecap: square"/>
   </g>
   <g id="patch_8">
    <path d="M 414.79 298.888 
L 414.79 16.416 
" style="fill: none; stroke: #000000; stroke-width: 0.8; stroke-linejoin: miter; stroke-linecap: square"/>
   </g>
   <g id="patch_9">
    <path d="M 51.442685 298.888 
L 414.79 298.888 
" style="fill: none; stroke: #000000; stroke-width: 0.8; stroke-linejoin: miter; stroke-linecap: square"/>
   </g>
   <g id="patch_10">
    <path d="M 51.442685 16.416 
L 414.79 16.416 
" style="fill: none; stroke: #000000; stroke-width: 0.8; stroke-linejoin: miter; stroke-linecap: square"/>
   </g>
   <g id="legend_1">
    <g id="patch_11">
     <path d="M 58.442685 53.77225 
L 164.442685 53.77225 
Q 166.442685 53.77225 166.442685 51.77225 
L 166.442685 23.416 
Q 166.442685 21.416 164.442685 21.416 
L 58.442685 21.416 
Q 56.442685 21.416 56.442685 23.416 
L 56.442685 51.77225 
Q 56.442685 53.77225 58.442685 53.77225 
z
" style="fill: #ffffff; opacity: 0.8; stroke: #cccccc; stroke-linejoin: miter"/>
    </g>
    <g id="PathCollection_3">
     <path d="M 70.442685 33.389437 
C 71.238294 33.389437 72.001424 33.073339 72.564005 32.510758 
C 73.126586 31.948177 73.442685 31.185047 73.442685 30.389437 
C 73.442685 29.593828 73.126586 28.830698 72.564005 28.268117 
C 72.001424 27.705536 71.238294 27.389437 70.442685 27.389437 
C 69.647075 27.389437 68.883945 27.705536 68.321364 28.268117 
C 67.758784 28.830698 67.442685 29.593828 67.442685 30.389437 
C 67.442685 31.185047 67.758784 31.948177 68.321364 32.510758 
C 68.883945 33.073339 69.647075 33.389437 70.442685 33.389437 
L 70.442685 33.389437 
z
" style="fill: none; stroke: #0077bb"/>
    </g>
    <g id="text_16">
     <!-- TC-1, Mod($Z$) -->
     <g transform="translate(88.442685 33.014437) scale(0.1 -0.1)">
      <defs>
       <path id="DejaVuSans-54" d="M -19 4666 
L 3928 4666 
L 3928 4134 
L 2272 4134 
L 2272 0 
L 1638 0 
L 1638 4134 
L -19 4134 
L -19 4666 
z
" transform="scale(0.015625)"/>
       <path id="DejaVuSans-43" d="M 4122 4306 
L 4122 3641 
Q 3803 3938 3442 4084 
Q 3081 4231 2675 4231 
Q 1875 4231 1450 3742 
Q 1025 3253 1025 2328 
Q 1025 1406 1450 917 
Q 1875 428 2675 428 
Q 3081 428 3442 575 
Q 3803 722 4122 1019 
L 4122 359 
Q 3791 134 3420 21 
Q 3050 -91 2638 -91 
Q 1578 -91 968 557 
Q 359 1206 359 2328 
Q 359 3453 968 4101 
Q 1578 4750 2638 4750 
Q 3056 4750 3426 4639 
Q 3797 4528 4122 4306 
z
" transform="scale(0.015625)"/>
       <path id="DejaVuSans-2d" d="M 313 2009 
L 1997 2009 
L 1997 1497 
L 313 1497 
L 313 2009 
z
" transform="scale(0.015625)"/>
       <path id="DejaVuSans-2c" d="M 750 794 
L 1409 794 
L 1409 256 
L 897 -744 
L 494 -744 
L 750 256 
L 750 794 
z
" transform="scale(0.015625)"/>
      </defs>
      <use xlink:href="#DejaVuSans-54" transform="translate(0 0.015625)"/>
      <use xlink:href="#DejaVuSans-43" transform="translate(61.083984 0.015625)"/>
      <use xlink:href="#DejaVuSans-2d" transform="translate(130.908203 0.015625)"/>
      <use xlink:href="#DejaVuSans-31" transform="translate(166.992188 0.015625)"/>
      <use xlink:href="#DejaVuSans-2c" transform="translate(230.615234 0.015625)"/>
      <use xlink:href="#DejaVuSans-20" transform="translate(262.402344 0.015625)"/>
      <use xlink:href="#DejaVuSans-4d" transform="translate(294.189453 0.015625)"/>
      <use xlink:href="#DejaVuSans-6f" transform="translate(380.46875 0.015625)"/>
      <use xlink:href="#DejaVuSans-64" transform="translate(441.650391 0.015625)"/>
      <use xlink:href="#DejaVuSans-28" transform="translate(505.126953 0.015625)"/>
      <use xlink:href="#DejaVuSans-Oblique-5a" transform="translate(544.140625 0.015625)"/>
      <use xlink:href="#DejaVuSans-29" transform="translate(612.646484 0.015625)"/>
     </g>
    </g>
    <g id="PathCollection_4">
     <path d="M 67.442685 48.067562 
L 73.442685 48.067562 
L 73.442685 42.067562 
L 67.442685 42.067562 
L 67.442685 48.067562 
z
" style="fill: none; stroke: #ee7733"/>
    </g>
    <g id="text_17">
     <!-- TC-1, Phase($Z$) -->
     <g transform="translate(88.442685 47.692562) scale(0.1 -0.1)">
      <use xlink:href="#DejaVuSans-54" transform="translate(0 0.015625)"/>
      <use xlink:href="#DejaVuSans-43" transform="translate(61.083984 0.015625)"/>
      <use xlink:href="#DejaVuSans-2d" transform="translate(130.908203 0.015625)"/>
      <use xlink:href="#DejaVuSans-31" transform="translate(166.992188 0.015625)"/>
      <use xlink:href="#DejaVuSans-2c" transform="translate(230.615234 0.015625)"/>
      <use xlink:href="#DejaVuSans-20" transform="translate(262.402344 0.015625)"/>
      <use xlink:href="#DejaVuSans-50" transform="translate(294.189453 0.015625)"/>
      <use xlink:href="#DejaVuSans-68" transform="translate(354.492188 0.015625)"/>
      <use xlink:href="#DejaVuSans-61" transform="translate(417.871094 0.015625)"/>
      <use xlink:href="#DejaVuSans-73" transform="translate(479.150391 0.015625)"/>
      <use xlink:href="#DejaVuSans-65" transform="translate(531.25 0.015625)"/>
      <use xlink:href="#DejaVuSans-28" transform="translate(592.773438 0.015625)"/>
      <use xlink:href="#DejaVuSans-Oblique-5a" transform="translate(631.787109 0.015625)"/>
      <use xlink:href="#DejaVuSans-29" transform="translate(700.292969 0.015625)"/>
     </g>
    </g>
   </g>
  </g>
 </g>
 <defs>
  <clipPath id="p732d66405f">
   <rect x="51.442685" y="16.416" width="363.347315" height="282.472"/>
  </clipPath>
 </defs>
</svg>
