<?xml version="1.0" encoding="utf-8" standalone="no"?>
<!DOCTYPE svg PUBLIC "-//W3C//DTD SVG 1.1//EN"
  "http://www.w3.org/Graphics/SVG/1.1/DTD/svg11.dtd">
<svg xmlns:xlink="http://www.w3.org/1999/xlink" width="460.8pt" height="345.6pt" viewBox="0 0 460.8 345.6" xmlns="http://www.w3.org/2000/svg" version="1.1">
 <metadata>
  <rdf:RDF xmlns:dc="http://purl.org/dc/elements/1.1/" xmlns:cc="http://creativecommons.org/ns#" xmlns:rdf="http://www.w3.org/1999/02/22-rdf-syntax-ns#">
   <cc:Work>
    <dc:type rdf:resource="http://purl.org/dc/dcmitype/StillImage"/>
    <dc:date>2025-03-02T11:35:26.423033</dc:date>
    <dc:format>image/svg+xml</dc:format>
    <dc:creator>
     <cc:Agent>
      <dc:title>Matplotlib v3.9.0, https://matplotlib.org/</dc:title>
     </cc:Agent>
    </dc:creator>
   </cc:Work>
  </rdf:RDF>
 </metadata>
 <defs>
  <style type="text/css">*{stroke-linejoin: round; stroke-linecap: butt}</style>
 </defs>
 <g id="figure_1">
  <g id="patch_1">
   <path d="M 0 345.6 
L 460.8 345.6 
L 460.8 0 
L 0 0 
L 0 345.6 
z
" style="fill: none"/>
  </g>
  <g id="axes_1">
   <g id="patch_2">
    <path d="M 60.68 302.2 
L 450 302.2 
L 450 10.8 
L 60.68 10.8 
L 60.68 302.2 
z
" style="fill: none"/>
   </g>
   <g id="PathCollection_1">
    <defs>
     <path id="C0_0_86e03de8a9" d="M 0 3 
C 0.795609 3 1.55874 2.683901 2.12132 2.12132 
C 2.683901 1.55874 3 0.795609 3 -0 
C 3 -0.795609 2.683901 -1.55874 2.12132 -2.12132 
C 1.55874 -2.683901 0.795609 -3 0 -3 
C -0.795609 -3 -1.55874 -2.683901 -2.12132 -2.12132 
C -2.683901 -1.55874 -3 -0.795609 -3 0 
C -3 0.795609 -2.683901 1.55874 -2.12132 2.12132 
C -1.55874 2.683901 -0.795609 3 0 3 
z
"/>
    </defs>
    <g clip-path="url(#p3b7c5e003f)">
     <use xlink:href="#C0_0_86e03de8a9" x="78.387794" y="187.736069" style="fill: none; stroke: #000000"/>
    </g>
    <g clip-path="url(#p3b7c5e003f)">
     <use xlink:href="#C0_0_86e03de8a9" x="79.675027" y="183.903573" style="fill: none; stroke: #000000"/>
    </g>
    <g clip-path="url(#p3b7c5e003f)">
     <use xlink:href="#C0_0_86e03de8a9" x="81.503847" y="179.253118" style="fill: none; stroke: #000000"/>
    </g>
    <g clip-path="url(#p3b7c5e003f)">
     <use xlink:href="#C0_0_86e03de8a9" x="84.054715" y="173.620132" style="fill: none; stroke: #000000"/>
    </g>
    <g clip-path="url(#p3b7c5e003f)">
     <use xlink:href="#C0_0_86e03de8a9" x="87.531815" y="167.051284" style="fill: none; stroke: #000000"/>
    </g>
    <g clip-path="url(#p3b7c5e003f)">
     <use xlink:href="#C0_0_86e03de8a9" x="92.552312" y="159.476558" style="fill: none; stroke: #000000"/>
    </g>
    <g clip-path="url(#p3b7c5e003f)">
     <use xlink:href="#C0_0_86e03de8a9" x="99.657878" y="151.215975" style="fill: none; stroke: #000000"/>
    </g>
    <g clip-path="url(#p3b7c5e003f)">
     <use xlink:href="#C0_0_86e03de8a9" x="109.121363" y="142.623953" style="fill: none; stroke: #000000"/>
    </g>
    <g clip-path="url(#p3b7c5e003f)">
     <use xlink:href="#C0_0_86e03de8a9" x="121.322925" y="134.618805" style="fill: none; stroke: #000000"/>
    </g>
    <g clip-path="url(#p3b7c5e003f)">
     <use xlink:href="#C0_0_86e03de8a9" x="136.230838" y="128.740733" style="fill: none; stroke: #000000"/>
    </g>
    <g clip-path="url(#p3b7c5e003f)">
     <use xlink:href="#C0_0_86e03de8a9" x="152.638924" y="125.536354" style="fill: none; stroke: #000000"/>
    </g>
    <g clip-path="url(#p3b7c5e003f)">
     <use xlink:href="#C0_0_86e03de8a9" x="169.347645" y="125.662128" style="fill: none; stroke: #000000"/>
    </g>
    <g clip-path="url(#p3b7c5e003f)">
     <use xlink:href="#C0_0_86e03de8a9" x="184.911868" y="128.831695" style="fill: none; stroke: #000000"/>
    </g>
    <g clip-path="url(#p3b7c5e003f)">
     <use xlink:href="#C0_0_86e03de8a9" x="198.048146" y="133.789498" style="fill: none; stroke: #000000"/>
    </g>
    <g clip-path="url(#p3b7c5e003f)">
     <use xlink:href="#C0_0_86e03de8a9" x="209.032012" y="139.384694" style="fill: none; stroke: #000000"/>
    </g>
    <g clip-path="url(#p3b7c5e003f)">
     <use xlink:href="#C0_0_86e03de8a9" x="218.022539" y="144.547979" style="fill: none; stroke: #000000"/>
    </g>
    <g clip-path="url(#p3b7c5e003f)">
     <use xlink:href="#C0_0_86e03de8a9" x="225.252544" y="149.147262" style="fill: none; stroke: #000000"/>
    </g>
    <g clip-path="url(#p3b7c5e003f)">
     <use xlink:href="#C0_0_86e03de8a9" x="231.639643" y="152.697613" style="fill: none; stroke: #000000"/>
    </g>
    <g clip-path="url(#p3b7c5e003f)">
     <use xlink:href="#C0_0_86e03de8a9" x="237.145386" y="155.145666" style="fill: none; stroke: #000000"/>
    </g>
    <g clip-path="url(#p3b7c5e003f)">
     <use xlink:href="#C0_0_86e03de8a9" x="242.497304" y="156.309566" style="fill: none; stroke: #000000"/>
    </g>
    <g clip-path="url(#p3b7c5e003f)">
     <use xlink:href="#C0_0_86e03de8a9" x="248.286602" y="156.772834" style="fill: none; stroke: #000000"/>
    </g>
    <g clip-path="url(#p3b7c5e003f)">
     <use xlink:href="#C0_0_86e03de8a9" x="253.723408" y="156.314314" style="fill: none; stroke: #000000"/>
    </g>
    <g clip-path="url(#p3b7c5e003f)">
     <use xlink:href="#C0_0_86e03de8a9" x="259.744111" y="155.327347" style="fill: none; stroke: #000000"/>
    </g>
    <g clip-path="url(#p3b7c5e003f)">
     <use xlink:href="#C0_0_86e03de8a9" x="265.959916" y="154.120377" style="fill: none; stroke: #000000"/>
    </g>
    <g clip-path="url(#p3b7c5e003f)">
     <use xlink:href="#C0_0_86e03de8a9" x="272.980327" y="152.353984" style="fill: none; stroke: #000000"/>
    </g>
    <g clip-path="url(#p3b7c5e003f)">
     <use xlink:href="#C0_0_86e03de8a9" x="280.509335" y="150.059294" style="fill: none; stroke: #000000"/>
    </g>
    <g clip-path="url(#p3b7c5e003f)">
     <use xlink:href="#C0_0_86e03de8a9" x="288.322949" y="147.97093" style="fill: none; stroke: #000000"/>
    </g>
    <g clip-path="url(#p3b7c5e003f)">
     <use xlink:href="#C0_0_86e03de8a9" x="297.097591" y="145.599401" style="fill: none; stroke: #000000"/>
    </g>
    <g clip-path="url(#p3b7c5e003f)">
     <use xlink:href="#C0_0_86e03de8a9" x="306.047502" y="143.231668" style="fill: none; stroke: #000000"/>
    </g>
    <g clip-path="url(#p3b7c5e003f)">
     <use xlink:href="#C0_0_86e03de8a9" x="315.702626" y="141.33594" style="fill: none; stroke: #000000"/>
    </g>
    <g clip-path="url(#p3b7c5e003f)">
     <use xlink:href="#C0_0_86e03de8a9" x="325.721421" y="139.730494" style="fill: none; stroke: #000000"/>
    </g>
    <g clip-path="url(#p3b7c5e003f)">
     <use xlink:href="#C0_0_86e03de8a9" x="336.596079" y="138.004825" style="fill: none; stroke: #000000"/>
    </g>
    <g clip-path="url(#p3b7c5e003f)">
     <use xlink:href="#C0_0_86e03de8a9" x="347.058032" y="137.215605" style="fill: none; stroke: #000000"/>
    </g>
    <g clip-path="url(#p3b7c5e003f)">
     <use xlink:href="#C0_0_86e03de8a9" x="357.862071" y="135.855057" style="fill: none; stroke: #000000"/>
    </g>
    <g clip-path="url(#p3b7c5e003f)">
     <use xlink:href="#C0_0_86e03de8a9" x="369.304412" y="136.349191" style="fill: none; stroke: #000000"/>
    </g>
    <g clip-path="url(#p3b7c5e003f)">
     <use xlink:href="#C0_0_86e03de8a9" x="380.021533" y="136.586757" style="fill: none; stroke: #000000"/>
    </g>
    <g clip-path="url(#p3b7c5e003f)">
     <use xlink:href="#C0_0_86e03de8a9" x="391.284742" y="137.384772" style="fill: none; stroke: #000000"/>
    </g>
    <g clip-path="url(#p3b7c5e003f)">
     <use xlink:href="#C0_0_86e03de8a9" x="401.625455" y="138.81417" style="fill: none; stroke: #000000"/>
    </g>
    <g clip-path="url(#p3b7c5e003f)">
     <use xlink:href="#C0_0_86e03de8a9" x="412.207304" y="140.179575" style="fill: none; stroke: #000000"/>
    </g>
    <g clip-path="url(#p3b7c5e003f)">
     <use xlink:href="#C0_0_86e03de8a9" x="422.586937" y="142.729785" style="fill: none; stroke: #000000"/>
    </g>
    <g clip-path="url(#p3b7c5e003f)">
     <use xlink:href="#C0_0_86e03de8a9" x="432.303636" y="145.372322" style="fill: none; stroke: #000000"/>
    </g>
   </g>
   <g id="matplotlib.axis_1">
    <g id="xtick_1">
     <g id="line2d_1">
      <defs>
       <path id="m49c647f354" d="M 0 0 
L 0 3.5 
" style="stroke: #000000; stroke-width: 0.8"/>
      </defs>
      <g>
       <use xlink:href="#m49c647f354" x="72.428302" y="302.2" style="stroke: #000000; stroke-width: 0.8"/>
      </g>
     </g>
     <g id="text_1">
      <!-- 100 -->
      <g transform="translate(62.884552 316.798437) scale(0.1 -0.1)">
       <defs>
        <path id="DejaVuSans-31" d="M 794 531 
L 1825 531 
L 1825 4091 
L 703 3866 
L 703 4441 
L 1819 4666 
L 2450 4666 
L 2450 531 
L 3481 531 
L 3481 0 
L 794 0 
L 794 531 
z
" transform="scale(0.015625)"/>
        <path id="DejaVuSans-30" d="M 2034 4250 
Q 1547 4250 1301 3770 
Q 1056 3291 1056 2328 
Q 1056 1369 1301 889 
Q 1547 409 2034 409 
Q 2525 409 2770 889 
Q 3016 1369 3016 2328 
Q 3016 3291 2770 3770 
Q 2525 4250 2034 4250 
z
M 2034 4750 
Q 2819 4750 3233 4129 
Q 3647 3509 3647 2328 
Q 3647 1150 3233 529 
Q 2819 -91 2034 -91 
Q 1250 -91 836 529 
Q 422 1150 422 2328 
Q 422 3509 836 4129 
Q 1250 4750 2034 4750 
z
" transform="scale(0.015625)"/>
       </defs>
       <use xlink:href="#DejaVuSans-31"/>
       <use xlink:href="#DejaVuSans-30" x="63.623047"/>
       <use xlink:href="#DejaVuSans-30" x="127.246094"/>
      </g>
     </g>
    </g>
    <g id="xtick_2">
     <g id="line2d_2">
      <g>
       <use xlink:href="#m49c647f354" x="138.373429" y="302.2" style="stroke: #000000; stroke-width: 0.8"/>
      </g>
     </g>
     <g id="text_2">
      <!-- 200 -->
      <g transform="translate(128.829679 316.798437) scale(0.1 -0.1)">
       <defs>
        <path id="DejaVuSans-32" d="M 1228 531 
L 3431 531 
L 3431 0 
L 469 0 
L 469 531 
Q 828 903 1448 1529 
Q 2069 2156 2228 2338 
Q 2531 2678 2651 2914 
Q 2772 3150 2772 3378 
Q 2772 3750 2511 3984 
Q 2250 4219 1831 4219 
Q 1534 4219 1204 4116 
Q 875 4013 500 3803 
L 500 4441 
Q 881 4594 1212 4672 
Q 1544 4750 1819 4750 
Q 2544 4750 2975 4387 
Q 3406 4025 3406 3419 
Q 3406 3131 3298 2873 
Q 3191 2616 2906 2266 
Q 2828 2175 2409 1742 
Q 1991 1309 1228 531 
z
" transform="scale(0.015625)"/>
       </defs>
       <use xlink:href="#DejaVuSans-32"/>
       <use xlink:href="#DejaVuSans-30" x="63.623047"/>
       <use xlink:href="#DejaVuSans-30" x="127.246094"/>
      </g>
     </g>
    </g>
    <g id="xtick_3">
     <g id="line2d_3">
      <g>
       <use xlink:href="#m49c647f354" x="204.318557" y="302.2" style="stroke: #000000; stroke-width: 0.8"/>
      </g>
     </g>
     <g id="text_3">
      <!-- 300 -->
      <g transform="translate(194.774807 316.798437) scale(0.1 -0.1)">
       <defs>
        <path id="DejaVuSans-33" d="M 2597 2516 
Q 3050 2419 3304 2112 
Q 3559 1806 3559 1356 
Q 3559 666 3084 287 
Q 2609 -91 1734 -91 
Q 1441 -91 1130 -33 
Q 819 25 488 141 
L 488 750 
Q 750 597 1062 519 
Q 1375 441 1716 441 
Q 2309 441 2620 675 
Q 2931 909 2931 1356 
Q 2931 1769 2642 2001 
Q 2353 2234 1838 2234 
L 1294 2234 
L 1294 2753 
L 1863 2753 
Q 2328 2753 2575 2939 
Q 2822 3125 2822 3475 
Q 2822 3834 2567 4026 
Q 2313 4219 1838 4219 
Q 1578 4219 1281 4162 
Q 984 4106 628 3988 
L 628 4550 
Q 988 4650 1302 4700 
Q 1616 4750 1894 4750 
Q 2613 4750 3031 4423 
Q 3450 4097 3450 3541 
Q 3450 3153 3228 2886 
Q 3006 2619 2597 2516 
z
" transform="scale(0.015625)"/>
       </defs>
       <use xlink:href="#DejaVuSans-33"/>
       <use xlink:href="#DejaVuSans-30" x="63.623047"/>
       <use xlink:href="#DejaVuSans-30" x="127.246094"/>
      </g>
     </g>
    </g>
    <g id="xtick_4">
     <g id="line2d_4">
      <g>
       <use xlink:href="#m49c647f354" x="270.263684" y="302.2" style="stroke: #000000; stroke-width: 0.8"/>
      </g>
     </g>
     <g id="text_4">
      <!-- 400 -->
      <g transform="translate(260.719934 316.798437) scale(0.1 -0.1)">
       <defs>
        <path id="DejaVuSans-34" d="M 2419 4116 
L 825 1625 
L 2419 1625 
L 2419 4116 
z
M 2253 4666 
L 3047 4666 
L 3047 1625 
L 3713 1625 
L 3713 1100 
L 3047 1100 
L 3047 0 
L 2419 0 
L 2419 1100 
L 313 1100 
L 313 1709 
L 2253 4666 
z
" transform="scale(0.015625)"/>
       </defs>
       <use xlink:href="#DejaVuSans-34"/>
       <use xlink:href="#DejaVuSans-30" x="63.623047"/>
       <use xlink:href="#DejaVuSans-30" x="127.246094"/>
      </g>
     </g>
    </g>
    <g id="xtick_5">
     <g id="line2d_5">
      <g>
       <use xlink:href="#m49c647f354" x="336.208812" y="302.2" style="stroke: #000000; stroke-width: 0.8"/>
      </g>
     </g>
     <g id="text_5">
      <!-- 500 -->
      <g transform="translate(326.665062 316.798437) scale(0.1 -0.1)">
       <defs>
        <path id="DejaVuSans-35" d="M 691 4666 
L 3169 4666 
L 3169 4134 
L 1269 4134 
L 1269 2991 
Q 1406 3038 1543 3061 
Q 1681 3084 1819 3084 
Q 2600 3084 3056 2656 
Q 3513 2228 3513 1497 
Q 3513 744 3044 326 
Q 2575 -91 1722 -91 
Q 1428 -91 1123 -41 
Q 819 9 494 109 
L 494 744 
Q 775 591 1075 516 
Q 1375 441 1709 441 
Q 2250 441 2565 725 
Q 2881 1009 2881 1497 
Q 2881 1984 2565 2268 
Q 2250 2553 1709 2553 
Q 1456 2553 1204 2497 
Q 953 2441 691 2322 
L 691 4666 
z
" transform="scale(0.015625)"/>
       </defs>
       <use xlink:href="#DejaVuSans-35"/>
       <use xlink:href="#DejaVuSans-30" x="63.623047"/>
       <use xlink:href="#DejaVuSans-30" x="127.246094"/>
      </g>
     </g>
    </g>
    <g id="xtick_6">
     <g id="line2d_6">
      <g>
       <use xlink:href="#m49c647f354" x="402.15394" y="302.2" style="stroke: #000000; stroke-width: 0.8"/>
      </g>
     </g>
     <g id="text_6">
      <!-- 600 -->
      <g transform="translate(392.61019 316.798437) scale(0.1 -0.1)">
       <defs>
        <path id="DejaVuSans-36" d="M 2113 2584 
Q 1688 2584 1439 2293 
Q 1191 2003 1191 1497 
Q 1191 994 1439 701 
Q 1688 409 2113 409 
Q 2538 409 2786 701 
Q 3034 994 3034 1497 
Q 3034 2003 2786 2293 
Q 2538 2584 2113 2584 
z
M 3366 4563 
L 3366 3988 
Q 3128 4100 2886 4159 
Q 2644 4219 2406 4219 
Q 1781 4219 1451 3797 
Q 1122 3375 1075 2522 
Q 1259 2794 1537 2939 
Q 1816 3084 2150 3084 
Q 2853 3084 3261 2657 
Q 3669 2231 3669 1497 
Q 3669 778 3244 343 
Q 2819 -91 2113 -91 
Q 1303 -91 875 529 
Q 447 1150 447 2328 
Q 447 3434 972 4092 
Q 1497 4750 2381 4750 
Q 2619 4750 2861 4703 
Q 3103 4656 3366 4563 
z
" transform="scale(0.015625)"/>
       </defs>
       <use xlink:href="#DejaVuSans-36"/>
       <use xlink:href="#DejaVuSans-30" x="63.623047"/>
       <use xlink:href="#DejaVuSans-30" x="127.246094"/>
      </g>
     </g>
    </g>
    <g id="text_7">
     <!-- ${\rm Re}(Z)\ (\Omega)$ -->
     <g transform="translate(232.09 330.476562) scale(0.1 -0.1)">
      <defs>
       <path id="DejaVuSans-52" d="M 2841 2188 
Q 3044 2119 3236 1894 
Q 3428 1669 3622 1275 
L 4263 0 
L 3584 0 
L 2988 1197 
Q 2756 1666 2539 1819 
Q 2322 1972 1947 1972 
L 1259 1972 
L 1259 0 
L 628 0 
L 628 4666 
L 2053 4666 
Q 2853 4666 3247 4331 
Q 3641 3997 3641 3322 
Q 3641 2881 3436 2590 
Q 3231 2300 2841 2188 
z
M 1259 4147 
L 1259 2491 
L 2053 2491 
Q 2509 2491 2742 2702 
Q 2975 2913 2975 3322 
Q 2975 3731 2742 3939 
Q 2509 4147 2053 4147 
L 1259 4147 
z
" transform="scale(0.015625)"/>
       <path id="DejaVuSans-65" d="M 3597 1894 
L 3597 1613 
L 953 1613 
Q 991 1019 1311 708 
Q 1631 397 2203 397 
Q 2534 397 2845 478 
Q 3156 559 3463 722 
L 3463 178 
Q 3153 47 2828 -22 
Q 2503 -91 2169 -91 
Q 1331 -91 842 396 
Q 353 884 353 1716 
Q 353 2575 817 3079 
Q 1281 3584 2069 3584 
Q 2775 3584 3186 3129 
Q 3597 2675 3597 1894 
z
M 3022 2063 
Q 3016 2534 2758 2815 
Q 2500 3097 2075 3097 
Q 1594 3097 1305 2825 
Q 1016 2553 972 2059 
L 3022 2063 
z
" transform="scale(0.015625)"/>
       <path id="DejaVuSans-28" d="M 1984 4856 
Q 1566 4138 1362 3434 
Q 1159 2731 1159 2009 
Q 1159 1288 1364 580 
Q 1569 -128 1984 -844 
L 1484 -844 
Q 1016 -109 783 600 
Q 550 1309 550 2009 
Q 550 2706 781 3412 
Q 1013 4119 1484 4856 
L 1984 4856 
z
" transform="scale(0.015625)"/>
       <path id="DejaVuSans-Oblique-5a" d="M 838 4666 
L 4500 4666 
L 4409 4184 
L 794 531 
L 3769 531 
L 3669 0 
L -141 0 
L -50 481 
L 3566 4134 
L 738 4134 
L 838 4666 
z
" transform="scale(0.015625)"/>
       <path id="DejaVuSans-29" d="M 513 4856 
L 1013 4856 
Q 1481 4119 1714 3412 
Q 1947 2706 1947 2009 
Q 1947 1309 1714 600 
Q 1481 -109 1013 -844 
L 513 -844 
Q 928 -128 1133 580 
Q 1338 1288 1338 2009 
Q 1338 2731 1133 3434 
Q 928 4138 513 4856 
z
" transform="scale(0.015625)"/>
       <path id="DejaVuSans-3a9" d="M 4647 556 
L 4647 0 
L 2772 0 
L 2772 556 
Q 3325 859 3634 1378 
Q 3944 1897 3944 2528 
Q 3944 3278 3531 3731 
Q 3119 4184 2444 4184 
Q 1769 4184 1355 3729 
Q 941 3275 941 2528 
Q 941 1897 1250 1378 
Q 1563 859 2119 556 
L 2119 0 
L 244 0 
L 244 556 
L 1241 556 
Q 747 991 519 1456 
Q 294 1922 294 2497 
Q 294 3491 894 4106 
Q 1491 4722 2444 4722 
Q 3391 4722 3994 4106 
Q 4594 3494 4594 2528 
Q 4594 1922 4372 1459 
Q 4150 997 3647 556 
L 4647 556 
z
" transform="scale(0.015625)"/>
      </defs>
      <use xlink:href="#DejaVuSans-52" transform="translate(0 0.125)"/>
      <use xlink:href="#DejaVuSans-65" transform="translate(69.482422 0.125)"/>
      <use xlink:href="#DejaVuSans-28" transform="translate(131.005859 0.125)"/>
      <use xlink:href="#DejaVuSans-Oblique-5a" transform="translate(170.019531 0.125)"/>
      <use xlink:href="#DejaVuSans-29" transform="translate(238.525391 0.125)"/>
      <use xlink:href="#DejaVuSans-28" transform="translate(310.009441 0.125)"/>
      <use xlink:href="#DejaVuSans-3a9" transform="translate(349.023113 0.125)"/>
      <use xlink:href="#DejaVuSans-29" transform="translate(425.439128 0.125)"/>
     </g>
    </g>
   </g>
   <g id="matplotlib.axis_2">
    <g id="ytick_1">
     <g id="line2d_7">
      <defs>
       <path id="mfa38081f3e" d="M 0 0 
L -3.5 0 
" style="stroke: #000000; stroke-width: 0.8"/>
      </defs>
      <g>
       <use xlink:href="#mfa38081f3e" x="60.68" y="271.559206" style="stroke: #000000; stroke-width: 0.8"/>
      </g>
     </g>
     <g id="text_8">
      <!-- −100 -->
      <g transform="translate(26.212813 275.358425) scale(0.1 -0.1)">
       <defs>
        <path id="DejaVuSans-2212" d="M 678 2272 
L 4684 2272 
L 4684 1741 
L 678 1741 
L 678 2272 
z
" transform="scale(0.015625)"/>
       </defs>
       <use xlink:href="#DejaVuSans-2212"/>
       <use xlink:href="#DejaVuSans-31" x="83.789062"/>
       <use xlink:href="#DejaVuSans-30" x="147.412109"/>
       <use xlink:href="#DejaVuSans-30" x="211.035156"/>
      </g>
     </g>
    </g>
    <g id="ytick_2">
     <g id="line2d_8">
      <g>
       <use xlink:href="#mfa38081f3e" x="60.68" y="238.439592" style="stroke: #000000; stroke-width: 0.8"/>
      </g>
     </g>
     <g id="text_9">
      <!-- −50 -->
      <g transform="translate(32.575313 242.238811) scale(0.1 -0.1)">
       <use xlink:href="#DejaVuSans-2212"/>
       <use xlink:href="#DejaVuSans-35" x="83.789062"/>
       <use xlink:href="#DejaVuSans-30" x="147.412109"/>
      </g>
     </g>
    </g>
    <g id="ytick_3">
     <g id="line2d_9">
      <g>
       <use xlink:href="#mfa38081f3e" x="60.68" y="205.319979" style="stroke: #000000; stroke-width: 0.8"/>
      </g>
     </g>
     <g id="text_10">
      <!-- 0 -->
      <g transform="translate(47.3175 209.119197) scale(0.1 -0.1)">
       <use xlink:href="#DejaVuSans-30"/>
      </g>
     </g>
    </g>
    <g id="ytick_4">
     <g id="line2d_10">
      <g>
       <use xlink:href="#mfa38081f3e" x="60.68" y="172.200365" style="stroke: #000000; stroke-width: 0.8"/>
      </g>
     </g>
     <g id="text_11">
      <!-- 50 -->
      <g transform="translate(40.955 175.999583) scale(0.1 -0.1)">
       <use xlink:href="#DejaVuSans-35"/>
       <use xlink:href="#DejaVuSans-30" x="63.623047"/>
      </g>
     </g>
    </g>
    <g id="ytick_5">
     <g id="line2d_11">
      <g>
       <use xlink:href="#mfa38081f3e" x="60.68" y="139.080751" style="stroke: #000000; stroke-width: 0.8"/>
      </g>
     </g>
     <g id="text_12">
      <!-- 100 -->
      <g transform="translate(34.5925 142.87997) scale(0.1 -0.1)">
       <use xlink:href="#DejaVuSans-31"/>
       <use xlink:href="#DejaVuSans-30" x="63.623047"/>
       <use xlink:href="#DejaVuSans-30" x="127.246094"/>
      </g>
     </g>
    </g>
    <g id="ytick_6">
     <g id="line2d_12">
      <g>
       <use xlink:href="#mfa38081f3e" x="60.68" y="105.961137" style="stroke: #000000; stroke-width: 0.8"/>
      </g>
     </g>
     <g id="text_13">
      <!-- 150 -->
      <g transform="translate(34.5925 109.760356) scale(0.1 -0.1)">
       <use xlink:href="#DejaVuSans-31"/>
       <use xlink:href="#DejaVuSans-35" x="63.623047"/>
       <use xlink:href="#DejaVuSans-30" x="127.246094"/>
      </g>
     </g>
    </g>
    <g id="ytick_7">
     <g id="line2d_13">
      <g>
       <use xlink:href="#mfa38081f3e" x="60.68" y="72.841523" style="stroke: #000000; stroke-width: 0.8"/>
      </g>
     </g>
     <g id="text_14">
      <!-- 200 -->
      <g transform="translate(34.5925 76.640742) scale(0.1 -0.1)">
       <use xlink:href="#DejaVuSans-32"/>
       <use xlink:href="#DejaVuSans-30" x="63.623047"/>
       <use xlink:href="#DejaVuSans-30" x="127.246094"/>
      </g>
     </g>
    </g>
    <g id="ytick_8">
     <g id="line2d_14">
      <g>
       <use xlink:href="#mfa38081f3e" x="60.68" y="39.721909" style="stroke: #000000; stroke-width: 0.8"/>
      </g>
     </g>
     <g id="text_15">
      <!-- 250 -->
      <g transform="translate(34.5925 43.521128) scale(0.1 -0.1)">
       <use xlink:href="#DejaVuSans-32"/>
       <use xlink:href="#DejaVuSans-35" x="63.623047"/>
       <use xlink:href="#DejaVuSans-30" x="127.246094"/>
      </g>
     </g>
    </g>
    <g id="text_16">
     <!-- $-{\rm Im}(Z)\ (\Omega)$ -->
     <g transform="translate(20.133125 183.55) rotate(-90) scale(0.1 -0.1)">
      <defs>
       <path id="DejaVuSans-49" d="M 628 4666 
L 1259 4666 
L 1259 0 
L 628 0 
L 628 4666 
z
" transform="scale(0.015625)"/>
       <path id="DejaVuSans-6d" d="M 3328 2828 
Q 3544 3216 3844 3400 
Q 4144 3584 4550 3584 
Q 5097 3584 5394 3201 
Q 5691 2819 5691 2113 
L 5691 0 
L 5113 0 
L 5113 2094 
Q 5113 2597 4934 2840 
Q 4756 3084 4391 3084 
Q 3944 3084 3684 2787 
Q 3425 2491 3425 1978 
L 3425 0 
L 2847 0 
L 2847 2094 
Q 2847 2600 2669 2842 
Q 2491 3084 2119 3084 
Q 1678 3084 1418 2786 
Q 1159 2488 1159 1978 
L 1159 0 
L 581 0 
L 581 3500 
L 1159 3500 
L 1159 2956 
Q 1356 3278 1631 3431 
Q 1906 3584 2284 3584 
Q 2666 3584 2933 3390 
Q 3200 3197 3328 2828 
z
" transform="scale(0.015625)"/>
      </defs>
      <use xlink:href="#DejaVuSans-2212" transform="translate(0 0.125)"/>
      <use xlink:href="#DejaVuSans-49" transform="translate(83.789062 0.125)"/>
      <use xlink:href="#DejaVuSans-6d" transform="translate(109.65625 0.125)"/>
      <use xlink:href="#DejaVuSans-28" transform="translate(207.068359 0.125)"/>
      <use xlink:href="#DejaVuSans-Oblique-5a" transform="translate(246.082031 0.125)"/>
      <use xlink:href="#DejaVuSans-29" transform="translate(314.587891 0.125)"/>
      <use xlink:href="#DejaVuSans-28" transform="translate(386.071941 0.125)"/>
      <use xlink:href="#DejaVuSans-3a9" transform="translate(425.085613 0.125)"/>
      <use xlink:href="#DejaVuSans-29" transform="translate(501.501628 0.125)"/>
     </g>
    </g>
   </g>
   <g id="line2d_15">
    <path d="M 78.376364 187.728103 
L 80.167217 182.604858 
L 81.922776 178.224287 
L 83.999959 173.679032 
L 85.981777 169.842945 
L 88.424227 165.638282 
L 90.885182 161.865858 
L 93.179271 158.689668 
L 95.800226 155.395238 
L 98.782614 152.012103 
L 102.158811 148.579166 
L 104.966343 146.000784 
L 108.020215 143.445931 
L 111.326341 140.941819 
L 114.886695 138.5182 
L 118.698563 136.206739 
L 122.753892 134.040175 
L 127.038812 132.051254 
L 131.533398 130.271496 
L 136.211751 128.729842 
L 141.042423 127.451299 
L 145.989209 126.45566 
L 151.012279 125.756432 
L 156.069586 125.360076 
L 161.118436 125.265624 
L 166.11713 125.46472 
L 171.02651 125.942082 
L 175.811319 126.676338 
L 180.441271 127.641143 
L 184.891773 128.806483 
L 189.144279 130.140045 
L 193.186305 131.608549 
L 198.237427 133.719526 
L 202.901347 135.937378 
L 208.206009 138.758311 
L 213.863718 142.071152 
L 230.383716 152.078146 
L 233.87667 153.760618 
L 236.666912 154.862095 
L 239.392648 155.701948 
L 242.089678 156.294567 
L 244.788359 156.656278 
L 247.514323 156.804412 
L 250.289164 156.756663 
L 253.708872 156.465625 
L 257.250986 155.947794 
L 261.566059 155.095567 
L 267.442792 153.674912 
L 275.917672 151.355131 
L 295.239738 145.993295 
L 304.231074 143.753645 
L 312.769358 141.857901 
L 320.686271 140.324586 
L 328.87913 138.979225 
L 336.244642 137.98673 
L 343.763296 137.190319 
L 351.40272 136.608853 
L 359.128001 136.257145 
L 366.902373 136.145654 
L 374.687988 136.280289 
L 382.446727 136.662352 
L 390.141021 137.288625 
L 397.734646 138.151602 
L 405.193451 139.23985 
L 412.485991 140.538493 
L 419.584046 142.029772 
L 426.462996 143.693673 
L 432.168999 145.240907 
L 432.168999 145.240907 
" clip-path="url(#p3b7c5e003f)" style="fill: none; stroke: #cc3311; stroke-width: 1.5; stroke-linecap: square"/>
   </g>
   <g id="patch_3">
    <path d="M 60.68 302.2 
L 60.68 10.8 
" style="fill: none; stroke: #000000; stroke-width: 0.8; stroke-linejoin: miter; stroke-linecap: square"/>
   </g>
   <g id="patch_4">
    <path d="M 450 302.2 
L 450 10.8 
" style="fill: none; stroke: #000000; stroke-width: 0.8; stroke-linejoin: miter; stroke-linecap: square"/>
   </g>
   <g id="patch_5">
    <path d="M 60.68 302.2 
L 450 302.2 
" style="fill: none; stroke: #000000; stroke-width: 0.8; stroke-linejoin: miter; stroke-linecap: square"/>
   </g>
   <g id="patch_6">
    <path d="M 60.68 10.8 
L 450 10.8 
" style="fill: none; stroke: #000000; stroke-width: 0.8; stroke-linejoin: miter; stroke-linecap: square"/>
   </g>
   <g id="legend_1">
    <g id="patch_7">
     <path d="M 331.934375 48.15625 
L 443 48.15625 
Q 445 48.15625 445 46.15625 
L 445 17.8 
Q 445 15.8 443 15.8 
L 331.934375 15.8 
Q 329.934375 15.8 329.934375 17.8 
L 329.934375 46.15625 
Q 329.934375 48.15625 331.934375 48.15625 
z
" style="fill: #ffffff; opacity: 0.8; stroke: #cccccc; stroke-linejoin: miter"/>
    </g>
    <g id="PathCollection_2">
     <path d="M 343.934375 27.773438 
C 344.729984 27.773438 345.493115 27.457339 346.055695 26.894758 
C 346.618276 26.332177 346.934375 25.569047 346.934375 24.773438 
C 346.934375 23.977828 346.618276 23.214698 346.055695 22.652117 
C 345.493115 22.089536 344.729984 21.773438 343.934375 21.773438 
C 343.138766 21.773438 342.375635 22.089536 341.813055 22.652117 
C 341.250474 23.214698 340.934375 23.977828 340.934375 24.773438 
C 340.934375 25.569047 341.250474 26.332177 341.813055 26.894758 
C 342.375635 27.457339 343.138766 27.773438 343.934375 27.773438 
L 343.934375 27.773438 
z
" style="fill: none; stroke: #000000"/>
    </g>
    <g id="text_17">
     <!-- Circuit 1 (noisy) -->
     <g transform="translate(361.934375 27.398438) scale(0.1 -0.1)">
      <defs>
       <path id="DejaVuSans-43" d="M 4122 4306 
L 4122 3641 
Q 3803 3938 3442 4084 
Q 3081 4231 2675 4231 
Q 1875 4231 1450 3742 
Q 1025 3253 1025 2328 
Q 1025 1406 1450 917 
Q 1875 428 2675 428 
Q 3081 428 3442 575 
Q 3803 722 4122 1019 
L 4122 359 
Q 3791 134 3420 21 
Q 3050 -91 2638 -91 
Q 1578 -91 968 557 
Q 359 1206 359 2328 
Q 359 3453 968 4101 
Q 1578 4750 2638 4750 
Q 3056 4750 3426 4639 
Q 3797 4528 4122 4306 
z
" transform="scale(0.015625)"/>
       <path id="DejaVuSans-69" d="M 603 3500 
L 1178 3500 
L 1178 0 
L 603 0 
L 603 3500 
z
M 603 4863 
L 1178 4863 
L 1178 4134 
L 603 4134 
L 603 4863 
z
" transform="scale(0.015625)"/>
       <path id="DejaVuSans-72" d="M 2631 2963 
Q 2534 3019 2420 3045 
Q 2306 3072 2169 3072 
Q 1681 3072 1420 2755 
Q 1159 2438 1159 1844 
L 1159 0 
L 581 0 
L 581 3500 
L 1159 3500 
L 1159 2956 
Q 1341 3275 1631 3429 
Q 1922 3584 2338 3584 
Q 2397 3584 2469 3576 
Q 2541 3569 2628 3553 
L 2631 2963 
z
" transform="scale(0.015625)"/>
       <path id="DejaVuSans-63" d="M 3122 3366 
L 3122 2828 
Q 2878 2963 2633 3030 
Q 2388 3097 2138 3097 
Q 1578 3097 1268 2742 
Q 959 2388 959 1747 
Q 959 1106 1268 751 
Q 1578 397 2138 397 
Q 2388 397 2633 464 
Q 2878 531 3122 666 
L 3122 134 
Q 2881 22 2623 -34 
Q 2366 -91 2075 -91 
Q 1284 -91 818 406 
Q 353 903 353 1747 
Q 353 2603 823 3093 
Q 1294 3584 2113 3584 
Q 2378 3584 2631 3529 
Q 2884 3475 3122 3366 
z
" transform="scale(0.015625)"/>
       <path id="DejaVuSans-75" d="M 544 1381 
L 544 3500 
L 1119 3500 
L 1119 1403 
Q 1119 906 1312 657 
Q 1506 409 1894 409 
Q 2359 409 2629 706 
Q 2900 1003 2900 1516 
L 2900 3500 
L 3475 3500 
L 3475 0 
L 2900 0 
L 2900 538 
Q 2691 219 2414 64 
Q 2138 -91 1772 -91 
Q 1169 -91 856 284 
Q 544 659 544 1381 
z
M 1991 3584 
L 1991 3584 
z
" transform="scale(0.015625)"/>
       <path id="DejaVuSans-74" d="M 1172 4494 
L 1172 3500 
L 2356 3500 
L 2356 3053 
L 1172 3053 
L 1172 1153 
Q 1172 725 1289 603 
Q 1406 481 1766 481 
L 2356 481 
L 2356 0 
L 1766 0 
Q 1100 0 847 248 
Q 594 497 594 1153 
L 594 3053 
L 172 3053 
L 172 3500 
L 594 3500 
L 594 4494 
L 1172 4494 
z
" transform="scale(0.015625)"/>
       <path id="DejaVuSans-20" transform="scale(0.015625)"/>
       <path id="DejaVuSans-6e" d="M 3513 2113 
L 3513 0 
L 2938 0 
L 2938 2094 
Q 2938 2591 2744 2837 
Q 2550 3084 2163 3084 
Q 1697 3084 1428 2787 
Q 1159 2491 1159 1978 
L 1159 0 
L 581 0 
L 581 3500 
L 1159 3500 
L 1159 2956 
Q 1366 3272 1645 3428 
Q 1925 3584 2291 3584 
Q 2894 3584 3203 3211 
Q 3513 2838 3513 2113 
z
" transform="scale(0.015625)"/>
       <path id="DejaVuSans-6f" d="M 1959 3097 
Q 1497 3097 1228 2736 
Q 959 2375 959 1747 
Q 959 1119 1226 758 
Q 1494 397 1959 397 
Q 2419 397 2687 759 
Q 2956 1122 2956 1747 
Q 2956 2369 2687 2733 
Q 2419 3097 1959 3097 
z
M 1959 3584 
Q 2709 3584 3137 3096 
Q 3566 2609 3566 1747 
Q 3566 888 3137 398 
Q 2709 -91 1959 -91 
Q 1206 -91 779 398 
Q 353 888 353 1747 
Q 353 2609 779 3096 
Q 1206 3584 1959 3584 
z
" transform="scale(0.015625)"/>
       <path id="DejaVuSans-73" d="M 2834 3397 
L 2834 2853 
Q 2591 2978 2328 3040 
Q 2066 3103 1784 3103 
Q 1356 3103 1142 2972 
Q 928 2841 928 2578 
Q 928 2378 1081 2264 
Q 1234 2150 1697 2047 
L 1894 2003 
Q 2506 1872 2764 1633 
Q 3022 1394 3022 966 
Q 3022 478 2636 193 
Q 2250 -91 1575 -91 
Q 1294 -91 989 -36 
Q 684 19 347 128 
L 347 722 
Q 666 556 975 473 
Q 1284 391 1588 391 
Q 1994 391 2212 530 
Q 2431 669 2431 922 
Q 2431 1156 2273 1281 
Q 2116 1406 1581 1522 
L 1381 1569 
Q 847 1681 609 1914 
Q 372 2147 372 2553 
Q 372 3047 722 3315 
Q 1072 3584 1716 3584 
Q 2034 3584 2315 3537 
Q 2597 3491 2834 3397 
z
" transform="scale(0.015625)"/>
       <path id="DejaVuSans-79" d="M 2059 -325 
Q 1816 -950 1584 -1140 
Q 1353 -1331 966 -1331 
L 506 -1331 
L 506 -850 
L 844 -850 
Q 1081 -850 1212 -737 
Q 1344 -625 1503 -206 
L 1606 56 
L 191 3500 
L 800 3500 
L 1894 763 
L 2988 3500 
L 3597 3500 
L 2059 -325 
z
" transform="scale(0.015625)"/>
      </defs>
      <use xlink:href="#DejaVuSans-43"/>
      <use xlink:href="#DejaVuSans-69" x="69.824219"/>
      <use xlink:href="#DejaVuSans-72" x="97.607422"/>
      <use xlink:href="#DejaVuSans-63" x="136.470703"/>
      <use xlink:href="#DejaVuSans-75" x="191.451172"/>
      <use xlink:href="#DejaVuSans-69" x="254.830078"/>
      <use xlink:href="#DejaVuSans-74" x="282.613281"/>
      <use xlink:href="#DejaVuSans-20" x="321.822266"/>
      <use xlink:href="#DejaVuSans-31" x="353.609375"/>
      <use xlink:href="#DejaVuSans-20" x="417.232422"/>
      <use xlink:href="#DejaVuSans-28" x="449.019531"/>
      <use xlink:href="#DejaVuSans-6e" x="488.033203"/>
      <use xlink:href="#DejaVuSans-6f" x="551.412109"/>
      <use xlink:href="#DejaVuSans-69" x="612.59375"/>
      <use xlink:href="#DejaVuSans-73" x="640.376953"/>
      <use xlink:href="#DejaVuSans-79" x="692.476562"/>
      <use xlink:href="#DejaVuSans-29" x="751.65625"/>
     </g>
    </g>
    <g id="line2d_16">
     <path d="M 333.934375 38.576563 
L 343.934375 38.576563 
L 353.934375 38.576563 
" style="fill: none; stroke: #cc3311; stroke-width: 1.5; stroke-linecap: square"/>
    </g>
    <g id="text_18">
     <!-- R(RC)(RW) -->
     <g transform="translate(361.934375 42.076563) scale(0.1 -0.1)">
      <defs>
       <path id="DejaVuSans-57" d="M 213 4666 
L 850 4666 
L 1831 722 
L 2809 4666 
L 3519 4666 
L 4500 722 
L 5478 4666 
L 6119 4666 
L 4947 0 
L 4153 0 
L 3169 4050 
L 2175 0 
L 1381 0 
L 213 4666 
z
" transform="scale(0.015625)"/>
      </defs>
      <use xlink:href="#DejaVuSans-52"/>
      <use xlink:href="#DejaVuSans-28" x="69.482422"/>
      <use xlink:href="#DejaVuSans-52" x="108.496094"/>
      <use xlink:href="#DejaVuSans-43" x="172.978516"/>
      <use xlink:href="#DejaVuSans-29" x="242.802734"/>
      <use xlink:href="#DejaVuSans-28" x="281.816406"/>
      <use xlink:href="#DejaVuSans-52" x="320.830078"/>
      <use xlink:href="#DejaVuSans-57" x="386.3125"/>
      <use xlink:href="#DejaVuSans-29" x="485.189453"/>
     </g>
    </g>
   </g>
  </g>
 </g>
 <defs>
  <clipPath id="p3b7c5e003f">
   <rect x="60.68" y="10.8" width="389.32" height="291.4"/>
  </clipPath>
 </defs>
</svg>
