<?xml version="1.0" encoding="utf-8" standalone="no"?>
<!DOCTYPE svg PUBLIC "-//W3C//DTD SVG 1.1//EN"
  "http://www.w3.org/Graphics/SVG/1.1/DTD/svg11.dtd">
<svg xmlns:xlink="http://www.w3.org/1999/xlink" width="460.8pt" height="345.6pt" viewBox="0 0 460.8 345.6" xmlns="http://www.w3.org/2000/svg" version="1.1">
 <metadata>
  <rdf:RDF xmlns:dc="http://purl.org/dc/elements/1.1/" xmlns:cc="http://creativecommons.org/ns#" xmlns:rdf="http://www.w3.org/1999/02/22-rdf-syntax-ns#">
   <cc:Work>
    <dc:type rdf:resource="http://purl.org/dc/dcmitype/StillImage"/>
    <dc:date>2024-03-14T17:37:30.711134</dc:date>
    <dc:format>image/svg+xml</dc:format>
    <dc:creator>
     <cc:Agent>
      <dc:title>Matplotlib v3.8.3, https://matplotlib.org/</dc:title>
     </cc:Agent>
    </dc:creator>
   </cc:Work>
  </rdf:RDF>
 </metadata>
 <defs>
  <style type="text/css">*{stroke-linejoin: round; stroke-linecap: butt}</style>
 </defs>
 <g id="figure_1">
  <g id="patch_1">
   <path d="M 0 345.6 
L 460.8 345.6 
L 460.8 0 
L 0 0 
L 0 345.6 
z
" style="fill: none"/>
  </g>
  <g id="axes_1">
   <g id="patch_2">
    <path d="M 60.68 302.2 
L 450 302.2 
L 450 10.8 
L 60.68 10.8 
L 60.68 302.2 
z
" style="fill: none"/>
   </g>
   <g id="PathCollection_1">
    <defs>
     <path id="C0_0_afd78a72a1" d="M 0 3 
C 0.795609 3 1.55874 2.683901 2.12132 2.12132 
C 2.683901 1.55874 3 0.795609 3 -0 
C 3 -0.795609 2.683901 -1.55874 2.12132 -2.12132 
C 1.55874 -2.683901 0.795609 -3 0 -3 
C -0.795609 -3 -1.55874 -2.683901 -2.12132 -2.12132 
C -2.683901 -1.55874 -3 -0.795609 -3 0 
C -3 0.795609 -2.683901 1.55874 -2.12132 2.12132 
C -1.55874 2.683901 -0.795609 3 0 3 
z
"/>
    </defs>
    <g clip-path="url(#p6fdeb77cc1)">
     <use xlink:href="#C0_0_afd78a72a1" x="78.377141" y="187.752211" style="fill: none; stroke: #000000"/>
    </g>
    <g clip-path="url(#p6fdeb77cc1)">
     <use xlink:href="#C0_0_afd78a72a1" x="80.388151" y="182.046891" style="fill: none; stroke: #000000"/>
    </g>
    <g clip-path="url(#p6fdeb77cc1)">
     <use xlink:href="#C0_0_afd78a72a1" x="83.586478" y="174.559447" style="fill: none; stroke: #000000"/>
    </g>
    <g clip-path="url(#p6fdeb77cc1)">
     <use xlink:href="#C0_0_afd78a72a1" x="88.816433" y="165.027386" style="fill: none; stroke: #000000"/>
    </g>
    <g clip-path="url(#p6fdeb77cc1)">
     <use xlink:href="#C0_0_afd78a72a1" x="97.349671" y="153.606165" style="fill: none; stroke: #000000"/>
    </g>
    <g clip-path="url(#p6fdeb77cc1)">
     <use xlink:href="#C0_0_afd78a72a1" x="110.675506" y="141.420193" style="fill: none; stroke: #000000"/>
    </g>
    <g clip-path="url(#p6fdeb77cc1)">
     <use xlink:href="#C0_0_afd78a72a1" x="129.584655" y="131.001492" style="fill: none; stroke: #000000"/>
    </g>
    <g clip-path="url(#p6fdeb77cc1)">
     <use xlink:href="#C0_0_afd78a72a1" x="152.708137" y="125.571846" style="fill: none; stroke: #000000"/>
    </g>
    <g clip-path="url(#p6fdeb77cc1)">
     <use xlink:href="#C0_0_afd78a72a1" x="176.288558" y="126.730412" style="fill: none; stroke: #000000"/>
    </g>
    <g clip-path="url(#p6fdeb77cc1)">
     <use xlink:href="#C0_0_afd78a72a1" x="196.527387" y="132.919251" style="fill: none; stroke: #000000"/>
    </g>
    <g clip-path="url(#p6fdeb77cc1)">
     <use xlink:href="#C0_0_afd78a72a1" x="211.992832" y="140.880101" style="fill: none; stroke: #000000"/>
    </g>
    <g clip-path="url(#p6fdeb77cc1)">
     <use xlink:href="#C0_0_afd78a72a1" x="223.468071" y="147.997548" style="fill: none; stroke: #000000"/>
    </g>
    <g clip-path="url(#p6fdeb77cc1)">
     <use xlink:href="#C0_0_afd78a72a1" x="232.492226" y="153.076536" style="fill: none; stroke: #000000"/>
    </g>
    <g clip-path="url(#p6fdeb77cc1)">
     <use xlink:href="#C0_0_afd78a72a1" x="240.414841" y="155.926237" style="fill: none; stroke: #000000"/>
    </g>
    <g clip-path="url(#p6fdeb77cc1)">
     <use xlink:href="#C0_0_afd78a72a1" x="248.166159" y="156.808769" style="fill: none; stroke: #000000"/>
    </g>
    <g clip-path="url(#p6fdeb77cc1)">
     <use xlink:href="#C0_0_afd78a72a1" x="256.331428" y="156.119831" style="fill: none; stroke: #000000"/>
    </g>
    <g clip-path="url(#p6fdeb77cc1)">
     <use xlink:href="#C0_0_afd78a72a1" x="265.26874" y="154.260247" style="fill: none; stroke: #000000"/>
    </g>
    <g clip-path="url(#p6fdeb77cc1)">
     <use xlink:href="#C0_0_afd78a72a1" x="275.19261" y="151.6015" style="fill: none; stroke: #000000"/>
    </g>
    <g clip-path="url(#p6fdeb77cc1)">
     <use xlink:href="#C0_0_afd78a72a1" x="286.219036" y="148.485654" style="fill: none; stroke: #000000"/>
    </g>
    <g clip-path="url(#p6fdeb77cc1)">
     <use xlink:href="#C0_0_afd78a72a1" x="298.384393" y="145.232182" style="fill: none; stroke: #000000"/>
    </g>
    <g clip-path="url(#p6fdeb77cc1)">
     <use xlink:href="#C0_0_afd78a72a1" x="311.650285" y="142.140709" style="fill: none; stroke: #000000"/>
    </g>
    <g clip-path="url(#p6fdeb77cc1)">
     <use xlink:href="#C0_0_afd78a72a1" x="325.903621" y="139.486292" style="fill: none; stroke: #000000"/>
    </g>
    <g clip-path="url(#p6fdeb77cc1)">
     <use xlink:href="#C0_0_afd78a72a1" x="340.958685" y="137.507728" style="fill: none; stroke: #000000"/>
    </g>
    <g clip-path="url(#p6fdeb77cc1)">
     <use xlink:href="#C0_0_afd78a72a1" x="356.56568" y="136.391881" style="fill: none; stroke: #000000"/>
    </g>
    <g clip-path="url(#p6fdeb77cc1)">
     <use xlink:href="#C0_0_afd78a72a1" x="372.427641" y="136.258558" style="fill: none; stroke: #000000"/>
    </g>
    <g clip-path="url(#p6fdeb77cc1)">
     <use xlink:href="#C0_0_afd78a72a1" x="388.224731" y="137.150702" style="fill: none; stroke: #000000"/>
    </g>
    <g clip-path="url(#p6fdeb77cc1)">
     <use xlink:href="#C0_0_afd78a72a1" x="403.64233" y="139.03346" style="fill: none; stroke: #000000"/>
    </g>
    <g clip-path="url(#p6fdeb77cc1)">
     <use xlink:href="#C0_0_afd78a72a1" x="418.3979" y="141.803178" style="fill: none; stroke: #000000"/>
    </g>
    <g clip-path="url(#p6fdeb77cc1)">
     <use xlink:href="#C0_0_afd78a72a1" x="432.261878" y="145.304638" style="fill: none; stroke: #000000"/>
    </g>
   </g>
   <g id="matplotlib.axis_1">
    <g id="xtick_1">
     <g id="line2d_1">
      <defs>
       <path id="m5c6c3ae737" d="M 0 0 
L 0 3.5 
" style="stroke: #000000; stroke-width: 0.8"/>
      </defs>
      <g>
       <use xlink:href="#m5c6c3ae737" x="72.43419" y="302.2" style="stroke: #000000; stroke-width: 0.8"/>
      </g>
     </g>
     <g id="text_1">
      <!-- 100 -->
      <g transform="translate(62.89044 316.798437) scale(0.1 -0.1)">
       <defs>
        <path id="DejaVuSans-31" d="M 794 531 
L 1825 531 
L 1825 4091 
L 703 3866 
L 703 4441 
L 1819 4666 
L 2450 4666 
L 2450 531 
L 3481 531 
L 3481 0 
L 794 0 
L 794 531 
z
" transform="scale(0.015625)"/>
        <path id="DejaVuSans-30" d="M 2034 4250 
Q 1547 4250 1301 3770 
Q 1056 3291 1056 2328 
Q 1056 1369 1301 889 
Q 1547 409 2034 409 
Q 2525 409 2770 889 
Q 3016 1369 3016 2328 
Q 3016 3291 2770 3770 
Q 2525 4250 2034 4250 
z
M 2034 4750 
Q 2819 4750 3233 4129 
Q 3647 3509 3647 2328 
Q 3647 1150 3233 529 
Q 2819 -91 2034 -91 
Q 1250 -91 836 529 
Q 422 1150 422 2328 
Q 422 3509 836 4129 
Q 1250 4750 2034 4750 
z
" transform="scale(0.015625)"/>
       </defs>
       <use xlink:href="#DejaVuSans-31"/>
       <use xlink:href="#DejaVuSans-30" x="63.623047"/>
       <use xlink:href="#DejaVuSans-30" x="127.246094"/>
      </g>
     </g>
    </g>
    <g id="xtick_2">
     <g id="line2d_2">
      <g>
       <use xlink:href="#m5c6c3ae737" x="138.399679" y="302.2" style="stroke: #000000; stroke-width: 0.8"/>
      </g>
     </g>
     <g id="text_2">
      <!-- 200 -->
      <g transform="translate(128.855929 316.798437) scale(0.1 -0.1)">
       <defs>
        <path id="DejaVuSans-32" d="M 1228 531 
L 3431 531 
L 3431 0 
L 469 0 
L 469 531 
Q 828 903 1448 1529 
Q 2069 2156 2228 2338 
Q 2531 2678 2651 2914 
Q 2772 3150 2772 3378 
Q 2772 3750 2511 3984 
Q 2250 4219 1831 4219 
Q 1534 4219 1204 4116 
Q 875 4013 500 3803 
L 500 4441 
Q 881 4594 1212 4672 
Q 1544 4750 1819 4750 
Q 2544 4750 2975 4387 
Q 3406 4025 3406 3419 
Q 3406 3131 3298 2873 
Q 3191 2616 2906 2266 
Q 2828 2175 2409 1742 
Q 1991 1309 1228 531 
z
" transform="scale(0.015625)"/>
       </defs>
       <use xlink:href="#DejaVuSans-32"/>
       <use xlink:href="#DejaVuSans-30" x="63.623047"/>
       <use xlink:href="#DejaVuSans-30" x="127.246094"/>
      </g>
     </g>
    </g>
    <g id="xtick_3">
     <g id="line2d_3">
      <g>
       <use xlink:href="#m5c6c3ae737" x="204.365167" y="302.2" style="stroke: #000000; stroke-width: 0.8"/>
      </g>
     </g>
     <g id="text_3">
      <!-- 300 -->
      <g transform="translate(194.821417 316.798437) scale(0.1 -0.1)">
       <defs>
        <path id="DejaVuSans-33" d="M 2597 2516 
Q 3050 2419 3304 2112 
Q 3559 1806 3559 1356 
Q 3559 666 3084 287 
Q 2609 -91 1734 -91 
Q 1441 -91 1130 -33 
Q 819 25 488 141 
L 488 750 
Q 750 597 1062 519 
Q 1375 441 1716 441 
Q 2309 441 2620 675 
Q 2931 909 2931 1356 
Q 2931 1769 2642 2001 
Q 2353 2234 1838 2234 
L 1294 2234 
L 1294 2753 
L 1863 2753 
Q 2328 2753 2575 2939 
Q 2822 3125 2822 3475 
Q 2822 3834 2567 4026 
Q 2313 4219 1838 4219 
Q 1578 4219 1281 4162 
Q 984 4106 628 3988 
L 628 4550 
Q 988 4650 1302 4700 
Q 1616 4750 1894 4750 
Q 2613 4750 3031 4423 
Q 3450 4097 3450 3541 
Q 3450 3153 3228 2886 
Q 3006 2619 2597 2516 
z
" transform="scale(0.015625)"/>
       </defs>
       <use xlink:href="#DejaVuSans-33"/>
       <use xlink:href="#DejaVuSans-30" x="63.623047"/>
       <use xlink:href="#DejaVuSans-30" x="127.246094"/>
      </g>
     </g>
    </g>
    <g id="xtick_4">
     <g id="line2d_4">
      <g>
       <use xlink:href="#m5c6c3ae737" x="270.330655" y="302.2" style="stroke: #000000; stroke-width: 0.8"/>
      </g>
     </g>
     <g id="text_4">
      <!-- 400 -->
      <g transform="translate(260.786905 316.798437) scale(0.1 -0.1)">
       <defs>
        <path id="DejaVuSans-34" d="M 2419 4116 
L 825 1625 
L 2419 1625 
L 2419 4116 
z
M 2253 4666 
L 3047 4666 
L 3047 1625 
L 3713 1625 
L 3713 1100 
L 3047 1100 
L 3047 0 
L 2419 0 
L 2419 1100 
L 313 1100 
L 313 1709 
L 2253 4666 
z
" transform="scale(0.015625)"/>
       </defs>
       <use xlink:href="#DejaVuSans-34"/>
       <use xlink:href="#DejaVuSans-30" x="63.623047"/>
       <use xlink:href="#DejaVuSans-30" x="127.246094"/>
      </g>
     </g>
    </g>
    <g id="xtick_5">
     <g id="line2d_5">
      <g>
       <use xlink:href="#m5c6c3ae737" x="336.296143" y="302.2" style="stroke: #000000; stroke-width: 0.8"/>
      </g>
     </g>
     <g id="text_5">
      <!-- 500 -->
      <g transform="translate(326.752393 316.798437) scale(0.1 -0.1)">
       <defs>
        <path id="DejaVuSans-35" d="M 691 4666 
L 3169 4666 
L 3169 4134 
L 1269 4134 
L 1269 2991 
Q 1406 3038 1543 3061 
Q 1681 3084 1819 3084 
Q 2600 3084 3056 2656 
Q 3513 2228 3513 1497 
Q 3513 744 3044 326 
Q 2575 -91 1722 -91 
Q 1428 -91 1123 -41 
Q 819 9 494 109 
L 494 744 
Q 775 591 1075 516 
Q 1375 441 1709 441 
Q 2250 441 2565 725 
Q 2881 1009 2881 1497 
Q 2881 1984 2565 2268 
Q 2250 2553 1709 2553 
Q 1456 2553 1204 2497 
Q 953 2441 691 2322 
L 691 4666 
z
" transform="scale(0.015625)"/>
       </defs>
       <use xlink:href="#DejaVuSans-35"/>
       <use xlink:href="#DejaVuSans-30" x="63.623047"/>
       <use xlink:href="#DejaVuSans-30" x="127.246094"/>
      </g>
     </g>
    </g>
    <g id="xtick_6">
     <g id="line2d_6">
      <g>
       <use xlink:href="#m5c6c3ae737" x="402.261631" y="302.2" style="stroke: #000000; stroke-width: 0.8"/>
      </g>
     </g>
     <g id="text_6">
      <!-- 600 -->
      <g transform="translate(392.717881 316.798437) scale(0.1 -0.1)">
       <defs>
        <path id="DejaVuSans-36" d="M 2113 2584 
Q 1688 2584 1439 2293 
Q 1191 2003 1191 1497 
Q 1191 994 1439 701 
Q 1688 409 2113 409 
Q 2538 409 2786 701 
Q 3034 994 3034 1497 
Q 3034 2003 2786 2293 
Q 2538 2584 2113 2584 
z
M 3366 4563 
L 3366 3988 
Q 3128 4100 2886 4159 
Q 2644 4219 2406 4219 
Q 1781 4219 1451 3797 
Q 1122 3375 1075 2522 
Q 1259 2794 1537 2939 
Q 1816 3084 2150 3084 
Q 2853 3084 3261 2657 
Q 3669 2231 3669 1497 
Q 3669 778 3244 343 
Q 2819 -91 2113 -91 
Q 1303 -91 875 529 
Q 447 1150 447 2328 
Q 447 3434 972 4092 
Q 1497 4750 2381 4750 
Q 2619 4750 2861 4703 
Q 3103 4656 3366 4563 
z
" transform="scale(0.015625)"/>
       </defs>
       <use xlink:href="#DejaVuSans-36"/>
       <use xlink:href="#DejaVuSans-30" x="63.623047"/>
       <use xlink:href="#DejaVuSans-30" x="127.246094"/>
      </g>
     </g>
    </g>
    <g id="text_7">
     <!-- Re($Z$) ($\Omega$) -->
     <g transform="translate(232.14 330.476562) scale(0.1 -0.1)">
      <defs>
       <path id="DejaVuSans-52" d="M 2841 2188 
Q 3044 2119 3236 1894 
Q 3428 1669 3622 1275 
L 4263 0 
L 3584 0 
L 2988 1197 
Q 2756 1666 2539 1819 
Q 2322 1972 1947 1972 
L 1259 1972 
L 1259 0 
L 628 0 
L 628 4666 
L 2053 4666 
Q 2853 4666 3247 4331 
Q 3641 3997 3641 3322 
Q 3641 2881 3436 2590 
Q 3231 2300 2841 2188 
z
M 1259 4147 
L 1259 2491 
L 2053 2491 
Q 2509 2491 2742 2702 
Q 2975 2913 2975 3322 
Q 2975 3731 2742 3939 
Q 2509 4147 2053 4147 
L 1259 4147 
z
" transform="scale(0.015625)"/>
       <path id="DejaVuSans-65" d="M 3597 1894 
L 3597 1613 
L 953 1613 
Q 991 1019 1311 708 
Q 1631 397 2203 397 
Q 2534 397 2845 478 
Q 3156 559 3463 722 
L 3463 178 
Q 3153 47 2828 -22 
Q 2503 -91 2169 -91 
Q 1331 -91 842 396 
Q 353 884 353 1716 
Q 353 2575 817 3079 
Q 1281 3584 2069 3584 
Q 2775 3584 3186 3129 
Q 3597 2675 3597 1894 
z
M 3022 2063 
Q 3016 2534 2758 2815 
Q 2500 3097 2075 3097 
Q 1594 3097 1305 2825 
Q 1016 2553 972 2059 
L 3022 2063 
z
" transform="scale(0.015625)"/>
       <path id="DejaVuSans-28" d="M 1984 4856 
Q 1566 4138 1362 3434 
Q 1159 2731 1159 2009 
Q 1159 1288 1364 580 
Q 1569 -128 1984 -844 
L 1484 -844 
Q 1016 -109 783 600 
Q 550 1309 550 2009 
Q 550 2706 781 3412 
Q 1013 4119 1484 4856 
L 1984 4856 
z
" transform="scale(0.015625)"/>
       <path id="DejaVuSans-Oblique-5a" d="M 838 4666 
L 4500 4666 
L 4409 4184 
L 794 531 
L 3769 531 
L 3669 0 
L -141 0 
L -50 481 
L 3566 4134 
L 738 4134 
L 838 4666 
z
" transform="scale(0.015625)"/>
       <path id="DejaVuSans-29" d="M 513 4856 
L 1013 4856 
Q 1481 4119 1714 3412 
Q 1947 2706 1947 2009 
Q 1947 1309 1714 600 
Q 1481 -109 1013 -844 
L 513 -844 
Q 928 -128 1133 580 
Q 1338 1288 1338 2009 
Q 1338 2731 1133 3434 
Q 928 4138 513 4856 
z
" transform="scale(0.015625)"/>
       <path id="DejaVuSans-20" transform="scale(0.015625)"/>
       <path id="DejaVuSans-3a9" d="M 4647 556 
L 4647 0 
L 2772 0 
L 2772 556 
Q 3325 859 3634 1378 
Q 3944 1897 3944 2528 
Q 3944 3278 3531 3731 
Q 3119 4184 2444 4184 
Q 1769 4184 1355 3729 
Q 941 3275 941 2528 
Q 941 1897 1250 1378 
Q 1563 859 2119 556 
L 2119 0 
L 244 0 
L 244 556 
L 1241 556 
Q 747 991 519 1456 
Q 294 1922 294 2497 
Q 294 3491 894 4106 
Q 1491 4722 2444 4722 
Q 3391 4722 3994 4106 
Q 4594 3494 4594 2528 
Q 4594 1922 4372 1459 
Q 4150 997 3647 556 
L 4647 556 
z
" transform="scale(0.015625)"/>
      </defs>
      <use xlink:href="#DejaVuSans-52" transform="translate(0 0.125)"/>
      <use xlink:href="#DejaVuSans-65" transform="translate(69.482422 0.125)"/>
      <use xlink:href="#DejaVuSans-28" transform="translate(131.005859 0.125)"/>
      <use xlink:href="#DejaVuSans-Oblique-5a" transform="translate(170.019531 0.125)"/>
      <use xlink:href="#DejaVuSans-29" transform="translate(238.525391 0.125)"/>
      <use xlink:href="#DejaVuSans-20" transform="translate(277.539062 0.125)"/>
      <use xlink:href="#DejaVuSans-28" transform="translate(309.326172 0.125)"/>
      <use xlink:href="#DejaVuSans-3a9" transform="translate(348.339844 0.125)"/>
      <use xlink:href="#DejaVuSans-29" transform="translate(424.755859 0.125)"/>
     </g>
    </g>
   </g>
   <g id="matplotlib.axis_2">
    <g id="ytick_1">
     <g id="line2d_7">
      <defs>
       <path id="m90392a4462" d="M 0 0 
L -3.5 0 
" style="stroke: #000000; stroke-width: 0.8"/>
      </defs>
      <g>
       <use xlink:href="#m90392a4462" x="60.68" y="271.607598" style="stroke: #000000; stroke-width: 0.8"/>
      </g>
     </g>
     <g id="text_8">
      <!-- −100 -->
      <g transform="translate(26.212813 275.406817) scale(0.1 -0.1)">
       <defs>
        <path id="DejaVuSans-2212" d="M 678 2272 
L 4684 2272 
L 4684 1741 
L 678 1741 
L 678 2272 
z
" transform="scale(0.015625)"/>
       </defs>
       <use xlink:href="#DejaVuSans-2212"/>
       <use xlink:href="#DejaVuSans-31" x="83.789062"/>
       <use xlink:href="#DejaVuSans-30" x="147.412109"/>
       <use xlink:href="#DejaVuSans-30" x="211.035156"/>
      </g>
     </g>
    </g>
    <g id="ytick_2">
     <g id="line2d_8">
      <g>
       <use xlink:href="#m90392a4462" x="60.68" y="238.477759" style="stroke: #000000; stroke-width: 0.8"/>
      </g>
     </g>
     <g id="text_9">
      <!-- −50 -->
      <g transform="translate(32.575313 242.276978) scale(0.1 -0.1)">
       <use xlink:href="#DejaVuSans-2212"/>
       <use xlink:href="#DejaVuSans-35" x="83.789062"/>
       <use xlink:href="#DejaVuSans-30" x="147.412109"/>
      </g>
     </g>
    </g>
    <g id="ytick_3">
     <g id="line2d_9">
      <g>
       <use xlink:href="#m90392a4462" x="60.68" y="205.347919" style="stroke: #000000; stroke-width: 0.8"/>
      </g>
     </g>
     <g id="text_10">
      <!-- 0 -->
      <g transform="translate(47.3175 209.147138) scale(0.1 -0.1)">
       <use xlink:href="#DejaVuSans-30"/>
      </g>
     </g>
    </g>
    <g id="ytick_4">
     <g id="line2d_10">
      <g>
       <use xlink:href="#m90392a4462" x="60.68" y="172.21808" style="stroke: #000000; stroke-width: 0.8"/>
      </g>
     </g>
     <g id="text_11">
      <!-- 50 -->
      <g transform="translate(40.955 176.017299) scale(0.1 -0.1)">
       <use xlink:href="#DejaVuSans-35"/>
       <use xlink:href="#DejaVuSans-30" x="63.623047"/>
      </g>
     </g>
    </g>
    <g id="ytick_5">
     <g id="line2d_11">
      <g>
       <use xlink:href="#m90392a4462" x="60.68" y="139.08824" style="stroke: #000000; stroke-width: 0.8"/>
      </g>
     </g>
     <g id="text_12">
      <!-- 100 -->
      <g transform="translate(34.5925 142.887459) scale(0.1 -0.1)">
       <use xlink:href="#DejaVuSans-31"/>
       <use xlink:href="#DejaVuSans-30" x="63.623047"/>
       <use xlink:href="#DejaVuSans-30" x="127.246094"/>
      </g>
     </g>
    </g>
    <g id="ytick_6">
     <g id="line2d_12">
      <g>
       <use xlink:href="#m90392a4462" x="60.68" y="105.958401" style="stroke: #000000; stroke-width: 0.8"/>
      </g>
     </g>
     <g id="text_13">
      <!-- 150 -->
      <g transform="translate(34.5925 109.75762) scale(0.1 -0.1)">
       <use xlink:href="#DejaVuSans-31"/>
       <use xlink:href="#DejaVuSans-35" x="63.623047"/>
       <use xlink:href="#DejaVuSans-30" x="127.246094"/>
      </g>
     </g>
    </g>
    <g id="ytick_7">
     <g id="line2d_13">
      <g>
       <use xlink:href="#m90392a4462" x="60.68" y="72.828561" style="stroke: #000000; stroke-width: 0.8"/>
      </g>
     </g>
     <g id="text_14">
      <!-- 200 -->
      <g transform="translate(34.5925 76.62778) scale(0.1 -0.1)">
       <use xlink:href="#DejaVuSans-32"/>
       <use xlink:href="#DejaVuSans-30" x="63.623047"/>
       <use xlink:href="#DejaVuSans-30" x="127.246094"/>
      </g>
     </g>
    </g>
    <g id="ytick_8">
     <g id="line2d_14">
      <g>
       <use xlink:href="#m90392a4462" x="60.68" y="39.698722" style="stroke: #000000; stroke-width: 0.8"/>
      </g>
     </g>
     <g id="text_15">
      <!-- 250 -->
      <g transform="translate(34.5925 43.497941) scale(0.1 -0.1)">
       <use xlink:href="#DejaVuSans-32"/>
       <use xlink:href="#DejaVuSans-35" x="63.623047"/>
       <use xlink:href="#DejaVuSans-30" x="127.246094"/>
      </g>
     </g>
    </g>
    <g id="text_16">
     <!-- $-$Im($Z$) ($\Omega$) -->
     <g transform="translate(20.133125 183.5) rotate(-90) scale(0.1 -0.1)">
      <defs>
       <path id="DejaVuSans-49" d="M 628 4666 
L 1259 4666 
L 1259 0 
L 628 0 
L 628 4666 
z
" transform="scale(0.015625)"/>
       <path id="DejaVuSans-6d" d="M 3328 2828 
Q 3544 3216 3844 3400 
Q 4144 3584 4550 3584 
Q 5097 3584 5394 3201 
Q 5691 2819 5691 2113 
L 5691 0 
L 5113 0 
L 5113 2094 
Q 5113 2597 4934 2840 
Q 4756 3084 4391 3084 
Q 3944 3084 3684 2787 
Q 3425 2491 3425 1978 
L 3425 0 
L 2847 0 
L 2847 2094 
Q 2847 2600 2669 2842 
Q 2491 3084 2119 3084 
Q 1678 3084 1418 2786 
Q 1159 2488 1159 1978 
L 1159 0 
L 581 0 
L 581 3500 
L 1159 3500 
L 1159 2956 
Q 1356 3278 1631 3431 
Q 1906 3584 2284 3584 
Q 2666 3584 2933 3390 
Q 3200 3197 3328 2828 
z
" transform="scale(0.015625)"/>
      </defs>
      <use xlink:href="#DejaVuSans-2212" transform="translate(0 0.125)"/>
      <use xlink:href="#DejaVuSans-49" transform="translate(83.789062 0.125)"/>
      <use xlink:href="#DejaVuSans-6d" transform="translate(109.65625 0.125)"/>
      <use xlink:href="#DejaVuSans-28" transform="translate(207.068359 0.125)"/>
      <use xlink:href="#DejaVuSans-Oblique-5a" transform="translate(246.082031 0.125)"/>
      <use xlink:href="#DejaVuSans-29" transform="translate(314.587891 0.125)"/>
      <use xlink:href="#DejaVuSans-20" transform="translate(353.601562 0.125)"/>
      <use xlink:href="#DejaVuSans-28" transform="translate(385.388672 0.125)"/>
      <use xlink:href="#DejaVuSans-3a9" transform="translate(424.402344 0.125)"/>
      <use xlink:href="#DejaVuSans-29" transform="translate(500.818359 0.125)"/>
     </g>
    </g>
   </g>
   <g id="line2d_15">
    <path d="M 78.376364 187.751023 
L 80.170388 182.631015 
L 81.92122 178.248898 
L 83.705467 174.30195 
L 85.622213 170.524082 
L 87.984921 166.380012 
L 90.364014 162.657017 
L 93.182893 158.710601 
L 95.800263 155.416793 
L 98.778215 152.031733 
L 102.150702 148.594022 
L 104.956883 146.010577 
L 108.011153 143.45007 
L 111.319552 140.940516 
L 114.883796 138.512469 
L 118.700556 136.19822 
L 122.760918 134.030789 
L 127.05008 132.042769 
L 131.547336 130.265083 
L 136.226352 128.725752 
L 141.055726 127.448717 
L 145.999805 126.452813 
L 151.019729 125.750931 
L 156.074633 125.349425 
L 161.122967 125.247789 
L 166.123867 125.438623 
L 171.038505 125.907908 
L 175.831359 126.635574 
L 180.471327 127.596341 
L 184.93261 128.760799 
L 189.19532 130.09665 
L 193.245763 131.570053 
L 198.303959 133.689825 
L 202.969837 135.916325 
L 208.271668 138.74394 
L 213.924556 142.055959 
L 230.480311 152.054264 
L 233.979816 153.748546 
L 236.769375 154.859133 
L 239.490761 155.704129 
L 242.183 156.296819 
L 244.879483 156.654626 
L 247.607458 156.79748 
L 250.388215 156.74596 
L 253.817455 156.455078 
L 257.367591 155.942771 
L 261.685896 155.100147 
L 266.885717 153.860319 
L 274.560132 151.775482 
L 295.377043 146.002419 
L 304.361824 143.777862 
L 312.886186 141.879145 
L 320.802028 140.331058 
L 327.969993 139.133396 
L 335.328425 138.12096 
L 342.833051 137.315514 
L 350.443009 136.721493 
L 358.131605 136.336684 
L 365.883292 136.168438 
L 373.676897 136.240549 
L 380.358135 136.515615 
L 386.997373 136.996182 
L 393.551133 137.671245 
L 401.048613 138.667244 
L 409.409865 140.023412 
L 416.566051 141.386247 
L 423.580659 142.95386 
L 429.444984 144.511663 
L 432.303636 145.376458 
L 432.303636 145.376458 
" clip-path="url(#p6fdeb77cc1)" style="fill: none; stroke-dasharray: 5.55,2.4; stroke-dashoffset: 0; stroke: #cc3311; stroke-width: 1.5"/>
   </g>
   <g id="patch_3">
    <path d="M 60.68 302.2 
L 60.68 10.8 
" style="fill: none; stroke: #000000; stroke-width: 0.8; stroke-linejoin: miter; stroke-linecap: square"/>
   </g>
   <g id="patch_4">
    <path d="M 450 302.2 
L 450 10.8 
" style="fill: none; stroke: #000000; stroke-width: 0.8; stroke-linejoin: miter; stroke-linecap: square"/>
   </g>
   <g id="patch_5">
    <path d="M 60.68 302.2 
L 450 302.2 
" style="fill: none; stroke: #000000; stroke-width: 0.8; stroke-linejoin: miter; stroke-linecap: square"/>
   </g>
   <g id="patch_6">
    <path d="M 60.68 10.8 
L 450 10.8 
" style="fill: none; stroke: #000000; stroke-width: 0.8; stroke-linejoin: miter; stroke-linecap: square"/>
   </g>
   <g id="legend_1">
    <g id="patch_7">
     <path d="M 332.990625 48.15625 
L 443 48.15625 
Q 445 48.15625 445 46.15625 
L 445 17.8 
Q 445 15.8 443 15.8 
L 332.990625 15.8 
Q 330.990625 15.8 330.990625 17.8 
L 330.990625 46.15625 
Q 330.990625 48.15625 332.990625 48.15625 
z
" style="fill: #ffffff; opacity: 0.8; stroke: #cccccc; stroke-linejoin: miter"/>
    </g>
    <g id="PathCollection_2">
     <path d="M 344.990625 27.773438 
C 345.786234 27.773438 346.549365 27.457339 347.111945 26.894758 
C 347.674526 26.332177 347.990625 25.569047 347.990625 24.773438 
C 347.990625 23.977828 347.674526 23.214698 347.111945 22.652117 
C 346.549365 22.089536 345.786234 21.773438 344.990625 21.773438 
C 344.195016 21.773438 343.431885 22.089536 342.869305 22.652117 
C 342.306724 23.214698 341.990625 23.977828 341.990625 24.773438 
C 341.990625 25.569047 342.306724 26.332177 342.869305 26.894758 
C 343.431885 27.457339 344.195016 27.773438 344.990625 27.773438 
L 344.990625 27.773438 
z
" style="fill: none; stroke: #000000"/>
    </g>
    <g id="text_17">
     <!-- TC-1 -->
     <g transform="translate(362.990625 27.398438) scale(0.1 -0.1)">
      <defs>
       <path id="DejaVuSans-54" d="M -19 4666 
L 3928 4666 
L 3928 4134 
L 2272 4134 
L 2272 0 
L 1638 0 
L 1638 4134 
L -19 4134 
L -19 4666 
z
" transform="scale(0.015625)"/>
       <path id="DejaVuSans-43" d="M 4122 4306 
L 4122 3641 
Q 3803 3938 3442 4084 
Q 3081 4231 2675 4231 
Q 1875 4231 1450 3742 
Q 1025 3253 1025 2328 
Q 1025 1406 1450 917 
Q 1875 428 2675 428 
Q 3081 428 3442 575 
Q 3803 722 4122 1019 
L 4122 359 
Q 3791 134 3420 21 
Q 3050 -91 2638 -91 
Q 1578 -91 968 557 
Q 359 1206 359 2328 
Q 359 3453 968 4101 
Q 1578 4750 2638 4750 
Q 3056 4750 3426 4639 
Q 3797 4528 4122 4306 
z
" transform="scale(0.015625)"/>
       <path id="DejaVuSans-2d" d="M 313 2009 
L 1997 2009 
L 1997 1497 
L 313 1497 
L 313 2009 
z
" transform="scale(0.015625)"/>
      </defs>
      <use xlink:href="#DejaVuSans-54"/>
      <use xlink:href="#DejaVuSans-43" x="55.208984"/>
      <use xlink:href="#DejaVuSans-2d" x="125.033203"/>
      <use xlink:href="#DejaVuSans-31" x="161.117188"/>
     </g>
    </g>
    <g id="line2d_16">
     <path d="M 334.990625 38.576563 
L 344.990625 38.576563 
L 354.990625 38.576563 
" style="fill: none; stroke-dasharray: 5.55,2.4; stroke-dashoffset: 0; stroke: #cc3311; stroke-width: 1.5"/>
    </g>
    <g id="text_18">
     <!-- #(RC)=19, C+L -->
     <g transform="translate(362.990625 42.076563) scale(0.1 -0.1)">
      <defs>
       <path id="DejaVuSans-23" d="M 3272 2816 
L 2363 2816 
L 2100 1772 
L 3016 1772 
L 3272 2816 
z
M 2803 4594 
L 2478 3297 
L 3391 3297 
L 3719 4594 
L 4219 4594 
L 3897 3297 
L 4872 3297 
L 4872 2816 
L 3775 2816 
L 3519 1772 
L 4513 1772 
L 4513 1294 
L 3397 1294 
L 3072 0 
L 2572 0 
L 2894 1294 
L 1978 1294 
L 1656 0 
L 1153 0 
L 1478 1294 
L 494 1294 
L 494 1772 
L 1594 1772 
L 1856 2816 
L 850 2816 
L 850 3297 
L 1978 3297 
L 2297 4594 
L 2803 4594 
z
" transform="scale(0.015625)"/>
       <path id="DejaVuSans-3d" d="M 678 2906 
L 4684 2906 
L 4684 2381 
L 678 2381 
L 678 2906 
z
M 678 1631 
L 4684 1631 
L 4684 1100 
L 678 1100 
L 678 1631 
z
" transform="scale(0.015625)"/>
       <path id="DejaVuSans-39" d="M 703 97 
L 703 672 
Q 941 559 1184 500 
Q 1428 441 1663 441 
Q 2288 441 2617 861 
Q 2947 1281 2994 2138 
Q 2813 1869 2534 1725 
Q 2256 1581 1919 1581 
Q 1219 1581 811 2004 
Q 403 2428 403 3163 
Q 403 3881 828 4315 
Q 1253 4750 1959 4750 
Q 2769 4750 3195 4129 
Q 3622 3509 3622 2328 
Q 3622 1225 3098 567 
Q 2575 -91 1691 -91 
Q 1453 -91 1209 -44 
Q 966 3 703 97 
z
M 1959 2075 
Q 2384 2075 2632 2365 
Q 2881 2656 2881 3163 
Q 2881 3666 2632 3958 
Q 2384 4250 1959 4250 
Q 1534 4250 1286 3958 
Q 1038 3666 1038 3163 
Q 1038 2656 1286 2365 
Q 1534 2075 1959 2075 
z
" transform="scale(0.015625)"/>
       <path id="DejaVuSans-2c" d="M 750 794 
L 1409 794 
L 1409 256 
L 897 -744 
L 494 -744 
L 750 256 
L 750 794 
z
" transform="scale(0.015625)"/>
       <path id="DejaVuSans-2b" d="M 2944 4013 
L 2944 2272 
L 4684 2272 
L 4684 1741 
L 2944 1741 
L 2944 0 
L 2419 0 
L 2419 1741 
L 678 1741 
L 678 2272 
L 2419 2272 
L 2419 4013 
L 2944 4013 
z
" transform="scale(0.015625)"/>
       <path id="DejaVuSans-4c" d="M 628 4666 
L 1259 4666 
L 1259 531 
L 3531 531 
L 3531 0 
L 628 0 
L 628 4666 
z
" transform="scale(0.015625)"/>
      </defs>
      <use xlink:href="#DejaVuSans-23"/>
      <use xlink:href="#DejaVuSans-28" x="83.789062"/>
      <use xlink:href="#DejaVuSans-52" x="122.802734"/>
      <use xlink:href="#DejaVuSans-43" x="187.285156"/>
      <use xlink:href="#DejaVuSans-29" x="257.109375"/>
      <use xlink:href="#DejaVuSans-3d" x="296.123047"/>
      <use xlink:href="#DejaVuSans-31" x="379.912109"/>
      <use xlink:href="#DejaVuSans-39" x="443.535156"/>
      <use xlink:href="#DejaVuSans-2c" x="507.158203"/>
      <use xlink:href="#DejaVuSans-20" x="538.945312"/>
      <use xlink:href="#DejaVuSans-43" x="570.732422"/>
      <use xlink:href="#DejaVuSans-2b" x="640.556641"/>
      <use xlink:href="#DejaVuSans-4c" x="724.345703"/>
     </g>
    </g>
   </g>
  </g>
 </g>
 <defs>
  <clipPath id="p6fdeb77cc1">
   <rect x="60.68" y="10.8" width="389.32" height="291.4"/>
  </clipPath>
 </defs>
</svg>
