<?xml version="1.0" encoding="utf-8" standalone="no"?>
<!DOCTYPE svg PUBLIC "-//W3C//DTD SVG 1.1//EN"
  "http://www.w3.org/Graphics/SVG/1.1/DTD/svg11.dtd">
<svg xmlns:xlink="http://www.w3.org/1999/xlink" width="460.8pt" height="345.6pt" viewBox="0 0 460.8 345.6" xmlns="http://www.w3.org/2000/svg" version="1.1">
 <metadata>
  <rdf:RDF xmlns:dc="http://purl.org/dc/elements/1.1/" xmlns:cc="http://creativecommons.org/ns#" xmlns:rdf="http://www.w3.org/1999/02/22-rdf-syntax-ns#">
   <cc:Work>
    <dc:type rdf:resource="http://purl.org/dc/dcmitype/StillImage"/>
    <dc:date>2025-03-02T11:35:32.843804</dc:date>
    <dc:format>image/svg+xml</dc:format>
    <dc:creator>
     <cc:Agent>
      <dc:title>Matplotlib v3.9.0, https://matplotlib.org/</dc:title>
     </cc:Agent>
    </dc:creator>
   </cc:Work>
  </rdf:RDF>
 </metadata>
 <defs>
  <style type="text/css">*{stroke-linejoin: round; stroke-linecap: butt}</style>
 </defs>
 <g id="figure_1">
  <g id="patch_1">
   <path d="M 0 345.6 
L 460.8 345.6 
L 460.8 0 
L 0 0 
L 0 345.6 
z
" style="fill: none"/>
  </g>
  <g id="axes_1">
   <g id="patch_2">
    <path d="M 60.68 302.2 
L 450 302.2 
L 450 10.8 
L 60.68 10.8 
L 60.68 302.2 
z
" style="fill: none"/>
   </g>
   <g id="PathCollection_1">
    <defs>
     <path id="C0_0_4d9502ff11" d="M 0 3 
C 0.795609 3 1.55874 2.683901 2.12132 2.12132 
C 2.683901 1.55874 3 0.795609 3 -0 
C 3 -0.795609 2.683901 -1.55874 2.12132 -2.12132 
C 1.55874 -2.683901 0.795609 -3 0 -3 
C -0.795609 -3 -1.55874 -2.683901 -2.12132 -2.12132 
C -2.683901 -1.55874 -3 -0.795609 -3 0 
C -3 0.795609 -2.683901 1.55874 -2.12132 2.12132 
C -1.55874 2.683901 -0.795609 3 0 3 
z
"/>
    </defs>
    <g clip-path="url(#pfe60b35b7b)">
     <use xlink:href="#C0_0_4d9502ff11" x="78.429622" y="187.697202" style="fill: none; stroke: #000000"/>
    </g>
    <g clip-path="url(#pfe60b35b7b)">
     <use xlink:href="#C0_0_4d9502ff11" x="79.716703" y="183.865158" style="fill: none; stroke: #000000"/>
    </g>
    <g clip-path="url(#pfe60b35b7b)">
     <use xlink:href="#C0_0_4d9502ff11" x="81.545307" y="179.215253" style="fill: none; stroke: #000000"/>
    </g>
    <g clip-path="url(#pfe60b35b7b)">
     <use xlink:href="#C0_0_4d9502ff11" x="84.095873" y="173.582932" style="fill: none; stroke: #000000"/>
    </g>
    <g clip-path="url(#pfe60b35b7b)">
     <use xlink:href="#C0_0_4d9502ff11" x="87.572562" y="167.014861" style="fill: none; stroke: #000000"/>
    </g>
    <g clip-path="url(#pfe60b35b7b)">
     <use xlink:href="#C0_0_4d9502ff11" x="92.592466" y="159.44103" style="fill: none; stroke: #000000"/>
    </g>
    <g clip-path="url(#pfe60b35b7b)">
     <use xlink:href="#C0_0_4d9502ff11" x="99.697192" y="151.181423" style="fill: none; stroke: #000000"/>
    </g>
    <g clip-path="url(#pfe60b35b7b)">
     <use xlink:href="#C0_0_4d9502ff11" x="109.159559" y="142.590417" style="fill: none; stroke: #000000"/>
    </g>
    <g clip-path="url(#pfe60b35b7b)">
     <use xlink:href="#C0_0_4d9502ff11" x="121.359679" y="134.586215" style="fill: none; stroke: #000000"/>
    </g>
    <g clip-path="url(#pfe60b35b7b)">
     <use xlink:href="#C0_0_4d9502ff11" x="136.26583" y="128.708838" style="fill: none; stroke: #000000"/>
    </g>
    <g clip-path="url(#pfe60b35b7b)">
     <use xlink:href="#C0_0_4d9502ff11" x="152.671976" y="125.504837" style="fill: none; stroke: #000000"/>
    </g>
    <g clip-path="url(#pfe60b35b7b)">
     <use xlink:href="#C0_0_4d9502ff11" x="169.378723" y="125.630597" style="fill: none; stroke: #000000"/>
    </g>
    <g clip-path="url(#pfe60b35b7b)">
     <use xlink:href="#C0_0_4d9502ff11" x="184.941106" y="128.799789" style="fill: none; stroke: #000000"/>
    </g>
    <g clip-path="url(#pfe60b35b7b)">
     <use xlink:href="#C0_0_4d9502ff11" x="198.075832" y="133.757006" style="fill: none; stroke: #000000"/>
    </g>
    <g clip-path="url(#pfe60b35b7b)">
     <use xlink:href="#C0_0_4d9502ff11" x="209.058399" y="139.351541" style="fill: none; stroke: #000000"/>
    </g>
    <g clip-path="url(#pfe60b35b7b)">
     <use xlink:href="#C0_0_4d9502ff11" x="218.047864" y="144.514215" style="fill: none; stroke: #000000"/>
    </g>
    <g clip-path="url(#pfe60b35b7b)">
     <use xlink:href="#C0_0_4d9502ff11" x="225.277015" y="149.112955" style="fill: none; stroke: #000000"/>
    </g>
    <g clip-path="url(#pfe60b35b7b)">
     <use xlink:href="#C0_0_4d9502ff11" x="231.663359" y="152.662886" style="fill: none; stroke: #000000"/>
    </g>
    <g clip-path="url(#pfe60b35b7b)">
     <use xlink:href="#C0_0_4d9502ff11" x="237.168451" y="155.11065" style="fill: none; stroke: #000000"/>
    </g>
    <g clip-path="url(#pfe60b35b7b)">
     <use xlink:href="#C0_0_4d9502ff11" x="242.519737" y="156.274413" style="fill: none; stroke: #000000"/>
    </g>
    <g clip-path="url(#pfe60b35b7b)">
     <use xlink:href="#C0_0_4d9502ff11" x="248.30835" y="156.737626" style="fill: none; stroke: #000000"/>
    </g>
    <g clip-path="url(#pfe60b35b7b)">
     <use xlink:href="#C0_0_4d9502ff11" x="253.744514" y="156.27916" style="fill: none; stroke: #000000"/>
    </g>
    <g clip-path="url(#pfe60b35b7b)">
     <use xlink:href="#C0_0_4d9502ff11" x="259.764505" y="155.292309" style="fill: none; stroke: #000000"/>
    </g>
    <g clip-path="url(#pfe60b35b7b)">
     <use xlink:href="#C0_0_4d9502ff11" x="265.979576" y="154.085482" style="fill: none; stroke: #000000"/>
    </g>
    <g clip-path="url(#pfe60b35b7b)">
     <use xlink:href="#C0_0_4d9502ff11" x="272.999157" y="152.319298" style="fill: none; stroke: #000000"/>
    </g>
    <g clip-path="url(#pfe60b35b7b)">
     <use xlink:href="#C0_0_4d9502ff11" x="280.527275" y="150.024879" style="fill: none; stroke: #000000"/>
    </g>
    <g clip-path="url(#pfe60b35b7b)">
     <use xlink:href="#C0_0_4d9502ff11" x="288.339966" y="147.936762" style="fill: none; stroke: #000000"/>
    </g>
    <g clip-path="url(#pfe60b35b7b)">
     <use xlink:href="#C0_0_4d9502ff11" x="297.11357" y="145.565513" style="fill: none; stroke: #000000"/>
    </g>
    <g clip-path="url(#pfe60b35b7b)">
     <use xlink:href="#C0_0_4d9502ff11" x="306.062424" y="143.19806" style="fill: none; stroke: #000000"/>
    </g>
    <g clip-path="url(#pfe60b35b7b)">
     <use xlink:href="#C0_0_4d9502ff11" x="315.716406" y="141.302557" style="fill: none; stroke: #000000"/>
    </g>
    <g clip-path="url(#pfe60b35b7b)">
     <use xlink:href="#C0_0_4d9502ff11" x="325.734018" y="139.697299" style="fill: none; stroke: #000000"/>
    </g>
    <g clip-path="url(#pfe60b35b7b)">
     <use xlink:href="#C0_0_4d9502ff11" x="336.607391" y="137.971835" style="fill: none; stroke: #000000"/>
    </g>
    <g clip-path="url(#pfe60b35b7b)">
     <use xlink:href="#C0_0_4d9502ff11" x="347.068107" y="137.182708" style="fill: none; stroke: #000000"/>
    </g>
    <g clip-path="url(#pfe60b35b7b)">
     <use xlink:href="#C0_0_4d9502ff11" x="357.870869" y="135.822321" style="fill: none; stroke: #000000"/>
    </g>
    <g clip-path="url(#pfe60b35b7b)">
     <use xlink:href="#C0_0_4d9502ff11" x="369.311858" y="136.316397" style="fill: none; stroke: #000000"/>
    </g>
    <g clip-path="url(#pfe60b35b7b)">
     <use xlink:href="#C0_0_4d9502ff11" x="380.027712" y="136.553935" style="fill: none; stroke: #000000"/>
    </g>
    <g clip-path="url(#pfe60b35b7b)">
     <use xlink:href="#C0_0_4d9502ff11" x="391.28959" y="137.351855" style="fill: none; stroke: #000000"/>
    </g>
    <g clip-path="url(#pfe60b35b7b)">
     <use xlink:href="#C0_0_4d9502ff11" x="401.629081" y="138.781084" style="fill: none; stroke: #000000"/>
    </g>
    <g clip-path="url(#pfe60b35b7b)">
     <use xlink:href="#C0_0_4d9502ff11" x="412.209679" y="140.146328" style="fill: none; stroke: #000000"/>
    </g>
    <g clip-path="url(#pfe60b35b7b)">
     <use xlink:href="#C0_0_4d9502ff11" x="422.588086" y="142.696236" style="fill: none; stroke: #000000"/>
    </g>
    <g clip-path="url(#pfe60b35b7b)">
     <use xlink:href="#C0_0_4d9502ff11" x="432.303636" y="145.338462" style="fill: none; stroke: #000000"/>
    </g>
   </g>
   <g id="matplotlib.axis_1">
    <g id="xtick_1">
     <g id="line2d_1">
      <defs>
       <path id="mb5093c703c" d="M 0 0 
L 0 3.5 
" style="stroke: #000000; stroke-width: 0.8"/>
      </defs>
      <g>
       <use xlink:href="#mb5093c703c" x="72.470834" y="302.2" style="stroke: #000000; stroke-width: 0.8"/>
      </g>
     </g>
     <g id="text_1">
      <!-- 100 -->
      <g transform="translate(62.927084 316.798437) scale(0.1 -0.1)">
       <defs>
        <path id="DejaVuSans-31" d="M 794 531 
L 1825 531 
L 1825 4091 
L 703 3866 
L 703 4441 
L 1819 4666 
L 2450 4666 
L 2450 531 
L 3481 531 
L 3481 0 
L 794 0 
L 794 531 
z
" transform="scale(0.015625)"/>
        <path id="DejaVuSans-30" d="M 2034 4250 
Q 1547 4250 1301 3770 
Q 1056 3291 1056 2328 
Q 1056 1369 1301 889 
Q 1547 409 2034 409 
Q 2525 409 2770 889 
Q 3016 1369 3016 2328 
Q 3016 3291 2770 3770 
Q 2525 4250 2034 4250 
z
M 2034 4750 
Q 2819 4750 3233 4129 
Q 3647 3509 3647 2328 
Q 3647 1150 3233 529 
Q 2819 -91 2034 -91 
Q 1250 -91 836 529 
Q 422 1150 422 2328 
Q 422 3509 836 4129 
Q 1250 4750 2034 4750 
z
" transform="scale(0.015625)"/>
       </defs>
       <use xlink:href="#DejaVuSans-31"/>
       <use xlink:href="#DejaVuSans-30" x="63.623047"/>
       <use xlink:href="#DejaVuSans-30" x="127.246094"/>
      </g>
     </g>
    </g>
    <g id="xtick_2">
     <g id="line2d_2">
      <g>
       <use xlink:href="#mb5093c703c" x="138.408168" y="302.2" style="stroke: #000000; stroke-width: 0.8"/>
      </g>
     </g>
     <g id="text_2">
      <!-- 200 -->
      <g transform="translate(128.864418 316.798437) scale(0.1 -0.1)">
       <defs>
        <path id="DejaVuSans-32" d="M 1228 531 
L 3431 531 
L 3431 0 
L 469 0 
L 469 531 
Q 828 903 1448 1529 
Q 2069 2156 2228 2338 
Q 2531 2678 2651 2914 
Q 2772 3150 2772 3378 
Q 2772 3750 2511 3984 
Q 2250 4219 1831 4219 
Q 1534 4219 1204 4116 
Q 875 4013 500 3803 
L 500 4441 
Q 881 4594 1212 4672 
Q 1544 4750 1819 4750 
Q 2544 4750 2975 4387 
Q 3406 4025 3406 3419 
Q 3406 3131 3298 2873 
Q 3191 2616 2906 2266 
Q 2828 2175 2409 1742 
Q 1991 1309 1228 531 
z
" transform="scale(0.015625)"/>
       </defs>
       <use xlink:href="#DejaVuSans-32"/>
       <use xlink:href="#DejaVuSans-30" x="63.623047"/>
       <use xlink:href="#DejaVuSans-30" x="127.246094"/>
      </g>
     </g>
    </g>
    <g id="xtick_3">
     <g id="line2d_3">
      <g>
       <use xlink:href="#mb5093c703c" x="204.345502" y="302.2" style="stroke: #000000; stroke-width: 0.8"/>
      </g>
     </g>
     <g id="text_3">
      <!-- 300 -->
      <g transform="translate(194.801752 316.798437) scale(0.1 -0.1)">
       <defs>
        <path id="DejaVuSans-33" d="M 2597 2516 
Q 3050 2419 3304 2112 
Q 3559 1806 3559 1356 
Q 3559 666 3084 287 
Q 2609 -91 1734 -91 
Q 1441 -91 1130 -33 
Q 819 25 488 141 
L 488 750 
Q 750 597 1062 519 
Q 1375 441 1716 441 
Q 2309 441 2620 675 
Q 2931 909 2931 1356 
Q 2931 1769 2642 2001 
Q 2353 2234 1838 2234 
L 1294 2234 
L 1294 2753 
L 1863 2753 
Q 2328 2753 2575 2939 
Q 2822 3125 2822 3475 
Q 2822 3834 2567 4026 
Q 2313 4219 1838 4219 
Q 1578 4219 1281 4162 
Q 984 4106 628 3988 
L 628 4550 
Q 988 4650 1302 4700 
Q 1616 4750 1894 4750 
Q 2613 4750 3031 4423 
Q 3450 4097 3450 3541 
Q 3450 3153 3228 2886 
Q 3006 2619 2597 2516 
z
" transform="scale(0.015625)"/>
       </defs>
       <use xlink:href="#DejaVuSans-33"/>
       <use xlink:href="#DejaVuSans-30" x="63.623047"/>
       <use xlink:href="#DejaVuSans-30" x="127.246094"/>
      </g>
     </g>
    </g>
    <g id="xtick_4">
     <g id="line2d_4">
      <g>
       <use xlink:href="#mb5093c703c" x="270.282835" y="302.2" style="stroke: #000000; stroke-width: 0.8"/>
      </g>
     </g>
     <g id="text_4">
      <!-- 400 -->
      <g transform="translate(260.739085 316.798437) scale(0.1 -0.1)">
       <defs>
        <path id="DejaVuSans-34" d="M 2419 4116 
L 825 1625 
L 2419 1625 
L 2419 4116 
z
M 2253 4666 
L 3047 4666 
L 3047 1625 
L 3713 1625 
L 3713 1100 
L 3047 1100 
L 3047 0 
L 2419 0 
L 2419 1100 
L 313 1100 
L 313 1709 
L 2253 4666 
z
" transform="scale(0.015625)"/>
       </defs>
       <use xlink:href="#DejaVuSans-34"/>
       <use xlink:href="#DejaVuSans-30" x="63.623047"/>
       <use xlink:href="#DejaVuSans-30" x="127.246094"/>
      </g>
     </g>
    </g>
    <g id="xtick_5">
     <g id="line2d_5">
      <g>
       <use xlink:href="#mb5093c703c" x="336.220169" y="302.2" style="stroke: #000000; stroke-width: 0.8"/>
      </g>
     </g>
     <g id="text_5">
      <!-- 500 -->
      <g transform="translate(326.676419 316.798437) scale(0.1 -0.1)">
       <defs>
        <path id="DejaVuSans-35" d="M 691 4666 
L 3169 4666 
L 3169 4134 
L 1269 4134 
L 1269 2991 
Q 1406 3038 1543 3061 
Q 1681 3084 1819 3084 
Q 2600 3084 3056 2656 
Q 3513 2228 3513 1497 
Q 3513 744 3044 326 
Q 2575 -91 1722 -91 
Q 1428 -91 1123 -41 
Q 819 9 494 109 
L 494 744 
Q 775 591 1075 516 
Q 1375 441 1709 441 
Q 2250 441 2565 725 
Q 2881 1009 2881 1497 
Q 2881 1984 2565 2268 
Q 2250 2553 1709 2553 
Q 1456 2553 1204 2497 
Q 953 2441 691 2322 
L 691 4666 
z
" transform="scale(0.015625)"/>
       </defs>
       <use xlink:href="#DejaVuSans-35"/>
       <use xlink:href="#DejaVuSans-30" x="63.623047"/>
       <use xlink:href="#DejaVuSans-30" x="127.246094"/>
      </g>
     </g>
    </g>
    <g id="xtick_6">
     <g id="line2d_6">
      <g>
       <use xlink:href="#mb5093c703c" x="402.157503" y="302.2" style="stroke: #000000; stroke-width: 0.8"/>
      </g>
     </g>
     <g id="text_6">
      <!-- 600 -->
      <g transform="translate(392.613753 316.798437) scale(0.1 -0.1)">
       <defs>
        <path id="DejaVuSans-36" d="M 2113 2584 
Q 1688 2584 1439 2293 
Q 1191 2003 1191 1497 
Q 1191 994 1439 701 
Q 1688 409 2113 409 
Q 2538 409 2786 701 
Q 3034 994 3034 1497 
Q 3034 2003 2786 2293 
Q 2538 2584 2113 2584 
z
M 3366 4563 
L 3366 3988 
Q 3128 4100 2886 4159 
Q 2644 4219 2406 4219 
Q 1781 4219 1451 3797 
Q 1122 3375 1075 2522 
Q 1259 2794 1537 2939 
Q 1816 3084 2150 3084 
Q 2853 3084 3261 2657 
Q 3669 2231 3669 1497 
Q 3669 778 3244 343 
Q 2819 -91 2113 -91 
Q 1303 -91 875 529 
Q 447 1150 447 2328 
Q 447 3434 972 4092 
Q 1497 4750 2381 4750 
Q 2619 4750 2861 4703 
Q 3103 4656 3366 4563 
z
" transform="scale(0.015625)"/>
       </defs>
       <use xlink:href="#DejaVuSans-36"/>
       <use xlink:href="#DejaVuSans-30" x="63.623047"/>
       <use xlink:href="#DejaVuSans-30" x="127.246094"/>
      </g>
     </g>
    </g>
    <g id="text_7">
     <!-- ${\rm Re}(Z)\ (\Omega)$ -->
     <g transform="translate(232.09 330.476562) scale(0.1 -0.1)">
      <defs>
       <path id="DejaVuSans-52" d="M 2841 2188 
Q 3044 2119 3236 1894 
Q 3428 1669 3622 1275 
L 4263 0 
L 3584 0 
L 2988 1197 
Q 2756 1666 2539 1819 
Q 2322 1972 1947 1972 
L 1259 1972 
L 1259 0 
L 628 0 
L 628 4666 
L 2053 4666 
Q 2853 4666 3247 4331 
Q 3641 3997 3641 3322 
Q 3641 2881 3436 2590 
Q 3231 2300 2841 2188 
z
M 1259 4147 
L 1259 2491 
L 2053 2491 
Q 2509 2491 2742 2702 
Q 2975 2913 2975 3322 
Q 2975 3731 2742 3939 
Q 2509 4147 2053 4147 
L 1259 4147 
z
" transform="scale(0.015625)"/>
       <path id="DejaVuSans-65" d="M 3597 1894 
L 3597 1613 
L 953 1613 
Q 991 1019 1311 708 
Q 1631 397 2203 397 
Q 2534 397 2845 478 
Q 3156 559 3463 722 
L 3463 178 
Q 3153 47 2828 -22 
Q 2503 -91 2169 -91 
Q 1331 -91 842 396 
Q 353 884 353 1716 
Q 353 2575 817 3079 
Q 1281 3584 2069 3584 
Q 2775 3584 3186 3129 
Q 3597 2675 3597 1894 
z
M 3022 2063 
Q 3016 2534 2758 2815 
Q 2500 3097 2075 3097 
Q 1594 3097 1305 2825 
Q 1016 2553 972 2059 
L 3022 2063 
z
" transform="scale(0.015625)"/>
       <path id="DejaVuSans-28" d="M 1984 4856 
Q 1566 4138 1362 3434 
Q 1159 2731 1159 2009 
Q 1159 1288 1364 580 
Q 1569 -128 1984 -844 
L 1484 -844 
Q 1016 -109 783 600 
Q 550 1309 550 2009 
Q 550 2706 781 3412 
Q 1013 4119 1484 4856 
L 1984 4856 
z
" transform="scale(0.015625)"/>
       <path id="DejaVuSans-Oblique-5a" d="M 838 4666 
L 4500 4666 
L 4409 4184 
L 794 531 
L 3769 531 
L 3669 0 
L -141 0 
L -50 481 
L 3566 4134 
L 738 4134 
L 838 4666 
z
" transform="scale(0.015625)"/>
       <path id="DejaVuSans-29" d="M 513 4856 
L 1013 4856 
Q 1481 4119 1714 3412 
Q 1947 2706 1947 2009 
Q 1947 1309 1714 600 
Q 1481 -109 1013 -844 
L 513 -844 
Q 928 -128 1133 580 
Q 1338 1288 1338 2009 
Q 1338 2731 1133 3434 
Q 928 4138 513 4856 
z
" transform="scale(0.015625)"/>
       <path id="DejaVuSans-3a9" d="M 4647 556 
L 4647 0 
L 2772 0 
L 2772 556 
Q 3325 859 3634 1378 
Q 3944 1897 3944 2528 
Q 3944 3278 3531 3731 
Q 3119 4184 2444 4184 
Q 1769 4184 1355 3729 
Q 941 3275 941 2528 
Q 941 1897 1250 1378 
Q 1563 859 2119 556 
L 2119 0 
L 244 0 
L 244 556 
L 1241 556 
Q 747 991 519 1456 
Q 294 1922 294 2497 
Q 294 3491 894 4106 
Q 1491 4722 2444 4722 
Q 3391 4722 3994 4106 
Q 4594 3494 4594 2528 
Q 4594 1922 4372 1459 
Q 4150 997 3647 556 
L 4647 556 
z
" transform="scale(0.015625)"/>
      </defs>
      <use xlink:href="#DejaVuSans-52" transform="translate(0 0.125)"/>
      <use xlink:href="#DejaVuSans-65" transform="translate(69.482422 0.125)"/>
      <use xlink:href="#DejaVuSans-28" transform="translate(131.005859 0.125)"/>
      <use xlink:href="#DejaVuSans-Oblique-5a" transform="translate(170.019531 0.125)"/>
      <use xlink:href="#DejaVuSans-29" transform="translate(238.525391 0.125)"/>
      <use xlink:href="#DejaVuSans-28" transform="translate(310.009441 0.125)"/>
      <use xlink:href="#DejaVuSans-3a9" transform="translate(349.023113 0.125)"/>
      <use xlink:href="#DejaVuSans-29" transform="translate(425.439128 0.125)"/>
     </g>
    </g>
   </g>
   <g id="matplotlib.axis_2">
    <g id="ytick_1">
     <g id="line2d_7">
      <defs>
       <path id="m9902ac94fb" d="M 0 0 
L -3.5 0 
" style="stroke: #000000; stroke-width: 0.8"/>
      </defs>
      <g>
       <use xlink:href="#m9902ac94fb" x="60.68" y="271.510432" style="stroke: #000000; stroke-width: 0.8"/>
      </g>
     </g>
     <g id="text_8">
      <!-- −100 -->
      <g transform="translate(26.212813 275.30965) scale(0.1 -0.1)">
       <defs>
        <path id="DejaVuSans-2212" d="M 678 2272 
L 4684 2272 
L 4684 1741 
L 678 1741 
L 678 2272 
z
" transform="scale(0.015625)"/>
       </defs>
       <use xlink:href="#DejaVuSans-2212"/>
       <use xlink:href="#DejaVuSans-31" x="83.789062"/>
       <use xlink:href="#DejaVuSans-30" x="147.412109"/>
       <use xlink:href="#DejaVuSans-30" x="211.035156"/>
      </g>
     </g>
    </g>
    <g id="ytick_2">
     <g id="line2d_8">
      <g>
       <use xlink:href="#m9902ac94fb" x="60.68" y="238.394732" style="stroke: #000000; stroke-width: 0.8"/>
      </g>
     </g>
     <g id="text_9">
      <!-- −50 -->
      <g transform="translate(32.575313 242.193951) scale(0.1 -0.1)">
       <use xlink:href="#DejaVuSans-2212"/>
       <use xlink:href="#DejaVuSans-35" x="83.789062"/>
       <use xlink:href="#DejaVuSans-30" x="147.412109"/>
      </g>
     </g>
    </g>
    <g id="ytick_3">
     <g id="line2d_9">
      <g>
       <use xlink:href="#m9902ac94fb" x="60.68" y="205.279033" style="stroke: #000000; stroke-width: 0.8"/>
      </g>
     </g>
     <g id="text_10">
      <!-- 0 -->
      <g transform="translate(47.3175 209.078251) scale(0.1 -0.1)">
       <use xlink:href="#DejaVuSans-30"/>
      </g>
     </g>
    </g>
    <g id="ytick_4">
     <g id="line2d_10">
      <g>
       <use xlink:href="#m9902ac94fb" x="60.68" y="172.163333" style="stroke: #000000; stroke-width: 0.8"/>
      </g>
     </g>
     <g id="text_11">
      <!-- 50 -->
      <g transform="translate(40.955 175.962552) scale(0.1 -0.1)">
       <use xlink:href="#DejaVuSans-35"/>
       <use xlink:href="#DejaVuSans-30" x="63.623047"/>
      </g>
     </g>
    </g>
    <g id="ytick_5">
     <g id="line2d_11">
      <g>
       <use xlink:href="#m9902ac94fb" x="60.68" y="139.047634" style="stroke: #000000; stroke-width: 0.8"/>
      </g>
     </g>
     <g id="text_12">
      <!-- 100 -->
      <g transform="translate(34.5925 142.846852) scale(0.1 -0.1)">
       <use xlink:href="#DejaVuSans-31"/>
       <use xlink:href="#DejaVuSans-30" x="63.623047"/>
       <use xlink:href="#DejaVuSans-30" x="127.246094"/>
      </g>
     </g>
    </g>
    <g id="ytick_6">
     <g id="line2d_12">
      <g>
       <use xlink:href="#m9902ac94fb" x="60.68" y="105.931934" style="stroke: #000000; stroke-width: 0.8"/>
      </g>
     </g>
     <g id="text_13">
      <!-- 150 -->
      <g transform="translate(34.5925 109.731153) scale(0.1 -0.1)">
       <use xlink:href="#DejaVuSans-31"/>
       <use xlink:href="#DejaVuSans-35" x="63.623047"/>
       <use xlink:href="#DejaVuSans-30" x="127.246094"/>
      </g>
     </g>
    </g>
    <g id="ytick_7">
     <g id="line2d_13">
      <g>
       <use xlink:href="#m9902ac94fb" x="60.68" y="72.816235" style="stroke: #000000; stroke-width: 0.8"/>
      </g>
     </g>
     <g id="text_14">
      <!-- 200 -->
      <g transform="translate(34.5925 76.615453) scale(0.1 -0.1)">
       <use xlink:href="#DejaVuSans-32"/>
       <use xlink:href="#DejaVuSans-30" x="63.623047"/>
       <use xlink:href="#DejaVuSans-30" x="127.246094"/>
      </g>
     </g>
    </g>
    <g id="ytick_8">
     <g id="line2d_14">
      <g>
       <use xlink:href="#m9902ac94fb" x="60.68" y="39.700535" style="stroke: #000000; stroke-width: 0.8"/>
      </g>
     </g>
     <g id="text_15">
      <!-- 250 -->
      <g transform="translate(34.5925 43.499754) scale(0.1 -0.1)">
       <use xlink:href="#DejaVuSans-32"/>
       <use xlink:href="#DejaVuSans-35" x="63.623047"/>
       <use xlink:href="#DejaVuSans-30" x="127.246094"/>
      </g>
     </g>
    </g>
    <g id="text_16">
     <!-- $-{\rm Im}(Z)\ (\Omega)$ -->
     <g transform="translate(20.133125 183.55) rotate(-90) scale(0.1 -0.1)">
      <defs>
       <path id="DejaVuSans-49" d="M 628 4666 
L 1259 4666 
L 1259 0 
L 628 0 
L 628 4666 
z
" transform="scale(0.015625)"/>
       <path id="DejaVuSans-6d" d="M 3328 2828 
Q 3544 3216 3844 3400 
Q 4144 3584 4550 3584 
Q 5097 3584 5394 3201 
Q 5691 2819 5691 2113 
L 5691 0 
L 5113 0 
L 5113 2094 
Q 5113 2597 4934 2840 
Q 4756 3084 4391 3084 
Q 3944 3084 3684 2787 
Q 3425 2491 3425 1978 
L 3425 0 
L 2847 0 
L 2847 2094 
Q 2847 2600 2669 2842 
Q 2491 3084 2119 3084 
Q 1678 3084 1418 2786 
Q 1159 2488 1159 1978 
L 1159 0 
L 581 0 
L 581 3500 
L 1159 3500 
L 1159 2956 
Q 1356 3278 1631 3431 
Q 1906 3584 2284 3584 
Q 2666 3584 2933 3390 
Q 3200 3197 3328 2828 
z
" transform="scale(0.015625)"/>
      </defs>
      <use xlink:href="#DejaVuSans-2212" transform="translate(0 0.125)"/>
      <use xlink:href="#DejaVuSans-49" transform="translate(83.789062 0.125)"/>
      <use xlink:href="#DejaVuSans-6d" transform="translate(109.65625 0.125)"/>
      <use xlink:href="#DejaVuSans-28" transform="translate(207.068359 0.125)"/>
      <use xlink:href="#DejaVuSans-Oblique-5a" transform="translate(246.082031 0.125)"/>
      <use xlink:href="#DejaVuSans-29" transform="translate(314.587891 0.125)"/>
      <use xlink:href="#DejaVuSans-28" transform="translate(386.071941 0.125)"/>
      <use xlink:href="#DejaVuSans-3a9" transform="translate(425.085613 0.125)"/>
      <use xlink:href="#DejaVuSans-29" transform="translate(501.501628 0.125)"/>
     </g>
    </g>
   </g>
   <g id="line2d_15">
    <path d="M 78.376364 187.602997 
L 80.441589 182.078861 
L 82.494364 177.147825 
L 84.673532 172.477592 
L 86.754954 168.514092 
L 88.870079 164.911288 
L 91.405826 161.057179 
L 93.785074 157.818867 
L 96.513702 154.474102 
L 99.622937 151.060589 
L 103.138798 147.623982 
L 106.054316 145.062996 
L 109.214363 142.543476 
L 112.620674 140.091952 
L 116.2714 137.736343 
L 120.16071 135.5055 
L 124.27841 133.428637 
L 128.60964 131.534633 
L 133.134663 129.851201 
L 137.828828 128.403924 
L 142.66275 127.215217 
L 147.602752 126.303249 
L 152.61161 125.68093 
L 157.649578 125.35505 
L 162.675666 125.325661 
L 167.649093 125.585804 
L 172.530793 126.121609 
L 177.284881 126.912792 
L 181.879942 127.933519 
L 186.29004 129.153563 
L 190.4954 130.539655 
L 194.482707 132.056924 
L 199.448843 134.223535 
L 204.015633 136.481581 
L 209.188003 139.324395 
L 214.686538 142.616216 
L 227.825601 150.623424 
L 231.501451 152.530741 
L 234.98527 154.059527 
L 237.790384 155.057271 
L 240.540429 155.815763 
L 243.262998 156.345944 
L 245.983101 156.658612 
L 248.724049 156.764862 
L 251.507841 156.676599 
L 254.933982 156.332585 
L 258.484225 155.753291 
L 262.820439 154.818954 
L 268.755663 153.286315 
L 280.428121 149.962248 
L 291.840558 146.801578 
L 301.535528 144.348027 
L 310.867275 142.217777 
L 319.681485 140.436885 
L 327.842325 139.021957 
L 335.217109 137.968255 
L 342.774197 137.13629 
L 349.354591 136.628423 
L 355.983404 136.321104 
L 363.719185 136.205798 
L 371.40756 136.316765 
L 380.112379 136.660905 
L 389.830826 137.277183 
L 398.450289 138.058211 
L 404.906618 138.848365 
L 411.320506 139.875142 
L 416.582849 140.946716 
L 421.708553 142.230047 
L 426.629257 143.718975 
L 431.274901 145.384005 
L 432.165267 145.733908 
L 432.165267 145.733908 
" clip-path="url(#pfe60b35b7b)" style="fill: none; stroke: #cc3311; stroke-width: 1.5; stroke-linecap: square"/>
   </g>
   <g id="patch_3">
    <path d="M 60.68 302.2 
L 60.68 10.8 
" style="fill: none; stroke: #000000; stroke-width: 0.8; stroke-linejoin: miter; stroke-linecap: square"/>
   </g>
   <g id="patch_4">
    <path d="M 450 302.2 
L 450 10.8 
" style="fill: none; stroke: #000000; stroke-width: 0.8; stroke-linejoin: miter; stroke-linecap: square"/>
   </g>
   <g id="patch_5">
    <path d="M 60.68 302.2 
L 450 302.2 
" style="fill: none; stroke: #000000; stroke-width: 0.8; stroke-linejoin: miter; stroke-linecap: square"/>
   </g>
   <g id="patch_6">
    <path d="M 60.68 10.8 
L 450 10.8 
" style="fill: none; stroke: #000000; stroke-width: 0.8; stroke-linejoin: miter; stroke-linecap: square"/>
   </g>
   <g id="legend_1">
    <g id="patch_7">
     <path d="M 167.4 54.578125 
L 443 54.578125 
Q 445 54.578125 445 52.578125 
L 445 17.8 
Q 445 15.8 443 15.8 
L 167.4 15.8 
Q 165.4 15.8 165.4 17.8 
L 165.4 52.578125 
Q 165.4 54.578125 167.4 54.578125 
z
" style="fill: #ffffff; opacity: 0.8; stroke: #cccccc; stroke-linejoin: miter"/>
    </g>
    <g id="PathCollection_2">
     <path d="M 179.4 27.773438 
C 180.195609 27.773438 180.95874 27.457339 181.52132 26.894758 
C 182.083901 26.332177 182.4 25.569047 182.4 24.773438 
C 182.4 23.977828 182.083901 23.214698 181.52132 22.652117 
C 180.95874 22.089536 180.195609 21.773438 179.4 21.773438 
C 178.604391 21.773438 177.84126 22.089536 177.27868 22.652117 
C 176.716099 23.214698 176.4 23.977828 176.4 24.773438 
C 176.4 25.569047 176.716099 26.332177 177.27868 26.894758 
C 177.84126 27.457339 178.604391 27.773438 179.4 27.773438 
L 179.4 27.773438 
z
" style="fill: none; stroke: #000000"/>
    </g>
    <g id="text_17">
     <!-- Circuit 1 (noisy) -->
     <g transform="translate(197.4 27.398438) scale(0.1 -0.1)">
      <defs>
       <path id="DejaVuSans-43" d="M 4122 4306 
L 4122 3641 
Q 3803 3938 3442 4084 
Q 3081 4231 2675 4231 
Q 1875 4231 1450 3742 
Q 1025 3253 1025 2328 
Q 1025 1406 1450 917 
Q 1875 428 2675 428 
Q 3081 428 3442 575 
Q 3803 722 4122 1019 
L 4122 359 
Q 3791 134 3420 21 
Q 3050 -91 2638 -91 
Q 1578 -91 968 557 
Q 359 1206 359 2328 
Q 359 3453 968 4101 
Q 1578 4750 2638 4750 
Q 3056 4750 3426 4639 
Q 3797 4528 4122 4306 
z
" transform="scale(0.015625)"/>
       <path id="DejaVuSans-69" d="M 603 3500 
L 1178 3500 
L 1178 0 
L 603 0 
L 603 3500 
z
M 603 4863 
L 1178 4863 
L 1178 4134 
L 603 4134 
L 603 4863 
z
" transform="scale(0.015625)"/>
       <path id="DejaVuSans-72" d="M 2631 2963 
Q 2534 3019 2420 3045 
Q 2306 3072 2169 3072 
Q 1681 3072 1420 2755 
Q 1159 2438 1159 1844 
L 1159 0 
L 581 0 
L 581 3500 
L 1159 3500 
L 1159 2956 
Q 1341 3275 1631 3429 
Q 1922 3584 2338 3584 
Q 2397 3584 2469 3576 
Q 2541 3569 2628 3553 
L 2631 2963 
z
" transform="scale(0.015625)"/>
       <path id="DejaVuSans-63" d="M 3122 3366 
L 3122 2828 
Q 2878 2963 2633 3030 
Q 2388 3097 2138 3097 
Q 1578 3097 1268 2742 
Q 959 2388 959 1747 
Q 959 1106 1268 751 
Q 1578 397 2138 397 
Q 2388 397 2633 464 
Q 2878 531 3122 666 
L 3122 134 
Q 2881 22 2623 -34 
Q 2366 -91 2075 -91 
Q 1284 -91 818 406 
Q 353 903 353 1747 
Q 353 2603 823 3093 
Q 1294 3584 2113 3584 
Q 2378 3584 2631 3529 
Q 2884 3475 3122 3366 
z
" transform="scale(0.015625)"/>
       <path id="DejaVuSans-75" d="M 544 1381 
L 544 3500 
L 1119 3500 
L 1119 1403 
Q 1119 906 1312 657 
Q 1506 409 1894 409 
Q 2359 409 2629 706 
Q 2900 1003 2900 1516 
L 2900 3500 
L 3475 3500 
L 3475 0 
L 2900 0 
L 2900 538 
Q 2691 219 2414 64 
Q 2138 -91 1772 -91 
Q 1169 -91 856 284 
Q 544 659 544 1381 
z
M 1991 3584 
L 1991 3584 
z
" transform="scale(0.015625)"/>
       <path id="DejaVuSans-74" d="M 1172 4494 
L 1172 3500 
L 2356 3500 
L 2356 3053 
L 1172 3053 
L 1172 1153 
Q 1172 725 1289 603 
Q 1406 481 1766 481 
L 2356 481 
L 2356 0 
L 1766 0 
Q 1100 0 847 248 
Q 594 497 594 1153 
L 594 3053 
L 172 3053 
L 172 3500 
L 594 3500 
L 594 4494 
L 1172 4494 
z
" transform="scale(0.015625)"/>
       <path id="DejaVuSans-20" transform="scale(0.015625)"/>
       <path id="DejaVuSans-6e" d="M 3513 2113 
L 3513 0 
L 2938 0 
L 2938 2094 
Q 2938 2591 2744 2837 
Q 2550 3084 2163 3084 
Q 1697 3084 1428 2787 
Q 1159 2491 1159 1978 
L 1159 0 
L 581 0 
L 581 3500 
L 1159 3500 
L 1159 2956 
Q 1366 3272 1645 3428 
Q 1925 3584 2291 3584 
Q 2894 3584 3203 3211 
Q 3513 2838 3513 2113 
z
" transform="scale(0.015625)"/>
       <path id="DejaVuSans-6f" d="M 1959 3097 
Q 1497 3097 1228 2736 
Q 959 2375 959 1747 
Q 959 1119 1226 758 
Q 1494 397 1959 397 
Q 2419 397 2687 759 
Q 2956 1122 2956 1747 
Q 2956 2369 2687 2733 
Q 2419 3097 1959 3097 
z
M 1959 3584 
Q 2709 3584 3137 3096 
Q 3566 2609 3566 1747 
Q 3566 888 3137 398 
Q 2709 -91 1959 -91 
Q 1206 -91 779 398 
Q 353 888 353 1747 
Q 353 2609 779 3096 
Q 1206 3584 1959 3584 
z
" transform="scale(0.015625)"/>
       <path id="DejaVuSans-73" d="M 2834 3397 
L 2834 2853 
Q 2591 2978 2328 3040 
Q 2066 3103 1784 3103 
Q 1356 3103 1142 2972 
Q 928 2841 928 2578 
Q 928 2378 1081 2264 
Q 1234 2150 1697 2047 
L 1894 2003 
Q 2506 1872 2764 1633 
Q 3022 1394 3022 966 
Q 3022 478 2636 193 
Q 2250 -91 1575 -91 
Q 1294 -91 989 -36 
Q 684 19 347 128 
L 347 722 
Q 666 556 975 473 
Q 1284 391 1588 391 
Q 1994 391 2212 530 
Q 2431 669 2431 922 
Q 2431 1156 2273 1281 
Q 2116 1406 1581 1522 
L 1381 1569 
Q 847 1681 609 1914 
Q 372 2147 372 2553 
Q 372 3047 722 3315 
Q 1072 3584 1716 3584 
Q 2034 3584 2315 3537 
Q 2597 3491 2834 3397 
z
" transform="scale(0.015625)"/>
       <path id="DejaVuSans-79" d="M 2059 -325 
Q 1816 -950 1584 -1140 
Q 1353 -1331 966 -1331 
L 506 -1331 
L 506 -850 
L 844 -850 
Q 1081 -850 1212 -737 
Q 1344 -625 1503 -206 
L 1606 56 
L 191 3500 
L 800 3500 
L 1894 763 
L 2988 3500 
L 3597 3500 
L 2059 -325 
z
" transform="scale(0.015625)"/>
      </defs>
      <use xlink:href="#DejaVuSans-43"/>
      <use xlink:href="#DejaVuSans-69" x="69.824219"/>
      <use xlink:href="#DejaVuSans-72" x="97.607422"/>
      <use xlink:href="#DejaVuSans-63" x="136.470703"/>
      <use xlink:href="#DejaVuSans-75" x="191.451172"/>
      <use xlink:href="#DejaVuSans-69" x="254.830078"/>
      <use xlink:href="#DejaVuSans-74" x="282.613281"/>
      <use xlink:href="#DejaVuSans-20" x="321.822266"/>
      <use xlink:href="#DejaVuSans-31" x="353.609375"/>
      <use xlink:href="#DejaVuSans-20" x="417.232422"/>
      <use xlink:href="#DejaVuSans-28" x="449.019531"/>
      <use xlink:href="#DejaVuSans-6e" x="488.033203"/>
      <use xlink:href="#DejaVuSans-6f" x="551.412109"/>
      <use xlink:href="#DejaVuSans-69" x="612.59375"/>
      <use xlink:href="#DejaVuSans-73" x="640.376953"/>
      <use xlink:href="#DejaVuSans-79" x="692.476562"/>
      <use xlink:href="#DejaVuSans-29" x="751.65625"/>
     </g>
    </g>
    <g id="line2d_16">
     <path d="M 169.4 41.778125 
L 179.4 41.778125 
L 189.4 41.778125 
" style="fill: none; stroke: #cc3311; stroke-width: 1.5; stroke-linecap: square"/>
    </g>
    <g id="text_18">
     <!-- Z, C+L, $N_\tau = 13$, $\tau \in [\frac{1}{f_{\rm max} \times F_{\rm ext}},\frac{F_{\rm ext}}{f_{\rm min}}],\log{F_{\rm ext}} = -0.1$ -->
     <g transform="translate(197.4 45.278125) scale(0.1 -0.1)">
      <defs>
       <path id="DejaVuSans-5a" d="M 359 4666 
L 4025 4666 
L 4025 4184 
L 1075 531 
L 4097 531 
L 4097 0 
L 288 0 
L 288 481 
L 3238 4134 
L 359 4134 
L 359 4666 
z
" transform="scale(0.015625)"/>
       <path id="DejaVuSans-2c" d="M 750 794 
L 1409 794 
L 1409 256 
L 897 -744 
L 494 -744 
L 750 256 
L 750 794 
z
" transform="scale(0.015625)"/>
       <path id="DejaVuSans-2b" d="M 2944 4013 
L 2944 2272 
L 4684 2272 
L 4684 1741 
L 2944 1741 
L 2944 0 
L 2419 0 
L 2419 1741 
L 678 1741 
L 678 2272 
L 2419 2272 
L 2419 4013 
L 2944 4013 
z
" transform="scale(0.015625)"/>
       <path id="DejaVuSans-4c" d="M 628 4666 
L 1259 4666 
L 1259 531 
L 3531 531 
L 3531 0 
L 628 0 
L 628 4666 
z
" transform="scale(0.015625)"/>
       <path id="DejaVuSans-Oblique-4e" d="M 1081 4666 
L 1931 4666 
L 3219 666 
L 4000 4666 
L 4616 4666 
L 3706 0 
L 2853 0 
L 1569 4025 
L 788 0 
L 172 0 
L 1081 4666 
z
" transform="scale(0.015625)"/>
       <path id="DejaVuSans-Oblique-3c4" d="M 2103 638 
Q 2188 488 2525 488 
L 2800 488 
L 2706 0 
L 2363 0 
Q 1800 0 1600 300 
Q 1403 606 1534 1269 
L 1856 2925 
L 541 2925 
L 653 3500 
L 3881 3500 
L 3769 2925 
L 2444 2925 
L 2113 1234 
Q 2025 781 2103 638 
z
" transform="scale(0.015625)"/>
       <path id="DejaVuSans-3d" d="M 678 2906 
L 4684 2906 
L 4684 2381 
L 678 2381 
L 678 2906 
z
M 678 1631 
L 4684 1631 
L 4684 1100 
L 678 1100 
L 678 1631 
z
" transform="scale(0.015625)"/>
       <path id="DejaVuSans-2208" d="M 1072 1959 
Q 1094 1728 1291 1353 
Q 1522 919 1959 675 
Q 2388 438 2850 434 
L 5028 434 
L 5028 -63 
L 2850 -63 
Q 2250 -63 1695 246 
Q 1141 556 844 1106 
Q 547 1656 547 2241 
Q 547 2819 844 3369 
Q 1141 3919 1695 4231 
Q 2250 4544 2850 4544 
L 5028 4544 
L 5028 4047 
L 2850 4047 
Q 2388 4044 1959 3803 
Q 1525 3556 1291 3125 
Q 1091 2750 1063 2459 
L 5028 2459 
L 5028 1959 
L 1072 1959 
z
" transform="scale(0.015625)"/>
       <path id="DejaVuSans-5b" d="M 550 4863 
L 1875 4863 
L 1875 4416 
L 1125 4416 
L 1125 -397 
L 1875 -397 
L 1875 -844 
L 550 -844 
L 550 4863 
z
" transform="scale(0.015625)"/>
       <path id="DejaVuSans-Oblique-66" d="M 3059 4863 
L 2969 4384 
L 2419 4384 
Q 2106 4384 1964 4261 
Q 1822 4138 1753 3809 
L 1691 3500 
L 2638 3500 
L 2553 3053 
L 1606 3053 
L 1013 0 
L 434 0 
L 1031 3053 
L 481 3053 
L 563 3500 
L 1113 3500 
L 1159 3744 
Q 1278 4363 1576 4613 
Q 1875 4863 2516 4863 
L 3059 4863 
z
" transform="scale(0.015625)"/>
       <path id="DejaVuSans-61" d="M 2194 1759 
Q 1497 1759 1228 1600 
Q 959 1441 959 1056 
Q 959 750 1161 570 
Q 1363 391 1709 391 
Q 2188 391 2477 730 
Q 2766 1069 2766 1631 
L 2766 1759 
L 2194 1759 
z
M 3341 1997 
L 3341 0 
L 2766 0 
L 2766 531 
Q 2569 213 2275 61 
Q 1981 -91 1556 -91 
Q 1019 -91 701 211 
Q 384 513 384 1019 
Q 384 1609 779 1909 
Q 1175 2209 1959 2209 
L 2766 2209 
L 2766 2266 
Q 2766 2663 2505 2880 
Q 2244 3097 1772 3097 
Q 1472 3097 1187 3025 
Q 903 2953 641 2809 
L 641 3341 
Q 956 3463 1253 3523 
Q 1550 3584 1831 3584 
Q 2591 3584 2966 3190 
Q 3341 2797 3341 1997 
z
" transform="scale(0.015625)"/>
       <path id="DejaVuSans-78" d="M 3513 3500 
L 2247 1797 
L 3578 0 
L 2900 0 
L 1881 1375 
L 863 0 
L 184 0 
L 1544 1831 
L 300 3500 
L 978 3500 
L 1906 2253 
L 2834 3500 
L 3513 3500 
z
" transform="scale(0.015625)"/>
       <path id="DejaVuSans-d7" d="M 4488 3438 
L 3059 2003 
L 4488 575 
L 4116 197 
L 2681 1631 
L 1247 197 
L 878 575 
L 2303 2003 
L 878 3438 
L 1247 3816 
L 2681 2381 
L 4116 3816 
L 4488 3438 
z
" transform="scale(0.015625)"/>
       <path id="DejaVuSans-Oblique-46" d="M 1081 4666 
L 3756 4666 
L 3653 4134 
L 1606 4134 
L 1338 2759 
L 3188 2759 
L 3084 2228 
L 1234 2228 
L 800 0 
L 172 0 
L 1081 4666 
z
" transform="scale(0.015625)"/>
       <path id="DejaVuSans-5d" d="M 1947 4863 
L 1947 -844 
L 622 -844 
L 622 -397 
L 1369 -397 
L 1369 4416 
L 622 4416 
L 622 4863 
L 1947 4863 
z
" transform="scale(0.015625)"/>
       <path id="DejaVuSans-6c" d="M 603 4863 
L 1178 4863 
L 1178 0 
L 603 0 
L 603 4863 
z
" transform="scale(0.015625)"/>
       <path id="DejaVuSans-67" d="M 2906 1791 
Q 2906 2416 2648 2759 
Q 2391 3103 1925 3103 
Q 1463 3103 1205 2759 
Q 947 2416 947 1791 
Q 947 1169 1205 825 
Q 1463 481 1925 481 
Q 2391 481 2648 825 
Q 2906 1169 2906 1791 
z
M 3481 434 
Q 3481 -459 3084 -895 
Q 2688 -1331 1869 -1331 
Q 1566 -1331 1297 -1286 
Q 1028 -1241 775 -1147 
L 775 -588 
Q 1028 -725 1275 -790 
Q 1522 -856 1778 -856 
Q 2344 -856 2625 -561 
Q 2906 -266 2906 331 
L 2906 616 
Q 2728 306 2450 153 
Q 2172 0 1784 0 
Q 1141 0 747 490 
Q 353 981 353 1791 
Q 353 2603 747 3093 
Q 1141 3584 1784 3584 
Q 2172 3584 2450 3431 
Q 2728 3278 2906 2969 
L 2906 3500 
L 3481 3500 
L 3481 434 
z
" transform="scale(0.015625)"/>
       <path id="DejaVuSans-2e" d="M 684 794 
L 1344 794 
L 1344 0 
L 684 0 
L 684 794 
z
" transform="scale(0.015625)"/>
      </defs>
      <use xlink:href="#DejaVuSans-5a" transform="translate(0 0.987656)"/>
      <use xlink:href="#DejaVuSans-2c" transform="translate(68.505859 0.987656)"/>
      <use xlink:href="#DejaVuSans-20" transform="translate(100.292969 0.987656)"/>
      <use xlink:href="#DejaVuSans-43" transform="translate(132.080078 0.987656)"/>
      <use xlink:href="#DejaVuSans-2b" transform="translate(201.904297 0.987656)"/>
      <use xlink:href="#DejaVuSans-4c" transform="translate(285.693359 0.987656)"/>
      <use xlink:href="#DejaVuSans-2c" transform="translate(341.40625 0.987656)"/>
      <use xlink:href="#DejaVuSans-20" transform="translate(373.193359 0.987656)"/>
      <use xlink:href="#DejaVuSans-Oblique-4e" transform="translate(404.980469 0.987656)"/>
      <use xlink:href="#DejaVuSans-Oblique-3c4" transform="translate(479.785156 -15.418594) scale(0.7)"/>
      <use xlink:href="#DejaVuSans-3d" transform="translate(544.145508 0.987656)"/>
      <use xlink:href="#DejaVuSans-31" transform="translate(647.416992 0.987656)"/>
      <use xlink:href="#DejaVuSans-33" transform="translate(711.040039 0.987656)"/>
      <use xlink:href="#DejaVuSans-2c" transform="translate(774.663086 0.987656)"/>
      <use xlink:href="#DejaVuSans-20" transform="translate(806.450195 0.987656)"/>
      <use xlink:href="#DejaVuSans-Oblique-3c4" transform="translate(838.237305 0.987656)"/>
      <use xlink:href="#DejaVuSans-2208" transform="translate(917.924805 0.987656)"/>
      <use xlink:href="#DejaVuSans-5b" transform="translate(1024.516602 0.987656)"/>
      <use xlink:href="#DejaVuSans-31" transform="translate(1211.530273 44.784531) scale(0.7)"/>
      <use xlink:href="#DejaVuSans-Oblique-66" transform="translate(1063.530273 -39.654531) scale(0.7)"/>
      <use xlink:href="#DejaVuSans-6d" transform="translate(1088.173828 -51.138906) scale(0.49)"/>
      <use xlink:href="#DejaVuSans-61" transform="translate(1135.905762 -51.138906) scale(0.49)"/>
      <use xlink:href="#DejaVuSans-78" transform="translate(1165.932617 -51.138906) scale(0.49)"/>
      <use xlink:href="#DejaVuSans-d7" transform="translate(1210.482422 -39.654531) scale(0.7)"/>
      <use xlink:href="#DejaVuSans-Oblique-46" transform="translate(1282.772461 -39.654531) scale(0.7)"/>
      <use xlink:href="#DejaVuSans-65" transform="translate(1323.036133 -51.138906) scale(0.49)"/>
      <use xlink:href="#DejaVuSans-78" transform="translate(1353.182617 -51.138906) scale(0.49)"/>
      <use xlink:href="#DejaVuSans-74" transform="translate(1382.180664 -51.138906) scale(0.49)"/>
      <use xlink:href="#DejaVuSans-2c" transform="translate(1415.807129 0.987656)"/>
      <use xlink:href="#DejaVuSans-Oblique-46" transform="translate(1467.07666 56.965625) scale(0.7)"/>
      <use xlink:href="#DejaVuSans-65" transform="translate(1507.340332 45.48125) scale(0.49)"/>
      <use xlink:href="#DejaVuSans-78" transform="translate(1537.486816 45.48125) scale(0.49)"/>
      <use xlink:href="#DejaVuSans-74" transform="translate(1566.484863 45.48125) scale(0.49)"/>
      <use xlink:href="#DejaVuSans-Oblique-66" transform="translate(1468.07666 -39.654531) scale(0.7)"/>
      <use xlink:href="#DejaVuSans-6d" transform="translate(1492.720215 -51.138906) scale(0.49)"/>
      <use xlink:href="#DejaVuSans-69" transform="translate(1540.452148 -51.138906) scale(0.49)"/>
      <use xlink:href="#DejaVuSans-6e" transform="translate(1554.065918 -51.138906) scale(0.49)"/>
      <use xlink:href="#DejaVuSans-5d" transform="translate(1600.111328 0.987656)"/>
      <use xlink:href="#DejaVuSans-2c" transform="translate(1639.125 0.987656)"/>
      <use xlink:href="#DejaVuSans-6c" transform="translate(1690.394531 0.987656)"/>
      <use xlink:href="#DejaVuSans-6f" transform="translate(1718.177734 0.987656)"/>
      <use xlink:href="#DejaVuSans-67" transform="translate(1779.359375 0.987656)"/>
      <use xlink:href="#DejaVuSans-Oblique-46" transform="translate(1859.071614 0.987656)"/>
      <use xlink:href="#DejaVuSans-65" transform="translate(1916.591145 -15.418594) scale(0.7)"/>
      <use xlink:href="#DejaVuSans-78" transform="translate(1959.657551 -15.418594) scale(0.7)"/>
      <use xlink:href="#DejaVuSans-74" transform="translate(2001.083333 -15.418594) scale(0.7)"/>
      <use xlink:href="#DejaVuSans-3d" transform="translate(2050.746418 0.987656)"/>
      <use xlink:href="#DejaVuSans-2212" transform="translate(2173.500325 0.987656)"/>
      <use xlink:href="#DejaVuSans-30" transform="translate(2276.771809 0.987656)"/>
      <use xlink:href="#DejaVuSans-2e" transform="translate(2340.394856 0.987656)"/>
      <use xlink:href="#DejaVuSans-31" transform="translate(2372.181965 0.987656)"/>
      <path d="M 1063.530273 19.784531 
L 1063.530273 26.034531 
L 1403.307129 26.034531 
L 1403.307129 19.784531 
L 1063.530273 19.784531 
z
"/>
      <path d="M 1467.07666 19.784531 
L 1467.07666 26.034531 
L 1587.611328 26.034531 
L 1587.611328 19.784531 
L 1467.07666 19.784531 
z
"/>
     </g>
    </g>
   </g>
  </g>
 </g>
 <defs>
  <clipPath id="pfe60b35b7b">
   <rect x="60.68" y="10.8" width="389.32" height="291.4"/>
  </clipPath>
 </defs>
</svg>
