<?xml version="1.0" encoding="utf-8" standalone="no"?>
<!DOCTYPE svg PUBLIC "-//W3C//DTD SVG 1.1//EN"
  "http://www.w3.org/Graphics/SVG/1.1/DTD/svg11.dtd">
<svg xmlns:xlink="http://www.w3.org/1999/xlink" width="460.8pt" height="345.6pt" viewBox="0 0 460.8 345.6" xmlns="http://www.w3.org/2000/svg" version="1.1">
 <metadata>
  <rdf:RDF xmlns:dc="http://purl.org/dc/elements/1.1/" xmlns:cc="http://creativecommons.org/ns#" xmlns:rdf="http://www.w3.org/1999/02/22-rdf-syntax-ns#">
   <cc:Work>
    <dc:type rdf:resource="http://purl.org/dc/dcmitype/StillImage"/>
    <dc:date>2024-03-14T17:37:18.223680</dc:date>
    <dc:format>image/svg+xml</dc:format>
    <dc:creator>
     <cc:Agent>
      <dc:title>Matplotlib v3.8.3, https://matplotlib.org/</dc:title>
     </cc:Agent>
    </dc:creator>
   </cc:Work>
  </rdf:RDF>
 </metadata>
 <defs>
  <style type="text/css">*{stroke-linejoin: round; stroke-linecap: butt}</style>
 </defs>
 <g id="figure_1">
  <g id="patch_1">
   <path d="M 0 345.6 
L 460.8 345.6 
L 460.8 0 
L 0 0 
L 0 345.6 
z
" style="fill: none"/>
  </g>
  <g id="axes_1">
   <g id="patch_2">
    <path d="M 57.6 307.584 
L 414.72 307.584 
L 414.72 41.472 
L 57.6 41.472 
L 57.6 307.584 
z
" style="fill: none"/>
   </g>
   <g id="PolyCollection_1">
    <defs>
     <path id="m44e39be8d2" d="M 73.832727 -62.800913 
L 73.832727 -62.797465 
L 74.956099 -62.79756 
L 76.079472 -62.797735 
L 77.202844 -62.798049 
L 78.326216 -62.798609 
L 79.449588 -62.799592 
L 80.57296 -62.801297 
L 81.696332 -62.80421 
L 82.819704 -62.809116 
L 83.943076 -62.81726 
L 85.066449 -62.830573 
L 86.189821 -62.851997 
L 87.313193 -62.885914 
L 88.436565 -62.938708 
L 89.559937 -63.01946 
L 90.683309 -63.140768 
L 91.806681 -63.319645 
L 92.930053 -63.578427 
L 94.053426 -63.945556 
L 95.176798 -64.456077 
L 96.30017 -65.151647 
L 97.423542 -66.079818 
L 98.546914 -67.292407 
L 99.670286 -68.8428 
L 100.793658 -70.782171 
L 101.917031 -73.154731 
L 103.040403 -75.992333 
L 104.163775 -79.308935 
L 105.287147 -83.095538 
L 106.410519 -87.316335 
L 107.533891 -91.906704 
L 108.657263 -96.77355 
L 109.780635 -101.798208 
L 110.904008 -106.841791 
L 112.02738 -111.752501 
L 113.150752 -116.374176 
L 114.274124 -120.555166 
L 115.397496 -124.156642 
L 116.520868 -127.059605 
L 117.64424 -129.170142 
L 118.767612 -130.422775 
L 119.890985 -130.782045 
L 121.014357 -130.242663 
L 122.137729 -128.828594 
L 123.261101 -126.591379 
L 124.384473 -123.607842 
L 125.507845 -119.977173 
L 126.631217 -115.817239 
L 127.754589 -111.259996 
L 128.877962 -106.445939 
L 130.001334 -101.517748 
L 131.124706 -96.613474 
L 132.248078 -91.859811 
L 133.37145 -87.366097 
L 134.494822 -83.219653 
L 135.618194 -79.482925 
L 136.741567 -76.192672 
L 137.864939 -73.361159 
L 138.988311 -70.979059 
L 140.111683 -69.019601 
L 141.235055 -67.443369 
L 142.358427 -66.203201 
L 143.481799 -65.248679 
L 144.605171 -64.529885 
L 145.728544 -64.000213 
L 146.851916 -63.61821 
L 147.975288 -63.348526 
L 149.09866 -63.162132 
L 150.222032 -63.035999 
L 151.345404 -62.952437 
L 152.468776 -62.898264 
L 153.592148 -62.863939 
L 154.715521 -62.842743 
L 155.838893 -62.830069 
L 156.962265 -62.82284 
L 158.085637 -62.819054 
L 159.209009 -62.817442 
L 160.332381 -62.817224 
L 161.455753 -62.817939 
L 162.579126 -62.81933 
L 163.702498 -62.821268 
L 164.82587 -62.823708 
L 165.949242 -62.826656 
L 167.072614 -62.830149 
L 168.195986 -62.834246 
L 169.319358 -62.839018 
L 170.44273 -62.844543 
L 171.566103 -62.850898 
L 172.689475 -62.85816 
L 173.812847 -62.866398 
L 174.936219 -62.87567 
L 176.059591 -62.88602 
L 177.182963 -62.897469 
L 178.306335 -62.910015 
L 179.429707 -62.923627 
L 180.55308 -62.938237 
L 181.676452 -62.953744 
L 182.799824 -62.970004 
L 183.923196 -62.986837 
L 185.046568 -63.004024 
L 186.16994 -63.021312 
L 187.293312 -63.038421 
L 188.416684 -63.055048 
L 189.540057 -63.070876 
L 190.663429 -63.085583 
L 191.786801 -63.098853 
L 192.910173 -63.110385 
L 194.033545 -63.119911 
L 195.156917 -63.12721 
L 196.280289 -63.132127 
L 197.403662 -63.134583 
L 198.527034 -63.134595 
L 199.650406 -63.132283 
L 200.773778 -63.12787 
L 201.89715 -63.121679 
L 203.020522 -63.114117 
L 204.143894 -63.105659 
L 205.267266 -63.096816 
L 206.390639 -63.088116 
L 207.514011 -63.08007 
L 208.637383 -63.073151 
L 209.760755 -63.067778 
L 210.884127 -63.064297 
L 212.007499 -63.062979 
L 213.130871 -63.064012 
L 214.254243 -63.067505 
L 215.377616 -63.073487 
L 216.500988 -63.081914 
L 217.62436 -63.092673 
L 218.747732 -63.105585 
L 219.871104 -63.120414 
L 220.994476 -63.136868 
L 222.117848 -63.154615 
L 223.241221 -63.173282 
L 224.364593 -63.192472 
L 225.487965 -63.211768 
L 226.611337 -63.230745 
L 227.734709 -63.24898 
L 228.858081 -63.266062 
L 229.981453 -63.281601 
L 231.104825 -63.295244 
L 232.228198 -63.306686 
L 233.35157 -63.315685 
L 234.474942 -63.322079 
L 235.598314 -63.325795 
L 236.721686 -63.326866 
L 237.845058 -63.325431 
L 238.96843 -63.321738 
L 240.091802 -63.316136 
L 241.215175 -63.309068 
L 242.338547 -63.301053 
L 243.461919 -63.292667 
L 244.585291 -63.284524 
L 245.708663 -63.277258 
L 246.832035 -63.271497 
L 247.955407 -63.26784 
L 249.078779 -63.266834 
L 250.202152 -63.268948 
L 251.325524 -63.27454 
L 252.448896 -63.283839 
L 253.572268 -63.296912 
L 254.69564 -63.313655 
L 255.819012 -63.333786 
L 256.942384 -63.356845 
L 258.065757 -63.382223 
L 259.189129 -63.409188 
L 260.312501 -63.436932 
L 261.435873 -63.464619 
L 262.559245 -63.491435 
L 263.682617 -63.516634 
L 264.805989 -63.539571 
L 265.929361 -63.559728 
L 267.052734 -63.576724 
L 268.176106 -63.590309 
L 269.299478 -63.600351 
L 270.42285 -63.606819 
L 271.546222 -63.609761 
L 272.669594 -63.609279 
L 273.792966 -63.605511 
L 274.916338 -63.59862 
L 276.039711 -63.588785 
L 277.163083 -63.576192 
L 278.286455 -63.561045 
L 279.409827 -63.543563 
L 280.533199 -63.523989 
L 281.656571 -63.502604 
L 282.779943 -63.479724 
L 283.903316 -63.455707 
L 285.026688 -63.430953 
L 286.15006 -63.405889 
L 287.273432 -63.38096 
L 288.396804 -63.356608 
L 289.520176 -63.333248 
L 290.643548 -63.311254 
L 291.76692 -63.29093 
L 292.890293 -63.272505 
L 294.013665 -63.256116 
L 295.137037 -63.241812 
L 296.260409 -63.229553 
L 297.383781 -63.219218 
L 298.507153 -63.210617 
L 299.630525 -63.203507 
L 300.753897 -63.197598 
L 301.87727 -63.19258 
L 303.000642 -63.188129 
L 304.124014 -63.183928 
L 305.247386 -63.179683 
L 306.370758 -63.175141 
L 307.49413 -63.170105 
L 308.617502 -63.164448 
L 309.740874 -63.158128 
L 310.864247 -63.15119 
L 311.987619 -63.143764 
L 313.110991 -63.136058 
L 314.234363 -63.12834 
L 315.357735 -63.12091 
L 316.481107 -63.114069 
L 317.604479 -63.108094 
L 318.727852 -63.103203 
L 319.851224 -63.099532 
L 320.974596 -63.097123 
L 322.097968 -63.095917 
L 323.22134 -63.095761 
L 324.344712 -63.096425 
L 325.468084 -63.097627 
L 326.591456 -63.099057 
L 327.714829 -63.10041 
L 328.838201 -63.101412 
L 329.961573 -63.101835 
L 331.084945 -63.101518 
L 332.208317 -63.100366 
L 333.331689 -63.09835 
L 334.455061 -63.095497 
L 335.578433 -63.091879 
L 336.701806 -63.087598 
L 337.825178 -63.082772 
L 338.94855 -63.077527 
L 340.071922 -63.071987 
L 341.195294 -63.066269 
L 342.318666 -63.060486 
L 343.442038 -63.054748 
L 344.565411 -63.049163 
L 345.688783 -63.043847 
L 346.812155 -63.038923 
L 347.935527 -63.034523 
L 349.058899 -63.030785 
L 350.182271 -63.027843 
L 351.305643 -63.025813 
L 352.429015 -63.024781 
L 353.552388 -63.024779 
L 354.67576 -63.025765 
L 355.799132 -63.027612 
L 356.922504 -63.030092 
L 358.045876 -63.032881 
L 359.169248 -63.035565 
L 360.29262 -63.037667 
L 361.415992 -63.038679 
L 362.539365 -63.038102 
L 363.662737 -63.035499 
L 364.786109 -63.030531 
L 365.909481 -63.023001 
L 367.032853 -63.012874 
L 368.156225 -63.000291 
L 369.279597 -62.985555 
L 370.402969 -62.969109 
L 371.526342 -62.951497 
L 372.649714 -62.933313 
L 373.773086 -62.915156 
L 374.896458 -62.89758 
L 376.01983 -62.881057 
L 377.143202 -62.865953 
L 378.266574 -62.852511 
L 379.389947 -62.840857 
L 380.513319 -62.831004 
L 381.636691 -62.822877 
L 382.760063 -62.816336 
L 383.883435 -62.811195 
L 385.006807 -62.807248 
L 386.130179 -62.804287 
L 387.253551 -62.802116 
L 388.376924 -62.80056 
L 389.500296 -62.799471 
L 390.623668 -62.798724 
L 391.74704 -62.798223 
L 392.870412 -62.797895 
L 393.993784 -62.797685 
L 395.117156 -62.797553 
L 396.240528 -62.797472 
L 397.363901 -62.797423 
L 398.487273 -62.797395 
L 398.487273 -62.804009 
L 398.487273 -62.804009 
L 397.363901 -62.809216 
L 396.240528 -62.818074 
L 395.117156 -62.832826 
L 393.993784 -62.856872 
L 392.870412 -62.895229 
L 391.74704 -62.955108 
L 390.623668 -63.046574 
L 389.500296 -63.183279 
L 388.376924 -63.383177 
L 387.253551 -63.669128 
L 386.130179 -64.06925 
L 385.006807 -64.616858 
L 383.883435 -65.349808 
L 382.760063 -66.309123 
L 381.636691 -67.536784 
L 380.513319 -69.072726 
L 379.389947 -70.951163 
L 378.266574 -73.196536 
L 377.143202 -75.81951 
L 376.01983 -78.813537 
L 374.896458 -82.15253 
L 373.773086 -85.790137 
L 372.649714 -89.660924 
L 371.526342 -93.683555 
L 370.402969 -97.765756 
L 369.279597 -101.810589 
L 368.156225 -105.723331 
L 367.032853 -109.418152 
L 365.909481 -112.823806 
L 364.786109 -115.88771 
L 363.662737 -118.578022 
L 362.539365 -120.883645 
L 361.415992 -122.812359 
L 360.29262 -124.387523 
L 359.169248 -125.643893 
L 358.045876 -126.62317 
L 356.922504 -127.369777 
L 355.799132 -127.927269 
L 354.67576 -128.335618 
L 353.552388 -128.629442 
L 352.429015 -128.837156 
L 351.305643 -128.980894 
L 350.182271 -129.077028 
L 349.058899 -129.137065 
L 347.935527 -129.168736 
L 346.812155 -129.1771 
L 345.688783 -129.165553 
L 344.565411 -129.136649 
L 343.442038 -129.092736 
L 342.318666 -129.036399 
L 341.195294 -128.970742 
L 340.071922 -128.899554 
L 338.94855 -128.827382 
L 337.825178 -128.7595 
L 336.701806 -128.701809 
L 335.578433 -128.660633 
L 334.455061 -128.642436 
L 333.331689 -128.653471 
L 332.208317 -128.699406 
L 331.084945 -128.784948 
L 329.961573 -128.913538 
L 328.838201 -129.087144 
L 327.714829 -129.306178 
L 326.591456 -129.569567 
L 325.468084 -129.874984 
L 324.344712 -130.219202 
L 323.22134 -130.598566 
L 322.097968 -131.009511 
L 320.974596 -131.449062 
L 319.851224 -131.915222 
L 318.727852 -132.407202 
L 317.604479 -132.925397 
L 316.481107 -133.471131 
L 315.357735 -134.046154 
L 314.234363 -134.65197 
L 313.110991 -135.289084 
L 311.987619 -135.956266 
L 310.864247 -136.649947 
L 309.740874 -137.363846 
L 308.617502 -138.088893 
L 307.49413 -138.813508 
L 306.370758 -139.524227 
L 305.247386 -140.206641 
L 304.124014 -140.846558 
L 303.000642 -141.43125 
L 301.87727 -141.950632 
L 300.753897 -142.398189 
L 299.630525 -142.771546 
L 298.507153 -143.072558 
L 297.383781 -143.306943 
L 296.260409 -143.483488 
L 295.137037 -143.61298 
L 294.013665 -143.706982 
L 292.890293 -143.77664 
L 291.76692 -143.831646 
L 290.643548 -143.879465 
L 289.520176 -143.92489 
L 288.396804 -143.969929 
L 287.273432 -144.014027 
L 286.15006 -144.054545 
L 285.026688 -144.087432 
L 283.903316 -144.107995 
L 282.779943 -144.111651 
L 281.656571 -144.09458 
L 280.533199 -144.054209 
L 279.409827 -143.989497 
L 278.286455 -143.901022 
L 277.163083 -143.790909 
L 276.039711 -143.662646 
L 274.916338 -143.520842 
L 273.792966 -143.370953 
L 272.669594 -143.218994 
L 271.546222 -143.071241 
L 270.42285 -142.933915 
L 269.299478 -142.812841 
L 268.176106 -142.713101 
L 267.052734 -142.6387 
L 265.929361 -142.592258 
L 264.805989 -142.57476 
L 263.682617 -142.585385 
L 262.559245 -142.621409 
L 261.435873 -142.678216 
L 260.312501 -142.749385 
L 259.189129 -142.82689 
L 258.065757 -142.901368 
L 256.942384 -142.962466 
L 255.819012 -142.999228 
L 254.69564 -143.000487 
L 253.572268 -142.95524 
L 252.448896 -142.852997 
L 251.325524 -142.68408 
L 250.202152 -142.439916 
L 249.078779 -142.113308 
L 247.955407 -141.698721 
L 246.832035 -141.192549 
L 245.708663 -140.59335 
L 244.585291 -139.901991 
L 243.461919 -139.121668 
L 242.338547 -138.25778 
L 241.215175 -137.317655 
L 240.091802 -136.310158 
L 238.96843 -135.245247 
L 237.845058 -134.133524 
L 236.721686 -132.985824 
L 235.598314 -131.812881 
L 234.474942 -130.625066 
L 233.35157 -129.432197 
L 232.228198 -128.243402 
L 231.104825 -127.067035 
L 229.981453 -125.910635 
L 228.858081 -124.780934 
L 227.734709 -123.683913 
L 226.611337 -122.624903 
L 225.487965 -121.608718 
L 224.364593 -120.639812 
L 223.241221 -119.722438 
L 222.117848 -118.860803 
L 220.994476 -118.059198 
L 219.871104 -117.322106 
L 218.747732 -116.654243 
L 217.62436 -116.060528 
L 216.500988 -115.545943 
L 215.377616 -115.115258 
L 214.254243 -114.772606 
L 213.130871 -114.520924 
L 212.007499 -114.361293 
L 210.884127 -114.292231 
L 209.760755 -114.309032 
L 208.637383 -114.403234 
L 207.514011 -114.562299 
L 206.390639 -114.769587 
L 205.267266 -115.004658 
L 204.143894 -115.243913 
L 203.020522 -115.461529 
L 201.89715 -115.630609 
L 200.773778 -115.724447 
L 199.650406 -115.717763 
L 198.527034 -115.587809 
L 197.403662 -115.315251 
L 196.280289 -114.884791 
L 195.156917 -114.285536 
L 194.033545 -113.511163 
L 192.910173 -112.55993 
L 191.786801 -111.434597 
L 190.663429 -110.142281 
L 189.540057 -108.694229 
L 188.416684 -107.105499 
L 187.293312 -105.394489 
L 186.16994 -103.582312 
L 185.046568 -101.692011 
L 183.923196 -99.747675 
L 182.799824 -97.773512 
L 181.676452 -95.79298 
L 180.55308 -93.828041 
L 179.429707 -91.898601 
L 178.306335 -90.022145 
L 177.182963 -88.21356 
L 176.059591 -86.485115 
L 174.936219 -84.846551 
L 173.812847 -83.30525 
L 172.689475 -81.866445 
L 171.566103 -80.533471 
L 170.44273 -79.308022 
L 169.319358 -78.190431 
L 168.195986 -77.179954 
L 167.072614 -76.275067 
L 165.949242 -75.473745 
L 164.82587 -74.773755 
L 163.702498 -74.172933 
L 162.579126 -73.669463 
L 161.455753 -73.262176 
L 160.332381 -72.950853 
L 159.209009 -72.736578 
L 158.085637 -72.622111 
L 156.962265 -72.612326 
L 155.838893 -72.714675 
L 154.715521 -72.939706 
L 153.592148 -73.301596 
L 152.468776 -73.818698 
L 151.345404 -74.514067 
L 150.222032 -75.415931 
L 149.09866 -76.558061 
L 147.975288 -77.979978 
L 146.851916 -79.726913 
L 145.728544 -81.849425 
L 144.605171 -84.402535 
L 143.481799 -87.44424 
L 142.358427 -91.033264 
L 141.235055 -95.225906 
L 140.111683 -100.071938 
L 138.988311 -105.60961 
L 137.864939 -111.859955 
L 136.741567 -118.820816 
L 135.618194 -126.461146 
L 134.494822 -134.716324 
L 133.37145 -143.485228 
L 132.248078 -152.629738 
L 131.124706 -161.977118 
L 130.001334 -171.325359 
L 128.877962 -180.451176 
L 127.754589 -189.119961 
L 126.631217 -197.096725 
L 125.507845 -204.156992 
L 124.384473 -210.096679 
L 123.261101 -214.740346 
L 122.137729 -217.947506 
L 121.014357 -219.617093 
L 119.890985 -219.690387 
L 118.767612 -218.152761 
L 117.64424 -215.034481 
L 116.520868 -210.410558 
L 115.397496 -204.399366 
L 114.274124 -197.159599 
L 113.150752 -188.885138 
L 112.02738 -179.79761 
L 110.904008 -170.136784 
L 109.780635 -160.149371 
L 108.657263 -150.077144 
L 107.533891 -140.145541 
L 106.410519 -130.553842 
L 105.287147 -121.467853 
L 104.163775 -113.015614 
L 103.040403 -105.286223 
L 101.917031 -98.33146 
L 100.793658 -92.169593 
L 99.670286 -86.790603 
L 98.546914 -82.162063 
L 97.423542 -78.235024 
L 96.30017 -74.949437 
L 95.176798 -72.238853 
L 94.053426 -70.034275 
L 92.930053 -68.267202 
L 91.806681 -66.871922 
L 90.683309 -65.787183 
L 89.559937 -64.957311 
L 88.436565 -64.332895 
L 87.313193 -63.871069 
L 86.189821 -63.535488 
L 85.066449 -63.296036 
L 83.943076 -63.128327 
L 82.819704 -63.013078 
L 81.696332 -62.935395 
L 80.57296 -62.884053 
L 79.449588 -62.850788 
L 78.326216 -62.829663 
L 77.202844 -62.816518 
L 76.079472 -62.808503 
L 74.956099 -62.803715 
L 73.832727 -62.800913 
z
" style="stroke: #ee7733; stroke-opacity: 0.3"/>
    </defs>
    <g clip-path="url(#pb45f18bb0c)">
     <use xlink:href="#m44e39be8d2" x="0" y="345.6" style="fill: #ee7733; fill-opacity: 0.3; stroke: #ee7733; stroke-opacity: 0.3"/>
    </g>
   </g>
   <g id="matplotlib.axis_1">
    <g id="xtick_1">
     <g id="line2d_1">
      <defs>
       <path id="me9e2271c11" d="M 0 0 
L 0 3.5 
" style="stroke: #000000; stroke-width: 0.8"/>
      </defs>
      <g>
       <use xlink:href="#me9e2271c11" x="106.298182" y="307.584" style="stroke: #000000; stroke-width: 0.8"/>
      </g>
     </g>
     <g id="text_1">
      <!-- $\mathdefault{10^{-4}}$ -->
      <g transform="translate(94.548182 322.182437) scale(0.1 -0.1)">
       <defs>
        <path id="DejaVuSans-31" d="M 794 531 
L 1825 531 
L 1825 4091 
L 703 3866 
L 703 4441 
L 1819 4666 
L 2450 4666 
L 2450 531 
L 3481 531 
L 3481 0 
L 794 0 
L 794 531 
z
" transform="scale(0.015625)"/>
        <path id="DejaVuSans-30" d="M 2034 4250 
Q 1547 4250 1301 3770 
Q 1056 3291 1056 2328 
Q 1056 1369 1301 889 
Q 1547 409 2034 409 
Q 2525 409 2770 889 
Q 3016 1369 3016 2328 
Q 3016 3291 2770 3770 
Q 2525 4250 2034 4250 
z
M 2034 4750 
Q 2819 4750 3233 4129 
Q 3647 3509 3647 2328 
Q 3647 1150 3233 529 
Q 2819 -91 2034 -91 
Q 1250 -91 836 529 
Q 422 1150 422 2328 
Q 422 3509 836 4129 
Q 1250 4750 2034 4750 
z
" transform="scale(0.015625)"/>
        <path id="DejaVuSans-2212" d="M 678 2272 
L 4684 2272 
L 4684 1741 
L 678 1741 
L 678 2272 
z
" transform="scale(0.015625)"/>
        <path id="DejaVuSans-34" d="M 2419 4116 
L 825 1625 
L 2419 1625 
L 2419 4116 
z
M 2253 4666 
L 3047 4666 
L 3047 1625 
L 3713 1625 
L 3713 1100 
L 3047 1100 
L 3047 0 
L 2419 0 
L 2419 1100 
L 313 1100 
L 313 1709 
L 2253 4666 
z
" transform="scale(0.015625)"/>
       </defs>
       <use xlink:href="#DejaVuSans-31" transform="translate(0 0.684375)"/>
       <use xlink:href="#DejaVuSans-30" transform="translate(63.623047 0.684375)"/>
       <use xlink:href="#DejaVuSans-2212" transform="translate(128.203125 38.965625) scale(0.7)"/>
       <use xlink:href="#DejaVuSans-34" transform="translate(186.855469 38.965625) scale(0.7)"/>
      </g>
     </g>
    </g>
    <g id="xtick_2">
     <g id="line2d_2">
      <g>
       <use xlink:href="#me9e2271c11" x="171.229091" y="307.584" style="stroke: #000000; stroke-width: 0.8"/>
      </g>
     </g>
     <g id="text_2">
      <!-- $\mathdefault{10^{-3}}$ -->
      <g transform="translate(159.479091 322.182437) scale(0.1 -0.1)">
       <defs>
        <path id="DejaVuSans-33" d="M 2597 2516 
Q 3050 2419 3304 2112 
Q 3559 1806 3559 1356 
Q 3559 666 3084 287 
Q 2609 -91 1734 -91 
Q 1441 -91 1130 -33 
Q 819 25 488 141 
L 488 750 
Q 750 597 1062 519 
Q 1375 441 1716 441 
Q 2309 441 2620 675 
Q 2931 909 2931 1356 
Q 2931 1769 2642 2001 
Q 2353 2234 1838 2234 
L 1294 2234 
L 1294 2753 
L 1863 2753 
Q 2328 2753 2575 2939 
Q 2822 3125 2822 3475 
Q 2822 3834 2567 4026 
Q 2313 4219 1838 4219 
Q 1578 4219 1281 4162 
Q 984 4106 628 3988 
L 628 4550 
Q 988 4650 1302 4700 
Q 1616 4750 1894 4750 
Q 2613 4750 3031 4423 
Q 3450 4097 3450 3541 
Q 3450 3153 3228 2886 
Q 3006 2619 2597 2516 
z
" transform="scale(0.015625)"/>
       </defs>
       <use xlink:href="#DejaVuSans-31" transform="translate(0 0.765625)"/>
       <use xlink:href="#DejaVuSans-30" transform="translate(63.623047 0.765625)"/>
       <use xlink:href="#DejaVuSans-2212" transform="translate(128.203125 39.046875) scale(0.7)"/>
       <use xlink:href="#DejaVuSans-33" transform="translate(186.855469 39.046875) scale(0.7)"/>
      </g>
     </g>
    </g>
    <g id="xtick_3">
     <g id="line2d_3">
      <g>
       <use xlink:href="#me9e2271c11" x="236.16" y="307.584" style="stroke: #000000; stroke-width: 0.8"/>
      </g>
     </g>
     <g id="text_3">
      <!-- $\mathdefault{10^{-2}}$ -->
      <g transform="translate(224.41 322.182437) scale(0.1 -0.1)">
       <defs>
        <path id="DejaVuSans-32" d="M 1228 531 
L 3431 531 
L 3431 0 
L 469 0 
L 469 531 
Q 828 903 1448 1529 
Q 2069 2156 2228 2338 
Q 2531 2678 2651 2914 
Q 2772 3150 2772 3378 
Q 2772 3750 2511 3984 
Q 2250 4219 1831 4219 
Q 1534 4219 1204 4116 
Q 875 4013 500 3803 
L 500 4441 
Q 881 4594 1212 4672 
Q 1544 4750 1819 4750 
Q 2544 4750 2975 4387 
Q 3406 4025 3406 3419 
Q 3406 3131 3298 2873 
Q 3191 2616 2906 2266 
Q 2828 2175 2409 1742 
Q 1991 1309 1228 531 
z
" transform="scale(0.015625)"/>
       </defs>
       <use xlink:href="#DejaVuSans-31" transform="translate(0 0.765625)"/>
       <use xlink:href="#DejaVuSans-30" transform="translate(63.623047 0.765625)"/>
       <use xlink:href="#DejaVuSans-2212" transform="translate(128.203125 39.046875) scale(0.7)"/>
       <use xlink:href="#DejaVuSans-32" transform="translate(186.855469 39.046875) scale(0.7)"/>
      </g>
     </g>
    </g>
    <g id="xtick_4">
     <g id="line2d_4">
      <g>
       <use xlink:href="#me9e2271c11" x="301.090909" y="307.584" style="stroke: #000000; stroke-width: 0.8"/>
      </g>
     </g>
     <g id="text_4">
      <!-- $\mathdefault{10^{-1}}$ -->
      <g transform="translate(289.340909 322.182437) scale(0.1 -0.1)">
       <use xlink:href="#DejaVuSans-31" transform="translate(0 0.684375)"/>
       <use xlink:href="#DejaVuSans-30" transform="translate(63.623047 0.684375)"/>
       <use xlink:href="#DejaVuSans-2212" transform="translate(128.203125 38.965625) scale(0.7)"/>
       <use xlink:href="#DejaVuSans-31" transform="translate(186.855469 38.965625) scale(0.7)"/>
      </g>
     </g>
    </g>
    <g id="xtick_5">
     <g id="line2d_5">
      <g>
       <use xlink:href="#me9e2271c11" x="366.021818" y="307.584" style="stroke: #000000; stroke-width: 0.8"/>
      </g>
     </g>
     <g id="text_5">
      <!-- $\mathdefault{10^{0}}$ -->
      <g transform="translate(357.221818 322.182437) scale(0.1 -0.1)">
       <use xlink:href="#DejaVuSans-31" transform="translate(0 0.765625)"/>
       <use xlink:href="#DejaVuSans-30" transform="translate(63.623047 0.765625)"/>
       <use xlink:href="#DejaVuSans-30" transform="translate(128.203125 39.046875) scale(0.7)"/>
      </g>
     </g>
    </g>
    <g id="xtick_6">
     <g id="line2d_6">
      <defs>
       <path id="m69d4dae34a" d="M 0 0 
L 0 2 
" style="stroke: #000000; stroke-width: 0.6"/>
      </defs>
      <g>
       <use xlink:href="#m69d4dae34a" x="60.913424" y="307.584" style="stroke: #000000; stroke-width: 0.6"/>
      </g>
     </g>
    </g>
    <g id="xtick_7">
     <g id="line2d_7">
      <g>
       <use xlink:href="#m69d4dae34a" x="72.34719" y="307.584" style="stroke: #000000; stroke-width: 0.6"/>
      </g>
     </g>
    </g>
    <g id="xtick_8">
     <g id="line2d_8">
      <g>
       <use xlink:href="#m69d4dae34a" x="80.459575" y="307.584" style="stroke: #000000; stroke-width: 0.6"/>
      </g>
     </g>
    </g>
    <g id="xtick_9">
     <g id="line2d_9">
      <g>
       <use xlink:href="#m69d4dae34a" x="86.752031" y="307.584" style="stroke: #000000; stroke-width: 0.6"/>
      </g>
     </g>
    </g>
    <g id="xtick_10">
     <g id="line2d_10">
      <g>
       <use xlink:href="#m69d4dae34a" x="91.893341" y="307.584" style="stroke: #000000; stroke-width: 0.6"/>
      </g>
     </g>
    </g>
    <g id="xtick_11">
     <g id="line2d_11">
      <g>
       <use xlink:href="#m69d4dae34a" x="96.240257" y="307.584" style="stroke: #000000; stroke-width: 0.6"/>
      </g>
     </g>
    </g>
    <g id="xtick_12">
     <g id="line2d_12">
      <g>
       <use xlink:href="#m69d4dae34a" x="100.005727" y="307.584" style="stroke: #000000; stroke-width: 0.6"/>
      </g>
     </g>
    </g>
    <g id="xtick_13">
     <g id="line2d_13">
      <g>
       <use xlink:href="#m69d4dae34a" x="103.327106" y="307.584" style="stroke: #000000; stroke-width: 0.6"/>
      </g>
     </g>
    </g>
    <g id="xtick_14">
     <g id="line2d_14">
      <g>
       <use xlink:href="#m69d4dae34a" x="125.844333" y="307.584" style="stroke: #000000; stroke-width: 0.6"/>
      </g>
     </g>
    </g>
    <g id="xtick_15">
     <g id="line2d_15">
      <g>
       <use xlink:href="#m69d4dae34a" x="137.278099" y="307.584" style="stroke: #000000; stroke-width: 0.6"/>
      </g>
     </g>
    </g>
    <g id="xtick_16">
     <g id="line2d_16">
      <g>
       <use xlink:href="#m69d4dae34a" x="145.390484" y="307.584" style="stroke: #000000; stroke-width: 0.6"/>
      </g>
     </g>
    </g>
    <g id="xtick_17">
     <g id="line2d_17">
      <g>
       <use xlink:href="#m69d4dae34a" x="151.68294" y="307.584" style="stroke: #000000; stroke-width: 0.6"/>
      </g>
     </g>
    </g>
    <g id="xtick_18">
     <g id="line2d_18">
      <g>
       <use xlink:href="#m69d4dae34a" x="156.82425" y="307.584" style="stroke: #000000; stroke-width: 0.6"/>
      </g>
     </g>
    </g>
    <g id="xtick_19">
     <g id="line2d_19">
      <g>
       <use xlink:href="#m69d4dae34a" x="161.171166" y="307.584" style="stroke: #000000; stroke-width: 0.6"/>
      </g>
     </g>
    </g>
    <g id="xtick_20">
     <g id="line2d_20">
      <g>
       <use xlink:href="#m69d4dae34a" x="164.936636" y="307.584" style="stroke: #000000; stroke-width: 0.6"/>
      </g>
     </g>
    </g>
    <g id="xtick_21">
     <g id="line2d_21">
      <g>
       <use xlink:href="#m69d4dae34a" x="168.258015" y="307.584" style="stroke: #000000; stroke-width: 0.6"/>
      </g>
     </g>
    </g>
    <g id="xtick_22">
     <g id="line2d_22">
      <g>
       <use xlink:href="#m69d4dae34a" x="190.775242" y="307.584" style="stroke: #000000; stroke-width: 0.6"/>
      </g>
     </g>
    </g>
    <g id="xtick_23">
     <g id="line2d_23">
      <g>
       <use xlink:href="#m69d4dae34a" x="202.209008" y="307.584" style="stroke: #000000; stroke-width: 0.6"/>
      </g>
     </g>
    </g>
    <g id="xtick_24">
     <g id="line2d_24">
      <g>
       <use xlink:href="#m69d4dae34a" x="210.321393" y="307.584" style="stroke: #000000; stroke-width: 0.6"/>
      </g>
     </g>
    </g>
    <g id="xtick_25">
     <g id="line2d_25">
      <g>
       <use xlink:href="#m69d4dae34a" x="216.613849" y="307.584" style="stroke: #000000; stroke-width: 0.6"/>
      </g>
     </g>
    </g>
    <g id="xtick_26">
     <g id="line2d_26">
      <g>
       <use xlink:href="#m69d4dae34a" x="221.755159" y="307.584" style="stroke: #000000; stroke-width: 0.6"/>
      </g>
     </g>
    </g>
    <g id="xtick_27">
     <g id="line2d_27">
      <g>
       <use xlink:href="#m69d4dae34a" x="226.102075" y="307.584" style="stroke: #000000; stroke-width: 0.6"/>
      </g>
     </g>
    </g>
    <g id="xtick_28">
     <g id="line2d_28">
      <g>
       <use xlink:href="#m69d4dae34a" x="229.867545" y="307.584" style="stroke: #000000; stroke-width: 0.6"/>
      </g>
     </g>
    </g>
    <g id="xtick_29">
     <g id="line2d_29">
      <g>
       <use xlink:href="#m69d4dae34a" x="233.188925" y="307.584" style="stroke: #000000; stroke-width: 0.6"/>
      </g>
     </g>
    </g>
    <g id="xtick_30">
     <g id="line2d_30">
      <g>
       <use xlink:href="#m69d4dae34a" x="255.706151" y="307.584" style="stroke: #000000; stroke-width: 0.6"/>
      </g>
     </g>
    </g>
    <g id="xtick_31">
     <g id="line2d_31">
      <g>
       <use xlink:href="#m69d4dae34a" x="267.139917" y="307.584" style="stroke: #000000; stroke-width: 0.6"/>
      </g>
     </g>
    </g>
    <g id="xtick_32">
     <g id="line2d_32">
      <g>
       <use xlink:href="#m69d4dae34a" x="275.252303" y="307.584" style="stroke: #000000; stroke-width: 0.6"/>
      </g>
     </g>
    </g>
    <g id="xtick_33">
     <g id="line2d_33">
      <g>
       <use xlink:href="#m69d4dae34a" x="281.544758" y="307.584" style="stroke: #000000; stroke-width: 0.6"/>
      </g>
     </g>
    </g>
    <g id="xtick_34">
     <g id="line2d_34">
      <g>
       <use xlink:href="#m69d4dae34a" x="286.686068" y="307.584" style="stroke: #000000; stroke-width: 0.6"/>
      </g>
     </g>
    </g>
    <g id="xtick_35">
     <g id="line2d_35">
      <g>
       <use xlink:href="#m69d4dae34a" x="291.032984" y="307.584" style="stroke: #000000; stroke-width: 0.6"/>
      </g>
     </g>
    </g>
    <g id="xtick_36">
     <g id="line2d_36">
      <g>
       <use xlink:href="#m69d4dae34a" x="294.798454" y="307.584" style="stroke: #000000; stroke-width: 0.6"/>
      </g>
     </g>
    </g>
    <g id="xtick_37">
     <g id="line2d_37">
      <g>
       <use xlink:href="#m69d4dae34a" x="298.119834" y="307.584" style="stroke: #000000; stroke-width: 0.6"/>
      </g>
     </g>
    </g>
    <g id="xtick_38">
     <g id="line2d_38">
      <g>
       <use xlink:href="#m69d4dae34a" x="320.63706" y="307.584" style="stroke: #000000; stroke-width: 0.6"/>
      </g>
     </g>
    </g>
    <g id="xtick_39">
     <g id="line2d_39">
      <g>
       <use xlink:href="#m69d4dae34a" x="332.070826" y="307.584" style="stroke: #000000; stroke-width: 0.6"/>
      </g>
     </g>
    </g>
    <g id="xtick_40">
     <g id="line2d_40">
      <g>
       <use xlink:href="#m69d4dae34a" x="340.183212" y="307.584" style="stroke: #000000; stroke-width: 0.6"/>
      </g>
     </g>
    </g>
    <g id="xtick_41">
     <g id="line2d_41">
      <g>
       <use xlink:href="#m69d4dae34a" x="346.475667" y="307.584" style="stroke: #000000; stroke-width: 0.6"/>
      </g>
     </g>
    </g>
    <g id="xtick_42">
     <g id="line2d_42">
      <g>
       <use xlink:href="#m69d4dae34a" x="351.616977" y="307.584" style="stroke: #000000; stroke-width: 0.6"/>
      </g>
     </g>
    </g>
    <g id="xtick_43">
     <g id="line2d_43">
      <g>
       <use xlink:href="#m69d4dae34a" x="355.963893" y="307.584" style="stroke: #000000; stroke-width: 0.6"/>
      </g>
     </g>
    </g>
    <g id="xtick_44">
     <g id="line2d_44">
      <g>
       <use xlink:href="#m69d4dae34a" x="359.729363" y="307.584" style="stroke: #000000; stroke-width: 0.6"/>
      </g>
     </g>
    </g>
    <g id="xtick_45">
     <g id="line2d_45">
      <g>
       <use xlink:href="#m69d4dae34a" x="363.050743" y="307.584" style="stroke: #000000; stroke-width: 0.6"/>
      </g>
     </g>
    </g>
    <g id="xtick_46">
     <g id="line2d_46">
      <g>
       <use xlink:href="#m69d4dae34a" x="385.567969" y="307.584" style="stroke: #000000; stroke-width: 0.6"/>
      </g>
     </g>
    </g>
    <g id="xtick_47">
     <g id="line2d_47">
      <g>
       <use xlink:href="#m69d4dae34a" x="397.001735" y="307.584" style="stroke: #000000; stroke-width: 0.6"/>
      </g>
     </g>
    </g>
    <g id="xtick_48">
     <g id="line2d_48">
      <g>
       <use xlink:href="#m69d4dae34a" x="405.114121" y="307.584" style="stroke: #000000; stroke-width: 0.6"/>
      </g>
     </g>
    </g>
    <g id="xtick_49">
     <g id="line2d_49">
      <g>
       <use xlink:href="#m69d4dae34a" x="411.406576" y="307.584" style="stroke: #000000; stroke-width: 0.6"/>
      </g>
     </g>
    </g>
    <g id="text_6">
     <!-- $\tau\ (\rm s)$ -->
     <g transform="translate(225.01 335.860562) scale(0.1 -0.1)">
      <defs>
       <path id="DejaVuSans-Oblique-3c4" d="M 2103 638 
Q 2188 488 2525 488 
L 2800 488 
L 2706 0 
L 2363 0 
Q 1800 0 1600 300 
Q 1403 606 1534 1269 
L 1856 2925 
L 541 2925 
L 653 3500 
L 3881 3500 
L 3769 2925 
L 2444 2925 
L 2113 1234 
Q 2025 781 2103 638 
z
" transform="scale(0.015625)"/>
       <path id="DejaVuSans-28" d="M 1984 4856 
Q 1566 4138 1362 3434 
Q 1159 2731 1159 2009 
Q 1159 1288 1364 580 
Q 1569 -128 1984 -844 
L 1484 -844 
Q 1016 -109 783 600 
Q 550 1309 550 2009 
Q 550 2706 781 3412 
Q 1013 4119 1484 4856 
L 1984 4856 
z
" transform="scale(0.015625)"/>
       <path id="DejaVuSans-73" d="M 2834 3397 
L 2834 2853 
Q 2591 2978 2328 3040 
Q 2066 3103 1784 3103 
Q 1356 3103 1142 2972 
Q 928 2841 928 2578 
Q 928 2378 1081 2264 
Q 1234 2150 1697 2047 
L 1894 2003 
Q 2506 1872 2764 1633 
Q 3022 1394 3022 966 
Q 3022 478 2636 193 
Q 2250 -91 1575 -91 
Q 1294 -91 989 -36 
Q 684 19 347 128 
L 347 722 
Q 666 556 975 473 
Q 1284 391 1588 391 
Q 1994 391 2212 530 
Q 2431 669 2431 922 
Q 2431 1156 2273 1281 
Q 2116 1406 1581 1522 
L 1381 1569 
Q 847 1681 609 1914 
Q 372 2147 372 2553 
Q 372 3047 722 3315 
Q 1072 3584 1716 3584 
Q 2034 3584 2315 3537 
Q 2597 3491 2834 3397 
z
" transform="scale(0.015625)"/>
       <path id="DejaVuSans-29" d="M 513 4856 
L 1013 4856 
Q 1481 4119 1714 3412 
Q 1947 2706 1947 2009 
Q 1947 1309 1714 600 
Q 1481 -109 1013 -844 
L 513 -844 
Q 928 -128 1133 580 
Q 1338 1288 1338 2009 
Q 1338 2731 1133 3434 
Q 928 4138 513 4856 
z
" transform="scale(0.015625)"/>
      </defs>
      <use xlink:href="#DejaVuSans-Oblique-3c4" transform="translate(0 0.125)"/>
      <use xlink:href="#DejaVuSans-28" transform="translate(92.675457 0.125)"/>
      <use xlink:href="#DejaVuSans-73" transform="translate(131.689128 0.125)"/>
      <use xlink:href="#DejaVuSans-29" transform="translate(183.788738 0.125)"/>
     </g>
    </g>
   </g>
   <g id="matplotlib.axis_2">
    <g id="ytick_1">
     <g id="line2d_50">
      <defs>
       <path id="m31bfdd998d" d="M 0 0 
L -3.5 0 
" style="stroke: #000000; stroke-width: 0.8"/>
      </defs>
      <g>
       <use xlink:href="#m31bfdd998d" x="57.6" y="282.802642" style="stroke: #000000; stroke-width: 0.8"/>
      </g>
     </g>
     <g id="text_7">
      <!-- 0 -->
      <g transform="translate(44.2375 286.601861) scale(0.1 -0.1)">
       <use xlink:href="#DejaVuSans-30"/>
      </g>
     </g>
    </g>
    <g id="ytick_2">
     <g id="line2d_51">
      <g>
       <use xlink:href="#m31bfdd998d" x="57.6" y="238.88991" style="stroke: #000000; stroke-width: 0.8"/>
      </g>
     </g>
     <g id="text_8">
      <!-- 100 -->
      <g transform="translate(31.5125 242.689129) scale(0.1 -0.1)">
       <use xlink:href="#DejaVuSans-31"/>
       <use xlink:href="#DejaVuSans-30" x="63.623047"/>
       <use xlink:href="#DejaVuSans-30" x="127.246094"/>
      </g>
     </g>
    </g>
    <g id="ytick_3">
     <g id="line2d_52">
      <g>
       <use xlink:href="#m31bfdd998d" x="57.6" y="194.977178" style="stroke: #000000; stroke-width: 0.8"/>
      </g>
     </g>
     <g id="text_9">
      <!-- 200 -->
      <g transform="translate(31.5125 198.776397) scale(0.1 -0.1)">
       <use xlink:href="#DejaVuSans-32"/>
       <use xlink:href="#DejaVuSans-30" x="63.623047"/>
       <use xlink:href="#DejaVuSans-30" x="127.246094"/>
      </g>
     </g>
    </g>
    <g id="ytick_4">
     <g id="line2d_53">
      <g>
       <use xlink:href="#m31bfdd998d" x="57.6" y="151.064446" style="stroke: #000000; stroke-width: 0.8"/>
      </g>
     </g>
     <g id="text_10">
      <!-- 300 -->
      <g transform="translate(31.5125 154.863665) scale(0.1 -0.1)">
       <use xlink:href="#DejaVuSans-33"/>
       <use xlink:href="#DejaVuSans-30" x="63.623047"/>
       <use xlink:href="#DejaVuSans-30" x="127.246094"/>
      </g>
     </g>
    </g>
    <g id="ytick_5">
     <g id="line2d_54">
      <g>
       <use xlink:href="#m31bfdd998d" x="57.6" y="107.151714" style="stroke: #000000; stroke-width: 0.8"/>
      </g>
     </g>
     <g id="text_11">
      <!-- 400 -->
      <g transform="translate(31.5125 110.950933) scale(0.1 -0.1)">
       <use xlink:href="#DejaVuSans-34"/>
       <use xlink:href="#DejaVuSans-30" x="63.623047"/>
       <use xlink:href="#DejaVuSans-30" x="127.246094"/>
      </g>
     </g>
    </g>
    <g id="ytick_6">
     <g id="line2d_55">
      <g>
       <use xlink:href="#m31bfdd998d" x="57.6" y="63.238982" style="stroke: #000000; stroke-width: 0.8"/>
      </g>
     </g>
     <g id="text_12">
      <!-- 500 -->
      <g transform="translate(31.5125 67.038201) scale(0.1 -0.1)">
       <defs>
        <path id="DejaVuSans-35" d="M 691 4666 
L 3169 4666 
L 3169 4134 
L 1269 4134 
L 1269 2991 
Q 1406 3038 1543 3061 
Q 1681 3084 1819 3084 
Q 2600 3084 3056 2656 
Q 3513 2228 3513 1497 
Q 3513 744 3044 326 
Q 2575 -91 1722 -91 
Q 1428 -91 1123 -41 
Q 819 9 494 109 
L 494 744 
Q 775 591 1075 516 
Q 1375 441 1709 441 
Q 2250 441 2565 725 
Q 2881 1009 2881 1497 
Q 2881 1984 2565 2268 
Q 2250 2553 1709 2553 
Q 1456 2553 1204 2497 
Q 953 2441 691 2322 
L 691 4666 
z
" transform="scale(0.015625)"/>
       </defs>
       <use xlink:href="#DejaVuSans-35"/>
       <use xlink:href="#DejaVuSans-30" x="63.623047"/>
       <use xlink:href="#DejaVuSans-30" x="127.246094"/>
      </g>
     </g>
    </g>
    <g id="text_13">
     <!-- $\gamma\ (\Omega)$ -->
     <g transform="translate(25.4125 186.878) rotate(-90) scale(0.1 -0.1)">
      <defs>
       <path id="DejaVuSans-Oblique-3b3" d="M 1491 2950 
L 1838 788 
L 3456 3500 
L 4066 3500 
L 1972 0 
L 1713 -1331 
L 1138 -1331 
L 1397 0 
L 988 2613 
Q 925 3006 628 3006 
L 475 3006 
L 569 3500 
L 788 3500 
Q 1403 3500 1491 2950 
z
" transform="scale(0.015625)"/>
       <path id="DejaVuSans-3a9" d="M 4647 556 
L 4647 0 
L 2772 0 
L 2772 556 
Q 3325 859 3634 1378 
Q 3944 1897 3944 2528 
Q 3944 3278 3531 3731 
Q 3119 4184 2444 4184 
Q 1769 4184 1355 3729 
Q 941 3275 941 2528 
Q 941 1897 1250 1378 
Q 1563 859 2119 556 
L 2119 0 
L 244 0 
L 244 556 
L 1241 556 
Q 747 991 519 1456 
Q 294 1922 294 2497 
Q 294 3491 894 4106 
Q 1491 4722 2444 4722 
Q 3391 4722 3994 4106 
Q 4594 3494 4594 2528 
Q 4594 1922 4372 1459 
Q 4150 997 3647 556 
L 4647 556 
z
" transform="scale(0.015625)"/>
      </defs>
      <use xlink:href="#DejaVuSans-Oblique-3b3" transform="translate(0 0.125)"/>
      <use xlink:href="#DejaVuSans-28" transform="translate(91.650066 0.125)"/>
      <use xlink:href="#DejaVuSans-3a9" transform="translate(130.663738 0.125)"/>
      <use xlink:href="#DejaVuSans-29" transform="translate(207.079753 0.125)"/>
     </g>
    </g>
   </g>
   <g id="line2d_56">
    <path d="M 73.832727 282.783213 
L 78.326216 282.628686 
L 80.57296 282.341303 
L 81.696332 282.073565 
L 82.819704 281.673186 
L 83.943076 281.08735 
L 85.066449 280.248668 
L 86.189821 279.074029 
L 87.313193 277.464617 
L 88.436565 275.307581 
L 89.559937 272.479793 
L 90.683309 268.853943 
L 91.806681 264.306945 
L 92.930053 258.730298 
L 94.053426 252.041571 
L 95.176798 244.195874 
L 96.30017 235.195868 
L 98.546914 214.019274 
L 100.793658 189.638281 
L 105.287147 138.924021 
L 107.533891 116.607775 
L 108.657263 106.87048 
L 109.780635 98.21419 
L 110.904008 90.685041 
L 112.02738 84.294661 
L 113.150752 79.030159 
L 114.274124 74.864617 
L 115.397496 71.766737 
L 116.520868 69.708596 
L 117.64424 68.670838 
L 118.767612 68.645013 
L 119.890985 69.633112 
L 121.014357 71.644671 
L 122.137729 74.692048 
L 123.261101 78.784658 
L 124.384473 83.923037 
L 125.507845 90.093555 
L 126.631217 97.264466 
L 127.754589 105.383681 
L 130.001334 124.156172 
L 132.248078 145.609144 
L 136.741567 192.33542 
L 140.111683 226.165282 
L 142.358427 246.096414 
L 144.605171 262.931287 
L 145.728544 270.001316 
L 146.851916 276.109993 
L 147.975288 281.232649 
L 149.09866 285.362027 
L 150.222032 288.507492 
L 151.345404 290.69419 
L 152.468776 291.962137 
L 153.592148 292.365172 
L 154.715521 291.96964 
L 155.838893 290.852714 
L 156.962265 289.100335 
L 158.085637 286.804844 
L 159.209009 284.06246 
L 161.455753 277.626535 
L 167.072614 260.219216 
L 169.319358 254.316371 
L 170.44273 251.811555 
L 171.566103 249.647609 
L 172.689475 247.843359 
L 173.812847 246.407036 
L 174.936219 245.33688 
L 176.059591 244.622045 
L 177.182963 244.24369 
L 178.306335 244.17614 
L 179.429707 244.388028 
L 180.55308 244.843378 
L 181.676452 245.502635 
L 183.923196 247.262783 
L 189.540057 252.228979 
L 190.663429 253.008308 
L 191.786801 253.64491 
L 192.910173 254.117811 
L 194.033545 254.411218 
L 195.156917 254.514464 
L 196.280289 254.42186 
L 197.403662 254.132502 
L 198.527034 253.65004 
L 199.650406 252.9824 
L 200.773778 252.141433 
L 203.020522 250.003787 
L 205.267266 247.391046 
L 208.637383 242.974308 
L 213.130871 237.073972 
L 215.377616 234.443355 
L 217.62436 232.155383 
L 219.871104 230.254658 
L 222.117848 228.742581 
L 224.364593 227.583365 
L 226.611337 226.71358 
L 229.981453 225.770825 
L 236.721686 224.092988 
L 238.96843 223.32647 
L 241.215175 222.385563 
L 243.461919 221.262114 
L 246.832035 219.269196 
L 251.325524 216.244153 
L 255.819012 213.213284 
L 259.189129 211.222132 
L 261.435873 210.122288 
L 263.682617 209.246479 
L 265.929361 208.616014 
L 268.176106 208.237768 
L 270.42285 208.105381 
L 272.669594 208.201697 
L 274.916338 208.500696 
L 278.286455 209.255114 
L 281.656571 210.261663 
L 295.137037 214.611162 
L 300.753897 216.04833 
L 307.49413 217.758412 
L 310.864247 218.805664 
L 314.234363 220.102853 
L 317.604479 221.726321 
L 319.851224 223.018951 
L 322.097968 224.493162 
L 324.344712 226.153959 
L 327.714829 228.993458 
L 331.084945 232.233493 
L 334.455061 235.837095 
L 337.825178 239.75356 
L 342.318666 245.365381 
L 347.935527 252.813497 
L 359.169248 267.896981 
L 362.539365 271.915985 
L 364.786109 274.287912 
L 367.032853 276.355643 
L 369.279597 278.091707 
L 371.526342 279.492366 
L 373.773086 280.575298 
L 376.01983 281.374491 
L 378.266574 281.934517 
L 380.513319 282.30491 
L 383.883435 282.610951 
L 388.376924 282.760524 
L 398.487273 282.802181 
L 398.487273 282.802181 
" clip-path="url(#pb45f18bb0c)" style="fill: none; stroke: #cc3311; stroke-width: 1.5; stroke-linecap: square"/>
   </g>
   <g id="line2d_57">
    <path d="M 73.832727 282.788182 
L 78.326216 282.672961 
L 80.57296 282.458258 
L 82.819704 281.957933 
L 83.943076 281.518258 
L 85.066449 280.887575 
L 86.189821 280.002162 
L 87.313193 278.785584 
L 88.436565 277.1495 
L 89.559937 274.995902 
L 90.683309 272.220987 
L 91.806681 268.720658 
L 92.930053 264.397435 
L 94.053426 259.168256 
L 95.176798 252.972435 
L 96.30017 245.778837 
L 97.423542 237.59132 
L 99.670286 218.439159 
L 101.917031 196.278604 
L 110.904008 102.640019 
L 113.150752 83.831259 
L 114.274124 75.766013 
L 115.397496 68.743757 
L 116.520868 62.885083 
L 117.64424 58.316748 
L 118.767612 55.168616 
L 119.890985 53.568 
L 121.014357 53.631723 
L 122.137729 55.456569 
L 123.261101 59.109161 
L 124.384473 64.616511 
L 125.507845 71.958531 
L 126.631217 81.063582 
L 127.754589 91.807698 
L 128.877962 104.017588 
L 131.124706 131.934949 
L 138.988311 237.278509 
L 140.111683 249.678045 
L 141.235055 260.759757 
L 142.358427 270.388167 
L 143.481799 278.470486 
L 144.605171 284.958359 
L 145.728544 289.847654 
L 146.851916 293.176254 
L 147.975288 295.020109 
L 149.09866 295.488 
L 150.222032 294.715604 
L 151.345404 292.859401 
L 152.468776 290.090813 
L 153.592148 286.590749 
L 155.838893 278.137209 
L 159.209009 264.494929 
L 161.455753 256.550817 
L 162.579126 253.2681 
L 163.702498 250.540813 
L 164.82587 248.408408 
L 165.949242 246.885431 
L 167.072614 245.963544 
L 168.195986 245.614186 
L 169.319358 245.791546 
L 170.44273 246.435602 
L 171.566103 247.47511 
L 172.689475 248.830489 
L 174.936219 252.146028 
L 178.306335 257.339422 
L 179.429707 258.815635 
L 180.55308 260.058864 
L 181.676452 261.023484 
L 182.799824 261.677108 
L 183.923196 262.000663 
L 185.046568 261.98786 
L 186.16994 261.644194 
L 187.293312 260.985646 
L 188.416684 260.037243 
L 189.540057 258.831582 
L 191.786801 255.807811 
L 195.156917 250.426461 
L 198.527034 245.132376 
L 200.773778 242.15103 
L 201.89715 240.896413 
L 203.020522 239.814433 
L 204.143894 238.907921 
L 205.267266 238.173442 
L 206.390639 237.601951 
L 207.514011 237.179508 
L 209.760755 236.705981 
L 212.007499 236.572354 
L 216.500988 236.50089 
L 218.747732 236.18996 
L 220.994476 235.522309 
L 223.241221 234.443343 
L 225.487965 232.957879 
L 227.734709 231.120993 
L 231.104825 227.918231 
L 236.721686 222.398119 
L 238.96843 220.451235 
L 241.215175 218.764432 
L 243.461919 217.367282 
L 245.708663 216.258603 
L 247.955407 215.409873 
L 250.202152 214.770895 
L 253.572268 214.066218 
L 261.435873 212.558846 
L 264.805989 211.674883 
L 276.039711 208.400512 
L 278.286455 208.050781 
L 280.533199 207.930834 
L 282.779943 208.082847 
L 285.026688 208.533279 
L 287.273432 209.289382 
L 289.520176 210.338648 
L 291.76692 211.649649 
L 295.137037 213.994099 
L 304.124014 220.719768 
L 306.370758 222.105251 
L 308.617502 223.257782 
L 310.864247 224.149557 
L 313.110991 224.774289 
L 315.357735 225.14717 
L 317.604479 225.302584 
L 320.974596 225.239587 
L 328.838201 224.846283 
L 331.084945 224.97466 
L 333.331689 225.319582 
L 335.578433 225.927848 
L 337.825178 226.837753 
L 340.071922 228.078327 
L 342.318666 229.668181 
L 344.565411 231.614911 
L 346.812155 233.914744 
L 349.058899 236.551814 
L 351.305643 239.498294 
L 354.67576 244.416412 
L 358.045876 249.811353 
L 362.539365 257.503883 
L 368.156225 267.213434 
L 370.402969 270.786877 
L 372.649714 273.976824 
L 374.896458 276.66437 
L 377.143202 278.783486 
L 379.389947 280.33712 
L 381.636691 281.391242 
L 383.883435 282.051009 
L 386.130179 282.431159 
L 389.500296 282.690855 
L 395.117156 282.792443 
L 398.487273 282.800734 
L 398.487273 282.800734 
" clip-path="url(#pb45f18bb0c)" style="fill: none; stroke-dasharray: 1.5,2.475; stroke-dashoffset: 0; stroke: #cc3311; stroke-width: 1.5"/>
   </g>
   <g id="line2d_58">
    <path d="M 73.832727 282.801054 
L 82.819704 282.702762 
L 86.189821 282.451226 
L 88.436565 282.053027 
L 90.683309 281.297319 
L 91.806681 280.714715 
L 92.930053 279.946013 
L 94.053426 278.94594 
L 95.176798 277.662834 
L 96.30017 276.039328 
L 97.423542 274.013762 
L 98.546914 271.522528 
L 99.670286 268.503456 
L 100.793658 264.900292 
L 101.917031 260.66813 
L 103.040403 255.779483 
L 104.163775 250.230482 
L 106.410519 237.286532 
L 108.657263 222.452668 
L 112.02738 199.306363 
L 114.274124 185.597002 
L 115.397496 179.870976 
L 116.520868 175.134293 
L 117.64424 171.529657 
L 118.767612 169.16536 
L 119.890985 168.11198 
L 121.014357 168.400506 
L 122.137729 170.021543 
L 123.261101 172.925445 
L 124.384473 177.023435 
L 125.507845 182.189984 
L 126.631217 188.26683 
L 128.877962 202.392328 
L 133.37145 232.721745 
L 135.618194 246.014197 
L 136.741567 251.77378 
L 137.864939 256.877572 
L 138.988311 261.318655 
L 140.111683 265.117307 
L 141.235055 268.314568 
L 142.358427 270.965577 
L 143.481799 273.133331 
L 144.605171 274.883368 
L 145.728544 276.279611 
L 146.851916 277.381443 
L 147.975288 278.241919 
L 149.09866 278.906928 
L 150.222032 279.415075 
L 152.468776 280.081301 
L 154.715521 280.424011 
L 156.962265 280.552269 
L 160.332381 280.458575 
L 163.702498 280.063126 
L 165.949242 279.612984 
L 168.195986 278.981447 
L 170.44273 278.13323 
L 172.689475 277.033308 
L 174.936219 275.65602 
L 177.182963 273.997156 
L 179.429707 272.087901 
L 187.293312 264.964788 
L 189.540057 263.435427 
L 191.786801 262.364401 
L 192.910173 262.012711 
L 195.156917 261.660051 
L 197.403662 261.70863 
L 199.650406 262.046034 
L 208.637383 263.875798 
L 210.884127 264.004589 
L 213.130871 263.916547 
L 215.377616 263.611744 
L 217.62436 263.103322 
L 219.871104 262.409928 
L 223.241221 261.067214 
L 226.611337 259.430126 
L 232.228198 256.351546 
L 236.721686 253.986964 
L 240.091802 252.505214 
L 242.338547 251.707894 
L 244.585291 251.072641 
L 247.955407 250.402763 
L 251.325524 249.99871 
L 256.942384 249.610699 
L 263.682617 249.116178 
L 277.163083 247.931955 
L 281.656571 247.857587 
L 285.026688 247.998594 
L 288.396804 248.341919 
L 291.76692 248.911389 
L 295.137037 249.709412 
L 299.630525 251.072441 
L 306.370758 253.456519 
L 311.987619 255.392106 
L 316.481107 256.702784 
L 319.851224 257.487015 
L 324.344712 258.25855 
L 328.838201 258.78015 
L 346.812155 260.562759 
L 355.799132 261.848632 
L 358.045876 262.321021 
L 360.29262 263.026586 
L 362.539365 264.096852 
L 364.786109 265.632887 
L 367.032853 267.654676 
L 369.279597 270.069994 
L 374.896458 276.432221 
L 377.143202 278.507067 
L 379.389947 280.108417 
L 381.636691 281.234634 
L 383.883435 281.957393 
L 386.130179 282.381166 
L 389.500296 282.674669 
L 395.117156 282.790874 
L 398.487273 282.800435 
L 398.487273 282.800435 
" clip-path="url(#pb45f18bb0c)" style="fill: none; stroke-dasharray: 5.55,2.4; stroke-dashoffset: 0; stroke: #ee7733; stroke-width: 1.5"/>
   </g>
   <g id="line2d_59">
    <path d="M 73.832727 282.800912 
L 82.819704 282.694747 
L 86.189821 282.425466 
L 88.436565 282.002639 
L 89.559937 281.664406 
L 90.683309 281.207116 
L 91.806681 280.598098 
L 92.930053 279.79878 
L 94.053426 278.764564 
L 95.176798 277.44507 
L 96.30017 275.784904 
L 97.423542 273.725116 
L 98.546914 271.20551 
L 99.670286 268.167932 
L 100.793658 264.560534 
L 101.917031 260.342934 
L 103.040403 255.49193 
L 104.163775 250.007318 
L 106.410519 237.281545 
L 108.657263 222.78458 
L 112.02738 200.296306 
L 114.274124 187.027073 
L 115.397496 181.485158 
L 116.520868 176.889807 
L 117.64424 173.369396 
L 118.767612 171.018739 
L 119.890985 169.896861 
L 121.014357 170.026315 
L 122.137729 171.393614 
L 123.261101 173.950473 
L 124.384473 177.615772 
L 125.507845 182.27831 
L 126.631217 187.800598 
L 128.877962 200.774519 
L 135.618194 242.675769 
L 137.864939 253.958529 
L 138.988311 258.767421 
L 140.111683 263.007448 
L 141.235055 266.692172 
L 142.358427 269.849372 
L 143.481799 272.517036 
L 144.605171 274.739769 
L 145.728544 276.565735 
L 146.851916 278.044171 
L 147.975288 279.223422 
L 149.09866 280.149446 
L 150.222032 280.864711 
L 151.345404 281.407425 
L 153.592148 282.104077 
L 155.838893 282.447191 
L 158.085637 282.566876 
L 160.332381 282.523734 
L 162.579126 282.320398 
L 164.82587 281.914478 
L 167.072614 281.233451 
L 169.319358 280.192896 
L 171.566103 278.718192 
L 173.812847 276.76777 
L 176.059591 274.355371 
L 178.306335 271.569102 
L 183.923196 264.315024 
L 185.046568 263.105473 
L 186.16994 262.066648 
L 187.293312 261.229685 
L 188.416684 260.616925 
L 189.540057 260.239652 
L 190.663429 260.096683 
L 191.786801 260.174067 
L 192.910173 260.446026 
L 195.156917 261.425049 
L 200.773778 264.436335 
L 203.020522 265.217534 
L 205.267266 265.650607 
L 207.514011 265.798241 
L 209.760755 265.73313 
L 212.007499 265.484174 
L 214.254243 265.024687 
L 216.500988 264.300858 
L 218.747732 263.278586 
L 220.994476 261.980363 
L 225.487965 258.940741 
L 228.858081 256.755551 
L 231.104825 255.502074 
L 233.35157 254.433016 
L 236.721686 253.130465 
L 240.091802 252.117716 
L 243.461919 251.368682 
L 246.832035 250.885618 
L 251.325524 250.55659 
L 258.065757 250.119043 
L 262.559245 249.579032 
L 276.039711 247.692499 
L 279.409827 247.473836 
L 282.779943 247.474022 
L 286.15006 247.747171 
L 289.520176 248.323829 
L 292.890293 249.190647 
L 297.383781 250.668433 
L 308.617502 254.578651 
L 313.110991 255.942012 
L 316.481107 256.751406 
L 319.851224 257.285703 
L 324.344712 257.647918 
L 329.961573 258.078164 
L 337.825178 258.838269 
L 343.442038 259.24278 
L 345.688783 259.640195 
L 347.935527 260.28563 
L 350.182271 261.158737 
L 356.922504 264.027923 
L 362.539365 266.060406 
L 364.786109 267.230008 
L 367.032853 268.827437 
L 369.279597 270.850224 
L 376.01983 277.65115 
L 378.266574 279.424395 
L 380.513319 280.748717 
L 382.760063 281.646839 
L 385.006807 282.201355 
L 387.253551 282.513693 
L 390.623668 282.719792 
L 397.363901 282.798688 
L 398.487273 282.800424 
L 398.487273 282.800424 
" clip-path="url(#pb45f18bb0c)" style="fill: none; stroke: #ee7733; stroke-width: 1.5; stroke-linecap: square"/>
   </g>
   <g id="line2d_60">
    <path d="M 73.832727 282.802642 
L 398.487273 282.802642 
L 398.487273 282.802642 
" clip-path="url(#pb45f18bb0c)" style="fill: none; stroke-dasharray: 1.5,2.475; stroke-dashoffset: 0; stroke: #ee7733; stroke-width: 1.5"/>
   </g>
   <g id="line2d_61">
    <path d="M 73.832727 282.800912 
L 82.819704 282.694747 
L 86.189821 282.425466 
L 88.436565 282.002639 
L 89.559937 281.664406 
L 90.683309 281.207116 
L 91.806681 280.598098 
L 92.930053 279.79878 
L 94.053426 278.764564 
L 95.176798 277.44507 
L 96.30017 275.784904 
L 97.423542 273.725116 
L 98.546914 271.20551 
L 99.670286 268.167932 
L 100.793658 264.560534 
L 101.917031 260.342934 
L 103.040403 255.49193 
L 104.163775 250.007318 
L 106.410519 237.281545 
L 108.657263 222.78458 
L 112.02738 200.296306 
L 114.274124 187.027073 
L 115.397496 181.485158 
L 116.520868 176.889807 
L 117.64424 173.369396 
L 118.767612 171.018739 
L 119.890985 169.896861 
L 121.014357 170.026315 
L 122.137729 171.393614 
L 123.261101 173.950473 
L 124.384473 177.615772 
L 125.507845 182.27831 
L 126.631217 187.800598 
L 128.877962 200.774519 
L 135.618194 242.675769 
L 137.864939 253.958529 
L 138.988311 258.767421 
L 140.111683 263.007448 
L 141.235055 266.692172 
L 142.358427 269.849372 
L 143.481799 272.517036 
L 144.605171 274.739769 
L 145.728544 276.565735 
L 146.851916 278.044171 
L 147.975288 279.223422 
L 149.09866 280.149446 
L 150.222032 280.864711 
L 151.345404 281.407425 
L 153.592148 282.104077 
L 155.838893 282.447191 
L 158.085637 282.566876 
L 160.332381 282.523734 
L 162.579126 282.320398 
L 164.82587 281.914478 
L 167.072614 281.233451 
L 169.319358 280.192896 
L 171.566103 278.718192 
L 173.812847 276.76777 
L 176.059591 274.355371 
L 178.306335 271.569102 
L 183.923196 264.315024 
L 185.046568 263.105473 
L 186.16994 262.066648 
L 187.293312 261.229685 
L 188.416684 260.616925 
L 189.540057 260.239652 
L 190.663429 260.096683 
L 191.786801 260.174067 
L 192.910173 260.446026 
L 195.156917 261.425049 
L 200.773778 264.436335 
L 203.020522 265.217534 
L 205.267266 265.650607 
L 207.514011 265.798241 
L 209.760755 265.73313 
L 212.007499 265.484174 
L 214.254243 265.024687 
L 216.500988 264.300858 
L 218.747732 263.278586 
L 220.994476 261.980363 
L 225.487965 258.940741 
L 228.858081 256.755551 
L 231.104825 255.502074 
L 233.35157 254.433016 
L 236.721686 253.130465 
L 240.091802 252.117716 
L 243.461919 251.368682 
L 246.832035 250.885618 
L 251.325524 250.55659 
L 258.065757 250.119043 
L 262.559245 249.579032 
L 276.039711 247.692499 
L 279.409827 247.473836 
L 282.779943 247.474022 
L 286.15006 247.747171 
L 289.520176 248.323829 
L 292.890293 249.190647 
L 297.383781 250.668433 
L 308.617502 254.578651 
L 313.110991 255.942012 
L 316.481107 256.751406 
L 319.851224 257.285703 
L 324.344712 257.647918 
L 329.961573 258.078164 
L 337.825178 258.838269 
L 343.442038 259.24278 
L 345.688783 259.640195 
L 347.935527 260.28563 
L 350.182271 261.158737 
L 356.922504 264.027923 
L 362.539365 266.060406 
L 364.786109 267.230008 
L 367.032853 268.827437 
L 369.279597 270.850224 
L 376.01983 277.65115 
L 378.266574 279.424395 
L 380.513319 280.748717 
L 382.760063 281.646839 
L 385.006807 282.201355 
L 387.253551 282.513693 
L 390.623668 282.719792 
L 397.363901 282.798688 
L 398.487273 282.800424 
L 398.487273 282.800424 
" clip-path="url(#pb45f18bb0c)" style="fill: none; stroke: #0077bb; stroke-width: 1.5; stroke-linecap: square"/>
   </g>
   <g id="line2d_62">
    <path d="M 73.832727 282.802642 
L 398.487273 282.802642 
L 398.487273 282.802642 
" clip-path="url(#pb45f18bb0c)" style="fill: none; stroke-dasharray: 1.5,2.475; stroke-dashoffset: 0; stroke: #0077bb; stroke-width: 1.5"/>
   </g>
   <g id="line2d_63">
    <path d="M 106.298182 210.674829 
L 115.574026 166.265991 
L 124.84987 198.585761 
L 134.125714 230.575866 
L 143.401558 256.868193 
L 152.677403 273.78056 
L 161.953247 280.712244 
L 171.229091 279.919981 
L 180.504935 275.005629 
L 189.780779 269.208564 
L 199.056623 264.414758 
L 208.332468 261.104268 
L 217.608312 258.892284 
L 226.884156 257.160616 
L 236.16 255.445212 
L 245.435844 253.520796 
L 254.711688 251.327671 
L 263.987532 248.939069 
L 273.263377 246.672119 
L 282.539221 245.255338 
L 291.815065 245.783225 
L 301.090909 249.193003 
L 310.366753 255.409107 
L 319.642597 262.986309 
L 328.918442 269.970786 
L 338.194286 275.182545 
L 347.47013 278.534161 
L 356.745974 280.494715 
L 366.021818 282.191066 
" clip-path="url(#pb45f18bb0c)" style="fill: none; stroke: #ee7733; stroke-width: 1.5; stroke-linecap: square"/>
   </g>
   <g id="line2d_64">
    <path d="M 106.298182 282.802642 
L 115.574026 282.802642 
L 124.84987 282.802642 
L 134.125714 282.802642 
L 143.401558 282.802642 
L 152.677403 282.802642 
L 161.953247 282.802642 
L 171.229091 282.802642 
L 180.504935 282.802642 
L 189.780779 282.802642 
L 199.056623 282.802642 
L 208.332468 282.802642 
L 217.608312 282.802642 
L 226.884156 282.802642 
L 236.16 282.802642 
L 245.435844 282.802642 
L 254.711688 282.802642 
L 263.987532 282.802642 
L 273.263377 282.802642 
L 282.539221 282.802642 
L 291.815065 282.802642 
L 301.090909 282.802642 
L 310.366753 282.802642 
L 319.642597 282.802642 
L 328.918442 282.802642 
L 338.194286 282.802642 
L 347.47013 282.802642 
L 356.745974 282.802642 
L 366.021818 282.802642 
" clip-path="url(#pb45f18bb0c)" style="fill: none; stroke-dasharray: 1.5,2.475; stroke-dashoffset: 0; stroke: #ee7733; stroke-width: 1.5"/>
   </g>
   <g id="patch_3">
    <path d="M 57.6 307.584 
L 57.6 41.472 
" style="fill: none; stroke: #000000; stroke-width: 0.8; stroke-linejoin: miter; stroke-linecap: square"/>
   </g>
   <g id="patch_4">
    <path d="M 414.72 307.584 
L 414.72 41.472 
" style="fill: none; stroke: #000000; stroke-width: 0.8; stroke-linejoin: miter; stroke-linecap: square"/>
   </g>
   <g id="patch_5">
    <path d="M 57.6 307.584 
L 414.72 307.584 
" style="fill: none; stroke: #000000; stroke-width: 0.8; stroke-linejoin: miter; stroke-linecap: square"/>
   </g>
   <g id="patch_6">
    <path d="M 57.6 41.472 
L 414.72 41.472 
" style="fill: none; stroke: #000000; stroke-width: 0.8; stroke-linejoin: miter; stroke-linecap: square"/>
   </g>
   <g id="legend_1">
    <g id="patch_7">
     <path d="M 234.812187 196.25325 
L 407.72 196.25325 
Q 409.72 196.25325 409.72 194.25325 
L 409.72 48.472 
Q 409.72 46.472 407.72 46.472 
L 234.812187 46.472 
Q 232.812187 46.472 232.812187 48.472 
L 232.812187 194.25325 
Q 232.812187 196.25325 234.812187 196.25325 
z
" style="fill: #ffffff; opacity: 0.8; stroke: #cccccc; stroke-linejoin: miter"/>
    </g>
    <g id="line2d_65">
     <path d="M 236.812187 54.570437 
L 246.812187 54.570437 
L 256.812187 54.570437 
" style="fill: none; stroke: #cc3311; stroke-width: 1.5; stroke-linecap: square"/>
    </g>
    <g id="text_14">
     <!-- Ideal - BHT, real -->
     <g transform="translate(264.812187 58.070437) scale(0.1 -0.1)">
      <defs>
       <path id="DejaVuSans-49" d="M 628 4666 
L 1259 4666 
L 1259 0 
L 628 0 
L 628 4666 
z
" transform="scale(0.015625)"/>
       <path id="DejaVuSans-64" d="M 2906 2969 
L 2906 4863 
L 3481 4863 
L 3481 0 
L 2906 0 
L 2906 525 
Q 2725 213 2448 61 
Q 2172 -91 1784 -91 
Q 1150 -91 751 415 
Q 353 922 353 1747 
Q 353 2572 751 3078 
Q 1150 3584 1784 3584 
Q 2172 3584 2448 3432 
Q 2725 3281 2906 2969 
z
M 947 1747 
Q 947 1113 1208 752 
Q 1469 391 1925 391 
Q 2381 391 2643 752 
Q 2906 1113 2906 1747 
Q 2906 2381 2643 2742 
Q 2381 3103 1925 3103 
Q 1469 3103 1208 2742 
Q 947 2381 947 1747 
z
" transform="scale(0.015625)"/>
       <path id="DejaVuSans-65" d="M 3597 1894 
L 3597 1613 
L 953 1613 
Q 991 1019 1311 708 
Q 1631 397 2203 397 
Q 2534 397 2845 478 
Q 3156 559 3463 722 
L 3463 178 
Q 3153 47 2828 -22 
Q 2503 -91 2169 -91 
Q 1331 -91 842 396 
Q 353 884 353 1716 
Q 353 2575 817 3079 
Q 1281 3584 2069 3584 
Q 2775 3584 3186 3129 
Q 3597 2675 3597 1894 
z
M 3022 2063 
Q 3016 2534 2758 2815 
Q 2500 3097 2075 3097 
Q 1594 3097 1305 2825 
Q 1016 2553 972 2059 
L 3022 2063 
z
" transform="scale(0.015625)"/>
       <path id="DejaVuSans-61" d="M 2194 1759 
Q 1497 1759 1228 1600 
Q 959 1441 959 1056 
Q 959 750 1161 570 
Q 1363 391 1709 391 
Q 2188 391 2477 730 
Q 2766 1069 2766 1631 
L 2766 1759 
L 2194 1759 
z
M 3341 1997 
L 3341 0 
L 2766 0 
L 2766 531 
Q 2569 213 2275 61 
Q 1981 -91 1556 -91 
Q 1019 -91 701 211 
Q 384 513 384 1019 
Q 384 1609 779 1909 
Q 1175 2209 1959 2209 
L 2766 2209 
L 2766 2266 
Q 2766 2663 2505 2880 
Q 2244 3097 1772 3097 
Q 1472 3097 1187 3025 
Q 903 2953 641 2809 
L 641 3341 
Q 956 3463 1253 3523 
Q 1550 3584 1831 3584 
Q 2591 3584 2966 3190 
Q 3341 2797 3341 1997 
z
" transform="scale(0.015625)"/>
       <path id="DejaVuSans-6c" d="M 603 4863 
L 1178 4863 
L 1178 0 
L 603 0 
L 603 4863 
z
" transform="scale(0.015625)"/>
       <path id="DejaVuSans-20" transform="scale(0.015625)"/>
       <path id="DejaVuSans-2d" d="M 313 2009 
L 1997 2009 
L 1997 1497 
L 313 1497 
L 313 2009 
z
" transform="scale(0.015625)"/>
       <path id="DejaVuSans-42" d="M 1259 2228 
L 1259 519 
L 2272 519 
Q 2781 519 3026 730 
Q 3272 941 3272 1375 
Q 3272 1813 3026 2020 
Q 2781 2228 2272 2228 
L 1259 2228 
z
M 1259 4147 
L 1259 2741 
L 2194 2741 
Q 2656 2741 2882 2914 
Q 3109 3088 3109 3444 
Q 3109 3797 2882 3972 
Q 2656 4147 2194 4147 
L 1259 4147 
z
M 628 4666 
L 2241 4666 
Q 2963 4666 3353 4366 
Q 3744 4066 3744 3513 
Q 3744 3084 3544 2831 
Q 3344 2578 2956 2516 
Q 3422 2416 3680 2098 
Q 3938 1781 3938 1306 
Q 3938 681 3513 340 
Q 3088 0 2303 0 
L 628 0 
L 628 4666 
z
" transform="scale(0.015625)"/>
       <path id="DejaVuSans-48" d="M 628 4666 
L 1259 4666 
L 1259 2753 
L 3553 2753 
L 3553 4666 
L 4184 4666 
L 4184 0 
L 3553 0 
L 3553 2222 
L 1259 2222 
L 1259 0 
L 628 0 
L 628 4666 
z
" transform="scale(0.015625)"/>
       <path id="DejaVuSans-54" d="M -19 4666 
L 3928 4666 
L 3928 4134 
L 2272 4134 
L 2272 0 
L 1638 0 
L 1638 4134 
L -19 4134 
L -19 4666 
z
" transform="scale(0.015625)"/>
       <path id="DejaVuSans-2c" d="M 750 794 
L 1409 794 
L 1409 256 
L 897 -744 
L 494 -744 
L 750 256 
L 750 794 
z
" transform="scale(0.015625)"/>
       <path id="DejaVuSans-72" d="M 2631 2963 
Q 2534 3019 2420 3045 
Q 2306 3072 2169 3072 
Q 1681 3072 1420 2755 
Q 1159 2438 1159 1844 
L 1159 0 
L 581 0 
L 581 3500 
L 1159 3500 
L 1159 2956 
Q 1341 3275 1631 3429 
Q 1922 3584 2338 3584 
Q 2397 3584 2469 3576 
Q 2541 3569 2628 3553 
L 2631 2963 
z
" transform="scale(0.015625)"/>
      </defs>
      <use xlink:href="#DejaVuSans-49"/>
      <use xlink:href="#DejaVuSans-64" x="29.492188"/>
      <use xlink:href="#DejaVuSans-65" x="92.96875"/>
      <use xlink:href="#DejaVuSans-61" x="154.492188"/>
      <use xlink:href="#DejaVuSans-6c" x="215.771484"/>
      <use xlink:href="#DejaVuSans-20" x="243.554688"/>
      <use xlink:href="#DejaVuSans-2d" x="275.341797"/>
      <use xlink:href="#DejaVuSans-20" x="311.425781"/>
      <use xlink:href="#DejaVuSans-42" x="343.212891"/>
      <use xlink:href="#DejaVuSans-48" x="411.816406"/>
      <use xlink:href="#DejaVuSans-54" x="487.011719"/>
      <use xlink:href="#DejaVuSans-2c" x="548.095703"/>
      <use xlink:href="#DejaVuSans-20" x="579.882812"/>
      <use xlink:href="#DejaVuSans-72" x="611.669922"/>
      <use xlink:href="#DejaVuSans-65" x="650.533203"/>
      <use xlink:href="#DejaVuSans-61" x="712.056641"/>
      <use xlink:href="#DejaVuSans-6c" x="773.335938"/>
     </g>
    </g>
    <g id="line2d_66">
     <path d="M 236.812187 69.248562 
L 246.812187 69.248562 
L 256.812187 69.248562 
" style="fill: none; stroke-dasharray: 1.5,2.475; stroke-dashoffset: 0; stroke: #cc3311; stroke-width: 1.5"/>
    </g>
    <g id="text_15">
     <!-- Ideal - BHT, imag. -->
     <g transform="translate(264.812187 72.748562) scale(0.1 -0.1)">
      <defs>
       <path id="DejaVuSans-69" d="M 603 3500 
L 1178 3500 
L 1178 0 
L 603 0 
L 603 3500 
z
M 603 4863 
L 1178 4863 
L 1178 4134 
L 603 4134 
L 603 4863 
z
" transform="scale(0.015625)"/>
       <path id="DejaVuSans-6d" d="M 3328 2828 
Q 3544 3216 3844 3400 
Q 4144 3584 4550 3584 
Q 5097 3584 5394 3201 
Q 5691 2819 5691 2113 
L 5691 0 
L 5113 0 
L 5113 2094 
Q 5113 2597 4934 2840 
Q 4756 3084 4391 3084 
Q 3944 3084 3684 2787 
Q 3425 2491 3425 1978 
L 3425 0 
L 2847 0 
L 2847 2094 
Q 2847 2600 2669 2842 
Q 2491 3084 2119 3084 
Q 1678 3084 1418 2786 
Q 1159 2488 1159 1978 
L 1159 0 
L 581 0 
L 581 3500 
L 1159 3500 
L 1159 2956 
Q 1356 3278 1631 3431 
Q 1906 3584 2284 3584 
Q 2666 3584 2933 3390 
Q 3200 3197 3328 2828 
z
" transform="scale(0.015625)"/>
       <path id="DejaVuSans-67" d="M 2906 1791 
Q 2906 2416 2648 2759 
Q 2391 3103 1925 3103 
Q 1463 3103 1205 2759 
Q 947 2416 947 1791 
Q 947 1169 1205 825 
Q 1463 481 1925 481 
Q 2391 481 2648 825 
Q 2906 1169 2906 1791 
z
M 3481 434 
Q 3481 -459 3084 -895 
Q 2688 -1331 1869 -1331 
Q 1566 -1331 1297 -1286 
Q 1028 -1241 775 -1147 
L 775 -588 
Q 1028 -725 1275 -790 
Q 1522 -856 1778 -856 
Q 2344 -856 2625 -561 
Q 2906 -266 2906 331 
L 2906 616 
Q 2728 306 2450 153 
Q 2172 0 1784 0 
Q 1141 0 747 490 
Q 353 981 353 1791 
Q 353 2603 747 3093 
Q 1141 3584 1784 3584 
Q 2172 3584 2450 3431 
Q 2728 3278 2906 2969 
L 2906 3500 
L 3481 3500 
L 3481 434 
z
" transform="scale(0.015625)"/>
       <path id="DejaVuSans-2e" d="M 684 794 
L 1344 794 
L 1344 0 
L 684 0 
L 684 794 
z
" transform="scale(0.015625)"/>
      </defs>
      <use xlink:href="#DejaVuSans-49"/>
      <use xlink:href="#DejaVuSans-64" x="29.492188"/>
      <use xlink:href="#DejaVuSans-65" x="92.96875"/>
      <use xlink:href="#DejaVuSans-61" x="154.492188"/>
      <use xlink:href="#DejaVuSans-6c" x="215.771484"/>
      <use xlink:href="#DejaVuSans-20" x="243.554688"/>
      <use xlink:href="#DejaVuSans-2d" x="275.341797"/>
      <use xlink:href="#DejaVuSans-20" x="311.425781"/>
      <use xlink:href="#DejaVuSans-42" x="343.212891"/>
      <use xlink:href="#DejaVuSans-48" x="411.816406"/>
      <use xlink:href="#DejaVuSans-54" x="487.011719"/>
      <use xlink:href="#DejaVuSans-2c" x="548.095703"/>
      <use xlink:href="#DejaVuSans-20" x="579.882812"/>
      <use xlink:href="#DejaVuSans-69" x="611.669922"/>
      <use xlink:href="#DejaVuSans-6d" x="639.453125"/>
      <use xlink:href="#DejaVuSans-61" x="736.865234"/>
      <use xlink:href="#DejaVuSans-67" x="798.144531"/>
      <use xlink:href="#DejaVuSans-2e" x="861.621094"/>
     </g>
    </g>
    <g id="patch_8">
     <path d="M 236.812187 87.426688 
L 256.812187 87.426688 
L 256.812187 80.426688 
L 236.812187 80.426688 
z
" style="fill: #ee7733; fill-opacity: 0.3; stroke: #ee7733; stroke-opacity: 0.3; stroke-linejoin: miter"/>
    </g>
    <g id="text_16">
     <!-- Ideal - TR-RBF (cred.), $3\sigma$ CI -->
     <g transform="translate(264.812187 87.426688) scale(0.1 -0.1)">
      <defs>
       <path id="DejaVuSans-52" d="M 2841 2188 
Q 3044 2119 3236 1894 
Q 3428 1669 3622 1275 
L 4263 0 
L 3584 0 
L 2988 1197 
Q 2756 1666 2539 1819 
Q 2322 1972 1947 1972 
L 1259 1972 
L 1259 0 
L 628 0 
L 628 4666 
L 2053 4666 
Q 2853 4666 3247 4331 
Q 3641 3997 3641 3322 
Q 3641 2881 3436 2590 
Q 3231 2300 2841 2188 
z
M 1259 4147 
L 1259 2491 
L 2053 2491 
Q 2509 2491 2742 2702 
Q 2975 2913 2975 3322 
Q 2975 3731 2742 3939 
Q 2509 4147 2053 4147 
L 1259 4147 
z
" transform="scale(0.015625)"/>
       <path id="DejaVuSans-46" d="M 628 4666 
L 3309 4666 
L 3309 4134 
L 1259 4134 
L 1259 2759 
L 3109 2759 
L 3109 2228 
L 1259 2228 
L 1259 0 
L 628 0 
L 628 4666 
z
" transform="scale(0.015625)"/>
       <path id="DejaVuSans-63" d="M 3122 3366 
L 3122 2828 
Q 2878 2963 2633 3030 
Q 2388 3097 2138 3097 
Q 1578 3097 1268 2742 
Q 959 2388 959 1747 
Q 959 1106 1268 751 
Q 1578 397 2138 397 
Q 2388 397 2633 464 
Q 2878 531 3122 666 
L 3122 134 
Q 2881 22 2623 -34 
Q 2366 -91 2075 -91 
Q 1284 -91 818 406 
Q 353 903 353 1747 
Q 353 2603 823 3093 
Q 1294 3584 2113 3584 
Q 2378 3584 2631 3529 
Q 2884 3475 3122 3366 
z
" transform="scale(0.015625)"/>
       <path id="DejaVuSans-Oblique-3c3" d="M 2219 3044 
Q 1744 3044 1422 2700 
Q 1081 2341 969 1747 
Q 844 1119 1044 756 
Q 1241 397 1706 397 
Q 2166 397 2503 759 
Q 2844 1122 2966 1747 
Q 3075 2319 2881 2700 
Q 2700 3044 2219 3044 
z
M 2309 3503 
L 4219 3500 
L 4106 2925 
L 3463 2925 
Q 3706 2438 3575 1747 
Q 3406 888 2884 400 
Q 2359 -91 1609 -91 
Q 856 -91 525 400 
Q 194 888 363 1747 
Q 528 2609 1050 3097 
Q 1484 3503 2309 3503 
z
" transform="scale(0.015625)"/>
       <path id="DejaVuSans-43" d="M 4122 4306 
L 4122 3641 
Q 3803 3938 3442 4084 
Q 3081 4231 2675 4231 
Q 1875 4231 1450 3742 
Q 1025 3253 1025 2328 
Q 1025 1406 1450 917 
Q 1875 428 2675 428 
Q 3081 428 3442 575 
Q 3803 722 4122 1019 
L 4122 359 
Q 3791 134 3420 21 
Q 3050 -91 2638 -91 
Q 1578 -91 968 557 
Q 359 1206 359 2328 
Q 359 3453 968 4101 
Q 1578 4750 2638 4750 
Q 3056 4750 3426 4639 
Q 3797 4528 4122 4306 
z
" transform="scale(0.015625)"/>
      </defs>
      <use xlink:href="#DejaVuSans-49" transform="translate(0 0.015625)"/>
      <use xlink:href="#DejaVuSans-64" transform="translate(29.492188 0.015625)"/>
      <use xlink:href="#DejaVuSans-65" transform="translate(92.96875 0.015625)"/>
      <use xlink:href="#DejaVuSans-61" transform="translate(154.492188 0.015625)"/>
      <use xlink:href="#DejaVuSans-6c" transform="translate(215.771484 0.015625)"/>
      <use xlink:href="#DejaVuSans-20" transform="translate(243.554688 0.015625)"/>
      <use xlink:href="#DejaVuSans-2d" transform="translate(275.341797 0.015625)"/>
      <use xlink:href="#DejaVuSans-20" transform="translate(311.425781 0.015625)"/>
      <use xlink:href="#DejaVuSans-54" transform="translate(343.212891 0.015625)"/>
      <use xlink:href="#DejaVuSans-52" transform="translate(404.296875 0.015625)"/>
      <use xlink:href="#DejaVuSans-2d" transform="translate(473.779297 0.015625)"/>
      <use xlink:href="#DejaVuSans-52" transform="translate(509.863281 0.015625)"/>
      <use xlink:href="#DejaVuSans-42" transform="translate(579.345703 0.015625)"/>
      <use xlink:href="#DejaVuSans-46" transform="translate(647.949219 0.015625)"/>
      <use xlink:href="#DejaVuSans-20" transform="translate(705.46875 0.015625)"/>
      <use xlink:href="#DejaVuSans-28" transform="translate(737.255859 0.015625)"/>
      <use xlink:href="#DejaVuSans-63" transform="translate(776.269531 0.015625)"/>
      <use xlink:href="#DejaVuSans-72" transform="translate(831.25 0.015625)"/>
      <use xlink:href="#DejaVuSans-65" transform="translate(872.363281 0.015625)"/>
      <use xlink:href="#DejaVuSans-64" transform="translate(933.886719 0.015625)"/>
      <use xlink:href="#DejaVuSans-2e" transform="translate(997.363281 0.015625)"/>
      <use xlink:href="#DejaVuSans-29" transform="translate(1029.150391 0.015625)"/>
      <use xlink:href="#DejaVuSans-2c" transform="translate(1068.164062 0.015625)"/>
      <use xlink:href="#DejaVuSans-20" transform="translate(1099.951172 0.015625)"/>
      <use xlink:href="#DejaVuSans-33" transform="translate(1131.738281 0.015625)"/>
      <use xlink:href="#DejaVuSans-Oblique-3c3" transform="translate(1195.361328 0.015625)"/>
      <use xlink:href="#DejaVuSans-20" transform="translate(1258.740234 0.015625)"/>
      <use xlink:href="#DejaVuSans-43" transform="translate(1290.527344 0.015625)"/>
      <use xlink:href="#DejaVuSans-49" transform="translate(1360.351562 0.015625)"/>
     </g>
    </g>
    <g id="line2d_67">
     <path d="M 236.812187 98.604812 
L 246.812187 98.604812 
L 256.812187 98.604812 
" style="fill: none; stroke-dasharray: 5.55,2.4; stroke-dashoffset: 0; stroke: #ee7733; stroke-width: 1.5"/>
    </g>
    <g id="text_17">
     <!-- Ideal - TR-RBF (cred.), mean -->
     <g transform="translate(264.812187 102.104812) scale(0.1 -0.1)">
      <defs>
       <path id="DejaVuSans-6e" d="M 3513 2113 
L 3513 0 
L 2938 0 
L 2938 2094 
Q 2938 2591 2744 2837 
Q 2550 3084 2163 3084 
Q 1697 3084 1428 2787 
Q 1159 2491 1159 1978 
L 1159 0 
L 581 0 
L 581 3500 
L 1159 3500 
L 1159 2956 
Q 1366 3272 1645 3428 
Q 1925 3584 2291 3584 
Q 2894 3584 3203 3211 
Q 3513 2838 3513 2113 
z
" transform="scale(0.015625)"/>
      </defs>
      <use xlink:href="#DejaVuSans-49"/>
      <use xlink:href="#DejaVuSans-64" x="29.492188"/>
      <use xlink:href="#DejaVuSans-65" x="92.96875"/>
      <use xlink:href="#DejaVuSans-61" x="154.492188"/>
      <use xlink:href="#DejaVuSans-6c" x="215.771484"/>
      <use xlink:href="#DejaVuSans-20" x="243.554688"/>
      <use xlink:href="#DejaVuSans-2d" x="275.341797"/>
      <use xlink:href="#DejaVuSans-20" x="311.425781"/>
      <use xlink:href="#DejaVuSans-54" x="343.212891"/>
      <use xlink:href="#DejaVuSans-52" x="404.296875"/>
      <use xlink:href="#DejaVuSans-2d" x="469.779297"/>
      <use xlink:href="#DejaVuSans-52" x="505.863281"/>
      <use xlink:href="#DejaVuSans-42" x="575.345703"/>
      <use xlink:href="#DejaVuSans-46" x="643.949219"/>
      <use xlink:href="#DejaVuSans-20" x="701.46875"/>
      <use xlink:href="#DejaVuSans-28" x="733.255859"/>
      <use xlink:href="#DejaVuSans-63" x="772.269531"/>
      <use xlink:href="#DejaVuSans-72" x="827.25"/>
      <use xlink:href="#DejaVuSans-65" x="866.113281"/>
      <use xlink:href="#DejaVuSans-64" x="927.636719"/>
      <use xlink:href="#DejaVuSans-2e" x="991.113281"/>
      <use xlink:href="#DejaVuSans-29" x="1022.900391"/>
      <use xlink:href="#DejaVuSans-2c" x="1061.914062"/>
      <use xlink:href="#DejaVuSans-20" x="1093.701172"/>
      <use xlink:href="#DejaVuSans-6d" x="1125.488281"/>
      <use xlink:href="#DejaVuSans-65" x="1222.900391"/>
      <use xlink:href="#DejaVuSans-61" x="1284.423828"/>
      <use xlink:href="#DejaVuSans-6e" x="1345.703125"/>
     </g>
    </g>
    <g id="line2d_68">
     <path d="M 236.812187 113.282938 
L 246.812187 113.282938 
L 256.812187 113.282938 
" style="fill: none; stroke: #ee7733; stroke-width: 1.5; stroke-linecap: square"/>
    </g>
    <g id="text_18">
     <!-- Ideal - TR-RBF (cred.), real -->
     <g transform="translate(264.812187 116.782938) scale(0.1 -0.1)">
      <use xlink:href="#DejaVuSans-49"/>
      <use xlink:href="#DejaVuSans-64" x="29.492188"/>
      <use xlink:href="#DejaVuSans-65" x="92.96875"/>
      <use xlink:href="#DejaVuSans-61" x="154.492188"/>
      <use xlink:href="#DejaVuSans-6c" x="215.771484"/>
      <use xlink:href="#DejaVuSans-20" x="243.554688"/>
      <use xlink:href="#DejaVuSans-2d" x="275.341797"/>
      <use xlink:href="#DejaVuSans-20" x="311.425781"/>
      <use xlink:href="#DejaVuSans-54" x="343.212891"/>
      <use xlink:href="#DejaVuSans-52" x="404.296875"/>
      <use xlink:href="#DejaVuSans-2d" x="469.779297"/>
      <use xlink:href="#DejaVuSans-52" x="505.863281"/>
      <use xlink:href="#DejaVuSans-42" x="575.345703"/>
      <use xlink:href="#DejaVuSans-46" x="643.949219"/>
      <use xlink:href="#DejaVuSans-20" x="701.46875"/>
      <use xlink:href="#DejaVuSans-28" x="733.255859"/>
      <use xlink:href="#DejaVuSans-63" x="772.269531"/>
      <use xlink:href="#DejaVuSans-72" x="827.25"/>
      <use xlink:href="#DejaVuSans-65" x="866.113281"/>
      <use xlink:href="#DejaVuSans-64" x="927.636719"/>
      <use xlink:href="#DejaVuSans-2e" x="991.113281"/>
      <use xlink:href="#DejaVuSans-29" x="1022.900391"/>
      <use xlink:href="#DejaVuSans-2c" x="1061.914062"/>
      <use xlink:href="#DejaVuSans-20" x="1093.701172"/>
      <use xlink:href="#DejaVuSans-72" x="1125.488281"/>
      <use xlink:href="#DejaVuSans-65" x="1164.351562"/>
      <use xlink:href="#DejaVuSans-61" x="1225.875"/>
      <use xlink:href="#DejaVuSans-6c" x="1287.154297"/>
     </g>
    </g>
    <g id="line2d_69">
     <path d="M 236.812187 127.961062 
L 246.812187 127.961062 
L 256.812187 127.961062 
" style="fill: none; stroke-dasharray: 1.5,2.475; stroke-dashoffset: 0; stroke: #ee7733; stroke-width: 1.5"/>
    </g>
    <g id="text_19">
     <!-- Ideal - TR-RBF (cred.), imag. -->
     <g transform="translate(264.812187 131.461062) scale(0.1 -0.1)">
      <use xlink:href="#DejaVuSans-49"/>
      <use xlink:href="#DejaVuSans-64" x="29.492188"/>
      <use xlink:href="#DejaVuSans-65" x="92.96875"/>
      <use xlink:href="#DejaVuSans-61" x="154.492188"/>
      <use xlink:href="#DejaVuSans-6c" x="215.771484"/>
      <use xlink:href="#DejaVuSans-20" x="243.554688"/>
      <use xlink:href="#DejaVuSans-2d" x="275.341797"/>
      <use xlink:href="#DejaVuSans-20" x="311.425781"/>
      <use xlink:href="#DejaVuSans-54" x="343.212891"/>
      <use xlink:href="#DejaVuSans-52" x="404.296875"/>
      <use xlink:href="#DejaVuSans-2d" x="469.779297"/>
      <use xlink:href="#DejaVuSans-52" x="505.863281"/>
      <use xlink:href="#DejaVuSans-42" x="575.345703"/>
      <use xlink:href="#DejaVuSans-46" x="643.949219"/>
      <use xlink:href="#DejaVuSans-20" x="701.46875"/>
      <use xlink:href="#DejaVuSans-28" x="733.255859"/>
      <use xlink:href="#DejaVuSans-63" x="772.269531"/>
      <use xlink:href="#DejaVuSans-72" x="827.25"/>
      <use xlink:href="#DejaVuSans-65" x="866.113281"/>
      <use xlink:href="#DejaVuSans-64" x="927.636719"/>
      <use xlink:href="#DejaVuSans-2e" x="991.113281"/>
      <use xlink:href="#DejaVuSans-29" x="1022.900391"/>
      <use xlink:href="#DejaVuSans-2c" x="1061.914062"/>
      <use xlink:href="#DejaVuSans-20" x="1093.701172"/>
      <use xlink:href="#DejaVuSans-69" x="1125.488281"/>
      <use xlink:href="#DejaVuSans-6d" x="1153.271484"/>
      <use xlink:href="#DejaVuSans-61" x="1250.683594"/>
      <use xlink:href="#DejaVuSans-67" x="1311.962891"/>
      <use xlink:href="#DejaVuSans-2e" x="1375.439453"/>
     </g>
    </g>
    <g id="line2d_70">
     <path d="M 236.812187 142.639187 
L 246.812187 142.639187 
L 256.812187 142.639187 
" style="fill: none; stroke: #0077bb; stroke-width: 1.5; stroke-linecap: square"/>
    </g>
    <g id="text_20">
     <!-- Ideal - TR-RBF, real -->
     <g transform="translate(264.812187 146.139187) scale(0.1 -0.1)">
      <use xlink:href="#DejaVuSans-49"/>
      <use xlink:href="#DejaVuSans-64" x="29.492188"/>
      <use xlink:href="#DejaVuSans-65" x="92.96875"/>
      <use xlink:href="#DejaVuSans-61" x="154.492188"/>
      <use xlink:href="#DejaVuSans-6c" x="215.771484"/>
      <use xlink:href="#DejaVuSans-20" x="243.554688"/>
      <use xlink:href="#DejaVuSans-2d" x="275.341797"/>
      <use xlink:href="#DejaVuSans-20" x="311.425781"/>
      <use xlink:href="#DejaVuSans-54" x="343.212891"/>
      <use xlink:href="#DejaVuSans-52" x="404.296875"/>
      <use xlink:href="#DejaVuSans-2d" x="469.779297"/>
      <use xlink:href="#DejaVuSans-52" x="505.863281"/>
      <use xlink:href="#DejaVuSans-42" x="575.345703"/>
      <use xlink:href="#DejaVuSans-46" x="643.949219"/>
      <use xlink:href="#DejaVuSans-2c" x="701.46875"/>
      <use xlink:href="#DejaVuSans-20" x="733.255859"/>
      <use xlink:href="#DejaVuSans-72" x="765.042969"/>
      <use xlink:href="#DejaVuSans-65" x="803.90625"/>
      <use xlink:href="#DejaVuSans-61" x="865.429688"/>
      <use xlink:href="#DejaVuSans-6c" x="926.708984"/>
     </g>
    </g>
    <g id="line2d_71">
     <path d="M 236.812187 157.317312 
L 246.812187 157.317312 
L 256.812187 157.317312 
" style="fill: none; stroke-dasharray: 1.5,2.475; stroke-dashoffset: 0; stroke: #0077bb; stroke-width: 1.5"/>
    </g>
    <g id="text_21">
     <!-- Ideal - TR-RBF, imag. -->
     <g transform="translate(264.812187 160.817312) scale(0.1 -0.1)">
      <use xlink:href="#DejaVuSans-49"/>
      <use xlink:href="#DejaVuSans-64" x="29.492188"/>
      <use xlink:href="#DejaVuSans-65" x="92.96875"/>
      <use xlink:href="#DejaVuSans-61" x="154.492188"/>
      <use xlink:href="#DejaVuSans-6c" x="215.771484"/>
      <use xlink:href="#DejaVuSans-20" x="243.554688"/>
      <use xlink:href="#DejaVuSans-2d" x="275.341797"/>
      <use xlink:href="#DejaVuSans-20" x="311.425781"/>
      <use xlink:href="#DejaVuSans-54" x="343.212891"/>
      <use xlink:href="#DejaVuSans-52" x="404.296875"/>
      <use xlink:href="#DejaVuSans-2d" x="469.779297"/>
      <use xlink:href="#DejaVuSans-52" x="505.863281"/>
      <use xlink:href="#DejaVuSans-42" x="575.345703"/>
      <use xlink:href="#DejaVuSans-46" x="643.949219"/>
      <use xlink:href="#DejaVuSans-2c" x="701.46875"/>
      <use xlink:href="#DejaVuSans-20" x="733.255859"/>
      <use xlink:href="#DejaVuSans-69" x="765.042969"/>
      <use xlink:href="#DejaVuSans-6d" x="792.826172"/>
      <use xlink:href="#DejaVuSans-61" x="890.238281"/>
      <use xlink:href="#DejaVuSans-67" x="951.517578"/>
      <use xlink:href="#DejaVuSans-2e" x="1014.994141"/>
     </g>
    </g>
    <g id="line2d_72">
     <path d="M 236.812187 171.995437 
L 246.812187 171.995437 
L 256.812187 171.995437 
" style="fill: none; stroke: #ee7733; stroke-width: 1.5; stroke-linecap: square"/>
    </g>
    <g id="text_22">
     <!-- Ideal - TR-NNLS, real -->
     <g transform="translate(264.812187 175.495437) scale(0.1 -0.1)">
      <defs>
       <path id="DejaVuSans-4e" d="M 628 4666 
L 1478 4666 
L 3547 763 
L 3547 4666 
L 4159 4666 
L 4159 0 
L 3309 0 
L 1241 3903 
L 1241 0 
L 628 0 
L 628 4666 
z
" transform="scale(0.015625)"/>
       <path id="DejaVuSans-4c" d="M 628 4666 
L 1259 4666 
L 1259 531 
L 3531 531 
L 3531 0 
L 628 0 
L 628 4666 
z
" transform="scale(0.015625)"/>
       <path id="DejaVuSans-53" d="M 3425 4513 
L 3425 3897 
Q 3066 4069 2747 4153 
Q 2428 4238 2131 4238 
Q 1616 4238 1336 4038 
Q 1056 3838 1056 3469 
Q 1056 3159 1242 3001 
Q 1428 2844 1947 2747 
L 2328 2669 
Q 3034 2534 3370 2195 
Q 3706 1856 3706 1288 
Q 3706 609 3251 259 
Q 2797 -91 1919 -91 
Q 1588 -91 1214 -16 
Q 841 59 441 206 
L 441 856 
Q 825 641 1194 531 
Q 1563 422 1919 422 
Q 2459 422 2753 634 
Q 3047 847 3047 1241 
Q 3047 1584 2836 1778 
Q 2625 1972 2144 2069 
L 1759 2144 
Q 1053 2284 737 2584 
Q 422 2884 422 3419 
Q 422 4038 858 4394 
Q 1294 4750 2059 4750 
Q 2388 4750 2728 4690 
Q 3069 4631 3425 4513 
z
" transform="scale(0.015625)"/>
      </defs>
      <use xlink:href="#DejaVuSans-49"/>
      <use xlink:href="#DejaVuSans-64" x="29.492188"/>
      <use xlink:href="#DejaVuSans-65" x="92.96875"/>
      <use xlink:href="#DejaVuSans-61" x="154.492188"/>
      <use xlink:href="#DejaVuSans-6c" x="215.771484"/>
      <use xlink:href="#DejaVuSans-20" x="243.554688"/>
      <use xlink:href="#DejaVuSans-2d" x="275.341797"/>
      <use xlink:href="#DejaVuSans-20" x="311.425781"/>
      <use xlink:href="#DejaVuSans-54" x="343.212891"/>
      <use xlink:href="#DejaVuSans-52" x="404.296875"/>
      <use xlink:href="#DejaVuSans-2d" x="469.779297"/>
      <use xlink:href="#DejaVuSans-4e" x="505.863281"/>
      <use xlink:href="#DejaVuSans-4e" x="580.667969"/>
      <use xlink:href="#DejaVuSans-4c" x="655.472656"/>
      <use xlink:href="#DejaVuSans-53" x="711.185547"/>
      <use xlink:href="#DejaVuSans-2c" x="774.662109"/>
      <use xlink:href="#DejaVuSans-20" x="806.449219"/>
      <use xlink:href="#DejaVuSans-72" x="838.236328"/>
      <use xlink:href="#DejaVuSans-65" x="877.099609"/>
      <use xlink:href="#DejaVuSans-61" x="938.623047"/>
      <use xlink:href="#DejaVuSans-6c" x="999.902344"/>
     </g>
    </g>
    <g id="line2d_73">
     <path d="M 236.812187 186.673562 
L 246.812187 186.673562 
L 256.812187 186.673562 
" style="fill: none; stroke-dasharray: 1.5,2.475; stroke-dashoffset: 0; stroke: #ee7733; stroke-width: 1.5"/>
    </g>
    <g id="text_23">
     <!-- Ideal - TR-NNLS, imag. -->
     <g transform="translate(264.812187 190.173562) scale(0.1 -0.1)">
      <use xlink:href="#DejaVuSans-49"/>
      <use xlink:href="#DejaVuSans-64" x="29.492188"/>
      <use xlink:href="#DejaVuSans-65" x="92.96875"/>
      <use xlink:href="#DejaVuSans-61" x="154.492188"/>
      <use xlink:href="#DejaVuSans-6c" x="215.771484"/>
      <use xlink:href="#DejaVuSans-20" x="243.554688"/>
      <use xlink:href="#DejaVuSans-2d" x="275.341797"/>
      <use xlink:href="#DejaVuSans-20" x="311.425781"/>
      <use xlink:href="#DejaVuSans-54" x="343.212891"/>
      <use xlink:href="#DejaVuSans-52" x="404.296875"/>
      <use xlink:href="#DejaVuSans-2d" x="469.779297"/>
      <use xlink:href="#DejaVuSans-4e" x="505.863281"/>
      <use xlink:href="#DejaVuSans-4e" x="580.667969"/>
      <use xlink:href="#DejaVuSans-4c" x="655.472656"/>
      <use xlink:href="#DejaVuSans-53" x="711.185547"/>
      <use xlink:href="#DejaVuSans-2c" x="774.662109"/>
      <use xlink:href="#DejaVuSans-20" x="806.449219"/>
      <use xlink:href="#DejaVuSans-69" x="838.236328"/>
      <use xlink:href="#DejaVuSans-6d" x="866.019531"/>
      <use xlink:href="#DejaVuSans-61" x="963.431641"/>
      <use xlink:href="#DejaVuSans-67" x="1024.710938"/>
      <use xlink:href="#DejaVuSans-2e" x="1088.1875"/>
     </g>
    </g>
   </g>
  </g>
  <g id="text_24">
   <!-- Ideal - DRT -->
   <g transform="translate(197.788125 16.030125) scale(0.12 -0.12)">
    <defs>
     <path id="DejaVuSans-44" d="M 1259 4147 
L 1259 519 
L 2022 519 
Q 2988 519 3436 956 
Q 3884 1394 3884 2338 
Q 3884 3275 3436 3711 
Q 2988 4147 2022 4147 
L 1259 4147 
z
M 628 4666 
L 1925 4666 
Q 3281 4666 3915 4102 
Q 4550 3538 4550 2338 
Q 4550 1131 3912 565 
Q 3275 0 1925 0 
L 628 0 
L 628 4666 
z
" transform="scale(0.015625)"/>
    </defs>
    <use xlink:href="#DejaVuSans-49"/>
    <use xlink:href="#DejaVuSans-64" x="29.492188"/>
    <use xlink:href="#DejaVuSans-65" x="92.96875"/>
    <use xlink:href="#DejaVuSans-61" x="154.492188"/>
    <use xlink:href="#DejaVuSans-6c" x="215.771484"/>
    <use xlink:href="#DejaVuSans-20" x="243.554688"/>
    <use xlink:href="#DejaVuSans-2d" x="275.341797"/>
    <use xlink:href="#DejaVuSans-20" x="311.425781"/>
    <use xlink:href="#DejaVuSans-44" x="343.212891"/>
    <use xlink:href="#DejaVuSans-52" x="420.214844"/>
    <use xlink:href="#DejaVuSans-54" x="482.447266"/>
   </g>
  </g>
 </g>
 <defs>
  <clipPath id="pb45f18bb0c">
   <rect x="57.6" y="41.472" width="357.12" height="266.112"/>
  </clipPath>
 </defs>
</svg>
