<?xml version="1.0" encoding="utf-8" standalone="no"?>
<!DOCTYPE svg PUBLIC "-//W3C//DTD SVG 1.1//EN"
  "http://www.w3.org/Graphics/SVG/1.1/DTD/svg11.dtd">
<svg xmlns:xlink="http://www.w3.org/1999/xlink" width="460.8pt" height="345.6pt" viewBox="0 0 460.8 345.6" xmlns="http://www.w3.org/2000/svg" version="1.1">
 <metadata>
  <rdf:RDF xmlns:dc="http://purl.org/dc/elements/1.1/" xmlns:cc="http://creativecommons.org/ns#" xmlns:rdf="http://www.w3.org/1999/02/22-rdf-syntax-ns#">
   <cc:Work>
    <dc:type rdf:resource="http://purl.org/dc/dcmitype/StillImage"/>
    <dc:date>2024-03-14T17:37:28.397730</dc:date>
    <dc:format>image/svg+xml</dc:format>
    <dc:creator>
     <cc:Agent>
      <dc:title>Matplotlib v3.8.3, https://matplotlib.org/</dc:title>
     </cc:Agent>
    </dc:creator>
   </cc:Work>
  </rdf:RDF>
 </metadata>
 <defs>
  <style type="text/css">*{stroke-linejoin: round; stroke-linecap: butt}</style>
 </defs>
 <g id="figure_1">
  <g id="patch_1">
   <path d="M 0 345.6 
L 460.8 345.6 
L 460.8 0 
L 0 0 
L 0 345.6 
z
" style="fill: none"/>
  </g>
  <g id="axes_1">
   <g id="patch_2">
    <path d="M 60.68 302.2 
L 450 302.2 
L 450 10.8 
L 60.68 10.8 
L 60.68 302.2 
z
" style="fill: none"/>
   </g>
   <g id="PathCollection_1">
    <defs>
     <path id="C0_0_6a63bc37e8" d="M 0 3 
C 0.795609 3 1.55874 2.683901 2.12132 2.12132 
C 2.683901 1.55874 3 0.795609 3 -0 
C 3 -0.795609 2.683901 -1.55874 2.12132 -2.12132 
C 1.55874 -2.683901 0.795609 -3 0 -3 
C -0.795609 -3 -1.55874 -2.683901 -2.12132 -2.12132 
C -2.683901 -1.55874 -3 -0.795609 -3 0 
C -3 0.795609 -2.683901 1.55874 -2.12132 2.12132 
C -1.55874 2.683901 -0.795609 3 0 3 
z
"/>
    </defs>
    <g clip-path="url(#p4e41c5b488)">
     <use xlink:href="#C0_0_6a63bc37e8" x="78.376364" y="187.758916" style="fill: none; stroke: #000000"/>
    </g>
    <g clip-path="url(#p4e41c5b488)">
     <use xlink:href="#C0_0_6a63bc37e8" x="80.387615" y="182.05291" style="fill: none; stroke: #000000"/>
    </g>
    <g clip-path="url(#p4e41c5b488)">
     <use xlink:href="#C0_0_6a63bc37e8" x="83.586326" y="174.564566" style="fill: none; stroke: #000000"/>
    </g>
    <g clip-path="url(#p4e41c5b488)">
     <use xlink:href="#C0_0_6a63bc37e8" x="88.81691" y="165.031359" style="fill: none; stroke: #000000"/>
    </g>
    <g clip-path="url(#p4e41c5b488)">
     <use xlink:href="#C0_0_6a63bc37e8" x="97.351174" y="153.608765" style="fill: none; stroke: #000000"/>
    </g>
    <g clip-path="url(#p4e41c5b488)">
     <use xlink:href="#C0_0_6a63bc37e8" x="110.67861" y="141.421329" style="fill: none; stroke: #000000"/>
    </g>
    <g clip-path="url(#p4e41c5b488)">
     <use xlink:href="#C0_0_6a63bc37e8" x="129.590032" y="131.001375" style="fill: none; stroke: #000000"/>
    </g>
    <g clip-path="url(#p4e41c5b488)">
     <use xlink:href="#C0_0_6a63bc37e8" x="152.716294" y="125.571077" style="fill: none; stroke: #000000"/>
    </g>
    <g clip-path="url(#p4e41c5b488)">
     <use xlink:href="#C0_0_6a63bc37e8" x="176.299549" y="126.729782" style="fill: none; stroke: #000000"/>
    </g>
    <g clip-path="url(#p4e41c5b488)">
     <use xlink:href="#C0_0_6a63bc37e8" x="196.540811" y="132.919365" style="fill: none; stroke: #000000"/>
    </g>
    <g clip-path="url(#p4e41c5b488)">
     <use xlink:href="#C0_0_6a63bc37e8" x="212.008115" y="140.881172" style="fill: none; stroke: #000000"/>
    </g>
    <g clip-path="url(#p4e41c5b488)">
     <use xlink:href="#C0_0_6a63bc37e8" x="223.484733" y="147.999474" style="fill: none; stroke: #000000"/>
    </g>
    <g clip-path="url(#p4e41c5b488)">
     <use xlink:href="#C0_0_6a63bc37e8" x="232.509972" y="153.079073" style="fill: none; stroke: #000000"/>
    </g>
    <g clip-path="url(#p4e41c5b488)">
     <use xlink:href="#C0_0_6a63bc37e8" x="240.43354" y="155.929117" style="fill: none; stroke: #000000"/>
    </g>
    <g clip-path="url(#p4e41c5b488)">
     <use xlink:href="#C0_0_6a63bc37e8" x="248.18579" y="156.811754" style="fill: none; stroke: #000000"/>
    </g>
    <g clip-path="url(#p4e41c5b488)">
     <use xlink:href="#C0_0_6a63bc37e8" x="256.35204" y="156.122733" style="fill: none; stroke: #000000"/>
    </g>
    <g clip-path="url(#p4e41c5b488)">
     <use xlink:href="#C0_0_6a63bc37e8" x="265.290426" y="154.262926" style="fill: none; stroke: #000000"/>
    </g>
    <g clip-path="url(#p4e41c5b488)">
     <use xlink:href="#C0_0_6a63bc37e8" x="275.215488" y="151.603859" style="fill: none; stroke: #000000"/>
    </g>
    <g clip-path="url(#p4e41c5b488)">
     <use xlink:href="#C0_0_6a63bc37e8" x="286.24324" y="148.487639" style="fill: none; stroke: #000000"/>
    </g>
    <g clip-path="url(#p4e41c5b488)">
     <use xlink:href="#C0_0_6a63bc37e8" x="298.410059" y="145.233776" style="fill: none; stroke: #000000"/>
    </g>
    <g clip-path="url(#p4e41c5b488)">
     <use xlink:href="#C0_0_6a63bc37e8" x="311.677546" y="142.141931" style="fill: none; stroke: #000000"/>
    </g>
    <g clip-path="url(#p4e41c5b488)">
     <use xlink:href="#C0_0_6a63bc37e8" x="325.932595" y="139.487195" style="fill: none; stroke: #000000"/>
    </g>
    <g clip-path="url(#p4e41c5b488)">
     <use xlink:href="#C0_0_6a63bc37e8" x="340.989469" y="137.508393" style="fill: none; stroke: #000000"/>
    </g>
    <g clip-path="url(#p4e41c5b488)">
     <use xlink:href="#C0_0_6a63bc37e8" x="356.598339" y="136.392412" style="fill: none; stroke: #000000"/>
    </g>
    <g clip-path="url(#p4e41c5b488)">
     <use xlink:href="#C0_0_6a63bc37e8" x="372.462207" y="136.259073" style="fill: none; stroke: #000000"/>
    </g>
    <g clip-path="url(#p4e41c5b488)">
     <use xlink:href="#C0_0_6a63bc37e8" x="388.261196" y="137.151324" style="fill: none; stroke: #000000"/>
    </g>
    <g clip-path="url(#p4e41c5b488)">
     <use xlink:href="#C0_0_6a63bc37e8" x="403.680648" y="139.034309" style="fill: none; stroke: #000000"/>
    </g>
    <g clip-path="url(#p4e41c5b488)">
     <use xlink:href="#C0_0_6a63bc37e8" x="418.437991" y="141.80436" style="fill: none; stroke: #000000"/>
    </g>
    <g clip-path="url(#p4e41c5b488)">
     <use xlink:href="#C0_0_6a63bc37e8" x="432.303636" y="145.306241" style="fill: none; stroke: #000000"/>
    </g>
   </g>
   <g id="matplotlib.axis_1">
    <g id="xtick_1">
     <g id="line2d_1">
      <defs>
       <path id="mfa732e1ed0" d="M 0 0 
L 0 3.5 
" style="stroke: #000000; stroke-width: 0.8"/>
      </defs>
      <g>
       <use xlink:href="#mfa732e1ed0" x="72.432698" y="302.2" style="stroke: #000000; stroke-width: 0.8"/>
      </g>
     </g>
     <g id="text_1">
      <!-- 100 -->
      <g transform="translate(62.888948 316.798437) scale(0.1 -0.1)">
       <defs>
        <path id="DejaVuSans-31" d="M 794 531 
L 1825 531 
L 1825 4091 
L 703 3866 
L 703 4441 
L 1819 4666 
L 2450 4666 
L 2450 531 
L 3481 531 
L 3481 0 
L 794 0 
L 794 531 
z
" transform="scale(0.015625)"/>
        <path id="DejaVuSans-30" d="M 2034 4250 
Q 1547 4250 1301 3770 
Q 1056 3291 1056 2328 
Q 1056 1369 1301 889 
Q 1547 409 2034 409 
Q 2525 409 2770 889 
Q 3016 1369 3016 2328 
Q 3016 3291 2770 3770 
Q 2525 4250 2034 4250 
z
M 2034 4750 
Q 2819 4750 3233 4129 
Q 3647 3509 3647 2328 
Q 3647 1150 3233 529 
Q 2819 -91 2034 -91 
Q 1250 -91 836 529 
Q 422 1150 422 2328 
Q 422 3509 836 4129 
Q 1250 4750 2034 4750 
z
" transform="scale(0.015625)"/>
       </defs>
       <use xlink:href="#DejaVuSans-31"/>
       <use xlink:href="#DejaVuSans-30" x="63.623047"/>
       <use xlink:href="#DejaVuSans-30" x="127.246094"/>
      </g>
     </g>
    </g>
    <g id="xtick_2">
     <g id="line2d_2">
      <g>
       <use xlink:href="#mfa732e1ed0" x="138.406115" y="302.2" style="stroke: #000000; stroke-width: 0.8"/>
      </g>
     </g>
     <g id="text_2">
      <!-- 200 -->
      <g transform="translate(128.862365 316.798437) scale(0.1 -0.1)">
       <defs>
        <path id="DejaVuSans-32" d="M 1228 531 
L 3431 531 
L 3431 0 
L 469 0 
L 469 531 
Q 828 903 1448 1529 
Q 2069 2156 2228 2338 
Q 2531 2678 2651 2914 
Q 2772 3150 2772 3378 
Q 2772 3750 2511 3984 
Q 2250 4219 1831 4219 
Q 1534 4219 1204 4116 
Q 875 4013 500 3803 
L 500 4441 
Q 881 4594 1212 4672 
Q 1544 4750 1819 4750 
Q 2544 4750 2975 4387 
Q 3406 4025 3406 3419 
Q 3406 3131 3298 2873 
Q 3191 2616 2906 2266 
Q 2828 2175 2409 1742 
Q 1991 1309 1228 531 
z
" transform="scale(0.015625)"/>
       </defs>
       <use xlink:href="#DejaVuSans-32"/>
       <use xlink:href="#DejaVuSans-30" x="63.623047"/>
       <use xlink:href="#DejaVuSans-30" x="127.246094"/>
      </g>
     </g>
    </g>
    <g id="xtick_3">
     <g id="line2d_3">
      <g>
       <use xlink:href="#mfa732e1ed0" x="204.379532" y="302.2" style="stroke: #000000; stroke-width: 0.8"/>
      </g>
     </g>
     <g id="text_3">
      <!-- 300 -->
      <g transform="translate(194.835782 316.798437) scale(0.1 -0.1)">
       <defs>
        <path id="DejaVuSans-33" d="M 2597 2516 
Q 3050 2419 3304 2112 
Q 3559 1806 3559 1356 
Q 3559 666 3084 287 
Q 2609 -91 1734 -91 
Q 1441 -91 1130 -33 
Q 819 25 488 141 
L 488 750 
Q 750 597 1062 519 
Q 1375 441 1716 441 
Q 2309 441 2620 675 
Q 2931 909 2931 1356 
Q 2931 1769 2642 2001 
Q 2353 2234 1838 2234 
L 1294 2234 
L 1294 2753 
L 1863 2753 
Q 2328 2753 2575 2939 
Q 2822 3125 2822 3475 
Q 2822 3834 2567 4026 
Q 2313 4219 1838 4219 
Q 1578 4219 1281 4162 
Q 984 4106 628 3988 
L 628 4550 
Q 988 4650 1302 4700 
Q 1616 4750 1894 4750 
Q 2613 4750 3031 4423 
Q 3450 4097 3450 3541 
Q 3450 3153 3228 2886 
Q 3006 2619 2597 2516 
z
" transform="scale(0.015625)"/>
       </defs>
       <use xlink:href="#DejaVuSans-33"/>
       <use xlink:href="#DejaVuSans-30" x="63.623047"/>
       <use xlink:href="#DejaVuSans-30" x="127.246094"/>
      </g>
     </g>
    </g>
    <g id="xtick_4">
     <g id="line2d_4">
      <g>
       <use xlink:href="#mfa732e1ed0" x="270.352949" y="302.2" style="stroke: #000000; stroke-width: 0.8"/>
      </g>
     </g>
     <g id="text_4">
      <!-- 400 -->
      <g transform="translate(260.809199 316.798437) scale(0.1 -0.1)">
       <defs>
        <path id="DejaVuSans-34" d="M 2419 4116 
L 825 1625 
L 2419 1625 
L 2419 4116 
z
M 2253 4666 
L 3047 4666 
L 3047 1625 
L 3713 1625 
L 3713 1100 
L 3047 1100 
L 3047 0 
L 2419 0 
L 2419 1100 
L 313 1100 
L 313 1709 
L 2253 4666 
z
" transform="scale(0.015625)"/>
       </defs>
       <use xlink:href="#DejaVuSans-34"/>
       <use xlink:href="#DejaVuSans-30" x="63.623047"/>
       <use xlink:href="#DejaVuSans-30" x="127.246094"/>
      </g>
     </g>
    </g>
    <g id="xtick_5">
     <g id="line2d_5">
      <g>
       <use xlink:href="#mfa732e1ed0" x="336.326366" y="302.2" style="stroke: #000000; stroke-width: 0.8"/>
      </g>
     </g>
     <g id="text_5">
      <!-- 500 -->
      <g transform="translate(326.782616 316.798437) scale(0.1 -0.1)">
       <defs>
        <path id="DejaVuSans-35" d="M 691 4666 
L 3169 4666 
L 3169 4134 
L 1269 4134 
L 1269 2991 
Q 1406 3038 1543 3061 
Q 1681 3084 1819 3084 
Q 2600 3084 3056 2656 
Q 3513 2228 3513 1497 
Q 3513 744 3044 326 
Q 2575 -91 1722 -91 
Q 1428 -91 1123 -41 
Q 819 9 494 109 
L 494 744 
Q 775 591 1075 516 
Q 1375 441 1709 441 
Q 2250 441 2565 725 
Q 2881 1009 2881 1497 
Q 2881 1984 2565 2268 
Q 2250 2553 1709 2553 
Q 1456 2553 1204 2497 
Q 953 2441 691 2322 
L 691 4666 
z
" transform="scale(0.015625)"/>
       </defs>
       <use xlink:href="#DejaVuSans-35"/>
       <use xlink:href="#DejaVuSans-30" x="63.623047"/>
       <use xlink:href="#DejaVuSans-30" x="127.246094"/>
      </g>
     </g>
    </g>
    <g id="xtick_6">
     <g id="line2d_6">
      <g>
       <use xlink:href="#mfa732e1ed0" x="402.299783" y="302.2" style="stroke: #000000; stroke-width: 0.8"/>
      </g>
     </g>
     <g id="text_6">
      <!-- 600 -->
      <g transform="translate(392.756033 316.798437) scale(0.1 -0.1)">
       <defs>
        <path id="DejaVuSans-36" d="M 2113 2584 
Q 1688 2584 1439 2293 
Q 1191 2003 1191 1497 
Q 1191 994 1439 701 
Q 1688 409 2113 409 
Q 2538 409 2786 701 
Q 3034 994 3034 1497 
Q 3034 2003 2786 2293 
Q 2538 2584 2113 2584 
z
M 3366 4563 
L 3366 3988 
Q 3128 4100 2886 4159 
Q 2644 4219 2406 4219 
Q 1781 4219 1451 3797 
Q 1122 3375 1075 2522 
Q 1259 2794 1537 2939 
Q 1816 3084 2150 3084 
Q 2853 3084 3261 2657 
Q 3669 2231 3669 1497 
Q 3669 778 3244 343 
Q 2819 -91 2113 -91 
Q 1303 -91 875 529 
Q 447 1150 447 2328 
Q 447 3434 972 4092 
Q 1497 4750 2381 4750 
Q 2619 4750 2861 4703 
Q 3103 4656 3366 4563 
z
" transform="scale(0.015625)"/>
       </defs>
       <use xlink:href="#DejaVuSans-36"/>
       <use xlink:href="#DejaVuSans-30" x="63.623047"/>
       <use xlink:href="#DejaVuSans-30" x="127.246094"/>
      </g>
     </g>
    </g>
    <g id="text_7">
     <!-- Re($Z$) ($\Omega$) -->
     <g transform="translate(232.14 330.476562) scale(0.1 -0.1)">
      <defs>
       <path id="DejaVuSans-52" d="M 2841 2188 
Q 3044 2119 3236 1894 
Q 3428 1669 3622 1275 
L 4263 0 
L 3584 0 
L 2988 1197 
Q 2756 1666 2539 1819 
Q 2322 1972 1947 1972 
L 1259 1972 
L 1259 0 
L 628 0 
L 628 4666 
L 2053 4666 
Q 2853 4666 3247 4331 
Q 3641 3997 3641 3322 
Q 3641 2881 3436 2590 
Q 3231 2300 2841 2188 
z
M 1259 4147 
L 1259 2491 
L 2053 2491 
Q 2509 2491 2742 2702 
Q 2975 2913 2975 3322 
Q 2975 3731 2742 3939 
Q 2509 4147 2053 4147 
L 1259 4147 
z
" transform="scale(0.015625)"/>
       <path id="DejaVuSans-65" d="M 3597 1894 
L 3597 1613 
L 953 1613 
Q 991 1019 1311 708 
Q 1631 397 2203 397 
Q 2534 397 2845 478 
Q 3156 559 3463 722 
L 3463 178 
Q 3153 47 2828 -22 
Q 2503 -91 2169 -91 
Q 1331 -91 842 396 
Q 353 884 353 1716 
Q 353 2575 817 3079 
Q 1281 3584 2069 3584 
Q 2775 3584 3186 3129 
Q 3597 2675 3597 1894 
z
M 3022 2063 
Q 3016 2534 2758 2815 
Q 2500 3097 2075 3097 
Q 1594 3097 1305 2825 
Q 1016 2553 972 2059 
L 3022 2063 
z
" transform="scale(0.015625)"/>
       <path id="DejaVuSans-28" d="M 1984 4856 
Q 1566 4138 1362 3434 
Q 1159 2731 1159 2009 
Q 1159 1288 1364 580 
Q 1569 -128 1984 -844 
L 1484 -844 
Q 1016 -109 783 600 
Q 550 1309 550 2009 
Q 550 2706 781 3412 
Q 1013 4119 1484 4856 
L 1984 4856 
z
" transform="scale(0.015625)"/>
       <path id="DejaVuSans-Oblique-5a" d="M 838 4666 
L 4500 4666 
L 4409 4184 
L 794 531 
L 3769 531 
L 3669 0 
L -141 0 
L -50 481 
L 3566 4134 
L 738 4134 
L 838 4666 
z
" transform="scale(0.015625)"/>
       <path id="DejaVuSans-29" d="M 513 4856 
L 1013 4856 
Q 1481 4119 1714 3412 
Q 1947 2706 1947 2009 
Q 1947 1309 1714 600 
Q 1481 -109 1013 -844 
L 513 -844 
Q 928 -128 1133 580 
Q 1338 1288 1338 2009 
Q 1338 2731 1133 3434 
Q 928 4138 513 4856 
z
" transform="scale(0.015625)"/>
       <path id="DejaVuSans-20" transform="scale(0.015625)"/>
       <path id="DejaVuSans-3a9" d="M 4647 556 
L 4647 0 
L 2772 0 
L 2772 556 
Q 3325 859 3634 1378 
Q 3944 1897 3944 2528 
Q 3944 3278 3531 3731 
Q 3119 4184 2444 4184 
Q 1769 4184 1355 3729 
Q 941 3275 941 2528 
Q 941 1897 1250 1378 
Q 1563 859 2119 556 
L 2119 0 
L 244 0 
L 244 556 
L 1241 556 
Q 747 991 519 1456 
Q 294 1922 294 2497 
Q 294 3491 894 4106 
Q 1491 4722 2444 4722 
Q 3391 4722 3994 4106 
Q 4594 3494 4594 2528 
Q 4594 1922 4372 1459 
Q 4150 997 3647 556 
L 4647 556 
z
" transform="scale(0.015625)"/>
      </defs>
      <use xlink:href="#DejaVuSans-52" transform="translate(0 0.125)"/>
      <use xlink:href="#DejaVuSans-65" transform="translate(69.482422 0.125)"/>
      <use xlink:href="#DejaVuSans-28" transform="translate(131.005859 0.125)"/>
      <use xlink:href="#DejaVuSans-Oblique-5a" transform="translate(170.019531 0.125)"/>
      <use xlink:href="#DejaVuSans-29" transform="translate(238.525391 0.125)"/>
      <use xlink:href="#DejaVuSans-20" transform="translate(277.539062 0.125)"/>
      <use xlink:href="#DejaVuSans-28" transform="translate(309.326172 0.125)"/>
      <use xlink:href="#DejaVuSans-3a9" transform="translate(348.339844 0.125)"/>
      <use xlink:href="#DejaVuSans-29" transform="translate(424.755859 0.125)"/>
     </g>
    </g>
   </g>
   <g id="matplotlib.axis_2">
    <g id="ytick_1">
     <g id="line2d_7">
      <defs>
       <path id="m4b5e5b1393" d="M 0 0 
L -3.5 0 
" style="stroke: #000000; stroke-width: 0.8"/>
      </defs>
      <g>
       <use xlink:href="#m4b5e5b1393" x="60.68" y="271.624382" style="stroke: #000000; stroke-width: 0.8"/>
      </g>
     </g>
     <g id="text_8">
      <!-- −100 -->
      <g transform="translate(26.212813 275.423601) scale(0.1 -0.1)">
       <defs>
        <path id="DejaVuSans-2212" d="M 678 2272 
L 4684 2272 
L 4684 1741 
L 678 1741 
L 678 2272 
z
" transform="scale(0.015625)"/>
       </defs>
       <use xlink:href="#DejaVuSans-2212"/>
       <use xlink:href="#DejaVuSans-31" x="83.789062"/>
       <use xlink:href="#DejaVuSans-30" x="147.412109"/>
       <use xlink:href="#DejaVuSans-30" x="211.035156"/>
      </g>
     </g>
    </g>
    <g id="ytick_2">
     <g id="line2d_8">
      <g>
       <use xlink:href="#m4b5e5b1393" x="60.68" y="238.490561" style="stroke: #000000; stroke-width: 0.8"/>
      </g>
     </g>
     <g id="text_9">
      <!-- −50 -->
      <g transform="translate(32.575313 242.289779) scale(0.1 -0.1)">
       <use xlink:href="#DejaVuSans-2212"/>
       <use xlink:href="#DejaVuSans-35" x="83.789062"/>
       <use xlink:href="#DejaVuSans-30" x="147.412109"/>
      </g>
     </g>
    </g>
    <g id="ytick_3">
     <g id="line2d_9">
      <g>
       <use xlink:href="#m4b5e5b1393" x="60.68" y="205.356739" style="stroke: #000000; stroke-width: 0.8"/>
      </g>
     </g>
     <g id="text_10">
      <!-- 0 -->
      <g transform="translate(47.3175 209.155958) scale(0.1 -0.1)">
       <use xlink:href="#DejaVuSans-30"/>
      </g>
     </g>
    </g>
    <g id="ytick_4">
     <g id="line2d_10">
      <g>
       <use xlink:href="#m4b5e5b1393" x="60.68" y="172.222917" style="stroke: #000000; stroke-width: 0.8"/>
      </g>
     </g>
     <g id="text_11">
      <!-- 50 -->
      <g transform="translate(40.955 176.022136) scale(0.1 -0.1)">
       <use xlink:href="#DejaVuSans-35"/>
       <use xlink:href="#DejaVuSans-30" x="63.623047"/>
      </g>
     </g>
    </g>
    <g id="ytick_5">
     <g id="line2d_11">
      <g>
       <use xlink:href="#m4b5e5b1393" x="60.68" y="139.089096" style="stroke: #000000; stroke-width: 0.8"/>
      </g>
     </g>
     <g id="text_12">
      <!-- 100 -->
      <g transform="translate(34.5925 142.888314) scale(0.1 -0.1)">
       <use xlink:href="#DejaVuSans-31"/>
       <use xlink:href="#DejaVuSans-30" x="63.623047"/>
       <use xlink:href="#DejaVuSans-30" x="127.246094"/>
      </g>
     </g>
    </g>
    <g id="ytick_6">
     <g id="line2d_12">
      <g>
       <use xlink:href="#m4b5e5b1393" x="60.68" y="105.955274" style="stroke: #000000; stroke-width: 0.8"/>
      </g>
     </g>
     <g id="text_13">
      <!-- 150 -->
      <g transform="translate(34.5925 109.754493) scale(0.1 -0.1)">
       <use xlink:href="#DejaVuSans-31"/>
       <use xlink:href="#DejaVuSans-35" x="63.623047"/>
       <use xlink:href="#DejaVuSans-30" x="127.246094"/>
      </g>
     </g>
    </g>
    <g id="ytick_7">
     <g id="line2d_13">
      <g>
       <use xlink:href="#m4b5e5b1393" x="60.68" y="72.821453" style="stroke: #000000; stroke-width: 0.8"/>
      </g>
     </g>
     <g id="text_14">
      <!-- 200 -->
      <g transform="translate(34.5925 76.620671) scale(0.1 -0.1)">
       <use xlink:href="#DejaVuSans-32"/>
       <use xlink:href="#DejaVuSans-30" x="63.623047"/>
       <use xlink:href="#DejaVuSans-30" x="127.246094"/>
      </g>
     </g>
    </g>
    <g id="ytick_8">
     <g id="line2d_14">
      <g>
       <use xlink:href="#m4b5e5b1393" x="60.68" y="39.687631" style="stroke: #000000; stroke-width: 0.8"/>
      </g>
     </g>
     <g id="text_15">
      <!-- 250 -->
      <g transform="translate(34.5925 43.48685) scale(0.1 -0.1)">
       <use xlink:href="#DejaVuSans-32"/>
       <use xlink:href="#DejaVuSans-35" x="63.623047"/>
       <use xlink:href="#DejaVuSans-30" x="127.246094"/>
      </g>
     </g>
    </g>
    <g id="text_16">
     <!-- $-$Im($Z$) ($\Omega$) -->
     <g transform="translate(20.133125 183.5) rotate(-90) scale(0.1 -0.1)">
      <defs>
       <path id="DejaVuSans-49" d="M 628 4666 
L 1259 4666 
L 1259 0 
L 628 0 
L 628 4666 
z
" transform="scale(0.015625)"/>
       <path id="DejaVuSans-6d" d="M 3328 2828 
Q 3544 3216 3844 3400 
Q 4144 3584 4550 3584 
Q 5097 3584 5394 3201 
Q 5691 2819 5691 2113 
L 5691 0 
L 5113 0 
L 5113 2094 
Q 5113 2597 4934 2840 
Q 4756 3084 4391 3084 
Q 3944 3084 3684 2787 
Q 3425 2491 3425 1978 
L 3425 0 
L 2847 0 
L 2847 2094 
Q 2847 2600 2669 2842 
Q 2491 3084 2119 3084 
Q 1678 3084 1418 2786 
Q 1159 2488 1159 1978 
L 1159 0 
L 581 0 
L 581 3500 
L 1159 3500 
L 1159 2956 
Q 1356 3278 1631 3431 
Q 1906 3584 2284 3584 
Q 2666 3584 2933 3390 
Q 3200 3197 3328 2828 
z
" transform="scale(0.015625)"/>
      </defs>
      <use xlink:href="#DejaVuSans-2212" transform="translate(0 0.125)"/>
      <use xlink:href="#DejaVuSans-49" transform="translate(83.789062 0.125)"/>
      <use xlink:href="#DejaVuSans-6d" transform="translate(109.65625 0.125)"/>
      <use xlink:href="#DejaVuSans-28" transform="translate(207.068359 0.125)"/>
      <use xlink:href="#DejaVuSans-Oblique-5a" transform="translate(246.082031 0.125)"/>
      <use xlink:href="#DejaVuSans-29" transform="translate(314.587891 0.125)"/>
      <use xlink:href="#DejaVuSans-20" transform="translate(353.601562 0.125)"/>
      <use xlink:href="#DejaVuSans-28" transform="translate(385.388672 0.125)"/>
      <use xlink:href="#DejaVuSans-3a9" transform="translate(424.402344 0.125)"/>
      <use xlink:href="#DejaVuSans-29" transform="translate(500.818359 0.125)"/>
     </g>
    </g>
   </g>
   <g id="line2d_15">
    <path d="M 78.376365 187.758916 
L 80.167475 182.634162 
L 81.923145 178.252227 
L 84.000362 173.705445 
L 85.982163 169.86795 
L 88.424566 165.661585 
L 90.885477 161.887461 
L 93.179547 158.709691 
L 95.80052 155.41345 
L 98.782993 152.028248 
L 102.159387 148.592956 
L 104.967169 146.012605 
L 108.021414 143.455604 
L 111.328063 140.949162 
L 114.889125 138.523035 
L 118.701924 136.208898 
L 122.758444 134.039511 
L 127.044849 132.047646 
L 131.541249 130.26486 
L 136.221769 128.720141 
L 141.05498 127.438548 
L 146.004682 126.439931 
L 151.031042 125.737861 
L 156.091992 125.338858 
L 161.144809 125.24201 
L 166.147749 125.439012 
L 171.061601 125.91462 
L 175.85105 126.647491 
L 180.485748 127.611295 
L 184.941038 128.776019 
L 189.198316 130.10934 
L 193.245042 131.577958 
L 198.302239 133.689588 
L 202.971937 135.908588 
L 208.283312 138.731507 
L 213.948258 142.047299 
L 224.080029 148.367225 
L 228.656144 151.07355 
L 232.260953 152.959732 
L 235.112574 154.226207 
L 237.875047 155.223694 
L 240.587831 155.964819 
L 243.284508 156.464885 
L 245.993497 156.74073 
L 248.738766 156.809908 
L 252.109164 156.645083 
L 255.589582 156.238472 
L 259.820148 155.497767 
L 264.915015 154.355032 
L 271.721304 152.575848 
L 301.626886 144.434391 
L 310.030385 142.495017 
L 317.837467 140.90487 
L 325.932596 139.487196 
L 333.224434 138.420119 
L 340.681998 137.540035 
L 348.274163 136.867391 
L 355.967002 136.41874 
L 363.724439 136.206399 
L 371.508986 136.238196 
L 379.282542 136.517362 
L 387.007214 137.04255 
L 394.64613 137.808014 
L 402.164196 138.803911 
L 409.528771 140.016744 
L 416.71024 141.429888 
L 423.682447 143.024198 
L 430.422998 144.77865 
L 432.303636 145.306241 
L 432.303636 145.306241 
" clip-path="url(#p4e41c5b488)" style="fill: none; stroke-dasharray: 5.55,2.4; stroke-dashoffset: 0; stroke: #cc3311; stroke-width: 1.5"/>
   </g>
   <g id="patch_3">
    <path d="M 60.68 302.2 
L 60.68 10.8 
" style="fill: none; stroke: #000000; stroke-width: 0.8; stroke-linejoin: miter; stroke-linecap: square"/>
   </g>
   <g id="patch_4">
    <path d="M 450 302.2 
L 450 10.8 
" style="fill: none; stroke: #000000; stroke-width: 0.8; stroke-linejoin: miter; stroke-linecap: square"/>
   </g>
   <g id="patch_5">
    <path d="M 60.68 302.2 
L 450 302.2 
" style="fill: none; stroke: #000000; stroke-width: 0.8; stroke-linejoin: miter; stroke-linecap: square"/>
   </g>
   <g id="patch_6">
    <path d="M 60.68 10.8 
L 450 10.8 
" style="fill: none; stroke: #000000; stroke-width: 0.8; stroke-linejoin: miter; stroke-linecap: square"/>
   </g>
   <g id="legend_1">
    <g id="patch_7">
     <path d="M 358.578125 48.15625 
L 443 48.15625 
Q 445 48.15625 445 46.15625 
L 445 17.8 
Q 445 15.8 443 15.8 
L 358.578125 15.8 
Q 356.578125 15.8 356.578125 17.8 
L 356.578125 46.15625 
Q 356.578125 48.15625 358.578125 48.15625 
z
" style="fill: #ffffff; opacity: 0.8; stroke: #cccccc; stroke-linejoin: miter"/>
    </g>
    <g id="PathCollection_2">
     <path d="M 370.578125 27.773438 
C 371.373734 27.773438 372.136865 27.457339 372.699445 26.894758 
C 373.262026 26.332177 373.578125 25.569047 373.578125 24.773438 
C 373.578125 23.977828 373.262026 23.214698 372.699445 22.652117 
C 372.136865 22.089536 371.373734 21.773438 370.578125 21.773438 
C 369.782516 21.773438 369.019385 22.089536 368.456805 22.652117 
C 367.894224 23.214698 367.578125 23.977828 367.578125 24.773438 
C 367.578125 25.569047 367.894224 26.332177 368.456805 26.894758 
C 369.019385 27.457339 369.782516 27.773438 370.578125 27.773438 
L 370.578125 27.773438 
z
" style="fill: none; stroke: #000000"/>
    </g>
    <g id="text_17">
     <!-- TC-1 -->
     <g transform="translate(388.578125 27.398438) scale(0.1 -0.1)">
      <defs>
       <path id="DejaVuSans-54" d="M -19 4666 
L 3928 4666 
L 3928 4134 
L 2272 4134 
L 2272 0 
L 1638 0 
L 1638 4134 
L -19 4134 
L -19 4666 
z
" transform="scale(0.015625)"/>
       <path id="DejaVuSans-43" d="M 4122 4306 
L 4122 3641 
Q 3803 3938 3442 4084 
Q 3081 4231 2675 4231 
Q 1875 4231 1450 3742 
Q 1025 3253 1025 2328 
Q 1025 1406 1450 917 
Q 1875 428 2675 428 
Q 3081 428 3442 575 
Q 3803 722 4122 1019 
L 4122 359 
Q 3791 134 3420 21 
Q 3050 -91 2638 -91 
Q 1578 -91 968 557 
Q 359 1206 359 2328 
Q 359 3453 968 4101 
Q 1578 4750 2638 4750 
Q 3056 4750 3426 4639 
Q 3797 4528 4122 4306 
z
" transform="scale(0.015625)"/>
       <path id="DejaVuSans-2d" d="M 313 2009 
L 1997 2009 
L 1997 1497 
L 313 1497 
L 313 2009 
z
" transform="scale(0.015625)"/>
      </defs>
      <use xlink:href="#DejaVuSans-54"/>
      <use xlink:href="#DejaVuSans-43" x="55.208984"/>
      <use xlink:href="#DejaVuSans-2d" x="125.033203"/>
      <use xlink:href="#DejaVuSans-31" x="161.117188"/>
     </g>
    </g>
    <g id="line2d_16">
     <path d="M 360.578125 38.576563 
L 370.578125 38.576563 
L 380.578125 38.576563 
" style="fill: none; stroke-dasharray: 5.55,2.4; stroke-dashoffset: 0; stroke: #cc3311; stroke-width: 1.5"/>
    </g>
    <g id="text_18">
     <!-- R(RC)(RW) -->
     <g transform="translate(388.578125 42.076563) scale(0.1 -0.1)">
      <defs>
       <path id="DejaVuSans-57" d="M 213 4666 
L 850 4666 
L 1831 722 
L 2809 4666 
L 3519 4666 
L 4500 722 
L 5478 4666 
L 6119 4666 
L 4947 0 
L 4153 0 
L 3169 4050 
L 2175 0 
L 1381 0 
L 213 4666 
z
" transform="scale(0.015625)"/>
      </defs>
      <use xlink:href="#DejaVuSans-52"/>
      <use xlink:href="#DejaVuSans-28" x="69.482422"/>
      <use xlink:href="#DejaVuSans-52" x="108.496094"/>
      <use xlink:href="#DejaVuSans-43" x="172.978516"/>
      <use xlink:href="#DejaVuSans-29" x="242.802734"/>
      <use xlink:href="#DejaVuSans-28" x="281.816406"/>
      <use xlink:href="#DejaVuSans-52" x="320.830078"/>
      <use xlink:href="#DejaVuSans-57" x="386.3125"/>
      <use xlink:href="#DejaVuSans-29" x="485.189453"/>
     </g>
    </g>
   </g>
  </g>
 </g>
 <defs>
  <clipPath id="p4e41c5b488">
   <rect x="60.68" y="10.8" width="389.32" height="291.4"/>
  </clipPath>
 </defs>
</svg>
