<?xml version="1.0" encoding="utf-8" standalone="no"?>
<!DOCTYPE svg PUBLIC "-//W3C//DTD SVG 1.1//EN"
  "http://www.w3.org/Graphics/SVG/1.1/DTD/svg11.dtd">
<svg xmlns:xlink="http://www.w3.org/1999/xlink" width="460.8pt" height="345.6pt" viewBox="0 0 460.8 345.6" xmlns="http://www.w3.org/2000/svg" version="1.1">
 <metadata>
  <rdf:RDF xmlns:dc="http://purl.org/dc/elements/1.1/" xmlns:cc="http://creativecommons.org/ns#" xmlns:rdf="http://www.w3.org/1999/02/22-rdf-syntax-ns#">
   <cc:Work>
    <dc:type rdf:resource="http://purl.org/dc/dcmitype/StillImage"/>
    <dc:date>2025-03-02T11:35:33.108821</dc:date>
    <dc:format>image/svg+xml</dc:format>
    <dc:creator>
     <cc:Agent>
      <dc:title>Matplotlib v3.9.0, https://matplotlib.org/</dc:title>
     </cc:Agent>
    </dc:creator>
   </cc:Work>
  </rdf:RDF>
 </metadata>
 <defs>
  <style type="text/css">*{stroke-linejoin: round; stroke-linecap: butt}</style>
 </defs>
 <g id="figure_1">
  <g id="patch_1">
   <path d="M 0 345.6 
L 460.8 345.6 
L 460.8 0 
L 0 0 
L 0 345.6 
z
" style="fill: none"/>
  </g>
  <g id="axes_1">
   <g id="patch_2">
    <path d="M 51.442685 298.888 
L 414.79 298.888 
L 414.79 16.416 
L 51.442685 16.416 
L 51.442685 298.888 
z
" style="fill: none"/>
   </g>
   <g id="PathCollection_1">
    <defs>
     <path id="C0_0_6f95608f62" d="M 0 3 
C 0.795609 3 1.55874 2.683901 2.12132 2.12132 
C 2.683901 1.55874 3 0.795609 3 -0 
C 3 -0.795609 2.683901 -1.55874 2.12132 -2.12132 
C 1.55874 -2.683901 0.795609 -3 0 -3 
C -0.795609 -3 -1.55874 -2.683901 -2.12132 -2.12132 
C -2.683901 -1.55874 -3 -0.795609 -3 0 
C -3 0.795609 -2.683901 1.55874 -2.12132 2.12132 
C -1.55874 2.683901 -0.795609 3 0 3 
z
"/>
    </defs>
    <g clip-path="url(#p54e0ed6c16)">
     <use xlink:href="#C0_0_6f95608f62" x="398.274213" y="284.742395" style="fill: none; stroke: #000000"/>
    </g>
    <g clip-path="url(#p54e0ed6c16)">
     <use xlink:href="#C0_0_6f95608f62" x="390.016319" y="281.101625" style="fill: none; stroke: #000000"/>
    </g>
    <g clip-path="url(#p54e0ed6c16)">
     <use xlink:href="#C0_0_6f95608f62" x="381.758426" y="276.137309" style="fill: none; stroke: #000000"/>
    </g>
    <g clip-path="url(#p54e0ed6c16)">
     <use xlink:href="#C0_0_6f95608f62" x="373.500532" y="269.573299" style="fill: none; stroke: #000000"/>
    </g>
    <g clip-path="url(#p54e0ed6c16)">
     <use xlink:href="#C0_0_6f95608f62" x="365.242639" y="261.343154" style="fill: none; stroke: #000000"/>
    </g>
    <g clip-path="url(#p54e0ed6c16)">
     <use xlink:href="#C0_0_6f95608f62" x="356.984745" y="251.017225" style="fill: none; stroke: #000000"/>
    </g>
    <g clip-path="url(#p54e0ed6c16)">
     <use xlink:href="#C0_0_6f95608f62" x="348.726852" y="238.799235" style="fill: none; stroke: #000000"/>
    </g>
    <g clip-path="url(#p54e0ed6c16)">
     <use xlink:href="#C0_0_6f95608f62" x="340.468958" y="225.315652" style="fill: none; stroke: #000000"/>
    </g>
    <g clip-path="url(#p54e0ed6c16)">
     <use xlink:href="#C0_0_6f95608f62" x="332.211065" y="211.274712" style="fill: none; stroke: #000000"/>
    </g>
    <g clip-path="url(#p54e0ed6c16)">
     <use xlink:href="#C0_0_6f95608f62" x="323.953171" y="197.672223" style="fill: none; stroke: #000000"/>
    </g>
    <g clip-path="url(#p54e0ed6c16)">
     <use xlink:href="#C0_0_6f95608f62" x="315.695278" y="185.383397" style="fill: none; stroke: #000000"/>
    </g>
    <g clip-path="url(#p54e0ed6c16)">
     <use xlink:href="#C0_0_6f95608f62" x="307.437384" y="174.926069" style="fill: none; stroke: #000000"/>
    </g>
    <g clip-path="url(#p54e0ed6c16)">
     <use xlink:href="#C0_0_6f95608f62" x="299.179491" y="166.517194" style="fill: none; stroke: #000000"/>
    </g>
    <g clip-path="url(#p54e0ed6c16)">
     <use xlink:href="#C0_0_6f95608f62" x="290.921597" y="160.126093" style="fill: none; stroke: #000000"/>
    </g>
    <g clip-path="url(#p54e0ed6c16)">
     <use xlink:href="#C0_0_6f95608f62" x="282.663704" y="155.100156" style="fill: none; stroke: #000000"/>
    </g>
    <g clip-path="url(#p54e0ed6c16)">
     <use xlink:href="#C0_0_6f95608f62" x="274.40581" y="151.075428" style="fill: none; stroke: #000000"/>
    </g>
    <g clip-path="url(#p54e0ed6c16)">
     <use xlink:href="#C0_0_6f95608f62" x="266.147916" y="147.892889" style="fill: none; stroke: #000000"/>
    </g>
    <g clip-path="url(#p54e0ed6c16)">
     <use xlink:href="#C0_0_6f95608f62" x="257.890023" y="145.011217" style="fill: none; stroke: #000000"/>
    </g>
    <g clip-path="url(#p54e0ed6c16)">
     <use xlink:href="#C0_0_6f95608f62" x="249.632129" y="142.470341" style="fill: none; stroke: #000000"/>
    </g>
    <g clip-path="url(#p54e0ed6c16)">
     <use xlink:href="#C0_0_6f95608f62" x="241.374236" y="139.900519" style="fill: none; stroke: #000000"/>
    </g>
    <g clip-path="url(#p54e0ed6c16)">
     <use xlink:href="#C0_0_6f95608f62" x="233.116342" y="137.09189" style="fill: none; stroke: #000000"/>
    </g>
    <g clip-path="url(#p54e0ed6c16)">
     <use xlink:href="#C0_0_6f95608f62" x="224.858449" y="134.423892" style="fill: none; stroke: #000000"/>
    </g>
    <g clip-path="url(#p54e0ed6c16)">
     <use xlink:href="#C0_0_6f95608f62" x="216.600555" y="131.491194" style="fill: none; stroke: #000000"/>
    </g>
    <g clip-path="url(#p54e0ed6c16)">
     <use xlink:href="#C0_0_6f95608f62" x="208.342662" y="128.518481" style="fill: none; stroke: #000000"/>
    </g>
    <g clip-path="url(#p54e0ed6c16)">
     <use xlink:href="#C0_0_6f95608f62" x="200.084768" y="125.210313" style="fill: none; stroke: #000000"/>
    </g>
    <g clip-path="url(#p54e0ed6c16)">
     <use xlink:href="#C0_0_6f95608f62" x="191.826875" y="121.72435" style="fill: none; stroke: #000000"/>
    </g>
    <g clip-path="url(#p54e0ed6c16)">
     <use xlink:href="#C0_0_6f95608f62" x="183.568981" y="118.232243" style="fill: none; stroke: #000000"/>
    </g>
    <g clip-path="url(#p54e0ed6c16)">
     <use xlink:href="#C0_0_6f95608f62" x="175.311088" y="114.42302" style="fill: none; stroke: #000000"/>
    </g>
    <g clip-path="url(#p54e0ed6c16)">
     <use xlink:href="#C0_0_6f95608f62" x="167.053194" y="110.659551" style="fill: none; stroke: #000000"/>
    </g>
    <g clip-path="url(#p54e0ed6c16)">
     <use xlink:href="#C0_0_6f95608f62" x="158.795301" y="106.776251" style="fill: none; stroke: #000000"/>
    </g>
    <g clip-path="url(#p54e0ed6c16)">
     <use xlink:href="#C0_0_6f95608f62" x="150.537407" y="102.899787" style="fill: none; stroke: #000000"/>
    </g>
    <g clip-path="url(#p54e0ed6c16)">
     <use xlink:href="#C0_0_6f95608f62" x="142.279514" y="98.827317" style="fill: none; stroke: #000000"/>
    </g>
    <g clip-path="url(#p54e0ed6c16)">
     <use xlink:href="#C0_0_6f95608f62" x="134.02162" y="95.092939" style="fill: none; stroke: #000000"/>
    </g>
    <g clip-path="url(#p54e0ed6c16)">
     <use xlink:href="#C0_0_6f95608f62" x="125.763727" y="91.314707" style="fill: none; stroke: #000000"/>
    </g>
    <g clip-path="url(#p54e0ed6c16)">
     <use xlink:href="#C0_0_6f95608f62" x="117.505833" y="87.556194" style="fill: none; stroke: #000000"/>
    </g>
    <g clip-path="url(#p54e0ed6c16)">
     <use xlink:href="#C0_0_6f95608f62" x="109.247939" y="84.118903" style="fill: none; stroke: #000000"/>
    </g>
    <g clip-path="url(#p54e0ed6c16)">
     <use xlink:href="#C0_0_6f95608f62" x="100.990046" y="80.632964" style="fill: none; stroke: #000000"/>
    </g>
    <g clip-path="url(#p54e0ed6c16)">
     <use xlink:href="#C0_0_6f95608f62" x="92.732152" y="77.547584" style="fill: none; stroke: #000000"/>
    </g>
    <g clip-path="url(#p54e0ed6c16)">
     <use xlink:href="#C0_0_6f95608f62" x="84.474259" y="74.456557" style="fill: none; stroke: #000000"/>
    </g>
    <g clip-path="url(#p54e0ed6c16)">
     <use xlink:href="#C0_0_6f95608f62" x="76.216365" y="71.544707" style="fill: none; stroke: #000000"/>
    </g>
    <g clip-path="url(#p54e0ed6c16)">
     <use xlink:href="#C0_0_6f95608f62" x="67.958472" y="68.880072" style="fill: none; stroke: #000000"/>
    </g>
   </g>
   <g id="matplotlib.axis_1">
    <g id="xtick_1">
     <g id="line2d_1">
      <defs>
       <path id="m3338e774c1" d="M 0 0 
L 0 3.5 
" style="stroke: #000000; stroke-width: 0.8"/>
      </defs>
      <g>
       <use xlink:href="#m3338e774c1" x="67.958472" y="298.888" style="stroke: #000000; stroke-width: 0.8"/>
      </g>
     </g>
     <g id="text_1">
      <!-- $\mathdefault{10^{0}}$ -->
      <g transform="translate(59.158472 313.486437) scale(0.1 -0.1)">
       <defs>
        <path id="DejaVuSans-31" d="M 794 531 
L 1825 531 
L 1825 4091 
L 703 3866 
L 703 4441 
L 1819 4666 
L 2450 4666 
L 2450 531 
L 3481 531 
L 3481 0 
L 794 0 
L 794 531 
z
" transform="scale(0.015625)"/>
        <path id="DejaVuSans-30" d="M 2034 4250 
Q 1547 4250 1301 3770 
Q 1056 3291 1056 2328 
Q 1056 1369 1301 889 
Q 1547 409 2034 409 
Q 2525 409 2770 889 
Q 3016 1369 3016 2328 
Q 3016 3291 2770 3770 
Q 2525 4250 2034 4250 
z
M 2034 4750 
Q 2819 4750 3233 4129 
Q 3647 3509 3647 2328 
Q 3647 1150 3233 529 
Q 2819 -91 2034 -91 
Q 1250 -91 836 529 
Q 422 1150 422 2328 
Q 422 3509 836 4129 
Q 1250 4750 2034 4750 
z
" transform="scale(0.015625)"/>
       </defs>
       <use xlink:href="#DejaVuSans-31" transform="translate(0 0.765625)"/>
       <use xlink:href="#DejaVuSans-30" transform="translate(63.623047 0.765625)"/>
       <use xlink:href="#DejaVuSans-30" transform="translate(128.203125 39.046875) scale(0.7)"/>
      </g>
     </g>
    </g>
    <g id="xtick_2">
     <g id="line2d_2">
      <g>
       <use xlink:href="#m3338e774c1" x="150.537407" y="298.888" style="stroke: #000000; stroke-width: 0.8"/>
      </g>
     </g>
     <g id="text_2">
      <!-- $\mathdefault{10^{1}}$ -->
      <g transform="translate(141.737407 313.486437) scale(0.1 -0.1)">
       <use xlink:href="#DejaVuSans-31" transform="translate(0 0.684375)"/>
       <use xlink:href="#DejaVuSans-30" transform="translate(63.623047 0.684375)"/>
       <use xlink:href="#DejaVuSans-31" transform="translate(128.203125 38.965625) scale(0.7)"/>
      </g>
     </g>
    </g>
    <g id="xtick_3">
     <g id="line2d_3">
      <g>
       <use xlink:href="#m3338e774c1" x="233.116342" y="298.888" style="stroke: #000000; stroke-width: 0.8"/>
      </g>
     </g>
     <g id="text_3">
      <!-- $\mathdefault{10^{2}}$ -->
      <g transform="translate(224.316342 313.486437) scale(0.1 -0.1)">
       <defs>
        <path id="DejaVuSans-32" d="M 1228 531 
L 3431 531 
L 3431 0 
L 469 0 
L 469 531 
Q 828 903 1448 1529 
Q 2069 2156 2228 2338 
Q 2531 2678 2651 2914 
Q 2772 3150 2772 3378 
Q 2772 3750 2511 3984 
Q 2250 4219 1831 4219 
Q 1534 4219 1204 4116 
Q 875 4013 500 3803 
L 500 4441 
Q 881 4594 1212 4672 
Q 1544 4750 1819 4750 
Q 2544 4750 2975 4387 
Q 3406 4025 3406 3419 
Q 3406 3131 3298 2873 
Q 3191 2616 2906 2266 
Q 2828 2175 2409 1742 
Q 1991 1309 1228 531 
z
" transform="scale(0.015625)"/>
       </defs>
       <use xlink:href="#DejaVuSans-31" transform="translate(0 0.765625)"/>
       <use xlink:href="#DejaVuSans-30" transform="translate(63.623047 0.765625)"/>
       <use xlink:href="#DejaVuSans-32" transform="translate(128.203125 39.046875) scale(0.7)"/>
      </g>
     </g>
    </g>
    <g id="xtick_4">
     <g id="line2d_4">
      <g>
       <use xlink:href="#m3338e774c1" x="315.695278" y="298.888" style="stroke: #000000; stroke-width: 0.8"/>
      </g>
     </g>
     <g id="text_4">
      <!-- $\mathdefault{10^{3}}$ -->
      <g transform="translate(306.895278 313.486437) scale(0.1 -0.1)">
       <defs>
        <path id="DejaVuSans-33" d="M 2597 2516 
Q 3050 2419 3304 2112 
Q 3559 1806 3559 1356 
Q 3559 666 3084 287 
Q 2609 -91 1734 -91 
Q 1441 -91 1130 -33 
Q 819 25 488 141 
L 488 750 
Q 750 597 1062 519 
Q 1375 441 1716 441 
Q 2309 441 2620 675 
Q 2931 909 2931 1356 
Q 2931 1769 2642 2001 
Q 2353 2234 1838 2234 
L 1294 2234 
L 1294 2753 
L 1863 2753 
Q 2328 2753 2575 2939 
Q 2822 3125 2822 3475 
Q 2822 3834 2567 4026 
Q 2313 4219 1838 4219 
Q 1578 4219 1281 4162 
Q 984 4106 628 3988 
L 628 4550 
Q 988 4650 1302 4700 
Q 1616 4750 1894 4750 
Q 2613 4750 3031 4423 
Q 3450 4097 3450 3541 
Q 3450 3153 3228 2886 
Q 3006 2619 2597 2516 
z
" transform="scale(0.015625)"/>
       </defs>
       <use xlink:href="#DejaVuSans-31" transform="translate(0 0.765625)"/>
       <use xlink:href="#DejaVuSans-30" transform="translate(63.623047 0.765625)"/>
       <use xlink:href="#DejaVuSans-33" transform="translate(128.203125 39.046875) scale(0.7)"/>
      </g>
     </g>
    </g>
    <g id="xtick_5">
     <g id="line2d_5">
      <g>
       <use xlink:href="#m3338e774c1" x="398.274213" y="298.888" style="stroke: #000000; stroke-width: 0.8"/>
      </g>
     </g>
     <g id="text_5">
      <!-- $\mathdefault{10^{4}}$ -->
      <g transform="translate(389.474213 313.486437) scale(0.1 -0.1)">
       <defs>
        <path id="DejaVuSans-34" d="M 2419 4116 
L 825 1625 
L 2419 1625 
L 2419 4116 
z
M 2253 4666 
L 3047 4666 
L 3047 1625 
L 3713 1625 
L 3713 1100 
L 3047 1100 
L 3047 0 
L 2419 0 
L 2419 1100 
L 313 1100 
L 313 1709 
L 2253 4666 
z
" transform="scale(0.015625)"/>
       </defs>
       <use xlink:href="#DejaVuSans-31" transform="translate(0 0.684375)"/>
       <use xlink:href="#DejaVuSans-30" transform="translate(63.623047 0.684375)"/>
       <use xlink:href="#DejaVuSans-34" transform="translate(128.203125 38.965625) scale(0.7)"/>
      </g>
     </g>
    </g>
    <g id="xtick_6">
     <g id="line2d_6">
      <defs>
       <path id="mb63ac75a29" d="M 0 0 
L 0 2 
" style="stroke: #000000; stroke-width: 0.6"/>
      </defs>
      <g>
       <use xlink:href="#mb63ac75a29" x="55.166833" y="298.888" style="stroke: #000000; stroke-width: 0.6"/>
      </g>
     </g>
    </g>
    <g id="xtick_7">
     <g id="line2d_7">
      <g>
       <use xlink:href="#mb63ac75a29" x="59.955746" y="298.888" style="stroke: #000000; stroke-width: 0.6"/>
      </g>
     </g>
    </g>
    <g id="xtick_8">
     <g id="line2d_8">
      <g>
       <use xlink:href="#mb63ac75a29" x="64.179867" y="298.888" style="stroke: #000000; stroke-width: 0.6"/>
      </g>
     </g>
    </g>
    <g id="xtick_9">
     <g id="line2d_9">
      <g>
       <use xlink:href="#mb63ac75a29" x="92.817208" y="298.888" style="stroke: #000000; stroke-width: 0.6"/>
      </g>
     </g>
    </g>
    <g id="xtick_10">
     <g id="line2d_10">
      <g>
       <use xlink:href="#mb63ac75a29" x="107.358637" y="298.888" style="stroke: #000000; stroke-width: 0.6"/>
      </g>
     </g>
    </g>
    <g id="xtick_11">
     <g id="line2d_11">
      <g>
       <use xlink:href="#mb63ac75a29" x="117.675945" y="298.888" style="stroke: #000000; stroke-width: 0.6"/>
      </g>
     </g>
    </g>
    <g id="xtick_12">
     <g id="line2d_12">
      <g>
       <use xlink:href="#mb63ac75a29" x="125.678671" y="298.888" style="stroke: #000000; stroke-width: 0.6"/>
      </g>
     </g>
    </g>
    <g id="xtick_13">
     <g id="line2d_13">
      <g>
       <use xlink:href="#mb63ac75a29" x="132.217374" y="298.888" style="stroke: #000000; stroke-width: 0.6"/>
      </g>
     </g>
    </g>
    <g id="xtick_14">
     <g id="line2d_14">
      <g>
       <use xlink:href="#mb63ac75a29" x="137.745768" y="298.888" style="stroke: #000000; stroke-width: 0.6"/>
      </g>
     </g>
    </g>
    <g id="xtick_15">
     <g id="line2d_15">
      <g>
       <use xlink:href="#mb63ac75a29" x="142.534681" y="298.888" style="stroke: #000000; stroke-width: 0.6"/>
      </g>
     </g>
    </g>
    <g id="xtick_16">
     <g id="line2d_16">
      <g>
       <use xlink:href="#mb63ac75a29" x="146.758802" y="298.888" style="stroke: #000000; stroke-width: 0.6"/>
      </g>
     </g>
    </g>
    <g id="xtick_17">
     <g id="line2d_17">
      <g>
       <use xlink:href="#mb63ac75a29" x="175.396144" y="298.888" style="stroke: #000000; stroke-width: 0.6"/>
      </g>
     </g>
    </g>
    <g id="xtick_18">
     <g id="line2d_18">
      <g>
       <use xlink:href="#mb63ac75a29" x="189.937572" y="298.888" style="stroke: #000000; stroke-width: 0.6"/>
      </g>
     </g>
    </g>
    <g id="xtick_19">
     <g id="line2d_19">
      <g>
       <use xlink:href="#mb63ac75a29" x="200.25488" y="298.888" style="stroke: #000000; stroke-width: 0.6"/>
      </g>
     </g>
    </g>
    <g id="xtick_20">
     <g id="line2d_20">
      <g>
       <use xlink:href="#mb63ac75a29" x="208.257606" y="298.888" style="stroke: #000000; stroke-width: 0.6"/>
      </g>
     </g>
    </g>
    <g id="xtick_21">
     <g id="line2d_21">
      <g>
       <use xlink:href="#mb63ac75a29" x="214.796309" y="298.888" style="stroke: #000000; stroke-width: 0.6"/>
      </g>
     </g>
    </g>
    <g id="xtick_22">
     <g id="line2d_22">
      <g>
       <use xlink:href="#mb63ac75a29" x="220.324703" y="298.888" style="stroke: #000000; stroke-width: 0.6"/>
      </g>
     </g>
    </g>
    <g id="xtick_23">
     <g id="line2d_23">
      <g>
       <use xlink:href="#mb63ac75a29" x="225.113617" y="298.888" style="stroke: #000000; stroke-width: 0.6"/>
      </g>
     </g>
    </g>
    <g id="xtick_24">
     <g id="line2d_24">
      <g>
       <use xlink:href="#mb63ac75a29" x="229.337738" y="298.888" style="stroke: #000000; stroke-width: 0.6"/>
      </g>
     </g>
    </g>
    <g id="xtick_25">
     <g id="line2d_25">
      <g>
       <use xlink:href="#mb63ac75a29" x="257.975079" y="298.888" style="stroke: #000000; stroke-width: 0.6"/>
      </g>
     </g>
    </g>
    <g id="xtick_26">
     <g id="line2d_26">
      <g>
       <use xlink:href="#mb63ac75a29" x="272.516508" y="298.888" style="stroke: #000000; stroke-width: 0.6"/>
      </g>
     </g>
    </g>
    <g id="xtick_27">
     <g id="line2d_27">
      <g>
       <use xlink:href="#mb63ac75a29" x="282.833815" y="298.888" style="stroke: #000000; stroke-width: 0.6"/>
      </g>
     </g>
    </g>
    <g id="xtick_28">
     <g id="line2d_28">
      <g>
       <use xlink:href="#mb63ac75a29" x="290.836541" y="298.888" style="stroke: #000000; stroke-width: 0.6"/>
      </g>
     </g>
    </g>
    <g id="xtick_29">
     <g id="line2d_29">
      <g>
       <use xlink:href="#mb63ac75a29" x="297.375244" y="298.888" style="stroke: #000000; stroke-width: 0.6"/>
      </g>
     </g>
    </g>
    <g id="xtick_30">
     <g id="line2d_30">
      <g>
       <use xlink:href="#mb63ac75a29" x="302.903639" y="298.888" style="stroke: #000000; stroke-width: 0.6"/>
      </g>
     </g>
    </g>
    <g id="xtick_31">
     <g id="line2d_31">
      <g>
       <use xlink:href="#mb63ac75a29" x="307.692552" y="298.888" style="stroke: #000000; stroke-width: 0.6"/>
      </g>
     </g>
    </g>
    <g id="xtick_32">
     <g id="line2d_32">
      <g>
       <use xlink:href="#mb63ac75a29" x="311.916673" y="298.888" style="stroke: #000000; stroke-width: 0.6"/>
      </g>
     </g>
    </g>
    <g id="xtick_33">
     <g id="line2d_33">
      <g>
       <use xlink:href="#mb63ac75a29" x="340.554014" y="298.888" style="stroke: #000000; stroke-width: 0.6"/>
      </g>
     </g>
    </g>
    <g id="xtick_34">
     <g id="line2d_34">
      <g>
       <use xlink:href="#mb63ac75a29" x="355.095443" y="298.888" style="stroke: #000000; stroke-width: 0.6"/>
      </g>
     </g>
    </g>
    <g id="xtick_35">
     <g id="line2d_35">
      <g>
       <use xlink:href="#mb63ac75a29" x="365.412751" y="298.888" style="stroke: #000000; stroke-width: 0.6"/>
      </g>
     </g>
    </g>
    <g id="xtick_36">
     <g id="line2d_36">
      <g>
       <use xlink:href="#mb63ac75a29" x="373.415476" y="298.888" style="stroke: #000000; stroke-width: 0.6"/>
      </g>
     </g>
    </g>
    <g id="xtick_37">
     <g id="line2d_37">
      <g>
       <use xlink:href="#mb63ac75a29" x="379.954179" y="298.888" style="stroke: #000000; stroke-width: 0.6"/>
      </g>
     </g>
    </g>
    <g id="xtick_38">
     <g id="line2d_38">
      <g>
       <use xlink:href="#mb63ac75a29" x="385.482574" y="298.888" style="stroke: #000000; stroke-width: 0.6"/>
      </g>
     </g>
    </g>
    <g id="xtick_39">
     <g id="line2d_39">
      <g>
       <use xlink:href="#mb63ac75a29" x="390.271487" y="298.888" style="stroke: #000000; stroke-width: 0.6"/>
      </g>
     </g>
    </g>
    <g id="xtick_40">
     <g id="line2d_40">
      <g>
       <use xlink:href="#mb63ac75a29" x="394.495608" y="298.888" style="stroke: #000000; stroke-width: 0.6"/>
      </g>
     </g>
    </g>
    <g id="text_6">
     <!-- $f$ (Hz) -->
     <g transform="translate(219.466342 327.164562) scale(0.1 -0.1)">
      <defs>
       <path id="DejaVuSans-Oblique-66" d="M 3059 4863 
L 2969 4384 
L 2419 4384 
Q 2106 4384 1964 4261 
Q 1822 4138 1753 3809 
L 1691 3500 
L 2638 3500 
L 2553 3053 
L 1606 3053 
L 1013 0 
L 434 0 
L 1031 3053 
L 481 3053 
L 563 3500 
L 1113 3500 
L 1159 3744 
Q 1278 4363 1576 4613 
Q 1875 4863 2516 4863 
L 3059 4863 
z
" transform="scale(0.015625)"/>
       <path id="DejaVuSans-20" transform="scale(0.015625)"/>
       <path id="DejaVuSans-28" d="M 1984 4856 
Q 1566 4138 1362 3434 
Q 1159 2731 1159 2009 
Q 1159 1288 1364 580 
Q 1569 -128 1984 -844 
L 1484 -844 
Q 1016 -109 783 600 
Q 550 1309 550 2009 
Q 550 2706 781 3412 
Q 1013 4119 1484 4856 
L 1984 4856 
z
" transform="scale(0.015625)"/>
       <path id="DejaVuSans-48" d="M 628 4666 
L 1259 4666 
L 1259 2753 
L 3553 2753 
L 3553 4666 
L 4184 4666 
L 4184 0 
L 3553 0 
L 3553 2222 
L 1259 2222 
L 1259 0 
L 628 0 
L 628 4666 
z
" transform="scale(0.015625)"/>
       <path id="DejaVuSans-7a" d="M 353 3500 
L 3084 3500 
L 3084 2975 
L 922 459 
L 3084 459 
L 3084 0 
L 275 0 
L 275 525 
L 2438 3041 
L 353 3041 
L 353 3500 
z
" transform="scale(0.015625)"/>
       <path id="DejaVuSans-29" d="M 513 4856 
L 1013 4856 
Q 1481 4119 1714 3412 
Q 1947 2706 1947 2009 
Q 1947 1309 1714 600 
Q 1481 -109 1013 -844 
L 513 -844 
Q 928 -128 1133 580 
Q 1338 1288 1338 2009 
Q 1338 2731 1133 3434 
Q 928 4138 513 4856 
z
" transform="scale(0.015625)"/>
      </defs>
      <use xlink:href="#DejaVuSans-Oblique-66" transform="translate(0 0.015625)"/>
      <use xlink:href="#DejaVuSans-20" transform="translate(35.205078 0.015625)"/>
      <use xlink:href="#DejaVuSans-28" transform="translate(66.992188 0.015625)"/>
      <use xlink:href="#DejaVuSans-48" transform="translate(106.005859 0.015625)"/>
      <use xlink:href="#DejaVuSans-7a" transform="translate(181.201172 0.015625)"/>
      <use xlink:href="#DejaVuSans-29" transform="translate(233.691406 0.015625)"/>
     </g>
    </g>
   </g>
   <g id="matplotlib.axis_2">
    <g id="ytick_1">
     <g id="line2d_41">
      <defs>
       <path id="mbb5bc57a56" d="M 0 0 
L -3.5 0 
" style="stroke: #000000; stroke-width: 0.8"/>
      </defs>
      <g>
       <use xlink:href="#mbb5bc57a56" x="51.442685" y="298.888" style="stroke: #000000; stroke-width: 0.8"/>
      </g>
     </g>
     <g id="text_7">
      <!-- $\mathdefault{10^{2}}$ -->
      <g transform="translate(26.842685 302.687219) scale(0.1 -0.1)">
       <use xlink:href="#DejaVuSans-31" transform="translate(0 0.765625)"/>
       <use xlink:href="#DejaVuSans-30" transform="translate(63.623047 0.765625)"/>
       <use xlink:href="#DejaVuSans-32" transform="translate(128.203125 39.046875) scale(0.7)"/>
      </g>
     </g>
    </g>
    <g id="ytick_2">
     <g id="line2d_42">
      <g>
       <use xlink:href="#mbb5bc57a56" x="51.442685" y="16.416" style="stroke: #000000; stroke-width: 0.8"/>
      </g>
     </g>
     <g id="text_8">
      <!-- $\mathdefault{10^{3}}$ -->
      <g transform="translate(26.842685 20.215219) scale(0.1 -0.1)">
       <use xlink:href="#DejaVuSans-31" transform="translate(0 0.765625)"/>
       <use xlink:href="#DejaVuSans-30" transform="translate(63.623047 0.765625)"/>
       <use xlink:href="#DejaVuSans-33" transform="translate(128.203125 39.046875) scale(0.7)"/>
      </g>
     </g>
    </g>
    <g id="ytick_3">
     <g id="line2d_43">
      <defs>
       <path id="mc07d056bb7" d="M 0 0 
L -2 0 
" style="stroke: #000000; stroke-width: 0.6"/>
      </defs>
      <g>
       <use xlink:href="#mc07d056bb7" x="51.442685" y="213.855455" style="stroke: #000000; stroke-width: 0.6"/>
      </g>
     </g>
    </g>
    <g id="ytick_4">
     <g id="line2d_44">
      <g>
       <use xlink:href="#mc07d056bb7" x="51.442685" y="164.114605" style="stroke: #000000; stroke-width: 0.6"/>
      </g>
     </g>
    </g>
    <g id="ytick_5">
     <g id="line2d_45">
      <g>
       <use xlink:href="#mc07d056bb7" x="51.442685" y="128.82291" style="stroke: #000000; stroke-width: 0.6"/>
      </g>
     </g>
    </g>
    <g id="ytick_6">
     <g id="line2d_46">
      <g>
       <use xlink:href="#mc07d056bb7" x="51.442685" y="101.448545" style="stroke: #000000; stroke-width: 0.6"/>
      </g>
     </g>
    </g>
    <g id="ytick_7">
     <g id="line2d_47">
      <g>
       <use xlink:href="#mc07d056bb7" x="51.442685" y="79.08206" style="stroke: #000000; stroke-width: 0.6"/>
      </g>
     </g>
    </g>
    <g id="ytick_8">
     <g id="line2d_48">
      <g>
       <use xlink:href="#mc07d056bb7" x="51.442685" y="60.171466" style="stroke: #000000; stroke-width: 0.6"/>
      </g>
     </g>
    </g>
    <g id="ytick_9">
     <g id="line2d_49">
      <g>
       <use xlink:href="#mc07d056bb7" x="51.442685" y="43.790365" style="stroke: #000000; stroke-width: 0.6"/>
      </g>
     </g>
    </g>
    <g id="ytick_10">
     <g id="line2d_50">
      <g>
       <use xlink:href="#mc07d056bb7" x="51.442685" y="29.34121" style="stroke: #000000; stroke-width: 0.6"/>
      </g>
     </g>
    </g>
    <g id="text_9">
     <!-- Mod($Z$) ($\Omega$) -->
     <g transform="translate(20.762997 184.852) rotate(-90) scale(0.1 -0.1)">
      <defs>
       <path id="DejaVuSans-4d" d="M 628 4666 
L 1569 4666 
L 2759 1491 
L 3956 4666 
L 4897 4666 
L 4897 0 
L 4281 0 
L 4281 4097 
L 3078 897 
L 2444 897 
L 1241 4097 
L 1241 0 
L 628 0 
L 628 4666 
z
" transform="scale(0.015625)"/>
       <path id="DejaVuSans-6f" d="M 1959 3097 
Q 1497 3097 1228 2736 
Q 959 2375 959 1747 
Q 959 1119 1226 758 
Q 1494 397 1959 397 
Q 2419 397 2687 759 
Q 2956 1122 2956 1747 
Q 2956 2369 2687 2733 
Q 2419 3097 1959 3097 
z
M 1959 3584 
Q 2709 3584 3137 3096 
Q 3566 2609 3566 1747 
Q 3566 888 3137 398 
Q 2709 -91 1959 -91 
Q 1206 -91 779 398 
Q 353 888 353 1747 
Q 353 2609 779 3096 
Q 1206 3584 1959 3584 
z
" transform="scale(0.015625)"/>
       <path id="DejaVuSans-64" d="M 2906 2969 
L 2906 4863 
L 3481 4863 
L 3481 0 
L 2906 0 
L 2906 525 
Q 2725 213 2448 61 
Q 2172 -91 1784 -91 
Q 1150 -91 751 415 
Q 353 922 353 1747 
Q 353 2572 751 3078 
Q 1150 3584 1784 3584 
Q 2172 3584 2448 3432 
Q 2725 3281 2906 2969 
z
M 947 1747 
Q 947 1113 1208 752 
Q 1469 391 1925 391 
Q 2381 391 2643 752 
Q 2906 1113 2906 1747 
Q 2906 2381 2643 2742 
Q 2381 3103 1925 3103 
Q 1469 3103 1208 2742 
Q 947 2381 947 1747 
z
" transform="scale(0.015625)"/>
       <path id="DejaVuSans-Oblique-5a" d="M 838 4666 
L 4500 4666 
L 4409 4184 
L 794 531 
L 3769 531 
L 3669 0 
L -141 0 
L -50 481 
L 3566 4134 
L 738 4134 
L 838 4666 
z
" transform="scale(0.015625)"/>
       <path id="DejaVuSans-3a9" d="M 4647 556 
L 4647 0 
L 2772 0 
L 2772 556 
Q 3325 859 3634 1378 
Q 3944 1897 3944 2528 
Q 3944 3278 3531 3731 
Q 3119 4184 2444 4184 
Q 1769 4184 1355 3729 
Q 941 3275 941 2528 
Q 941 1897 1250 1378 
Q 1563 859 2119 556 
L 2119 0 
L 244 0 
L 244 556 
L 1241 556 
Q 747 991 519 1456 
Q 294 1922 294 2497 
Q 294 3491 894 4106 
Q 1491 4722 2444 4722 
Q 3391 4722 3994 4106 
Q 4594 3494 4594 2528 
Q 4594 1922 4372 1459 
Q 4150 997 3647 556 
L 4647 556 
z
" transform="scale(0.015625)"/>
      </defs>
      <use xlink:href="#DejaVuSans-4d" transform="translate(0 0.015625)"/>
      <use xlink:href="#DejaVuSans-6f" transform="translate(86.279297 0.015625)"/>
      <use xlink:href="#DejaVuSans-64" transform="translate(147.460938 0.015625)"/>
      <use xlink:href="#DejaVuSans-28" transform="translate(210.9375 0.015625)"/>
      <use xlink:href="#DejaVuSans-Oblique-5a" transform="translate(249.951172 0.015625)"/>
      <use xlink:href="#DejaVuSans-29" transform="translate(318.457031 0.015625)"/>
      <use xlink:href="#DejaVuSans-20" transform="translate(357.470703 0.015625)"/>
      <use xlink:href="#DejaVuSans-28" transform="translate(389.257812 0.015625)"/>
      <use xlink:href="#DejaVuSans-3a9" transform="translate(428.271484 0.015625)"/>
      <use xlink:href="#DejaVuSans-29" transform="translate(504.6875 0.015625)"/>
     </g>
    </g>
   </g>
   <g id="line2d_51">
    <path d="M 398.274213 284.791294 
L 394.145266 283.014353 
L 390.016319 280.990547 
L 385.887373 278.688268 
L 382.584215 276.619366 
L 379.281058 274.322634 
L 375.9779 271.77159 
L 372.674743 268.939246 
L 369.371586 265.800632 
L 366.068428 262.3358 
L 362.765271 258.532866 
L 359.462113 254.390602 
L 356.158956 249.920096 
L 352.030009 243.907819 
L 347.901062 237.492856 
L 342.946326 229.397871 
L 332.211065 211.257671 
L 325.60475 200.37136 
L 320.650014 192.655576 
L 316.521067 186.636678 
L 312.39212 181.060016 
L 309.088963 176.947204 
L 305.785805 173.158274 
L 302.482648 169.696601 
L 299.179491 166.556829 
L 295.876333 163.725715 
L 292.573176 161.183388 
L 289.270018 158.904895 
L 285.966861 156.861893 
L 281.837914 154.593489 
L 277.708967 152.58744 
L 272.754231 150.449302 
L 266.973706 148.222619 
L 259.541602 145.628859 
L 248.80634 142.148918 
L 225.684238 134.704835 
L 215.774766 131.24308 
L 206.691083 127.835646 
L 197.6074 124.19324 
L 187.697928 119.977279 
L 176.136877 114.81446 
L 160.446879 107.54643 
L 120.80899 89.023933 
L 110.899518 84.783005 
L 99.338467 80.095575 
L 86.951627 75.319094 
L 78.693733 72.342352 
L 72.087419 70.168394 
L 67.958472 68.93473 
L 67.958472 68.93473 
" clip-path="url(#p54e0ed6c16)" style="fill: none; stroke: #0077bb; stroke-width: 1.5; stroke-linecap: square"/>
   </g>
   <g id="patch_3">
    <path d="M 51.442685 298.888 
L 51.442685 16.416 
" style="fill: none; stroke: #000000; stroke-width: 0.8; stroke-linejoin: miter; stroke-linecap: square"/>
   </g>
   <g id="patch_4">
    <path d="M 414.79 298.888 
L 414.79 16.416 
" style="fill: none; stroke: #000000; stroke-width: 0.8; stroke-linejoin: miter; stroke-linecap: square"/>
   </g>
   <g id="patch_5">
    <path d="M 51.442685 298.888 
L 414.79 298.888 
" style="fill: none; stroke: #000000; stroke-width: 0.8; stroke-linejoin: miter; stroke-linecap: square"/>
   </g>
   <g id="patch_6">
    <path d="M 51.442685 16.416 
L 414.79 16.416 
" style="fill: none; stroke: #000000; stroke-width: 0.8; stroke-linejoin: miter; stroke-linecap: square"/>
   </g>
  </g>
  <g id="axes_2">
   <g id="PathCollection_2">
    <defs>
     <path id="C1_0_caaa20e801" d="M -3 3 
L 3 3 
L 3 -3 
L -3 -3 
z
"/>
    </defs>
    <g clip-path="url(#p54e0ed6c16)">
     <use xlink:href="#C1_0_caaa20e801" x="398.274213" y="223.374687" style="fill: none; stroke: #000000"/>
    </g>
    <g clip-path="url(#p54e0ed6c16)">
     <use xlink:href="#C1_0_caaa20e801" x="390.016319" y="195.509879" style="fill: none; stroke: #000000"/>
    </g>
    <g clip-path="url(#p54e0ed6c16)">
     <use xlink:href="#C1_0_caaa20e801" x="381.758426" y="164.572982" style="fill: none; stroke: #000000"/>
    </g>
    <g clip-path="url(#p54e0ed6c16)">
     <use xlink:href="#C1_0_caaa20e801" x="373.500532" y="131.276839" style="fill: none; stroke: #000000"/>
    </g>
    <g clip-path="url(#p54e0ed6c16)">
     <use xlink:href="#C1_0_caaa20e801" x="365.242639" y="98.180264" style="fill: none; stroke: #000000"/>
    </g>
    <g clip-path="url(#p54e0ed6c16)">
     <use xlink:href="#C1_0_caaa20e801" x="356.984745" y="68.131878" style="fill: none; stroke: #000000"/>
    </g>
    <g clip-path="url(#p54e0ed6c16)">
     <use xlink:href="#C1_0_caaa20e801" x="348.726852" y="45.298513" style="fill: none; stroke: #000000"/>
    </g>
    <g clip-path="url(#p54e0ed6c16)">
     <use xlink:href="#C1_0_caaa20e801" x="340.468958" y="31.430706" style="fill: none; stroke: #000000"/>
    </g>
    <g clip-path="url(#p54e0ed6c16)">
     <use xlink:href="#C1_0_caaa20e801" x="332.211065" y="29.255636" style="fill: none; stroke: #000000"/>
    </g>
    <g clip-path="url(#p54e0ed6c16)">
     <use xlink:href="#C1_0_caaa20e801" x="323.953171" y="40.87233" style="fill: none; stroke: #000000"/>
    </g>
    <g clip-path="url(#p54e0ed6c16)">
     <use xlink:href="#C1_0_caaa20e801" x="315.695278" y="61.743377" style="fill: none; stroke: #000000"/>
    </g>
    <g clip-path="url(#p54e0ed6c16)">
     <use xlink:href="#C1_0_caaa20e801" x="307.437384" y="89.618455" style="fill: none; stroke: #000000"/>
    </g>
    <g clip-path="url(#p54e0ed6c16)">
     <use xlink:href="#C1_0_caaa20e801" x="299.179491" y="120.677388" style="fill: none; stroke: #000000"/>
    </g>
    <g clip-path="url(#p54e0ed6c16)">
     <use xlink:href="#C1_0_caaa20e801" x="290.921597" y="150.296118" style="fill: none; stroke: #000000"/>
    </g>
    <g clip-path="url(#p54e0ed6c16)">
     <use xlink:href="#C1_0_caaa20e801" x="282.663704" y="176.825666" style="fill: none; stroke: #000000"/>
    </g>
    <g clip-path="url(#p54e0ed6c16)">
     <use xlink:href="#C1_0_caaa20e801" x="274.40581" y="198.562034" style="fill: none; stroke: #000000"/>
    </g>
    <g clip-path="url(#p54e0ed6c16)">
     <use xlink:href="#C1_0_caaa20e801" x="266.147916" y="216.226355" style="fill: none; stroke: #000000"/>
    </g>
    <g clip-path="url(#p54e0ed6c16)">
     <use xlink:href="#C1_0_caaa20e801" x="257.890023" y="229.742628" style="fill: none; stroke: #000000"/>
    </g>
    <g clip-path="url(#p54e0ed6c16)">
     <use xlink:href="#C1_0_caaa20e801" x="249.632129" y="239.319315" style="fill: none; stroke: #000000"/>
    </g>
    <g clip-path="url(#p54e0ed6c16)">
     <use xlink:href="#C1_0_caaa20e801" x="241.374236" y="245.185132" style="fill: none; stroke: #000000"/>
    </g>
    <g clip-path="url(#p54e0ed6c16)">
     <use xlink:href="#C1_0_caaa20e801" x="233.116342" y="249.294614" style="fill: none; stroke: #000000"/>
    </g>
    <g clip-path="url(#p54e0ed6c16)">
     <use xlink:href="#C1_0_caaa20e801" x="224.858449" y="250.825036" style="fill: none; stroke: #000000"/>
    </g>
    <g clip-path="url(#p54e0ed6c16)">
     <use xlink:href="#C1_0_caaa20e801" x="216.600555" y="251.31248" style="fill: none; stroke: #000000"/>
    </g>
    <g clip-path="url(#p54e0ed6c16)">
     <use xlink:href="#C1_0_caaa20e801" x="208.342662" y="251.358598" style="fill: none; stroke: #000000"/>
    </g>
    <g clip-path="url(#p54e0ed6c16)">
     <use xlink:href="#C1_0_caaa20e801" x="200.084768" y="250.503275" style="fill: none; stroke: #000000"/>
    </g>
    <g clip-path="url(#p54e0ed6c16)">
     <use xlink:href="#C1_0_caaa20e801" x="191.826875" y="248.762413" style="fill: none; stroke: #000000"/>
    </g>
    <g clip-path="url(#p54e0ed6c16)">
     <use xlink:href="#C1_0_caaa20e801" x="183.568981" y="247.676454" style="fill: none; stroke: #000000"/>
    </g>
    <g clip-path="url(#p54e0ed6c16)">
     <use xlink:href="#C1_0_caaa20e801" x="175.311088" y="246.473385" style="fill: none; stroke: #000000"/>
    </g>
    <g clip-path="url(#p54e0ed6c16)">
     <use xlink:href="#C1_0_caaa20e801" x="167.053194" y="245.421565" style="fill: none; stroke: #000000"/>
    </g>
    <g clip-path="url(#p54e0ed6c16)">
     <use xlink:href="#C1_0_caaa20e801" x="158.795301" y="245.624733" style="fill: none; stroke: #000000"/>
    </g>
    <g clip-path="url(#p54e0ed6c16)">
     <use xlink:href="#C1_0_caaa20e801" x="150.537407" y="246.498085" style="fill: none; stroke: #000000"/>
    </g>
    <g clip-path="url(#p54e0ed6c16)">
     <use xlink:href="#C1_0_caaa20e801" x="142.279514" y="247.417152" style="fill: none; stroke: #000000"/>
    </g>
    <g clip-path="url(#p54e0ed6c16)">
     <use xlink:href="#C1_0_caaa20e801" x="134.02162" y="249.773973" style="fill: none; stroke: #000000"/>
    </g>
    <g clip-path="url(#p54e0ed6c16)">
     <use xlink:href="#C1_0_caaa20e801" x="125.763727" y="251.135059" style="fill: none; stroke: #000000"/>
    </g>
    <g clip-path="url(#p54e0ed6c16)">
     <use xlink:href="#C1_0_caaa20e801" x="117.505833" y="255.685281" style="fill: none; stroke: #000000"/>
    </g>
    <g clip-path="url(#p54e0ed6c16)">
     <use xlink:href="#C1_0_caaa20e801" x="109.247939" y="259.342202" style="fill: none; stroke: #000000"/>
    </g>
    <g clip-path="url(#p54e0ed6c16)">
     <use xlink:href="#C1_0_caaa20e801" x="100.990046" y="263.832312" style="fill: none; stroke: #000000"/>
    </g>
    <g clip-path="url(#p54e0ed6c16)">
     <use xlink:href="#C1_0_caaa20e801" x="92.732152" y="268.803832" style="fill: none; stroke: #000000"/>
    </g>
    <g clip-path="url(#p54e0ed6c16)">
     <use xlink:href="#C1_0_caaa20e801" x="84.474259" y="273.496331" style="fill: none; stroke: #000000"/>
    </g>
    <g clip-path="url(#p54e0ed6c16)">
     <use xlink:href="#C1_0_caaa20e801" x="76.216365" y="279.645106" style="fill: none; stroke: #000000"/>
    </g>
    <g clip-path="url(#p54e0ed6c16)">
     <use xlink:href="#C1_0_caaa20e801" x="67.958472" y="285.510065" style="fill: none; stroke: #000000"/>
    </g>
   </g>
   <g id="matplotlib.axis_3">
    <g id="ytick_11">
     <g id="line2d_52">
      <defs>
       <path id="m30de080fd2" d="M 0 0 
L 3.5 0 
" style="stroke: #000000; stroke-width: 0.8"/>
      </defs>
      <g>
       <use xlink:href="#m30de080fd2" x="414.79" y="263.490451" style="stroke: #000000; stroke-width: 0.8"/>
      </g>
     </g>
     <g id="text_10">
      <!-- 10 -->
      <g transform="translate(421.79 267.28967) scale(0.1 -0.1)">
       <use xlink:href="#DejaVuSans-31"/>
       <use xlink:href="#DejaVuSans-30" x="63.623047"/>
      </g>
     </g>
    </g>
    <g id="ytick_12">
     <g id="line2d_53">
      <g>
       <use xlink:href="#m30de080fd2" x="414.79" y="209.029524" style="stroke: #000000; stroke-width: 0.8"/>
      </g>
     </g>
     <g id="text_11">
      <!-- 15 -->
      <g transform="translate(421.79 212.828743) scale(0.1 -0.1)">
       <defs>
        <path id="DejaVuSans-35" d="M 691 4666 
L 3169 4666 
L 3169 4134 
L 1269 4134 
L 1269 2991 
Q 1406 3038 1543 3061 
Q 1681 3084 1819 3084 
Q 2600 3084 3056 2656 
Q 3513 2228 3513 1497 
Q 3513 744 3044 326 
Q 2575 -91 1722 -91 
Q 1428 -91 1123 -41 
Q 819 9 494 109 
L 494 744 
Q 775 591 1075 516 
Q 1375 441 1709 441 
Q 2250 441 2565 725 
Q 2881 1009 2881 1497 
Q 2881 1984 2565 2268 
Q 2250 2553 1709 2553 
Q 1456 2553 1204 2497 
Q 953 2441 691 2322 
L 691 4666 
z
" transform="scale(0.015625)"/>
       </defs>
       <use xlink:href="#DejaVuSans-31"/>
       <use xlink:href="#DejaVuSans-35" x="63.623047"/>
      </g>
     </g>
    </g>
    <g id="ytick_13">
     <g id="line2d_54">
      <g>
       <use xlink:href="#m30de080fd2" x="414.79" y="154.568597" style="stroke: #000000; stroke-width: 0.8"/>
      </g>
     </g>
     <g id="text_12">
      <!-- 20 -->
      <g transform="translate(421.79 158.367816) scale(0.1 -0.1)">
       <use xlink:href="#DejaVuSans-32"/>
       <use xlink:href="#DejaVuSans-30" x="63.623047"/>
      </g>
     </g>
    </g>
    <g id="ytick_14">
     <g id="line2d_55">
      <g>
       <use xlink:href="#m30de080fd2" x="414.79" y="100.107671" style="stroke: #000000; stroke-width: 0.8"/>
      </g>
     </g>
     <g id="text_13">
      <!-- 25 -->
      <g transform="translate(421.79 103.906889) scale(0.1 -0.1)">
       <use xlink:href="#DejaVuSans-32"/>
       <use xlink:href="#DejaVuSans-35" x="63.623047"/>
      </g>
     </g>
    </g>
    <g id="ytick_15">
     <g id="line2d_56">
      <g>
       <use xlink:href="#m30de080fd2" x="414.79" y="45.646744" style="stroke: #000000; stroke-width: 0.8"/>
      </g>
     </g>
     <g id="text_14">
      <!-- 30 -->
      <g transform="translate(421.79 49.445962) scale(0.1 -0.1)">
       <use xlink:href="#DejaVuSans-33"/>
       <use xlink:href="#DejaVuSans-30" x="63.623047"/>
      </g>
     </g>
    </g>
    <g id="text_15">
     <!-- $-$Phase($Z$) ($^\circ$) -->
     <g transform="translate(446.113438 193.352) rotate(-90) scale(0.1 -0.1)">
      <defs>
       <path id="DejaVuSans-2212" d="M 678 2272 
L 4684 2272 
L 4684 1741 
L 678 1741 
L 678 2272 
z
" transform="scale(0.015625)"/>
       <path id="DejaVuSans-50" d="M 1259 4147 
L 1259 2394 
L 2053 2394 
Q 2494 2394 2734 2622 
Q 2975 2850 2975 3272 
Q 2975 3691 2734 3919 
Q 2494 4147 2053 4147 
L 1259 4147 
z
M 628 4666 
L 2053 4666 
Q 2838 4666 3239 4311 
Q 3641 3956 3641 3272 
Q 3641 2581 3239 2228 
Q 2838 1875 2053 1875 
L 1259 1875 
L 1259 0 
L 628 0 
L 628 4666 
z
" transform="scale(0.015625)"/>
       <path id="DejaVuSans-68" d="M 3513 2113 
L 3513 0 
L 2938 0 
L 2938 2094 
Q 2938 2591 2744 2837 
Q 2550 3084 2163 3084 
Q 1697 3084 1428 2787 
Q 1159 2491 1159 1978 
L 1159 0 
L 581 0 
L 581 4863 
L 1159 4863 
L 1159 2956 
Q 1366 3272 1645 3428 
Q 1925 3584 2291 3584 
Q 2894 3584 3203 3211 
Q 3513 2838 3513 2113 
z
" transform="scale(0.015625)"/>
       <path id="DejaVuSans-61" d="M 2194 1759 
Q 1497 1759 1228 1600 
Q 959 1441 959 1056 
Q 959 750 1161 570 
Q 1363 391 1709 391 
Q 2188 391 2477 730 
Q 2766 1069 2766 1631 
L 2766 1759 
L 2194 1759 
z
M 3341 1997 
L 3341 0 
L 2766 0 
L 2766 531 
Q 2569 213 2275 61 
Q 1981 -91 1556 -91 
Q 1019 -91 701 211 
Q 384 513 384 1019 
Q 384 1609 779 1909 
Q 1175 2209 1959 2209 
L 2766 2209 
L 2766 2266 
Q 2766 2663 2505 2880 
Q 2244 3097 1772 3097 
Q 1472 3097 1187 3025 
Q 903 2953 641 2809 
L 641 3341 
Q 956 3463 1253 3523 
Q 1550 3584 1831 3584 
Q 2591 3584 2966 3190 
Q 3341 2797 3341 1997 
z
" transform="scale(0.015625)"/>
       <path id="DejaVuSans-73" d="M 2834 3397 
L 2834 2853 
Q 2591 2978 2328 3040 
Q 2066 3103 1784 3103 
Q 1356 3103 1142 2972 
Q 928 2841 928 2578 
Q 928 2378 1081 2264 
Q 1234 2150 1697 2047 
L 1894 2003 
Q 2506 1872 2764 1633 
Q 3022 1394 3022 966 
Q 3022 478 2636 193 
Q 2250 -91 1575 -91 
Q 1294 -91 989 -36 
Q 684 19 347 128 
L 347 722 
Q 666 556 975 473 
Q 1284 391 1588 391 
Q 1994 391 2212 530 
Q 2431 669 2431 922 
Q 2431 1156 2273 1281 
Q 2116 1406 1581 1522 
L 1381 1569 
Q 847 1681 609 1914 
Q 372 2147 372 2553 
Q 372 3047 722 3315 
Q 1072 3584 1716 3584 
Q 2034 3584 2315 3537 
Q 2597 3491 2834 3397 
z
" transform="scale(0.015625)"/>
       <path id="DejaVuSans-65" d="M 3597 1894 
L 3597 1613 
L 953 1613 
Q 991 1019 1311 708 
Q 1631 397 2203 397 
Q 2534 397 2845 478 
Q 3156 559 3463 722 
L 3463 178 
Q 3153 47 2828 -22 
Q 2503 -91 2169 -91 
Q 1331 -91 842 396 
Q 353 884 353 1716 
Q 353 2575 817 3079 
Q 1281 3584 2069 3584 
Q 2775 3584 3186 3129 
Q 3597 2675 3597 1894 
z
M 3022 2063 
Q 3016 2534 2758 2815 
Q 2500 3097 2075 3097 
Q 1594 3097 1305 2825 
Q 1016 2553 972 2059 
L 3022 2063 
z
" transform="scale(0.015625)"/>
       <path id="DejaVuSans-2218" d="M 2000 2619 
Q 1750 2619 1578 2445 
Q 1406 2272 1406 2022 
Q 1406 1775 1578 1605 
Q 1750 1435 2000 1435 
Q 2250 1435 2422 1605 
Q 2594 1775 2594 2022 
Q 2594 2269 2420 2444 
Q 2247 2619 2000 2619 
z
M 2000 3022 
Q 2200 3022 2384 2945 
Q 2569 2869 2703 2725 
Q 2847 2585 2919 2406 
Q 2991 2228 2991 2022 
Q 2991 1610 2702 1324 
Q 2413 1038 1994 1038 
Q 1572 1038 1290 1319 
Q 1009 1600 1009 2022 
Q 1009 2441 1296 2731 
Q 1584 3022 2000 3022 
z
" transform="scale(0.015625)"/>
      </defs>
      <use xlink:href="#DejaVuSans-2212" transform="translate(0 0.015625)"/>
      <use xlink:href="#DejaVuSans-50" transform="translate(83.789062 0.015625)"/>
      <use xlink:href="#DejaVuSans-68" transform="translate(144.091797 0.015625)"/>
      <use xlink:href="#DejaVuSans-61" transform="translate(207.470703 0.015625)"/>
      <use xlink:href="#DejaVuSans-73" transform="translate(268.75 0.015625)"/>
      <use xlink:href="#DejaVuSans-65" transform="translate(320.849609 0.015625)"/>
      <use xlink:href="#DejaVuSans-28" transform="translate(382.373047 0.015625)"/>
      <use xlink:href="#DejaVuSans-Oblique-5a" transform="translate(421.386719 0.015625)"/>
      <use xlink:href="#DejaVuSans-29" transform="translate(489.892578 0.015625)"/>
      <use xlink:href="#DejaVuSans-20" transform="translate(528.90625 0.015625)"/>
      <use xlink:href="#DejaVuSans-28" transform="translate(560.693359 0.015625)"/>
      <use xlink:href="#DejaVuSans-2218" transform="translate(614.301758 38.296875) scale(0.7)"/>
      <use xlink:href="#DejaVuSans-29" transform="translate(674.492188 0.015625)"/>
     </g>
    </g>
   </g>
   <g id="line2d_57">
    <path d="M 398.274213 222.499552 
L 394.145266 209.207493 
L 390.016319 195.161332 
L 385.887373 180.363415 
L 380.932637 161.662113 
L 375.152111 138.769441 
L 362.765271 89.030101 
L 359.462113 76.725003 
L 356.158956 65.341366 
L 353.681588 57.574399 
L 351.20422 50.58829 
L 348.726852 44.47897 
L 347.075273 40.934137 
L 345.423694 37.835802 
L 343.772116 35.200825 
L 342.120537 33.042635 
L 340.468958 31.371236 
L 338.81738 30.193256 
L 337.99159 29.790468 
L 337.165801 29.51204 
L 336.340011 29.357896 
L 335.514222 29.327771 
L 334.688433 29.421217 
L 333.862643 29.637604 
L 333.036854 29.976125 
L 331.385275 31.015496 
L 329.733697 32.529522 
L 328.082118 34.505844 
L 326.430539 36.929671 
L 324.778961 39.783899 
L 323.127382 43.049224 
L 321.475803 46.704269 
L 318.998435 52.866053 
L 316.521067 59.765723 
L 314.043699 67.30948 
L 310.740542 78.196473 
L 306.611595 92.787861 
L 300.00528 117.2588 
L 293.398965 141.508619 
L 289.270018 155.878145 
L 285.966861 166.715862 
L 282.663704 176.867404 
L 279.360546 186.274823 
L 276.057389 194.910197 
L 272.754231 202.770952 
L 270.276863 208.168016 
L 267.799495 213.151655 
L 265.322127 217.737915 
L 262.844759 221.944867 
L 260.367391 225.791592 
L 257.890023 229.297356 
L 255.412655 232.480996 
L 252.935287 235.360524 
L 250.457919 237.952909 
L 247.980551 240.274022 
L 245.503183 242.3387 
L 243.025815 244.160877 
L 240.548447 245.75376 
L 238.071078 247.130022 
L 235.59371 248.301976 
L 233.116342 249.281741 
L 229.813185 250.309989 
L 226.510028 251.046798 
L 223.20687 251.52141 
L 219.903713 251.763626 
L 216.600555 251.803682 
L 212.471609 251.615649 
L 207.516872 251.117526 
L 201.736347 250.281309 
L 188.523717 248.023227 
L 181.091613 246.901138 
L 174.485298 246.13498 
L 168.704773 245.680956 
L 162.924247 245.452075 
L 157.969511 245.457512 
L 153.014775 245.677456 
L 148.060039 246.145383 
L 143.931092 246.749963 
L 139.802146 247.56812 
L 135.673199 248.61004 
L 131.544252 249.875228 
L 127.415305 251.350135 
L 122.460569 253.359122 
L 116.680044 255.953819 
L 109.247939 259.53941 
L 100.164257 264.1761 
L 93.557942 267.799965 
L 88.603206 270.756236 
L 83.64847 273.987286 
L 78.693733 277.524278 
L 73.738997 281.345593 
L 67.958472 286.048364 
L 67.958472 286.048364 
" clip-path="url(#p54e0ed6c16)" style="fill: none; stroke: #ee7733; stroke-width: 1.5; stroke-linecap: square"/>
   </g>
   <g id="patch_7">
    <path d="M 51.442685 298.888 
L 51.442685 16.416 
" style="fill: none; stroke: #000000; stroke-width: 0.8; stroke-linejoin: miter; stroke-linecap: square"/>
   </g>
   <g id="patch_8">
    <path d="M 414.79 298.888 
L 414.79 16.416 
" style="fill: none; stroke: #000000; stroke-width: 0.8; stroke-linejoin: miter; stroke-linecap: square"/>
   </g>
   <g id="patch_9">
    <path d="M 51.442685 298.888 
L 414.79 298.888 
" style="fill: none; stroke: #000000; stroke-width: 0.8; stroke-linejoin: miter; stroke-linecap: square"/>
   </g>
   <g id="patch_10">
    <path d="M 51.442685 16.416 
L 414.79 16.416 
" style="fill: none; stroke: #000000; stroke-width: 0.8; stroke-linejoin: miter; stroke-linecap: square"/>
   </g>
   <g id="legend_1">
    <g id="patch_11">
     <path d="M 58.442685 194.952 
L 384.942685 194.952 
Q 386.942685 194.952 386.942685 192.952 
L 386.942685 122.352 
Q 386.942685 120.352 384.942685 120.352 
L 58.442685 120.352 
Q 56.442685 120.352 56.442685 122.352 
L 56.442685 192.952 
Q 56.442685 194.952 58.442685 194.952 
z
" style="fill: #ffffff; opacity: 0.8; stroke: #cccccc; stroke-linejoin: miter"/>
    </g>
    <g id="PathCollection_3">
     <path d="M 70.442685 132.327 
C 71.238294 132.327 72.001424 132.010901 72.564005 131.44832 
C 73.126586 130.88574 73.442685 130.122609 73.442685 129.327 
C 73.442685 128.531391 73.126586 127.76826 72.564005 127.20568 
C 72.001424 126.643099 71.238294 126.327 70.442685 126.327 
C 69.647075 126.327 68.883945 126.643099 68.321364 127.20568 
C 67.758784 127.76826 67.442685 128.531391 67.442685 129.327 
C 67.442685 130.122609 67.758784 130.88574 68.321364 131.44832 
C 68.883945 132.010901 69.647075 132.327 70.442685 132.327 
L 70.442685 132.327 
z
" style="fill: none; stroke: #000000"/>
    </g>
    <g id="text_16">
     <!-- Circuit 1 (noisy), Mod($Z$) -->
     <g transform="translate(88.442685 131.952) scale(0.1 -0.1)">
      <defs>
       <path id="DejaVuSans-43" d="M 4122 4306 
L 4122 3641 
Q 3803 3938 3442 4084 
Q 3081 4231 2675 4231 
Q 1875 4231 1450 3742 
Q 1025 3253 1025 2328 
Q 1025 1406 1450 917 
Q 1875 428 2675 428 
Q 3081 428 3442 575 
Q 3803 722 4122 1019 
L 4122 359 
Q 3791 134 3420 21 
Q 3050 -91 2638 -91 
Q 1578 -91 968 557 
Q 359 1206 359 2328 
Q 359 3453 968 4101 
Q 1578 4750 2638 4750 
Q 3056 4750 3426 4639 
Q 3797 4528 4122 4306 
z
" transform="scale(0.015625)"/>
       <path id="DejaVuSans-69" d="M 603 3500 
L 1178 3500 
L 1178 0 
L 603 0 
L 603 3500 
z
M 603 4863 
L 1178 4863 
L 1178 4134 
L 603 4134 
L 603 4863 
z
" transform="scale(0.015625)"/>
       <path id="DejaVuSans-72" d="M 2631 2963 
Q 2534 3019 2420 3045 
Q 2306 3072 2169 3072 
Q 1681 3072 1420 2755 
Q 1159 2438 1159 1844 
L 1159 0 
L 581 0 
L 581 3500 
L 1159 3500 
L 1159 2956 
Q 1341 3275 1631 3429 
Q 1922 3584 2338 3584 
Q 2397 3584 2469 3576 
Q 2541 3569 2628 3553 
L 2631 2963 
z
" transform="scale(0.015625)"/>
       <path id="DejaVuSans-63" d="M 3122 3366 
L 3122 2828 
Q 2878 2963 2633 3030 
Q 2388 3097 2138 3097 
Q 1578 3097 1268 2742 
Q 959 2388 959 1747 
Q 959 1106 1268 751 
Q 1578 397 2138 397 
Q 2388 397 2633 464 
Q 2878 531 3122 666 
L 3122 134 
Q 2881 22 2623 -34 
Q 2366 -91 2075 -91 
Q 1284 -91 818 406 
Q 353 903 353 1747 
Q 353 2603 823 3093 
Q 1294 3584 2113 3584 
Q 2378 3584 2631 3529 
Q 2884 3475 3122 3366 
z
" transform="scale(0.015625)"/>
       <path id="DejaVuSans-75" d="M 544 1381 
L 544 3500 
L 1119 3500 
L 1119 1403 
Q 1119 906 1312 657 
Q 1506 409 1894 409 
Q 2359 409 2629 706 
Q 2900 1003 2900 1516 
L 2900 3500 
L 3475 3500 
L 3475 0 
L 2900 0 
L 2900 538 
Q 2691 219 2414 64 
Q 2138 -91 1772 -91 
Q 1169 -91 856 284 
Q 544 659 544 1381 
z
M 1991 3584 
L 1991 3584 
z
" transform="scale(0.015625)"/>
       <path id="DejaVuSans-74" d="M 1172 4494 
L 1172 3500 
L 2356 3500 
L 2356 3053 
L 1172 3053 
L 1172 1153 
Q 1172 725 1289 603 
Q 1406 481 1766 481 
L 2356 481 
L 2356 0 
L 1766 0 
Q 1100 0 847 248 
Q 594 497 594 1153 
L 594 3053 
L 172 3053 
L 172 3500 
L 594 3500 
L 594 4494 
L 1172 4494 
z
" transform="scale(0.015625)"/>
       <path id="DejaVuSans-6e" d="M 3513 2113 
L 3513 0 
L 2938 0 
L 2938 2094 
Q 2938 2591 2744 2837 
Q 2550 3084 2163 3084 
Q 1697 3084 1428 2787 
Q 1159 2491 1159 1978 
L 1159 0 
L 581 0 
L 581 3500 
L 1159 3500 
L 1159 2956 
Q 1366 3272 1645 3428 
Q 1925 3584 2291 3584 
Q 2894 3584 3203 3211 
Q 3513 2838 3513 2113 
z
" transform="scale(0.015625)"/>
       <path id="DejaVuSans-79" d="M 2059 -325 
Q 1816 -950 1584 -1140 
Q 1353 -1331 966 -1331 
L 506 -1331 
L 506 -850 
L 844 -850 
Q 1081 -850 1212 -737 
Q 1344 -625 1503 -206 
L 1606 56 
L 191 3500 
L 800 3500 
L 1894 763 
L 2988 3500 
L 3597 3500 
L 2059 -325 
z
" transform="scale(0.015625)"/>
       <path id="DejaVuSans-2c" d="M 750 794 
L 1409 794 
L 1409 256 
L 897 -744 
L 494 -744 
L 750 256 
L 750 794 
z
" transform="scale(0.015625)"/>
      </defs>
      <use xlink:href="#DejaVuSans-43" transform="translate(0 0.015625)"/>
      <use xlink:href="#DejaVuSans-69" transform="translate(69.824219 0.015625)"/>
      <use xlink:href="#DejaVuSans-72" transform="translate(97.607422 0.015625)"/>
      <use xlink:href="#DejaVuSans-63" transform="translate(138.720703 0.015625)"/>
      <use xlink:href="#DejaVuSans-75" transform="translate(193.701172 0.015625)"/>
      <use xlink:href="#DejaVuSans-69" transform="translate(257.080078 0.015625)"/>
      <use xlink:href="#DejaVuSans-74" transform="translate(284.863281 0.015625)"/>
      <use xlink:href="#DejaVuSans-20" transform="translate(324.072266 0.015625)"/>
      <use xlink:href="#DejaVuSans-31" transform="translate(355.859375 0.015625)"/>
      <use xlink:href="#DejaVuSans-20" transform="translate(419.482422 0.015625)"/>
      <use xlink:href="#DejaVuSans-28" transform="translate(451.269531 0.015625)"/>
      <use xlink:href="#DejaVuSans-6e" transform="translate(490.283203 0.015625)"/>
      <use xlink:href="#DejaVuSans-6f" transform="translate(553.662109 0.015625)"/>
      <use xlink:href="#DejaVuSans-69" transform="translate(614.84375 0.015625)"/>
      <use xlink:href="#DejaVuSans-73" transform="translate(642.626953 0.015625)"/>
      <use xlink:href="#DejaVuSans-79" transform="translate(694.726562 0.015625)"/>
      <use xlink:href="#DejaVuSans-29" transform="translate(753.90625 0.015625)"/>
      <use xlink:href="#DejaVuSans-2c" transform="translate(792.919922 0.015625)"/>
      <use xlink:href="#DejaVuSans-20" transform="translate(824.707031 0.015625)"/>
      <use xlink:href="#DejaVuSans-4d" transform="translate(856.494141 0.015625)"/>
      <use xlink:href="#DejaVuSans-6f" transform="translate(942.773438 0.015625)"/>
      <use xlink:href="#DejaVuSans-64" transform="translate(1003.955078 0.015625)"/>
      <use xlink:href="#DejaVuSans-28" transform="translate(1067.431641 0.015625)"/>
      <use xlink:href="#DejaVuSans-Oblique-5a" transform="translate(1106.445312 0.015625)"/>
      <use xlink:href="#DejaVuSans-29" transform="translate(1174.951172 0.015625)"/>
     </g>
    </g>
    <g id="line2d_58">
     <path d="M 60.442685 146.352 
L 70.442685 146.352 
L 80.442685 146.352 
" style="fill: none; stroke: #0077bb; stroke-width: 1.5; stroke-linecap: square"/>
    </g>
    <g id="text_17">
     <!-- Z, C+L, $N_\tau = 13$, $\tau \in [\frac{1}{f_{\rm max} \times F_{\rm ext}},\frac{F_{\rm ext}}{f_{\rm min}}],\log{F_{\rm ext}} = -0.1$, Mod($Z$) -->
     <g transform="translate(88.442685 149.852) scale(0.1 -0.1)">
      <defs>
       <path id="DejaVuSans-5a" d="M 359 4666 
L 4025 4666 
L 4025 4184 
L 1075 531 
L 4097 531 
L 4097 0 
L 288 0 
L 288 481 
L 3238 4134 
L 359 4134 
L 359 4666 
z
" transform="scale(0.015625)"/>
       <path id="DejaVuSans-2b" d="M 2944 4013 
L 2944 2272 
L 4684 2272 
L 4684 1741 
L 2944 1741 
L 2944 0 
L 2419 0 
L 2419 1741 
L 678 1741 
L 678 2272 
L 2419 2272 
L 2419 4013 
L 2944 4013 
z
" transform="scale(0.015625)"/>
       <path id="DejaVuSans-4c" d="M 628 4666 
L 1259 4666 
L 1259 531 
L 3531 531 
L 3531 0 
L 628 0 
L 628 4666 
z
" transform="scale(0.015625)"/>
       <path id="DejaVuSans-Oblique-4e" d="M 1081 4666 
L 1931 4666 
L 3219 666 
L 4000 4666 
L 4616 4666 
L 3706 0 
L 2853 0 
L 1569 4025 
L 788 0 
L 172 0 
L 1081 4666 
z
" transform="scale(0.015625)"/>
       <path id="DejaVuSans-Oblique-3c4" d="M 2103 638 
Q 2188 488 2525 488 
L 2800 488 
L 2706 0 
L 2363 0 
Q 1800 0 1600 300 
Q 1403 606 1534 1269 
L 1856 2925 
L 541 2925 
L 653 3500 
L 3881 3500 
L 3769 2925 
L 2444 2925 
L 2113 1234 
Q 2025 781 2103 638 
z
" transform="scale(0.015625)"/>
       <path id="DejaVuSans-3d" d="M 678 2906 
L 4684 2906 
L 4684 2381 
L 678 2381 
L 678 2906 
z
M 678 1631 
L 4684 1631 
L 4684 1100 
L 678 1100 
L 678 1631 
z
" transform="scale(0.015625)"/>
       <path id="DejaVuSans-2208" d="M 1072 1959 
Q 1094 1728 1291 1353 
Q 1522 919 1959 675 
Q 2388 438 2850 434 
L 5028 434 
L 5028 -63 
L 2850 -63 
Q 2250 -63 1695 246 
Q 1141 556 844 1106 
Q 547 1656 547 2241 
Q 547 2819 844 3369 
Q 1141 3919 1695 4231 
Q 2250 4544 2850 4544 
L 5028 4544 
L 5028 4047 
L 2850 4047 
Q 2388 4044 1959 3803 
Q 1525 3556 1291 3125 
Q 1091 2750 1063 2459 
L 5028 2459 
L 5028 1959 
L 1072 1959 
z
" transform="scale(0.015625)"/>
       <path id="DejaVuSans-5b" d="M 550 4863 
L 1875 4863 
L 1875 4416 
L 1125 4416 
L 1125 -397 
L 1875 -397 
L 1875 -844 
L 550 -844 
L 550 4863 
z
" transform="scale(0.015625)"/>
       <path id="DejaVuSans-6d" d="M 3328 2828 
Q 3544 3216 3844 3400 
Q 4144 3584 4550 3584 
Q 5097 3584 5394 3201 
Q 5691 2819 5691 2113 
L 5691 0 
L 5113 0 
L 5113 2094 
Q 5113 2597 4934 2840 
Q 4756 3084 4391 3084 
Q 3944 3084 3684 2787 
Q 3425 2491 3425 1978 
L 3425 0 
L 2847 0 
L 2847 2094 
Q 2847 2600 2669 2842 
Q 2491 3084 2119 3084 
Q 1678 3084 1418 2786 
Q 1159 2488 1159 1978 
L 1159 0 
L 581 0 
L 581 3500 
L 1159 3500 
L 1159 2956 
Q 1356 3278 1631 3431 
Q 1906 3584 2284 3584 
Q 2666 3584 2933 3390 
Q 3200 3197 3328 2828 
z
" transform="scale(0.015625)"/>
       <path id="DejaVuSans-78" d="M 3513 3500 
L 2247 1797 
L 3578 0 
L 2900 0 
L 1881 1375 
L 863 0 
L 184 0 
L 1544 1831 
L 300 3500 
L 978 3500 
L 1906 2253 
L 2834 3500 
L 3513 3500 
z
" transform="scale(0.015625)"/>
       <path id="DejaVuSans-d7" d="M 4488 3438 
L 3059 2003 
L 4488 575 
L 4116 197 
L 2681 1631 
L 1247 197 
L 878 575 
L 2303 2003 
L 878 3438 
L 1247 3816 
L 2681 2381 
L 4116 3816 
L 4488 3438 
z
" transform="scale(0.015625)"/>
       <path id="DejaVuSans-Oblique-46" d="M 1081 4666 
L 3756 4666 
L 3653 4134 
L 1606 4134 
L 1338 2759 
L 3188 2759 
L 3084 2228 
L 1234 2228 
L 800 0 
L 172 0 
L 1081 4666 
z
" transform="scale(0.015625)"/>
       <path id="DejaVuSans-5d" d="M 1947 4863 
L 1947 -844 
L 622 -844 
L 622 -397 
L 1369 -397 
L 1369 4416 
L 622 4416 
L 622 4863 
L 1947 4863 
z
" transform="scale(0.015625)"/>
       <path id="DejaVuSans-6c" d="M 603 4863 
L 1178 4863 
L 1178 0 
L 603 0 
L 603 4863 
z
" transform="scale(0.015625)"/>
       <path id="DejaVuSans-67" d="M 2906 1791 
Q 2906 2416 2648 2759 
Q 2391 3103 1925 3103 
Q 1463 3103 1205 2759 
Q 947 2416 947 1791 
Q 947 1169 1205 825 
Q 1463 481 1925 481 
Q 2391 481 2648 825 
Q 2906 1169 2906 1791 
z
M 3481 434 
Q 3481 -459 3084 -895 
Q 2688 -1331 1869 -1331 
Q 1566 -1331 1297 -1286 
Q 1028 -1241 775 -1147 
L 775 -588 
Q 1028 -725 1275 -790 
Q 1522 -856 1778 -856 
Q 2344 -856 2625 -561 
Q 2906 -266 2906 331 
L 2906 616 
Q 2728 306 2450 153 
Q 2172 0 1784 0 
Q 1141 0 747 490 
Q 353 981 353 1791 
Q 353 2603 747 3093 
Q 1141 3584 1784 3584 
Q 2172 3584 2450 3431 
Q 2728 3278 2906 2969 
L 2906 3500 
L 3481 3500 
L 3481 434 
z
" transform="scale(0.015625)"/>
       <path id="DejaVuSans-2e" d="M 684 794 
L 1344 794 
L 1344 0 
L 684 0 
L 684 794 
z
" transform="scale(0.015625)"/>
      </defs>
      <use xlink:href="#DejaVuSans-5a" transform="translate(0 0.987656)"/>
      <use xlink:href="#DejaVuSans-2c" transform="translate(68.505859 0.987656)"/>
      <use xlink:href="#DejaVuSans-20" transform="translate(100.292969 0.987656)"/>
      <use xlink:href="#DejaVuSans-43" transform="translate(132.080078 0.987656)"/>
      <use xlink:href="#DejaVuSans-2b" transform="translate(201.904297 0.987656)"/>
      <use xlink:href="#DejaVuSans-4c" transform="translate(285.693359 0.987656)"/>
      <use xlink:href="#DejaVuSans-2c" transform="translate(341.40625 0.987656)"/>
      <use xlink:href="#DejaVuSans-20" transform="translate(373.193359 0.987656)"/>
      <use xlink:href="#DejaVuSans-Oblique-4e" transform="translate(404.980469 0.987656)"/>
      <use xlink:href="#DejaVuSans-Oblique-3c4" transform="translate(479.785156 -15.418594) scale(0.7)"/>
      <use xlink:href="#DejaVuSans-3d" transform="translate(544.145508 0.987656)"/>
      <use xlink:href="#DejaVuSans-31" transform="translate(647.416992 0.987656)"/>
      <use xlink:href="#DejaVuSans-33" transform="translate(711.040039 0.987656)"/>
      <use xlink:href="#DejaVuSans-2c" transform="translate(774.663086 0.987656)"/>
      <use xlink:href="#DejaVuSans-20" transform="translate(806.450195 0.987656)"/>
      <use xlink:href="#DejaVuSans-Oblique-3c4" transform="translate(838.237305 0.987656)"/>
      <use xlink:href="#DejaVuSans-2208" transform="translate(917.924805 0.987656)"/>
      <use xlink:href="#DejaVuSans-5b" transform="translate(1024.516602 0.987656)"/>
      <use xlink:href="#DejaVuSans-31" transform="translate(1211.530273 44.784531) scale(0.7)"/>
      <use xlink:href="#DejaVuSans-Oblique-66" transform="translate(1063.530273 -39.654531) scale(0.7)"/>
      <use xlink:href="#DejaVuSans-6d" transform="translate(1088.173828 -51.138906) scale(0.49)"/>
      <use xlink:href="#DejaVuSans-61" transform="translate(1135.905762 -51.138906) scale(0.49)"/>
      <use xlink:href="#DejaVuSans-78" transform="translate(1165.932617 -51.138906) scale(0.49)"/>
      <use xlink:href="#DejaVuSans-d7" transform="translate(1210.482422 -39.654531) scale(0.7)"/>
      <use xlink:href="#DejaVuSans-Oblique-46" transform="translate(1282.772461 -39.654531) scale(0.7)"/>
      <use xlink:href="#DejaVuSans-65" transform="translate(1323.036133 -51.138906) scale(0.49)"/>
      <use xlink:href="#DejaVuSans-78" transform="translate(1353.182617 -51.138906) scale(0.49)"/>
      <use xlink:href="#DejaVuSans-74" transform="translate(1382.180664 -51.138906) scale(0.49)"/>
      <use xlink:href="#DejaVuSans-2c" transform="translate(1415.807129 0.987656)"/>
      <use xlink:href="#DejaVuSans-Oblique-46" transform="translate(1467.07666 56.965625) scale(0.7)"/>
      <use xlink:href="#DejaVuSans-65" transform="translate(1507.340332 45.48125) scale(0.49)"/>
      <use xlink:href="#DejaVuSans-78" transform="translate(1537.486816 45.48125) scale(0.49)"/>
      <use xlink:href="#DejaVuSans-74" transform="translate(1566.484863 45.48125) scale(0.49)"/>
      <use xlink:href="#DejaVuSans-Oblique-66" transform="translate(1468.07666 -39.654531) scale(0.7)"/>
      <use xlink:href="#DejaVuSans-6d" transform="translate(1492.720215 -51.138906) scale(0.49)"/>
      <use xlink:href="#DejaVuSans-69" transform="translate(1540.452148 -51.138906) scale(0.49)"/>
      <use xlink:href="#DejaVuSans-6e" transform="translate(1554.065918 -51.138906) scale(0.49)"/>
      <use xlink:href="#DejaVuSans-5d" transform="translate(1600.111328 0.987656)"/>
      <use xlink:href="#DejaVuSans-2c" transform="translate(1639.125 0.987656)"/>
      <use xlink:href="#DejaVuSans-6c" transform="translate(1690.394531 0.987656)"/>
      <use xlink:href="#DejaVuSans-6f" transform="translate(1718.177734 0.987656)"/>
      <use xlink:href="#DejaVuSans-67" transform="translate(1779.359375 0.987656)"/>
      <use xlink:href="#DejaVuSans-Oblique-46" transform="translate(1859.071614 0.987656)"/>
      <use xlink:href="#DejaVuSans-65" transform="translate(1916.591145 -15.418594) scale(0.7)"/>
      <use xlink:href="#DejaVuSans-78" transform="translate(1959.657551 -15.418594) scale(0.7)"/>
      <use xlink:href="#DejaVuSans-74" transform="translate(2001.083333 -15.418594) scale(0.7)"/>
      <use xlink:href="#DejaVuSans-3d" transform="translate(2050.746418 0.987656)"/>
      <use xlink:href="#DejaVuSans-2212" transform="translate(2173.500325 0.987656)"/>
      <use xlink:href="#DejaVuSans-30" transform="translate(2276.771809 0.987656)"/>
      <use xlink:href="#DejaVuSans-2e" transform="translate(2340.394856 0.987656)"/>
      <use xlink:href="#DejaVuSans-31" transform="translate(2372.181965 0.987656)"/>
      <use xlink:href="#DejaVuSans-2c" transform="translate(2435.805012 0.987656)"/>
      <use xlink:href="#DejaVuSans-20" transform="translate(2467.592122 0.987656)"/>
      <use xlink:href="#DejaVuSans-4d" transform="translate(2499.379231 0.987656)"/>
      <use xlink:href="#DejaVuSans-6f" transform="translate(2585.658528 0.987656)"/>
      <use xlink:href="#DejaVuSans-64" transform="translate(2646.840168 0.987656)"/>
      <use xlink:href="#DejaVuSans-28" transform="translate(2710.316731 0.987656)"/>
      <use xlink:href="#DejaVuSans-Oblique-5a" transform="translate(2749.330403 0.987656)"/>
      <use xlink:href="#DejaVuSans-29" transform="translate(2817.836262 0.987656)"/>
      <path d="M 1063.530273 19.784531 
L 1063.530273 26.034531 
L 1403.307129 26.034531 
L 1403.307129 19.784531 
L 1063.530273 19.784531 
z
"/>
      <path d="M 1467.07666 19.784531 
L 1467.07666 26.034531 
L 1587.611328 26.034531 
L 1587.611328 19.784531 
L 1467.07666 19.784531 
z
"/>
     </g>
    </g>
    <g id="PathCollection_4">
     <path d="M 67.442685 168.127 
L 73.442685 168.127 
L 73.442685 162.127 
L 67.442685 162.127 
L 67.442685 168.127 
z
" style="fill: none; stroke: #000000"/>
    </g>
    <g id="text_18">
     <!-- Circuit 1 (noisy), Phase($Z$) -->
     <g transform="translate(88.442685 167.752) scale(0.1 -0.1)">
      <use xlink:href="#DejaVuSans-43" transform="translate(0 0.015625)"/>
      <use xlink:href="#DejaVuSans-69" transform="translate(69.824219 0.015625)"/>
      <use xlink:href="#DejaVuSans-72" transform="translate(97.607422 0.015625)"/>
      <use xlink:href="#DejaVuSans-63" transform="translate(138.720703 0.015625)"/>
      <use xlink:href="#DejaVuSans-75" transform="translate(193.701172 0.015625)"/>
      <use xlink:href="#DejaVuSans-69" transform="translate(257.080078 0.015625)"/>
      <use xlink:href="#DejaVuSans-74" transform="translate(284.863281 0.015625)"/>
      <use xlink:href="#DejaVuSans-20" transform="translate(324.072266 0.015625)"/>
      <use xlink:href="#DejaVuSans-31" transform="translate(355.859375 0.015625)"/>
      <use xlink:href="#DejaVuSans-20" transform="translate(419.482422 0.015625)"/>
      <use xlink:href="#DejaVuSans-28" transform="translate(451.269531 0.015625)"/>
      <use xlink:href="#DejaVuSans-6e" transform="translate(490.283203 0.015625)"/>
      <use xlink:href="#DejaVuSans-6f" transform="translate(553.662109 0.015625)"/>
      <use xlink:href="#DejaVuSans-69" transform="translate(614.84375 0.015625)"/>
      <use xlink:href="#DejaVuSans-73" transform="translate(642.626953 0.015625)"/>
      <use xlink:href="#DejaVuSans-79" transform="translate(694.726562 0.015625)"/>
      <use xlink:href="#DejaVuSans-29" transform="translate(753.90625 0.015625)"/>
      <use xlink:href="#DejaVuSans-2c" transform="translate(792.919922 0.015625)"/>
      <use xlink:href="#DejaVuSans-20" transform="translate(824.707031 0.015625)"/>
      <use xlink:href="#DejaVuSans-50" transform="translate(856.494141 0.015625)"/>
      <use xlink:href="#DejaVuSans-68" transform="translate(916.796875 0.015625)"/>
      <use xlink:href="#DejaVuSans-61" transform="translate(980.175781 0.015625)"/>
      <use xlink:href="#DejaVuSans-73" transform="translate(1041.455078 0.015625)"/>
      <use xlink:href="#DejaVuSans-65" transform="translate(1093.554688 0.015625)"/>
      <use xlink:href="#DejaVuSans-28" transform="translate(1155.078125 0.015625)"/>
      <use xlink:href="#DejaVuSans-Oblique-5a" transform="translate(1194.091797 0.015625)"/>
      <use xlink:href="#DejaVuSans-29" transform="translate(1262.597656 0.015625)"/>
     </g>
    </g>
    <g id="line2d_59">
     <path d="M 60.442685 182.152 
L 70.442685 182.152 
L 80.442685 182.152 
" style="fill: none; stroke: #ee7733; stroke-width: 1.5; stroke-linecap: square"/>
    </g>
    <g id="text_19">
     <!-- Z, C+L, $N_\tau = 13$, $\tau \in [\frac{1}{f_{\rm max} \times F_{\rm ext}},\frac{F_{\rm ext}}{f_{\rm min}}],\log{F_{\rm ext}} = -0.1$, Phase($Z$) -->
     <g transform="translate(88.442685 185.652) scale(0.1 -0.1)">
      <use xlink:href="#DejaVuSans-5a" transform="translate(0 0.987656)"/>
      <use xlink:href="#DejaVuSans-2c" transform="translate(68.505859 0.987656)"/>
      <use xlink:href="#DejaVuSans-20" transform="translate(100.292969 0.987656)"/>
      <use xlink:href="#DejaVuSans-43" transform="translate(132.080078 0.987656)"/>
      <use xlink:href="#DejaVuSans-2b" transform="translate(201.904297 0.987656)"/>
      <use xlink:href="#DejaVuSans-4c" transform="translate(285.693359 0.987656)"/>
      <use xlink:href="#DejaVuSans-2c" transform="translate(341.40625 0.987656)"/>
      <use xlink:href="#DejaVuSans-20" transform="translate(373.193359 0.987656)"/>
      <use xlink:href="#DejaVuSans-Oblique-4e" transform="translate(404.980469 0.987656)"/>
      <use xlink:href="#DejaVuSans-Oblique-3c4" transform="translate(479.785156 -15.418594) scale(0.7)"/>
      <use xlink:href="#DejaVuSans-3d" transform="translate(544.145508 0.987656)"/>
      <use xlink:href="#DejaVuSans-31" transform="translate(647.416992 0.987656)"/>
      <use xlink:href="#DejaVuSans-33" transform="translate(711.040039 0.987656)"/>
      <use xlink:href="#DejaVuSans-2c" transform="translate(774.663086 0.987656)"/>
      <use xlink:href="#DejaVuSans-20" transform="translate(806.450195 0.987656)"/>
      <use xlink:href="#DejaVuSans-Oblique-3c4" transform="translate(838.237305 0.987656)"/>
      <use xlink:href="#DejaVuSans-2208" transform="translate(917.924805 0.987656)"/>
      <use xlink:href="#DejaVuSans-5b" transform="translate(1024.516602 0.987656)"/>
      <use xlink:href="#DejaVuSans-31" transform="translate(1211.530273 44.784531) scale(0.7)"/>
      <use xlink:href="#DejaVuSans-Oblique-66" transform="translate(1063.530273 -39.654531) scale(0.7)"/>
      <use xlink:href="#DejaVuSans-6d" transform="translate(1088.173828 -51.138906) scale(0.49)"/>
      <use xlink:href="#DejaVuSans-61" transform="translate(1135.905762 -51.138906) scale(0.49)"/>
      <use xlink:href="#DejaVuSans-78" transform="translate(1165.932617 -51.138906) scale(0.49)"/>
      <use xlink:href="#DejaVuSans-d7" transform="translate(1210.482422 -39.654531) scale(0.7)"/>
      <use xlink:href="#DejaVuSans-Oblique-46" transform="translate(1282.772461 -39.654531) scale(0.7)"/>
      <use xlink:href="#DejaVuSans-65" transform="translate(1323.036133 -51.138906) scale(0.49)"/>
      <use xlink:href="#DejaVuSans-78" transform="translate(1353.182617 -51.138906) scale(0.49)"/>
      <use xlink:href="#DejaVuSans-74" transform="translate(1382.180664 -51.138906) scale(0.49)"/>
      <use xlink:href="#DejaVuSans-2c" transform="translate(1415.807129 0.987656)"/>
      <use xlink:href="#DejaVuSans-Oblique-46" transform="translate(1467.07666 56.965625) scale(0.7)"/>
      <use xlink:href="#DejaVuSans-65" transform="translate(1507.340332 45.48125) scale(0.49)"/>
      <use xlink:href="#DejaVuSans-78" transform="translate(1537.486816 45.48125) scale(0.49)"/>
      <use xlink:href="#DejaVuSans-74" transform="translate(1566.484863 45.48125) scale(0.49)"/>
      <use xlink:href="#DejaVuSans-Oblique-66" transform="translate(1468.07666 -39.654531) scale(0.7)"/>
      <use xlink:href="#DejaVuSans-6d" transform="translate(1492.720215 -51.138906) scale(0.49)"/>
      <use xlink:href="#DejaVuSans-69" transform="translate(1540.452148 -51.138906) scale(0.49)"/>
      <use xlink:href="#DejaVuSans-6e" transform="translate(1554.065918 -51.138906) scale(0.49)"/>
      <use xlink:href="#DejaVuSans-5d" transform="translate(1600.111328 0.987656)"/>
      <use xlink:href="#DejaVuSans-2c" transform="translate(1639.125 0.987656)"/>
      <use xlink:href="#DejaVuSans-6c" transform="translate(1690.394531 0.987656)"/>
      <use xlink:href="#DejaVuSans-6f" transform="translate(1718.177734 0.987656)"/>
      <use xlink:href="#DejaVuSans-67" transform="translate(1779.359375 0.987656)"/>
      <use xlink:href="#DejaVuSans-Oblique-46" transform="translate(1859.071614 0.987656)"/>
      <use xlink:href="#DejaVuSans-65" transform="translate(1916.591145 -15.418594) scale(0.7)"/>
      <use xlink:href="#DejaVuSans-78" transform="translate(1959.657551 -15.418594) scale(0.7)"/>
      <use xlink:href="#DejaVuSans-74" transform="translate(2001.083333 -15.418594) scale(0.7)"/>
      <use xlink:href="#DejaVuSans-3d" transform="translate(2050.746418 0.987656)"/>
      <use xlink:href="#DejaVuSans-2212" transform="translate(2173.500325 0.987656)"/>
      <use xlink:href="#DejaVuSans-30" transform="translate(2276.771809 0.987656)"/>
      <use xlink:href="#DejaVuSans-2e" transform="translate(2340.394856 0.987656)"/>
      <use xlink:href="#DejaVuSans-31" transform="translate(2372.181965 0.987656)"/>
      <use xlink:href="#DejaVuSans-2c" transform="translate(2435.805012 0.987656)"/>
      <use xlink:href="#DejaVuSans-20" transform="translate(2467.592122 0.987656)"/>
      <use xlink:href="#DejaVuSans-50" transform="translate(2499.379231 0.987656)"/>
      <use xlink:href="#DejaVuSans-68" transform="translate(2559.681965 0.987656)"/>
      <use xlink:href="#DejaVuSans-61" transform="translate(2623.060872 0.987656)"/>
      <use xlink:href="#DejaVuSans-73" transform="translate(2684.340168 0.987656)"/>
      <use xlink:href="#DejaVuSans-65" transform="translate(2736.439778 0.987656)"/>
      <use xlink:href="#DejaVuSans-28" transform="translate(2797.963215 0.987656)"/>
      <use xlink:href="#DejaVuSans-Oblique-5a" transform="translate(2836.976887 0.987656)"/>
      <use xlink:href="#DejaVuSans-29" transform="translate(2905.482747 0.987656)"/>
      <path d="M 1063.530273 19.784531 
L 1063.530273 26.034531 
L 1403.307129 26.034531 
L 1403.307129 19.784531 
L 1063.530273 19.784531 
z
"/>
      <path d="M 1467.07666 19.784531 
L 1467.07666 26.034531 
L 1587.611328 26.034531 
L 1587.611328 19.784531 
L 1467.07666 19.784531 
z
"/>
     </g>
    </g>
   </g>
  </g>
 </g>
 <defs>
  <clipPath id="p54e0ed6c16">
   <rect x="51.442685" y="16.416" width="363.347315" height="282.472"/>
  </clipPath>
 </defs>
</svg>
