<?xml version="1.0" encoding="utf-8" standalone="no"?>
<!DOCTYPE svg PUBLIC "-//W3C//DTD SVG 1.1//EN"
  "http://www.w3.org/Graphics/SVG/1.1/DTD/svg11.dtd">
<svg xmlns:xlink="http://www.w3.org/1999/xlink" width="164.34pt" height="79.2pt" viewBox="0 0 164.34 79.2" xmlns="http://www.w3.org/2000/svg" version="1.1">
 <metadata>
  <rdf:RDF xmlns:dc="http://purl.org/dc/elements/1.1/" xmlns:cc="http://creativecommons.org/ns#" xmlns:rdf="http://www.w3.org/1999/02/22-rdf-syntax-ns#">
   <cc:Work>
    <dc:type rdf:resource="http://purl.org/dc/dcmitype/StillImage"/>
    <dc:date>2024-03-14T17:37:34.980506</dc:date>
    <dc:format>image/svg+xml</dc:format>
    <dc:creator>
     <cc:Agent>
      <dc:title>Matplotlib v3.8.3, https://matplotlib.org/</dc:title>
     </cc:Agent>
    </dc:creator>
   </cc:Work>
  </rdf:RDF>
 </metadata>
 <defs>
  <style type="text/css">*{stroke-linejoin: round; stroke-linecap: butt}</style>
 </defs>
 <g id="figure_1">
  <g id="patch_1">
   <path d="M 0 79.2 
L 164.34 79.2 
L 164.34 0 
L 0 0 
L 0 79.2 
z
" style="fill: none"/>
  </g>
  <g id="axes_1">
   <g id="line2d_1">
    <path d="M 10.17 12.6 
L 28.17 12.6 
L 46.17 12.6 
" clip-path="url(#p3fe3eefde8)" style="fill: none; stroke: #000000; stroke-width: 2; stroke-linecap: round"/>
   </g>
   <g id="line2d_2">
    <path d="M 46.17 12.6 
L 46.17 39.6 
L 46.17 66.6 
" clip-path="url(#p3fe3eefde8)" style="fill: none; stroke: #000000; stroke-width: 2; stroke-linecap: round"/>
   </g>
   <g id="line2d_3">
    <path d="M 46.17 66.6 
L 64.17 66.6 
L 67.17 57.6 
L 73.17 75.6 
L 79.17 57.6 
L 85.17 75.6 
L 91.17 57.6 
L 97.17 75.6 
L 100.17 66.6 
L 118.17 66.6 
" clip-path="url(#p3fe3eefde8)" style="fill: none; stroke: #000000; stroke-width: 2; stroke-linecap: round"/>
   </g>
   <g id="line2d_4">
    <path d="M 118.17 66.6 
L 118.17 39.6 
L 118.17 12.6 
" clip-path="url(#p3fe3eefde8)" style="fill: none; stroke: #000000; stroke-width: 2; stroke-linecap: round"/>
   </g>
   <g id="line2d_5">
    <path d="M 46.17 12.6 
L 64.17 12.6 
L 64.17 3.6 
L 100.17 3.6 
L 100.17 21.6 
L 64.17 21.6 
L 64.17 12.6 
M 100.17 12.6 
L 118.17 12.6 
" clip-path="url(#p3fe3eefde8)" style="fill: none; stroke: #000000; stroke-width: 2; stroke-linecap: round"/>
   </g>
   <g id="line2d_6">
    <path d="M 118.17 12.6 
L 136.17 12.6 
L 154.17 12.6 
" clip-path="url(#p3fe3eefde8)" style="fill: none; stroke: #000000; stroke-width: 2; stroke-linecap: round"/>
   </g>
   <g id="text_1">
    <!-- $R_{\rm par}$ -->
    <g transform="translate(70.3575 50.125) scale(0.125 -0.125)">
     <defs>
      <path id="DejaVuSans-Oblique-52" d="M 1613 4147 
L 1294 2491 
L 2106 2491 
Q 2584 2491 2879 2755 
Q 3175 3019 3175 3444 
Q 3175 3784 2976 3965 
Q 2778 4147 2406 4147 
L 1613 4147 
z
M 2772 2241 
Q 2972 2194 3105 2009 
Q 3238 1825 3413 1275 
L 3809 0 
L 3144 0 
L 2778 1197 
Q 2638 1659 2453 1815 
Q 2269 1972 1888 1972 
L 1191 1972 
L 806 0 
L 172 0 
L 1081 4666 
L 2503 4666 
Q 3150 4666 3495 4373 
Q 3841 4081 3841 3531 
Q 3841 3044 3547 2687 
Q 3253 2331 2772 2241 
z
" transform="scale(0.015625)"/>
      <path id="DejaVuSans-70" d="M 1159 525 
L 1159 -1331 
L 581 -1331 
L 581 3500 
L 1159 3500 
L 1159 2969 
Q 1341 3281 1617 3432 
Q 1894 3584 2278 3584 
Q 2916 3584 3314 3078 
Q 3713 2572 3713 1747 
Q 3713 922 3314 415 
Q 2916 -91 2278 -91 
Q 1894 -91 1617 61 
Q 1341 213 1159 525 
z
M 3116 1747 
Q 3116 2381 2855 2742 
Q 2594 3103 2138 3103 
Q 1681 3103 1420 2742 
Q 1159 2381 1159 1747 
Q 1159 1113 1420 752 
Q 1681 391 2138 391 
Q 2594 391 2855 752 
Q 3116 1113 3116 1747 
z
" transform="scale(0.015625)"/>
      <path id="DejaVuSans-61" d="M 2194 1759 
Q 1497 1759 1228 1600 
Q 959 1441 959 1056 
Q 959 750 1161 570 
Q 1363 391 1709 391 
Q 2188 391 2477 730 
Q 2766 1069 2766 1631 
L 2766 1759 
L 2194 1759 
z
M 3341 1997 
L 3341 0 
L 2766 0 
L 2766 531 
Q 2569 213 2275 61 
Q 1981 -91 1556 -91 
Q 1019 -91 701 211 
Q 384 513 384 1019 
Q 384 1609 779 1909 
Q 1175 2209 1959 2209 
L 2766 2209 
L 2766 2266 
Q 2766 2663 2505 2880 
Q 2244 3097 1772 3097 
Q 1472 3097 1187 3025 
Q 903 2953 641 2809 
L 641 3341 
Q 956 3463 1253 3523 
Q 1550 3584 1831 3584 
Q 2591 3584 2966 3190 
Q 3341 2797 3341 1997 
z
" transform="scale(0.015625)"/>
      <path id="DejaVuSans-72" d="M 2631 2963 
Q 2534 3019 2420 3045 
Q 2306 3072 2169 3072 
Q 1681 3072 1420 2755 
Q 1159 2438 1159 1844 
L 1159 0 
L 581 0 
L 581 3500 
L 1159 3500 
L 1159 2956 
Q 1341 3275 1631 3429 
Q 1922 3584 2338 3584 
Q 2397 3584 2469 3576 
Q 2541 3569 2628 3553 
L 2631 2963 
z
" transform="scale(0.015625)"/>
     </defs>
     <use xlink:href="#DejaVuSans-Oblique-52" transform="translate(0 0.09375)"/>
     <use xlink:href="#DejaVuSans-70" transform="translate(69.482422 -16.3125) scale(0.7)"/>
     <use xlink:href="#DejaVuSans-61" transform="translate(113.916016 -16.3125) scale(0.7)"/>
     <use xlink:href="#DejaVuSans-72" transform="translate(156.811523 -16.3125) scale(0.7)"/>
    </g>
   </g>
   <g id="text_2">
    <!-- $Z_{\rm data}$ -->
    <g transform="translate(67.8575 -2.599609) scale(0.125 -0.125)">
     <defs>
      <path id="DejaVuSans-Oblique-5a" d="M 838 4666 
L 4500 4666 
L 4409 4184 
L 794 531 
L 3769 531 
L 3669 0 
L -141 0 
L -50 481 
L 3566 4134 
L 738 4134 
L 838 4666 
z
" transform="scale(0.015625)"/>
      <path id="DejaVuSans-64" d="M 2906 2969 
L 2906 4863 
L 3481 4863 
L 3481 0 
L 2906 0 
L 2906 525 
Q 2725 213 2448 61 
Q 2172 -91 1784 -91 
Q 1150 -91 751 415 
Q 353 922 353 1747 
Q 353 2572 751 3078 
Q 1150 3584 1784 3584 
Q 2172 3584 2448 3432 
Q 2725 3281 2906 2969 
z
M 947 1747 
Q 947 1113 1208 752 
Q 1469 391 1925 391 
Q 2381 391 2643 752 
Q 2906 1113 2906 1747 
Q 2906 2381 2643 2742 
Q 2381 3103 1925 3103 
Q 1469 3103 1208 2742 
Q 947 2381 947 1747 
z
" transform="scale(0.015625)"/>
      <path id="DejaVuSans-74" d="M 1172 4494 
L 1172 3500 
L 2356 3500 
L 2356 3053 
L 1172 3053 
L 1172 1153 
Q 1172 725 1289 603 
Q 1406 481 1766 481 
L 2356 481 
L 2356 0 
L 1766 0 
Q 1100 0 847 248 
Q 594 497 594 1153 
L 594 3053 
L 172 3053 
L 172 3500 
L 594 3500 
L 594 4494 
L 1172 4494 
z
" transform="scale(0.015625)"/>
     </defs>
     <use xlink:href="#DejaVuSans-Oblique-5a" transform="translate(0 0.09375)"/>
     <use xlink:href="#DejaVuSans-64" transform="translate(68.505859 -16.3125) scale(0.7)"/>
     <use xlink:href="#DejaVuSans-61" transform="translate(112.939453 -16.3125) scale(0.7)"/>
     <use xlink:href="#DejaVuSans-74" transform="translate(155.834961 -16.3125) scale(0.7)"/>
     <use xlink:href="#DejaVuSans-61" transform="translate(183.28125 -16.3125) scale(0.7)"/>
    </g>
   </g>
   <g id="patch_2">
    <path d="M 10.17 15.3 
C 10.886048 15.3 11.572866 15.015511 12.079188 14.509188 
C 12.585511 14.002866 12.87 13.316048 12.87 12.6 
C 12.87 11.883952 12.585511 11.197134 12.079188 10.690812 
C 11.572866 10.184489 10.886048 9.9 10.17 9.9 
C 9.453952 9.9 8.767134 10.184489 8.260812 10.690812 
C 7.754489 11.197134 7.47 11.883952 7.47 12.6 
C 7.47 13.316048 7.754489 14.002866 8.260812 14.509188 
C 8.767134 15.015511 9.453952 15.3 10.17 15.3 
z
" clip-path="url(#p3fe3eefde8)" style="fill: #ffffff; stroke: #000000; stroke-width: 2; stroke-linejoin: miter"/>
   </g>
   <g id="patch_3">
    <path d="M 154.17 15.3 
C 154.886048 15.3 155.572866 15.015511 156.079188 14.509188 
C 156.585511 14.002866 156.87 13.316048 156.87 12.6 
C 156.87 11.883952 156.585511 11.197134 156.079188 10.690812 
C 155.572866 10.184489 154.886048 9.9 154.17 9.9 
C 153.453952 9.9 152.767134 10.184489 152.260812 10.690812 
C 151.754489 11.197134 151.47 11.883952 151.47 12.6 
C 151.47 13.316048 151.754489 14.002866 152.260812 14.509188 
C 152.767134 15.015511 153.453952 15.3 154.17 15.3 
z
" clip-path="url(#p3fe3eefde8)" style="fill: #ffffff; stroke: #000000; stroke-width: 2; stroke-linejoin: miter"/>
   </g>
  </g>
 </g>
 <defs>
  <clipPath id="p3fe3eefde8">
   <rect x="0" y="0" width="164.34" height="79.2"/>
  </clipPath>
 </defs>
</svg>
