<?xml version="1.0" encoding="utf-8" standalone="no"?>
<!DOCTYPE svg PUBLIC "-//W3C//DTD SVG 1.1//EN"
  "http://www.w3.org/Graphics/SVG/1.1/DTD/svg11.dtd">
<svg xmlns:xlink="http://www.w3.org/1999/xlink" width="460.8pt" height="345.6pt" viewBox="0 0 460.8 345.6" xmlns="http://www.w3.org/2000/svg" version="1.1">
 <metadata>
  <rdf:RDF xmlns:dc="http://purl.org/dc/elements/1.1/" xmlns:cc="http://creativecommons.org/ns#" xmlns:rdf="http://www.w3.org/1999/02/22-rdf-syntax-ns#">
   <cc:Work>
    <dc:type rdf:resource="http://purl.org/dc/dcmitype/StillImage"/>
    <dc:date>2025-03-02T11:35:38.725082</dc:date>
    <dc:format>image/svg+xml</dc:format>
    <dc:creator>
     <cc:Agent>
      <dc:title>Matplotlib v3.9.0, https://matplotlib.org/</dc:title>
     </cc:Agent>
    </dc:creator>
   </cc:Work>
  </rdf:RDF>
 </metadata>
 <defs>
  <style type="text/css">*{stroke-linejoin: round; stroke-linecap: butt}</style>
 </defs>
 <g id="figure_1">
  <g id="patch_1">
   <path d="M 0 345.6 
L 460.8 345.6 
L 460.8 0 
L 0 0 
L 0 345.6 
z
" style="fill: none"/>
  </g>
  <g id="axes_1">
   <g id="patch_2">
    <path d="M 57.6 307.584 
L 414.72 307.584 
L 414.72 41.472 
L 57.6 41.472 
L 57.6 307.584 
z
" style="fill: none"/>
   </g>
   <g id="PathCollection_1">
    <path d="M 73.832727 206.367079 
L 76.832727 200.367079 
L 70.832727 200.367079 
L 73.832727 206.367079 
z
" clip-path="url(#p5c73e60647)" style="fill: none; stroke: #cc3311"/>
    <path d="M 142.245189 149.713257 
L 145.245189 143.713257 
L 139.245189 143.713257 
L 142.245189 149.713257 
z
" clip-path="url(#p5c73e60647)" style="fill: none; stroke: #cc3311"/>
    <path d="M 229.442722 178.260038 
L 232.442722 172.260038 
L 226.442722 172.260038 
L 229.442722 178.260038 
z
" clip-path="url(#p5c73e60647)" style="fill: none; stroke: #cc3311"/>
    <path d="M 300.614575 162.638885 
L 303.614575 156.638885 
L 297.614575 156.638885 
L 300.614575 162.638885 
z
" clip-path="url(#p5c73e60647)" style="fill: none; stroke: #cc3311"/>
    <path d="M 397.388856 168.248578 
L 400.388856 162.248578 
L 394.388856 162.248578 
L 397.388856 168.248578 
z
" clip-path="url(#p5c73e60647)" style="fill: none; stroke: #cc3311"/>
   </g>
   <g id="PathCollection_2">
    <defs>
     <path id="C0_0_b524aaa636" d="M -0 4.242641 
L 4.242641 -0 
L 0 -4.242641 
L -4.242641 -0 
z
"/>
    </defs>
    <g clip-path="url(#p5c73e60647)">
     <use xlink:href="#C0_0_b524aaa636" x="73.905337" y="203.717872" style="fill: none; stroke: #000000"/>
    </g>
    <g clip-path="url(#p5c73e60647)">
     <use xlink:href="#C0_0_b524aaa636" x="76.345049" y="198.025621" style="fill: none; stroke: #000000"/>
    </g>
    <g clip-path="url(#p5c73e60647)">
     <use xlink:href="#C0_0_b524aaa636" x="78.534587" y="191.569637" style="fill: none; stroke: #000000"/>
    </g>
    <g clip-path="url(#p5c73e60647)">
     <use xlink:href="#C0_0_b524aaa636" x="83.757184" y="182.702867" style="fill: none; stroke: #000000"/>
    </g>
    <g clip-path="url(#p5c73e60647)">
     <use xlink:href="#C0_0_b524aaa636" x="91.433583" y="171.404793" style="fill: none; stroke: #000000"/>
    </g>
    <g clip-path="url(#p5c73e60647)">
     <use xlink:href="#C0_0_b524aaa636" x="103.293725" y="160.238753" style="fill: none; stroke: #000000"/>
    </g>
    <g clip-path="url(#p5c73e60647)">
     <use xlink:href="#C0_0_b524aaa636" x="121.723606" y="152.461001" style="fill: none; stroke: #000000"/>
    </g>
    <g clip-path="url(#p5c73e60647)">
     <use xlink:href="#C0_0_b524aaa636" x="140.614589" y="145.338128" style="fill: none; stroke: #000000"/>
    </g>
    <g clip-path="url(#p5c73e60647)">
     <use xlink:href="#C0_0_b524aaa636" x="164.0203" y="147.87345" style="fill: none; stroke: #000000"/>
    </g>
    <g clip-path="url(#p5c73e60647)">
     <use xlink:href="#C0_0_b524aaa636" x="180.597111" y="154.059327" style="fill: none; stroke: #000000"/>
    </g>
    <g clip-path="url(#p5c73e60647)">
     <use xlink:href="#C0_0_b524aaa636" x="196.728944" y="161.95621" style="fill: none; stroke: #000000"/>
    </g>
    <g clip-path="url(#p5c73e60647)">
     <use xlink:href="#C0_0_b524aaa636" x="205.455268" y="168.92793" style="fill: none; stroke: #000000"/>
    </g>
    <g clip-path="url(#p5c73e60647)">
     <use xlink:href="#C0_0_b524aaa636" x="214.519407" y="171.854646" style="fill: none; stroke: #000000"/>
    </g>
    <g clip-path="url(#p5c73e60647)">
     <use xlink:href="#C0_0_b524aaa636" x="222.003764" y="172.451536" style="fill: none; stroke: #000000"/>
    </g>
    <g clip-path="url(#p5c73e60647)">
     <use xlink:href="#C0_0_b524aaa636" x="229.804573" y="174.580284" style="fill: none; stroke: #000000"/>
    </g>
    <g clip-path="url(#p5c73e60647)">
     <use xlink:href="#C0_0_b524aaa636" x="239.195087" y="173.296223" style="fill: none; stroke: #000000"/>
    </g>
    <g clip-path="url(#p5c73e60647)">
     <use xlink:href="#C0_0_b524aaa636" x="246.970005" y="171.72442" style="fill: none; stroke: #000000"/>
    </g>
    <g clip-path="url(#p5c73e60647)">
     <use xlink:href="#C0_0_b524aaa636" x="255.5754" y="170.138887" style="fill: none; stroke: #000000"/>
    </g>
    <g clip-path="url(#p5c73e60647)">
     <use xlink:href="#C0_0_b524aaa636" x="262.73933" y="168.272214" style="fill: none; stroke: #000000"/>
    </g>
    <g clip-path="url(#p5c73e60647)">
     <use xlink:href="#C0_0_b524aaa636" x="272.806845" y="165.447698" style="fill: none; stroke: #000000"/>
    </g>
    <g clip-path="url(#p5c73e60647)">
     <use xlink:href="#C0_0_b524aaa636" x="285.42495" y="160.343049" style="fill: none; stroke: #000000"/>
    </g>
    <g clip-path="url(#p5c73e60647)">
     <use xlink:href="#C0_0_b524aaa636" x="298.137924" y="159.199666" style="fill: none; stroke: #000000"/>
    </g>
    <g clip-path="url(#p5c73e60647)">
     <use xlink:href="#C0_0_b524aaa636" x="314.88635" y="160.742642" style="fill: none; stroke: #000000"/>
    </g>
    <g clip-path="url(#p5c73e60647)">
     <use xlink:href="#C0_0_b524aaa636" x="330.903426" y="157.448061" style="fill: none; stroke: #000000"/>
    </g>
    <g clip-path="url(#p5c73e60647)">
     <use xlink:href="#C0_0_b524aaa636" x="345.295488" y="154.35055" style="fill: none; stroke: #000000"/>
    </g>
    <g clip-path="url(#p5c73e60647)">
     <use xlink:href="#C0_0_b524aaa636" x="356.798997" y="159.519278" style="fill: none; stroke: #000000"/>
    </g>
    <g clip-path="url(#p5c73e60647)">
     <use xlink:href="#C0_0_b524aaa636" x="370.522816" y="161.679633" style="fill: none; stroke: #000000"/>
    </g>
    <g clip-path="url(#p5c73e60647)">
     <use xlink:href="#C0_0_b524aaa636" x="388.12321" y="164.263142" style="fill: none; stroke: #000000"/>
    </g>
    <g clip-path="url(#p5c73e60647)">
     <use xlink:href="#C0_0_b524aaa636" x="397.68104" y="168.061558" style="fill: none; stroke: #000000"/>
    </g>
   </g>
   <g id="matplotlib.axis_1">
    <g id="xtick_1">
     <g id="line2d_1">
      <defs>
       <path id="m5c81c1424f" d="M 0 0 
L 0 3.5 
" style="stroke: #000000; stroke-width: 0.8"/>
      </defs>
      <g>
       <use xlink:href="#m5c81c1424f" x="68.584508" y="307.584" style="stroke: #000000; stroke-width: 0.8"/>
      </g>
     </g>
     <g id="text_1">
      <!-- 100 -->
      <g transform="translate(59.040758 322.182437) scale(0.1 -0.1)">
       <defs>
        <path id="DejaVuSans-31" d="M 794 531 
L 1825 531 
L 1825 4091 
L 703 3866 
L 703 4441 
L 1819 4666 
L 2450 4666 
L 2450 531 
L 3481 531 
L 3481 0 
L 794 0 
L 794 531 
z
" transform="scale(0.015625)"/>
        <path id="DejaVuSans-30" d="M 2034 4250 
Q 1547 4250 1301 3770 
Q 1056 3291 1056 2328 
Q 1056 1369 1301 889 
Q 1547 409 2034 409 
Q 2525 409 2770 889 
Q 3016 1369 3016 2328 
Q 3016 3291 2770 3770 
Q 2525 4250 2034 4250 
z
M 2034 4750 
Q 2819 4750 3233 4129 
Q 3647 3509 3647 2328 
Q 3647 1150 3233 529 
Q 2819 -91 2034 -91 
Q 1250 -91 836 529 
Q 422 1150 422 2328 
Q 422 3509 836 4129 
Q 1250 4750 2034 4750 
z
" transform="scale(0.015625)"/>
       </defs>
       <use xlink:href="#DejaVuSans-31"/>
       <use xlink:href="#DejaVuSans-30" x="63.623047"/>
       <use xlink:href="#DejaVuSans-30" x="127.246094"/>
      </g>
     </g>
    </g>
    <g id="xtick_2">
     <g id="line2d_2">
      <g>
       <use xlink:href="#m5c81c1424f" x="128.990327" y="307.584" style="stroke: #000000; stroke-width: 0.8"/>
      </g>
     </g>
     <g id="text_2">
      <!-- 200 -->
      <g transform="translate(119.446577 322.182437) scale(0.1 -0.1)">
       <defs>
        <path id="DejaVuSans-32" d="M 1228 531 
L 3431 531 
L 3431 0 
L 469 0 
L 469 531 
Q 828 903 1448 1529 
Q 2069 2156 2228 2338 
Q 2531 2678 2651 2914 
Q 2772 3150 2772 3378 
Q 2772 3750 2511 3984 
Q 2250 4219 1831 4219 
Q 1534 4219 1204 4116 
Q 875 4013 500 3803 
L 500 4441 
Q 881 4594 1212 4672 
Q 1544 4750 1819 4750 
Q 2544 4750 2975 4387 
Q 3406 4025 3406 3419 
Q 3406 3131 3298 2873 
Q 3191 2616 2906 2266 
Q 2828 2175 2409 1742 
Q 1991 1309 1228 531 
z
" transform="scale(0.015625)"/>
       </defs>
       <use xlink:href="#DejaVuSans-32"/>
       <use xlink:href="#DejaVuSans-30" x="63.623047"/>
       <use xlink:href="#DejaVuSans-30" x="127.246094"/>
      </g>
     </g>
    </g>
    <g id="xtick_3">
     <g id="line2d_3">
      <g>
       <use xlink:href="#m5c81c1424f" x="189.396146" y="307.584" style="stroke: #000000; stroke-width: 0.8"/>
      </g>
     </g>
     <g id="text_3">
      <!-- 300 -->
      <g transform="translate(179.852396 322.182437) scale(0.1 -0.1)">
       <defs>
        <path id="DejaVuSans-33" d="M 2597 2516 
Q 3050 2419 3304 2112 
Q 3559 1806 3559 1356 
Q 3559 666 3084 287 
Q 2609 -91 1734 -91 
Q 1441 -91 1130 -33 
Q 819 25 488 141 
L 488 750 
Q 750 597 1062 519 
Q 1375 441 1716 441 
Q 2309 441 2620 675 
Q 2931 909 2931 1356 
Q 2931 1769 2642 2001 
Q 2353 2234 1838 2234 
L 1294 2234 
L 1294 2753 
L 1863 2753 
Q 2328 2753 2575 2939 
Q 2822 3125 2822 3475 
Q 2822 3834 2567 4026 
Q 2313 4219 1838 4219 
Q 1578 4219 1281 4162 
Q 984 4106 628 3988 
L 628 4550 
Q 988 4650 1302 4700 
Q 1616 4750 1894 4750 
Q 2613 4750 3031 4423 
Q 3450 4097 3450 3541 
Q 3450 3153 3228 2886 
Q 3006 2619 2597 2516 
z
" transform="scale(0.015625)"/>
       </defs>
       <use xlink:href="#DejaVuSans-33"/>
       <use xlink:href="#DejaVuSans-30" x="63.623047"/>
       <use xlink:href="#DejaVuSans-30" x="127.246094"/>
      </g>
     </g>
    </g>
    <g id="xtick_4">
     <g id="line2d_4">
      <g>
       <use xlink:href="#m5c81c1424f" x="249.801966" y="307.584" style="stroke: #000000; stroke-width: 0.8"/>
      </g>
     </g>
     <g id="text_4">
      <!-- 400 -->
      <g transform="translate(240.258216 322.182437) scale(0.1 -0.1)">
       <defs>
        <path id="DejaVuSans-34" d="M 2419 4116 
L 825 1625 
L 2419 1625 
L 2419 4116 
z
M 2253 4666 
L 3047 4666 
L 3047 1625 
L 3713 1625 
L 3713 1100 
L 3047 1100 
L 3047 0 
L 2419 0 
L 2419 1100 
L 313 1100 
L 313 1709 
L 2253 4666 
z
" transform="scale(0.015625)"/>
       </defs>
       <use xlink:href="#DejaVuSans-34"/>
       <use xlink:href="#DejaVuSans-30" x="63.623047"/>
       <use xlink:href="#DejaVuSans-30" x="127.246094"/>
      </g>
     </g>
    </g>
    <g id="xtick_5">
     <g id="line2d_5">
      <g>
       <use xlink:href="#m5c81c1424f" x="310.207785" y="307.584" style="stroke: #000000; stroke-width: 0.8"/>
      </g>
     </g>
     <g id="text_5">
      <!-- 500 -->
      <g transform="translate(300.664035 322.182437) scale(0.1 -0.1)">
       <defs>
        <path id="DejaVuSans-35" d="M 691 4666 
L 3169 4666 
L 3169 4134 
L 1269 4134 
L 1269 2991 
Q 1406 3038 1543 3061 
Q 1681 3084 1819 3084 
Q 2600 3084 3056 2656 
Q 3513 2228 3513 1497 
Q 3513 744 3044 326 
Q 2575 -91 1722 -91 
Q 1428 -91 1123 -41 
Q 819 9 494 109 
L 494 744 
Q 775 591 1075 516 
Q 1375 441 1709 441 
Q 2250 441 2565 725 
Q 2881 1009 2881 1497 
Q 2881 1984 2565 2268 
Q 2250 2553 1709 2553 
Q 1456 2553 1204 2497 
Q 953 2441 691 2322 
L 691 4666 
z
" transform="scale(0.015625)"/>
       </defs>
       <use xlink:href="#DejaVuSans-35"/>
       <use xlink:href="#DejaVuSans-30" x="63.623047"/>
       <use xlink:href="#DejaVuSans-30" x="127.246094"/>
      </g>
     </g>
    </g>
    <g id="xtick_6">
     <g id="line2d_6">
      <g>
       <use xlink:href="#m5c81c1424f" x="370.613604" y="307.584" style="stroke: #000000; stroke-width: 0.8"/>
      </g>
     </g>
     <g id="text_6">
      <!-- 600 -->
      <g transform="translate(361.069854 322.182437) scale(0.1 -0.1)">
       <defs>
        <path id="DejaVuSans-36" d="M 2113 2584 
Q 1688 2584 1439 2293 
Q 1191 2003 1191 1497 
Q 1191 994 1439 701 
Q 1688 409 2113 409 
Q 2538 409 2786 701 
Q 3034 994 3034 1497 
Q 3034 2003 2786 2293 
Q 2538 2584 2113 2584 
z
M 3366 4563 
L 3366 3988 
Q 3128 4100 2886 4159 
Q 2644 4219 2406 4219 
Q 1781 4219 1451 3797 
Q 1122 3375 1075 2522 
Q 1259 2794 1537 2939 
Q 1816 3084 2150 3084 
Q 2853 3084 3261 2657 
Q 3669 2231 3669 1497 
Q 3669 778 3244 343 
Q 2819 -91 2113 -91 
Q 1303 -91 875 529 
Q 447 1150 447 2328 
Q 447 3434 972 4092 
Q 1497 4750 2381 4750 
Q 2619 4750 2861 4703 
Q 3103 4656 3366 4563 
z
" transform="scale(0.015625)"/>
       </defs>
       <use xlink:href="#DejaVuSans-36"/>
       <use xlink:href="#DejaVuSans-30" x="63.623047"/>
       <use xlink:href="#DejaVuSans-30" x="127.246094"/>
      </g>
     </g>
    </g>
    <g id="text_7">
     <!-- ${\rm Re}(Z)\ (\Omega)$ -->
     <g transform="translate(212.91 335.860562) scale(0.1 -0.1)">
      <defs>
       <path id="DejaVuSans-52" d="M 2841 2188 
Q 3044 2119 3236 1894 
Q 3428 1669 3622 1275 
L 4263 0 
L 3584 0 
L 2988 1197 
Q 2756 1666 2539 1819 
Q 2322 1972 1947 1972 
L 1259 1972 
L 1259 0 
L 628 0 
L 628 4666 
L 2053 4666 
Q 2853 4666 3247 4331 
Q 3641 3997 3641 3322 
Q 3641 2881 3436 2590 
Q 3231 2300 2841 2188 
z
M 1259 4147 
L 1259 2491 
L 2053 2491 
Q 2509 2491 2742 2702 
Q 2975 2913 2975 3322 
Q 2975 3731 2742 3939 
Q 2509 4147 2053 4147 
L 1259 4147 
z
" transform="scale(0.015625)"/>
       <path id="DejaVuSans-65" d="M 3597 1894 
L 3597 1613 
L 953 1613 
Q 991 1019 1311 708 
Q 1631 397 2203 397 
Q 2534 397 2845 478 
Q 3156 559 3463 722 
L 3463 178 
Q 3153 47 2828 -22 
Q 2503 -91 2169 -91 
Q 1331 -91 842 396 
Q 353 884 353 1716 
Q 353 2575 817 3079 
Q 1281 3584 2069 3584 
Q 2775 3584 3186 3129 
Q 3597 2675 3597 1894 
z
M 3022 2063 
Q 3016 2534 2758 2815 
Q 2500 3097 2075 3097 
Q 1594 3097 1305 2825 
Q 1016 2553 972 2059 
L 3022 2063 
z
" transform="scale(0.015625)"/>
       <path id="DejaVuSans-28" d="M 1984 4856 
Q 1566 4138 1362 3434 
Q 1159 2731 1159 2009 
Q 1159 1288 1364 580 
Q 1569 -128 1984 -844 
L 1484 -844 
Q 1016 -109 783 600 
Q 550 1309 550 2009 
Q 550 2706 781 3412 
Q 1013 4119 1484 4856 
L 1984 4856 
z
" transform="scale(0.015625)"/>
       <path id="DejaVuSans-Oblique-5a" d="M 838 4666 
L 4500 4666 
L 4409 4184 
L 794 531 
L 3769 531 
L 3669 0 
L -141 0 
L -50 481 
L 3566 4134 
L 738 4134 
L 838 4666 
z
" transform="scale(0.015625)"/>
       <path id="DejaVuSans-29" d="M 513 4856 
L 1013 4856 
Q 1481 4119 1714 3412 
Q 1947 2706 1947 2009 
Q 1947 1309 1714 600 
Q 1481 -109 1013 -844 
L 513 -844 
Q 928 -128 1133 580 
Q 1338 1288 1338 2009 
Q 1338 2731 1133 3434 
Q 928 4138 513 4856 
z
" transform="scale(0.015625)"/>
       <path id="DejaVuSans-3a9" d="M 4647 556 
L 4647 0 
L 2772 0 
L 2772 556 
Q 3325 859 3634 1378 
Q 3944 1897 3944 2528 
Q 3944 3278 3531 3731 
Q 3119 4184 2444 4184 
Q 1769 4184 1355 3729 
Q 941 3275 941 2528 
Q 941 1897 1250 1378 
Q 1563 859 2119 556 
L 2119 0 
L 244 0 
L 244 556 
L 1241 556 
Q 747 991 519 1456 
Q 294 1922 294 2497 
Q 294 3491 894 4106 
Q 1491 4722 2444 4722 
Q 3391 4722 3994 4106 
Q 4594 3494 4594 2528 
Q 4594 1922 4372 1459 
Q 4150 997 3647 556 
L 4647 556 
z
" transform="scale(0.015625)"/>
      </defs>
      <use xlink:href="#DejaVuSans-52" transform="translate(0 0.125)"/>
      <use xlink:href="#DejaVuSans-65" transform="translate(69.482422 0.125)"/>
      <use xlink:href="#DejaVuSans-28" transform="translate(131.005859 0.125)"/>
      <use xlink:href="#DejaVuSans-Oblique-5a" transform="translate(170.019531 0.125)"/>
      <use xlink:href="#DejaVuSans-29" transform="translate(238.525391 0.125)"/>
      <use xlink:href="#DejaVuSans-28" transform="translate(310.009441 0.125)"/>
      <use xlink:href="#DejaVuSans-3a9" transform="translate(349.023113 0.125)"/>
      <use xlink:href="#DejaVuSans-29" transform="translate(425.439128 0.125)"/>
     </g>
    </g>
   </g>
   <g id="matplotlib.axis_2">
    <g id="ytick_1">
     <g id="line2d_7">
      <defs>
       <path id="m499811d507" d="M 0 0 
L -3.5 0 
" style="stroke: #000000; stroke-width: 0.8"/>
      </defs>
      <g>
       <use xlink:href="#m499811d507" x="57.6" y="279.891236" style="stroke: #000000; stroke-width: 0.8"/>
      </g>
     </g>
     <g id="text_8">
      <!-- −100 -->
      <g transform="translate(23.132812 283.690454) scale(0.1 -0.1)">
       <defs>
        <path id="DejaVuSans-2212" d="M 678 2272 
L 4684 2272 
L 4684 1741 
L 678 1741 
L 678 2272 
z
" transform="scale(0.015625)"/>
       </defs>
       <use xlink:href="#DejaVuSans-2212"/>
       <use xlink:href="#DejaVuSans-31" x="83.789062"/>
       <use xlink:href="#DejaVuSans-30" x="147.412109"/>
       <use xlink:href="#DejaVuSans-30" x="211.035156"/>
      </g>
     </g>
    </g>
    <g id="ytick_2">
     <g id="line2d_8">
      <g>
       <use xlink:href="#m499811d507" x="57.6" y="249.688326" style="stroke: #000000; stroke-width: 0.8"/>
      </g>
     </g>
     <g id="text_9">
      <!-- −50 -->
      <g transform="translate(29.495313 253.487545) scale(0.1 -0.1)">
       <use xlink:href="#DejaVuSans-2212"/>
       <use xlink:href="#DejaVuSans-35" x="83.789062"/>
       <use xlink:href="#DejaVuSans-30" x="147.412109"/>
      </g>
     </g>
    </g>
    <g id="ytick_3">
     <g id="line2d_9">
      <g>
       <use xlink:href="#m499811d507" x="57.6" y="219.485416" style="stroke: #000000; stroke-width: 0.8"/>
      </g>
     </g>
     <g id="text_10">
      <!-- 0 -->
      <g transform="translate(44.2375 223.284635) scale(0.1 -0.1)">
       <use xlink:href="#DejaVuSans-30"/>
      </g>
     </g>
    </g>
    <g id="ytick_4">
     <g id="line2d_10">
      <g>
       <use xlink:href="#m499811d507" x="57.6" y="189.282507" style="stroke: #000000; stroke-width: 0.8"/>
      </g>
     </g>
     <g id="text_11">
      <!-- 50 -->
      <g transform="translate(37.875 193.081725) scale(0.1 -0.1)">
       <use xlink:href="#DejaVuSans-35"/>
       <use xlink:href="#DejaVuSans-30" x="63.623047"/>
      </g>
     </g>
    </g>
    <g id="ytick_5">
     <g id="line2d_11">
      <g>
       <use xlink:href="#m499811d507" x="57.6" y="159.079597" style="stroke: #000000; stroke-width: 0.8"/>
      </g>
     </g>
     <g id="text_12">
      <!-- 100 -->
      <g transform="translate(31.5125 162.878816) scale(0.1 -0.1)">
       <use xlink:href="#DejaVuSans-31"/>
       <use xlink:href="#DejaVuSans-30" x="63.623047"/>
       <use xlink:href="#DejaVuSans-30" x="127.246094"/>
      </g>
     </g>
    </g>
    <g id="ytick_6">
     <g id="line2d_12">
      <g>
       <use xlink:href="#m499811d507" x="57.6" y="128.876687" style="stroke: #000000; stroke-width: 0.8"/>
      </g>
     </g>
     <g id="text_13">
      <!-- 150 -->
      <g transform="translate(31.5125 132.675906) scale(0.1 -0.1)">
       <use xlink:href="#DejaVuSans-31"/>
       <use xlink:href="#DejaVuSans-35" x="63.623047"/>
       <use xlink:href="#DejaVuSans-30" x="127.246094"/>
      </g>
     </g>
    </g>
    <g id="ytick_7">
     <g id="line2d_13">
      <g>
       <use xlink:href="#m499811d507" x="57.6" y="98.673778" style="stroke: #000000; stroke-width: 0.8"/>
      </g>
     </g>
     <g id="text_14">
      <!-- 200 -->
      <g transform="translate(31.5125 102.472996) scale(0.1 -0.1)">
       <use xlink:href="#DejaVuSans-32"/>
       <use xlink:href="#DejaVuSans-30" x="63.623047"/>
       <use xlink:href="#DejaVuSans-30" x="127.246094"/>
      </g>
     </g>
    </g>
    <g id="ytick_8">
     <g id="line2d_14">
      <g>
       <use xlink:href="#m499811d507" x="57.6" y="68.470868" style="stroke: #000000; stroke-width: 0.8"/>
      </g>
     </g>
     <g id="text_15">
      <!-- 250 -->
      <g transform="translate(31.5125 72.270087) scale(0.1 -0.1)">
       <use xlink:href="#DejaVuSans-32"/>
       <use xlink:href="#DejaVuSans-35" x="63.623047"/>
       <use xlink:href="#DejaVuSans-30" x="127.246094"/>
      </g>
     </g>
    </g>
    <g id="text_16">
     <!-- $-{\rm Im}(Z)\ (\Omega)$ -->
     <g transform="translate(17.053125 201.578) rotate(-90) scale(0.1 -0.1)">
      <defs>
       <path id="DejaVuSans-49" d="M 628 4666 
L 1259 4666 
L 1259 0 
L 628 0 
L 628 4666 
z
" transform="scale(0.015625)"/>
       <path id="DejaVuSans-6d" d="M 3328 2828 
Q 3544 3216 3844 3400 
Q 4144 3584 4550 3584 
Q 5097 3584 5394 3201 
Q 5691 2819 5691 2113 
L 5691 0 
L 5113 0 
L 5113 2094 
Q 5113 2597 4934 2840 
Q 4756 3084 4391 3084 
Q 3944 3084 3684 2787 
Q 3425 2491 3425 1978 
L 3425 0 
L 2847 0 
L 2847 2094 
Q 2847 2600 2669 2842 
Q 2491 3084 2119 3084 
Q 1678 3084 1418 2786 
Q 1159 2488 1159 1978 
L 1159 0 
L 581 0 
L 581 3500 
L 1159 3500 
L 1159 2956 
Q 1356 3278 1631 3431 
Q 1906 3584 2284 3584 
Q 2666 3584 2933 3390 
Q 3200 3197 3328 2828 
z
" transform="scale(0.015625)"/>
      </defs>
      <use xlink:href="#DejaVuSans-2212" transform="translate(0 0.125)"/>
      <use xlink:href="#DejaVuSans-49" transform="translate(83.789062 0.125)"/>
      <use xlink:href="#DejaVuSans-6d" transform="translate(109.65625 0.125)"/>
      <use xlink:href="#DejaVuSans-28" transform="translate(207.068359 0.125)"/>
      <use xlink:href="#DejaVuSans-Oblique-5a" transform="translate(246.082031 0.125)"/>
      <use xlink:href="#DejaVuSans-29" transform="translate(314.587891 0.125)"/>
      <use xlink:href="#DejaVuSans-28" transform="translate(386.071941 0.125)"/>
      <use xlink:href="#DejaVuSans-3a9" transform="translate(425.085613 0.125)"/>
      <use xlink:href="#DejaVuSans-29" transform="translate(501.501628 0.125)"/>
     </g>
    </g>
   </g>
   <g id="line2d_15">
    <path d="M 73.832727 203.367079 
L 75.332815 199.078604 
L 77.105483 194.661374 
L 79.023074 190.499381 
L 80.852722 186.987844 
L 83.107541 183.140306 
L 85.882017 178.974997 
L 88.071585 176.042301 
L 90.57035 173.009009 
L 93.40959 169.904563 
L 96.617957 166.767155 
L 100.219087 163.644096 
L 104.228817 160.59151 
L 108.652192 157.673121 
L 113.480576 154.957952 
L 118.689313 152.516875 
L 121.42388 151.420694 
L 124.236429 150.418158 
L 127.11904 149.516556 
L 130.062828 148.722369 
L 133.058059 148.041121 
L 136.094274 147.477246 
L 139.160453 147.033975 
L 142.245189 146.713257 
L 145.336882 146.515705 
L 148.42393 146.44058 
L 151.494938 146.485809 
L 154.538896 146.648033 
L 160.504639 147.304147 
L 166.247143 148.360191 
L 171.707616 149.754614 
L 176.844479 151.418185 
L 181.633565 153.27909 
L 186.066812 155.267394 
L 190.149928 157.318496 
L 195.656633 160.390712 
L 201.986763 164.250241 
L 209.833173 169.086619 
L 213.245141 170.978273 
L 216.441047 172.503896 
L 219.498502 173.672404 
L 222.482496 174.502142 
L 225.446668 175.016993 
L 228.434909 175.243698 
L 231.482964 175.210103 
L 234.619882 174.944085 
L 237.869238 174.472946 
L 242.409069 173.571232 
L 248.464836 172.088337 
L 259.139059 169.152111 
L 271.10239 165.890862 
L 279.233506 163.863978 
L 287.841734 161.954962 
L 295.045146 160.569348 
L 302.500128 159.352503 
L 310.172334 158.339693 
L 318.021819 157.561233 
L 326.003886 157.041694 
L 334.070171 156.799235 
L 342.169915 156.845128 
L 350.251372 157.18353 
L 358.263267 157.811547 
L 366.156215 158.719581 
L 373.884024 159.891958 
L 381.404809 161.307781 
L 388.68186 162.94195 
L 395.684231 164.766284 
L 397.388856 165.248578 
L 397.388856 165.248578 
" clip-path="url(#p5c73e60647)" style="fill: none; stroke: #cc3311; stroke-width: 1.5; stroke-linecap: square"/>
   </g>
   <g id="line2d_16">
    <path d="M 74.040212 203.404566 
L 76.821343 195.84907 
L 78.500574 191.833731 
L 80.133572 188.388813 
L 82.194849 184.57586 
L 83.858211 181.843933 
L 85.788771 178.978501 
L 88.015959 176.002041 
L 90.566969 172.943012 
L 93.465721 169.835818 
L 96.731728 166.720659 
L 100.378863 163.643192 
L 104.41404 160.653949 
L 108.83586 157.807432 
L 113.633319 155.160843 
L 118.784648 152.77242 
L 124.256401 150.699384 
L 127.098642 149.798142 
L 130.002885 148.995476 
L 132.96149 148.297091 
L 135.966076 147.708095 
L 139.007565 147.232891 
L 142.076231 146.875071 
L 145.161778 146.637304 
L 148.253438 146.52123 
L 151.340084 146.527369 
L 154.410371 146.655036 
L 157.452892 146.902279 
L 160.456354 147.265838 
L 163.409764 147.741134 
L 169.125136 149.002185 
L 174.524472 150.624079 
L 179.550005 152.529281 
L 184.165168 154.629501 
L 188.356934 156.83248 
L 192.135651 159.049239 
L 197.101681 162.231421 
L 205.162531 167.461345 
L 208.645117 169.382112 
L 211.972234 170.872535 
L 215.238956 171.998546 
L 218.496399 172.824837 
L 221.769789 173.400126 
L 225.076547 173.756798 
L 228.43652 173.920131 
L 233.036018 173.888962 
L 239.006663 173.584202 
L 247.579993 172.928404 
L 252.402794 172.381058 
L 255.955289 171.770185 
L 259.507973 170.897449 
L 263.164839 169.712334 
L 268.429285 167.667365 
L 275.997755 164.67192 
L 281.136297 162.895126 
L 286.665218 161.305488 
L 290.515557 160.396254 
L 296.445583 159.284805 
L 302.462578 158.459405 
L 308.492307 157.865416 
L 316.513071 157.324245 
L 324.551869 156.98822 
L 332.671642 156.869483 
L 338.818373 156.973127 
L 344.979281 157.281233 
L 351.102572 157.806299 
L 357.137909 158.532396 
L 365.000254 159.749906 
L 372.66329 161.178135 
L 380.193203 162.805853 
L 385.783927 164.20747 
L 391.312656 165.831116 
L 394.938358 167.066812 
L 398.487273 168.439807 
L 398.487273 168.439807 
" clip-path="url(#p5c73e60647)" style="fill: none; stroke: #33bbee; stroke-width: 1.5; stroke-linecap: square"/>
   </g>
   <g id="patch_3">
    <path d="M 57.6 307.584 
L 57.6 41.472 
" style="fill: none; stroke: #000000; stroke-width: 0.8; stroke-linejoin: miter; stroke-linecap: square"/>
   </g>
   <g id="patch_4">
    <path d="M 414.72 307.584 
L 414.72 41.472 
" style="fill: none; stroke: #000000; stroke-width: 0.8; stroke-linejoin: miter; stroke-linecap: square"/>
   </g>
   <g id="patch_5">
    <path d="M 57.6 307.584 
L 414.72 307.584 
" style="fill: none; stroke: #000000; stroke-width: 0.8; stroke-linejoin: miter; stroke-linecap: square"/>
   </g>
   <g id="patch_6">
    <path d="M 57.6 41.472 
L 414.72 41.472 
" style="fill: none; stroke: #000000; stroke-width: 0.8; stroke-linejoin: miter; stroke-linecap: square"/>
   </g>
   <g id="legend_1">
    <g id="patch_7">
     <path d="M 80.902813 93.506375 
L 407.72 93.506375 
Q 409.72 93.506375 409.72 91.506375 
L 409.72 48.472 
Q 409.72 46.472 407.72 46.472 
L 80.902813 46.472 
Q 78.902813 46.472 78.902813 48.472 
L 78.902813 91.506375 
Q 78.902813 93.506375 80.902813 93.506375 
z
" style="fill: #ffffff; opacity: 0.8; stroke: #cccccc; stroke-linejoin: miter"/>
    </g>
    <g id="PathCollection_3">
     <path d="M 92.902813 58.445438 
L 95.902813 52.445438 
L 89.902813 52.445438 
L 92.902813 58.445438 
z
" style="fill: none; stroke: #cc3311"/>
    </g>
    <g id="text_17">
     <!-- R(RC)(RW) (2022-03-21 07:24:08) -->
     <g transform="translate(110.902813 58.070438) scale(0.1 -0.1)">
      <defs>
       <path id="DejaVuSans-43" d="M 4122 4306 
L 4122 3641 
Q 3803 3938 3442 4084 
Q 3081 4231 2675 4231 
Q 1875 4231 1450 3742 
Q 1025 3253 1025 2328 
Q 1025 1406 1450 917 
Q 1875 428 2675 428 
Q 3081 428 3442 575 
Q 3803 722 4122 1019 
L 4122 359 
Q 3791 134 3420 21 
Q 3050 -91 2638 -91 
Q 1578 -91 968 557 
Q 359 1206 359 2328 
Q 359 3453 968 4101 
Q 1578 4750 2638 4750 
Q 3056 4750 3426 4639 
Q 3797 4528 4122 4306 
z
" transform="scale(0.015625)"/>
       <path id="DejaVuSans-57" d="M 213 4666 
L 850 4666 
L 1831 722 
L 2809 4666 
L 3519 4666 
L 4500 722 
L 5478 4666 
L 6119 4666 
L 4947 0 
L 4153 0 
L 3169 4050 
L 2175 0 
L 1381 0 
L 213 4666 
z
" transform="scale(0.015625)"/>
       <path id="DejaVuSans-20" transform="scale(0.015625)"/>
       <path id="DejaVuSans-2d" d="M 313 2009 
L 1997 2009 
L 1997 1497 
L 313 1497 
L 313 2009 
z
" transform="scale(0.015625)"/>
       <path id="DejaVuSans-37" d="M 525 4666 
L 3525 4666 
L 3525 4397 
L 1831 0 
L 1172 0 
L 2766 4134 
L 525 4134 
L 525 4666 
z
" transform="scale(0.015625)"/>
       <path id="DejaVuSans-3a" d="M 750 794 
L 1409 794 
L 1409 0 
L 750 0 
L 750 794 
z
M 750 3309 
L 1409 3309 
L 1409 2516 
L 750 2516 
L 750 3309 
z
" transform="scale(0.015625)"/>
       <path id="DejaVuSans-38" d="M 2034 2216 
Q 1584 2216 1326 1975 
Q 1069 1734 1069 1313 
Q 1069 891 1326 650 
Q 1584 409 2034 409 
Q 2484 409 2743 651 
Q 3003 894 3003 1313 
Q 3003 1734 2745 1975 
Q 2488 2216 2034 2216 
z
M 1403 2484 
Q 997 2584 770 2862 
Q 544 3141 544 3541 
Q 544 4100 942 4425 
Q 1341 4750 2034 4750 
Q 2731 4750 3128 4425 
Q 3525 4100 3525 3541 
Q 3525 3141 3298 2862 
Q 3072 2584 2669 2484 
Q 3125 2378 3379 2068 
Q 3634 1759 3634 1313 
Q 3634 634 3220 271 
Q 2806 -91 2034 -91 
Q 1263 -91 848 271 
Q 434 634 434 1313 
Q 434 1759 690 2068 
Q 947 2378 1403 2484 
z
M 1172 3481 
Q 1172 3119 1398 2916 
Q 1625 2713 2034 2713 
Q 2441 2713 2670 2916 
Q 2900 3119 2900 3481 
Q 2900 3844 2670 4047 
Q 2441 4250 2034 4250 
Q 1625 4250 1398 4047 
Q 1172 3844 1172 3481 
z
" transform="scale(0.015625)"/>
      </defs>
      <use xlink:href="#DejaVuSans-52"/>
      <use xlink:href="#DejaVuSans-28" x="69.482422"/>
      <use xlink:href="#DejaVuSans-52" x="108.496094"/>
      <use xlink:href="#DejaVuSans-43" x="172.978516"/>
      <use xlink:href="#DejaVuSans-29" x="242.802734"/>
      <use xlink:href="#DejaVuSans-28" x="281.816406"/>
      <use xlink:href="#DejaVuSans-52" x="320.830078"/>
      <use xlink:href="#DejaVuSans-57" x="386.3125"/>
      <use xlink:href="#DejaVuSans-29" x="485.189453"/>
      <use xlink:href="#DejaVuSans-20" x="524.203125"/>
      <use xlink:href="#DejaVuSans-28" x="555.990234"/>
      <use xlink:href="#DejaVuSans-32" x="595.003906"/>
      <use xlink:href="#DejaVuSans-30" x="658.626953"/>
      <use xlink:href="#DejaVuSans-32" x="722.25"/>
      <use xlink:href="#DejaVuSans-32" x="785.873047"/>
      <use xlink:href="#DejaVuSans-2d" x="849.496094"/>
      <use xlink:href="#DejaVuSans-30" x="885.580078"/>
      <use xlink:href="#DejaVuSans-33" x="949.203125"/>
      <use xlink:href="#DejaVuSans-2d" x="1012.826172"/>
      <use xlink:href="#DejaVuSans-32" x="1048.910156"/>
      <use xlink:href="#DejaVuSans-31" x="1112.533203"/>
      <use xlink:href="#DejaVuSans-20" x="1176.15625"/>
      <use xlink:href="#DejaVuSans-30" x="1207.943359"/>
      <use xlink:href="#DejaVuSans-37" x="1271.566406"/>
      <use xlink:href="#DejaVuSans-3a" x="1335.189453"/>
      <use xlink:href="#DejaVuSans-32" x="1368.880859"/>
      <use xlink:href="#DejaVuSans-34" x="1432.503906"/>
      <use xlink:href="#DejaVuSans-3a" x="1496.126953"/>
      <use xlink:href="#DejaVuSans-30" x="1529.818359"/>
      <use xlink:href="#DejaVuSans-38" x="1593.441406"/>
      <use xlink:href="#DejaVuSans-29" x="1657.064453"/>
     </g>
    </g>
    <g id="PathCollection_4">
     <path d="M 92.902813 74.366203 
L 97.145453 70.123563 
L 92.902813 65.880922 
L 88.660172 70.123563 
L 92.902813 74.366203 
z
" style="fill: none; stroke: #000000"/>
    </g>
    <g id="text_18">
     <!-- Noisy data -->
     <g transform="translate(110.902813 72.748563) scale(0.1 -0.1)">
      <defs>
       <path id="DejaVuSans-4e" d="M 628 4666 
L 1478 4666 
L 3547 763 
L 3547 4666 
L 4159 4666 
L 4159 0 
L 3309 0 
L 1241 3903 
L 1241 0 
L 628 0 
L 628 4666 
z
" transform="scale(0.015625)"/>
       <path id="DejaVuSans-6f" d="M 1959 3097 
Q 1497 3097 1228 2736 
Q 959 2375 959 1747 
Q 959 1119 1226 758 
Q 1494 397 1959 397 
Q 2419 397 2687 759 
Q 2956 1122 2956 1747 
Q 2956 2369 2687 2733 
Q 2419 3097 1959 3097 
z
M 1959 3584 
Q 2709 3584 3137 3096 
Q 3566 2609 3566 1747 
Q 3566 888 3137 398 
Q 2709 -91 1959 -91 
Q 1206 -91 779 398 
Q 353 888 353 1747 
Q 353 2609 779 3096 
Q 1206 3584 1959 3584 
z
" transform="scale(0.015625)"/>
       <path id="DejaVuSans-69" d="M 603 3500 
L 1178 3500 
L 1178 0 
L 603 0 
L 603 3500 
z
M 603 4863 
L 1178 4863 
L 1178 4134 
L 603 4134 
L 603 4863 
z
" transform="scale(0.015625)"/>
       <path id="DejaVuSans-73" d="M 2834 3397 
L 2834 2853 
Q 2591 2978 2328 3040 
Q 2066 3103 1784 3103 
Q 1356 3103 1142 2972 
Q 928 2841 928 2578 
Q 928 2378 1081 2264 
Q 1234 2150 1697 2047 
L 1894 2003 
Q 2506 1872 2764 1633 
Q 3022 1394 3022 966 
Q 3022 478 2636 193 
Q 2250 -91 1575 -91 
Q 1294 -91 989 -36 
Q 684 19 347 128 
L 347 722 
Q 666 556 975 473 
Q 1284 391 1588 391 
Q 1994 391 2212 530 
Q 2431 669 2431 922 
Q 2431 1156 2273 1281 
Q 2116 1406 1581 1522 
L 1381 1569 
Q 847 1681 609 1914 
Q 372 2147 372 2553 
Q 372 3047 722 3315 
Q 1072 3584 1716 3584 
Q 2034 3584 2315 3537 
Q 2597 3491 2834 3397 
z
" transform="scale(0.015625)"/>
       <path id="DejaVuSans-79" d="M 2059 -325 
Q 1816 -950 1584 -1140 
Q 1353 -1331 966 -1331 
L 506 -1331 
L 506 -850 
L 844 -850 
Q 1081 -850 1212 -737 
Q 1344 -625 1503 -206 
L 1606 56 
L 191 3500 
L 800 3500 
L 1894 763 
L 2988 3500 
L 3597 3500 
L 2059 -325 
z
" transform="scale(0.015625)"/>
       <path id="DejaVuSans-64" d="M 2906 2969 
L 2906 4863 
L 3481 4863 
L 3481 0 
L 2906 0 
L 2906 525 
Q 2725 213 2448 61 
Q 2172 -91 1784 -91 
Q 1150 -91 751 415 
Q 353 922 353 1747 
Q 353 2572 751 3078 
Q 1150 3584 1784 3584 
Q 2172 3584 2448 3432 
Q 2725 3281 2906 2969 
z
M 947 1747 
Q 947 1113 1208 752 
Q 1469 391 1925 391 
Q 2381 391 2643 752 
Q 2906 1113 2906 1747 
Q 2906 2381 2643 2742 
Q 2381 3103 1925 3103 
Q 1469 3103 1208 2742 
Q 947 2381 947 1747 
z
" transform="scale(0.015625)"/>
       <path id="DejaVuSans-61" d="M 2194 1759 
Q 1497 1759 1228 1600 
Q 959 1441 959 1056 
Q 959 750 1161 570 
Q 1363 391 1709 391 
Q 2188 391 2477 730 
Q 2766 1069 2766 1631 
L 2766 1759 
L 2194 1759 
z
M 3341 1997 
L 3341 0 
L 2766 0 
L 2766 531 
Q 2569 213 2275 61 
Q 1981 -91 1556 -91 
Q 1019 -91 701 211 
Q 384 513 384 1019 
Q 384 1609 779 1909 
Q 1175 2209 1959 2209 
L 2766 2209 
L 2766 2266 
Q 2766 2663 2505 2880 
Q 2244 3097 1772 3097 
Q 1472 3097 1187 3025 
Q 903 2953 641 2809 
L 641 3341 
Q 956 3463 1253 3523 
Q 1550 3584 1831 3584 
Q 2591 3584 2966 3190 
Q 3341 2797 3341 1997 
z
" transform="scale(0.015625)"/>
       <path id="DejaVuSans-74" d="M 1172 4494 
L 1172 3500 
L 2356 3500 
L 2356 3053 
L 1172 3053 
L 1172 1153 
Q 1172 725 1289 603 
Q 1406 481 1766 481 
L 2356 481 
L 2356 0 
L 1766 0 
Q 1100 0 847 248 
Q 594 497 594 1153 
L 594 3053 
L 172 3053 
L 172 3500 
L 594 3500 
L 594 4494 
L 1172 4494 
z
" transform="scale(0.015625)"/>
      </defs>
      <use xlink:href="#DejaVuSans-4e"/>
      <use xlink:href="#DejaVuSans-6f" x="74.804688"/>
      <use xlink:href="#DejaVuSans-69" x="135.986328"/>
      <use xlink:href="#DejaVuSans-73" x="163.769531"/>
      <use xlink:href="#DejaVuSans-79" x="215.869141"/>
      <use xlink:href="#DejaVuSans-20" x="275.048828"/>
      <use xlink:href="#DejaVuSans-64" x="306.835938"/>
      <use xlink:href="#DejaVuSans-61" x="370.3125"/>
      <use xlink:href="#DejaVuSans-74" x="431.591797"/>
      <use xlink:href="#DejaVuSans-61" x="470.800781"/>
     </g>
    </g>
    <g id="line2d_17">
     <path d="M 82.902813 83.926688 
L 92.902813 83.926688 
L 102.902813 83.926688 
" style="fill: none; stroke: #33bbee; stroke-width: 1.5; stroke-linecap: square"/>
    </g>
    <g id="text_19">
     <!-- #(RC)=15, C+L, Z, log Fext=-0.000 (2022-03-21 07:23:35) -->
     <g transform="translate(110.902813 87.426688) scale(0.1 -0.1)">
      <defs>
       <path id="DejaVuSans-23" d="M 3272 2816 
L 2363 2816 
L 2100 1772 
L 3016 1772 
L 3272 2816 
z
M 2803 4594 
L 2478 3297 
L 3391 3297 
L 3719 4594 
L 4219 4594 
L 3897 3297 
L 4872 3297 
L 4872 2816 
L 3775 2816 
L 3519 1772 
L 4513 1772 
L 4513 1294 
L 3397 1294 
L 3072 0 
L 2572 0 
L 2894 1294 
L 1978 1294 
L 1656 0 
L 1153 0 
L 1478 1294 
L 494 1294 
L 494 1772 
L 1594 1772 
L 1856 2816 
L 850 2816 
L 850 3297 
L 1978 3297 
L 2297 4594 
L 2803 4594 
z
" transform="scale(0.015625)"/>
       <path id="DejaVuSans-3d" d="M 678 2906 
L 4684 2906 
L 4684 2381 
L 678 2381 
L 678 2906 
z
M 678 1631 
L 4684 1631 
L 4684 1100 
L 678 1100 
L 678 1631 
z
" transform="scale(0.015625)"/>
       <path id="DejaVuSans-2c" d="M 750 794 
L 1409 794 
L 1409 256 
L 897 -744 
L 494 -744 
L 750 256 
L 750 794 
z
" transform="scale(0.015625)"/>
       <path id="DejaVuSans-2b" d="M 2944 4013 
L 2944 2272 
L 4684 2272 
L 4684 1741 
L 2944 1741 
L 2944 0 
L 2419 0 
L 2419 1741 
L 678 1741 
L 678 2272 
L 2419 2272 
L 2419 4013 
L 2944 4013 
z
" transform="scale(0.015625)"/>
       <path id="DejaVuSans-4c" d="M 628 4666 
L 1259 4666 
L 1259 531 
L 3531 531 
L 3531 0 
L 628 0 
L 628 4666 
z
" transform="scale(0.015625)"/>
       <path id="DejaVuSans-5a" d="M 359 4666 
L 4025 4666 
L 4025 4184 
L 1075 531 
L 4097 531 
L 4097 0 
L 288 0 
L 288 481 
L 3238 4134 
L 359 4134 
L 359 4666 
z
" transform="scale(0.015625)"/>
       <path id="DejaVuSans-6c" d="M 603 4863 
L 1178 4863 
L 1178 0 
L 603 0 
L 603 4863 
z
" transform="scale(0.015625)"/>
       <path id="DejaVuSans-67" d="M 2906 1791 
Q 2906 2416 2648 2759 
Q 2391 3103 1925 3103 
Q 1463 3103 1205 2759 
Q 947 2416 947 1791 
Q 947 1169 1205 825 
Q 1463 481 1925 481 
Q 2391 481 2648 825 
Q 2906 1169 2906 1791 
z
M 3481 434 
Q 3481 -459 3084 -895 
Q 2688 -1331 1869 -1331 
Q 1566 -1331 1297 -1286 
Q 1028 -1241 775 -1147 
L 775 -588 
Q 1028 -725 1275 -790 
Q 1522 -856 1778 -856 
Q 2344 -856 2625 -561 
Q 2906 -266 2906 331 
L 2906 616 
Q 2728 306 2450 153 
Q 2172 0 1784 0 
Q 1141 0 747 490 
Q 353 981 353 1791 
Q 353 2603 747 3093 
Q 1141 3584 1784 3584 
Q 2172 3584 2450 3431 
Q 2728 3278 2906 2969 
L 2906 3500 
L 3481 3500 
L 3481 434 
z
" transform="scale(0.015625)"/>
       <path id="DejaVuSans-46" d="M 628 4666 
L 3309 4666 
L 3309 4134 
L 1259 4134 
L 1259 2759 
L 3109 2759 
L 3109 2228 
L 1259 2228 
L 1259 0 
L 628 0 
L 628 4666 
z
" transform="scale(0.015625)"/>
       <path id="DejaVuSans-78" d="M 3513 3500 
L 2247 1797 
L 3578 0 
L 2900 0 
L 1881 1375 
L 863 0 
L 184 0 
L 1544 1831 
L 300 3500 
L 978 3500 
L 1906 2253 
L 2834 3500 
L 3513 3500 
z
" transform="scale(0.015625)"/>
       <path id="DejaVuSans-2e" d="M 684 794 
L 1344 794 
L 1344 0 
L 684 0 
L 684 794 
z
" transform="scale(0.015625)"/>
      </defs>
      <use xlink:href="#DejaVuSans-23"/>
      <use xlink:href="#DejaVuSans-28" x="83.789062"/>
      <use xlink:href="#DejaVuSans-52" x="122.802734"/>
      <use xlink:href="#DejaVuSans-43" x="187.285156"/>
      <use xlink:href="#DejaVuSans-29" x="257.109375"/>
      <use xlink:href="#DejaVuSans-3d" x="296.123047"/>
      <use xlink:href="#DejaVuSans-31" x="379.912109"/>
      <use xlink:href="#DejaVuSans-35" x="443.535156"/>
      <use xlink:href="#DejaVuSans-2c" x="507.158203"/>
      <use xlink:href="#DejaVuSans-20" x="538.945312"/>
      <use xlink:href="#DejaVuSans-43" x="570.732422"/>
      <use xlink:href="#DejaVuSans-2b" x="640.556641"/>
      <use xlink:href="#DejaVuSans-4c" x="724.345703"/>
      <use xlink:href="#DejaVuSans-2c" x="780.058594"/>
      <use xlink:href="#DejaVuSans-20" x="811.845703"/>
      <use xlink:href="#DejaVuSans-5a" x="843.632812"/>
      <use xlink:href="#DejaVuSans-2c" x="912.138672"/>
      <use xlink:href="#DejaVuSans-20" x="943.925781"/>
      <use xlink:href="#DejaVuSans-6c" x="975.712891"/>
      <use xlink:href="#DejaVuSans-6f" x="1003.496094"/>
      <use xlink:href="#DejaVuSans-67" x="1064.677734"/>
      <use xlink:href="#DejaVuSans-20" x="1128.154297"/>
      <use xlink:href="#DejaVuSans-46" x="1159.941406"/>
      <use xlink:href="#DejaVuSans-65" x="1211.960938"/>
      <use xlink:href="#DejaVuSans-78" x="1271.734375"/>
      <use xlink:href="#DejaVuSans-74" x="1330.914062"/>
      <use xlink:href="#DejaVuSans-3d" x="1370.123047"/>
      <use xlink:href="#DejaVuSans-2d" x="1453.912109"/>
      <use xlink:href="#DejaVuSans-30" x="1489.996094"/>
      <use xlink:href="#DejaVuSans-2e" x="1553.619141"/>
      <use xlink:href="#DejaVuSans-30" x="1585.40625"/>
      <use xlink:href="#DejaVuSans-30" x="1649.029297"/>
      <use xlink:href="#DejaVuSans-30" x="1712.652344"/>
      <use xlink:href="#DejaVuSans-20" x="1776.275391"/>
      <use xlink:href="#DejaVuSans-28" x="1808.0625"/>
      <use xlink:href="#DejaVuSans-32" x="1847.076172"/>
      <use xlink:href="#DejaVuSans-30" x="1910.699219"/>
      <use xlink:href="#DejaVuSans-32" x="1974.322266"/>
      <use xlink:href="#DejaVuSans-32" x="2037.945312"/>
      <use xlink:href="#DejaVuSans-2d" x="2101.568359"/>
      <use xlink:href="#DejaVuSans-30" x="2137.652344"/>
      <use xlink:href="#DejaVuSans-33" x="2201.275391"/>
      <use xlink:href="#DejaVuSans-2d" x="2264.898438"/>
      <use xlink:href="#DejaVuSans-32" x="2300.982422"/>
      <use xlink:href="#DejaVuSans-31" x="2364.605469"/>
      <use xlink:href="#DejaVuSans-20" x="2428.228516"/>
      <use xlink:href="#DejaVuSans-30" x="2460.015625"/>
      <use xlink:href="#DejaVuSans-37" x="2523.638672"/>
      <use xlink:href="#DejaVuSans-3a" x="2587.261719"/>
      <use xlink:href="#DejaVuSans-32" x="2620.953125"/>
      <use xlink:href="#DejaVuSans-33" x="2684.576172"/>
      <use xlink:href="#DejaVuSans-3a" x="2748.199219"/>
      <use xlink:href="#DejaVuSans-33" x="2781.890625"/>
      <use xlink:href="#DejaVuSans-35" x="2845.513672"/>
      <use xlink:href="#DejaVuSans-29" x="2909.136719"/>
     </g>
    </g>
   </g>
  </g>
  <g id="text_20">
   <!-- Noisy -->
   <g transform="translate(213.89625 16.030125) scale(0.12 -0.12)">
    <use xlink:href="#DejaVuSans-4e"/>
    <use xlink:href="#DejaVuSans-6f" x="74.804688"/>
    <use xlink:href="#DejaVuSans-69" x="135.986328"/>
    <use xlink:href="#DejaVuSans-73" x="163.769531"/>
    <use xlink:href="#DejaVuSans-79" x="215.869141"/>
   </g>
  </g>
 </g>
 <defs>
  <clipPath id="p5c73e60647">
   <rect x="57.6" y="41.472" width="357.12" height="266.112"/>
  </clipPath>
 </defs>
</svg>
